<?xml version="1.0" encoding="UTF-8" standalone="no"?>
<svg width="465px" height="360px" viewBox="0 0 465 360" version="1.1" xmlns="http://www.w3.org/2000/svg" xmlns:xlink="http://www.w3.org/1999/xlink" xmlns:sketch="http://www.bohemiancoding.com/sketch/ns">
    <!-- Generator: Sketch Beta 3.4.4 (17258) - http://www.bohemiancoding.com/sketch -->
    <title>Counter</title>
    <desc>Created with Sketch Beta.</desc>
    <defs></defs>
    <g id="Outline" stroke="none" stroke-width="1" fill="none" fill-rule="evenodd" sketch:type="MSPage">
        <g id="Counter" sketch:type="MSArtboardGroup">
            <g id="Group" sketch:type="MSLayerGroup">
                <g id="Tag" sketch:type="MSShapeGroup">
                    <rect id="Rectangle-1" fill="#BABABD" x="0" y="0" width="30" height="360"></rect>
                    <path d="M6.528,270.422 L6.528,271.283 C6.528,272.9 5.877,274.37 4.554,275.714 L3.966,275.126 C5.121,273.95 5.709,272.669 5.709,271.283 L5.709,270.422 C5.709,269.162 4.764,268.238 3.504,268.238 C2.349,268.238 1.614,268.91 1.299,270.233 C1.32,270.296 1.32,270.359 1.32,270.422 L1.299,273.446 L0.48,273.446 L0.48,272.921 L0.501,270.422 C0.501,270.338 0.501,270.254 0.48,270.191 C0.333,268.994 -0.507,268.238 -1.704,268.238 C-2.964,268.238 -3.909,269.162 -3.909,270.422 L-3.909,271.997 C-3.909,274.16 -2.565,276.26 -0.528,276.764 C2.223,277.457 4.302,279.158 5.73,281.825 L5.016,282.224 C3.294,278.99 0.732,277.373 -2.649,277.373 C-3.027,277.373 -3.531,277.415 -4.161,277.499 L-4.266,276.68 L-3.846,276.617 C-3.468,276.575 -3.069,276.554 -2.649,276.554 C-4.035,275.441 -4.728,273.908 -4.728,271.997 L-4.728,270.422 C-4.728,268.595 -3.531,267.419 -1.704,267.419 C-0.549,267.419 0.312,267.923 0.9,268.91 C1.488,267.923 2.349,267.419 3.504,267.419 C5.331,267.419 6.528,268.595 6.528,270.422 L6.528,270.422 Z M19.023,271.409 C19.023,272.648 18.498,274.034 17.448,275.567 L16.776,275.105 C17.721,273.698 18.204,272.48 18.204,271.409 C18.204,269.288 17.448,268.238 15.915,268.238 C14.97,268.238 14.319,268.658 13.941,269.519 L13.983,269.582 L13.92,269.603 L13.92,269.624 L13.899,273.11 L13.08,273.11 C13.101,272.963 13.101,272.774 13.101,272.543 L13.101,269.645 C12.618,268.7 11.946,268.238 11.085,268.238 C9.552,268.238 8.796,269.288 8.796,271.409 C8.796,272.459 9.279,273.698 10.224,275.105 L9.552,275.567 L9.321,275.231 C8.418,273.887 7.977,272.606 7.977,271.409 C7.977,269.099 8.796,267.335 10.413,266.096 C10.917,265.718 11.841,265.256 13.185,264.689 C15.39,263.744 16.419,262.778 16.419,260.657 L16.419,260.237 L17.238,260.237 L17.238,260.657 C17.238,263.03 15.768,264.878 13.437,265.445 C12.072,265.76 10.959,266.474 10.119,267.566 C10.413,267.461 10.728,267.419 11.085,267.419 C12.093,267.419 12.891,267.839 13.479,268.7 C14.088,267.839 14.886,267.419 15.915,267.419 C18.498,267.419 19.023,269.813 19.023,271.409 L19.023,271.409 Z M29.229,267.419 C28.452,267.419 27.822,267.713 27.318,268.322 C26.961,267.713 26.436,267.419 25.743,267.419 C24.735,267.419 23.937,268.217 23.916,269.225 C23.895,270.464 23.475,271.073 22.656,271.073 C21.879,271.073 21.291,270.317 21.291,269.54 C21.291,269.015 21.69,268.469 22.488,267.944 L22.026,267.251 C20.997,267.965 20.472,268.721 20.472,269.54 C20.472,270.863 21.375,271.892 22.656,271.892 C23.895,271.892 24.714,271.052 24.735,269.813 C24.756,268.763 25.092,268.238 25.743,268.238 C26.31,268.238 26.751,268.658 26.751,269.246 L26.751,269.876 C26.73,269.96 26.73,269.981 26.73,269.918 L26.73,272.921 L27.549,272.921 L27.57,270.464 L27.57,269.813 C27.57,268.868 28.284,268.238 29.229,268.238 C30.174,268.238 30.909,268.973 30.909,269.918 L30.909,277.982 C30.909,280.166 29.46,281.258 27.213,281.258 C26.688,281.258 26.184,281.195 25.722,281.048 C24.21,280.586 23.454,279.557 23.454,277.982 C23.454,276.953 23.958,276.008 24.966,275.189 L24.462,274.559 C23.244,275.546 22.635,276.701 22.635,277.982 C22.635,280.586 24.546,282.077 27.213,282.077 C29.88,282.077 31.728,280.586 31.728,277.982 L31.728,269.918 C31.728,268.427 30.72,267.419 29.229,267.419 L29.229,267.419 Z" id="აღმავალი" fill="#646466" transform="translate(13.836000, 271.230500) rotate(-90.000000) translate(-13.836000, -271.230500) "></path>
                    <path d="M-18.323,93.131 C-18.323,93.425 -18.68,93.803 -19.373,94.244 C-20.486,94.979 -21.725,95.336 -23.09,95.336 C-25.925,95.336 -27.857,93.467 -27.857,90.632 C-27.857,87.776 -25.883,85.802 -23.027,85.802 C-21.704,85.802 -20.612,86.201 -19.709,86.999 L-19.709,86.705 C-19.709,86.306 -19.562,86.117 -19.268,86.117 C-18.974,86.117 -18.827,86.306 -18.827,86.705 L-18.827,88.658 C-18.827,89.057 -18.974,89.246 -19.268,89.246 C-19.541,89.246 -19.688,89.078 -19.709,88.721 C-19.814,87.398 -21.578,86.684 -23.069,86.684 C-25.442,86.684 -26.975,88.259 -26.975,90.632 C-26.975,92.984 -25.4,94.475 -23.048,94.475 C-21.515,94.475 -20.192,93.95 -19.121,92.921 C-18.974,92.774 -18.848,92.711 -18.743,92.711 C-18.47,92.711 -18.323,92.858 -18.323,93.131 L-18.323,93.131 Z M-10.7,85.802 C-7.949,85.802 -5.891,87.839 -5.891,90.59 C-5.891,93.278 -7.991,95.336 -10.7,95.336 C-13.451,95.336 -15.509,93.341 -15.509,90.59 C-15.509,87.839 -13.409,85.802 -10.7,85.802 L-10.7,85.802 Z M-10.7,86.684 C-12.968,86.684 -14.648,88.322 -14.648,90.59 C-14.648,92.837 -12.947,94.475 -10.7,94.475 C-8.453,94.475 -6.752,92.837 -6.752,90.59 C-6.752,88.322 -8.453,86.684 -10.7,86.684 L-10.7,86.684 Z M7.003,94.559 C7.003,94.853 6.814,95 6.436,95 L4.84,95 L4.84,93.74 C3.664,94.811 2.404,95.336 1.039,95.336 C-0.62,95.336 -1.733,94.223 -1.733,92.543 L-1.733,86.999 L-2.888,86.999 C-3.287,86.999 -3.476,86.852 -3.476,86.558 C-3.476,86.264 -3.287,86.117 -2.888,86.117 L-0.872,86.117 L-0.872,92.543 C-0.872,93.698 -0.116,94.475 0.997,94.475 C2.404,94.475 3.685,93.824 4.84,92.543 L4.84,86.999 L3.265,86.999 C2.866,86.999 2.677,86.852 2.677,86.558 C2.677,86.264 2.866,86.117 3.265,86.117 L5.701,86.117 L5.701,94.139 L6.436,94.139 C6.814,94.139 7.003,94.286 7.003,94.559 L7.003,94.559 Z M19.582,94.559 C19.582,94.853 19.393,95 19.015,95 L16.705,95 C16.306,95 16.117,94.853 16.117,94.559 C16.117,94.286 16.306,94.139 16.705,94.139 L17.419,94.139 L17.419,88.868 C17.419,87.503 16.348,86.684 14.983,86.684 C13.576,86.684 12.946,87.293 11.707,88.742 L11.707,94.139 L12.694,94.139 C13.072,94.139 13.261,94.286 13.261,94.559 C13.261,94.853 13.072,95 12.694,95 L9.88,95 C9.502,95 9.313,94.853 9.313,94.559 C9.313,94.286 9.502,94.139 9.88,94.139 L10.846,94.139 L10.846,86.999 L10.132,86.999 C9.733,86.999 9.544,86.852 9.544,86.558 C9.544,86.264 9.733,86.117 10.132,86.117 L11.707,86.117 L11.707,87.419 C12.778,86.348 13.87,85.802 14.983,85.802 C16.243,85.802 17.188,86.285 17.818,87.251 C18.133,87.734 18.28,88.238 18.28,88.721 L18.28,94.139 L19.015,94.139 C19.393,94.139 19.582,94.286 19.582,94.559 L19.582,94.559 Z M31.909,93.929 C31.909,94.58 29.326,95.336 27.751,95.336 C25.903,95.336 24.454,94.475 24.454,92.732 L24.454,86.999 L22.879,86.999 C22.48,86.999 22.291,86.852 22.291,86.558 C22.291,86.264 22.48,86.117 22.879,86.117 L24.454,86.117 L24.454,83.576 C24.454,83.198 24.601,83.009 24.895,83.009 C25.189,83.009 25.336,83.198 25.336,83.576 L25.336,86.117 L29.998,86.117 C30.397,86.117 30.586,86.264 30.586,86.558 C30.586,86.852 30.397,86.999 29.998,86.999 L25.336,86.999 L25.336,92.732 C25.336,93.908 26.428,94.475 27.688,94.475 C28.759,94.475 30.334,94.118 31.153,93.635 C31.3,93.53 31.426,93.488 31.489,93.488 C31.762,93.488 31.909,93.635 31.909,93.929 L31.909,93.929 Z M44.383,93.593 C44.383,93.698 44.32,93.824 44.215,93.929 C43.375,94.79 41.338,95.336 39.889,95.336 C36.928,95.336 34.723,93.32 34.723,90.38 C34.723,87.671 36.823,85.802 39.532,85.802 C42.493,85.802 44.383,87.818 44.362,90.758 L35.584,90.758 C35.899,93.089 37.558,94.475 39.889,94.475 C41.401,94.475 42.64,94.097 43.627,93.32 C43.774,93.215 43.879,93.173 43.963,93.173 C44.236,93.173 44.383,93.32 44.383,93.593 L44.383,93.593 Z M35.584,89.897 L43.48,89.897 C43.144,87.902 41.569,86.684 39.532,86.684 C37.516,86.684 35.941,87.902 35.584,89.897 L35.584,89.897 Z M57.424,87.209 C57.424,87.503 57.277,87.65 56.962,87.65 C56.857,87.65 56.71,87.566 56.521,87.398 C56.122,86.978 55.744,86.768 55.387,86.768 C54.274,86.768 53.098,87.818 51.271,89.414 L51.271,94.139 L55.093,94.139 C55.471,94.139 55.66,94.286 55.66,94.559 C55.66,94.853 55.471,95 55.093,95 L48.331,95 C47.932,95 47.743,94.853 47.743,94.58 C47.743,94.307 47.932,94.16 48.331,94.16 L50.41,94.16 L50.41,86.999 L48.814,86.999 C48.436,86.999 48.247,86.852 48.247,86.558 C48.247,86.264 48.436,86.117 48.814,86.117 L51.271,86.117 L51.271,88.301 C52.846,86.852 54.064,85.907 55.324,85.907 C56.017,85.907 57.424,86.6 57.424,87.209 L57.424,87.209 Z" id="ascender" fill="#646466" transform="translate(15.371500, 89.172500) rotate(-90.000000) translate(-15.371500, -89.172500) "></path>
                </g>
                <path d="M0,181 L465,181" id="Path-1" stroke="#BABABD" sketch:type="MSShapeGroup"></path>
                <path d="M208,71 L191,79 L182,97 L186,120 L198,132 L213,133 L226,128 L236,110 L233,84 L217,72 L208,71 Z" id="Path-29" fill="#666666" sketch:type="MSShapeGroup"></path>
                <path d="M261,112 L253,115 L251,128 L259,133 L271,131 L283,122 L283,107 L261,112 Z" id="Path-30" fill="#666666" sketch:type="MSShapeGroup"></path>
                <path d="M205,288 L194,298 L188,309 L193,323 L204,327 L218,325 L224,310 L219,296 L205,288 Z" id="Path-31" fill="#666666" sketch:type="MSShapeGroup"></path>
                <path d="M285,277 L281,285 L282,298 L287,304 L295,310 L308,306 L314,284 L309,274 L294,272 L285,277 Z" id="Path-32" fill="#666666" sketch:type="MSShapeGroup"></path>
                <path d="M185.256,103.156 C185.256,99.8439834 185.685329,96.5780161 186.544,93.358 C187.402671,90.1379839 188.751991,87.2400129 190.592,84.664 C192.432009,82.0879871 194.793319,80.0180078 197.676,78.454 C200.558681,76.8899922 203.993313,76.108 207.98,76.108 C211.966687,76.108 215.401319,76.8899922 218.284,78.454 C221.166681,80.0180078 223.527991,82.0879871 225.368,84.664 C227.208009,87.2400129 228.557329,90.1379839 229.416,93.358 C230.274671,96.5780161 230.704,99.8439834 230.704,103.156 C230.704,106.468017 230.274671,109.733984 229.416,112.954 C228.557329,116.174016 227.208009,119.071987 225.368,121.648 C223.527991,124.224013 221.166681,126.293992 218.284,127.858 C215.401319,129.422008 211.966687,130.204 207.98,130.204 C203.993313,130.204 200.558681,129.422008 197.676,127.858 C194.793319,126.293992 192.432009,124.224013 190.592,121.648 C188.751991,119.071987 187.402671,116.174016 186.544,112.954 C185.685329,109.733984 185.256,106.468017 185.256,103.156 L185.256,103.156 Z M176.516,103.156 C176.516,107.633356 177.175327,111.941979 178.494,116.082 C179.812673,120.222021 181.790653,123.886651 184.428,127.076 C187.065347,130.265349 190.346647,132.795324 194.272,134.666 C198.197353,136.536676 202.766641,137.472 207.98,137.472 C213.193359,137.472 217.762647,136.536676 221.688,134.666 C225.613353,132.795324 228.894653,130.265349 231.532,127.076 C234.169347,123.886651 236.147327,120.222021 237.466,116.082 C238.784673,111.941979 239.444,107.633356 239.444,103.156 C239.444,98.6786443 238.784673,94.3700207 237.466,90.23 C236.147327,86.0899793 234.169347,82.4253493 231.532,79.236 C228.894653,76.0466507 225.613353,73.5013428 221.688,71.6 C217.762647,69.6986572 213.193359,68.748 207.98,68.748 C202.766641,68.748 198.197353,69.6986572 194.272,71.6 C190.346647,73.5013428 187.065347,76.0466507 184.428,79.236 C181.790653,82.4253493 179.812673,86.0899793 178.494,90.23 C177.175327,94.3700207 176.516,98.6786443 176.516,103.156 L176.516,103.156 Z M290.964,135.816 C289.61466,136.613337 287.744012,137.012 285.352,137.012 C283.32799,137.012 281.718006,136.444672 280.522,135.31 C279.325994,134.175328 278.728,132.320013 278.728,129.744 C276.581323,132.320013 274.082014,134.175328 271.23,135.31 C268.377986,136.444672 265.296017,137.012 261.984,137.012 C259.837323,137.012 257.79801,136.766669 255.866,136.276 C253.93399,135.785331 252.262674,135.018672 250.852,133.976 C249.441326,132.933328 248.322004,131.568675 247.494,129.882 C246.665996,128.195325 246.252,126.156012 246.252,123.764 C246.252,121.06532 246.711995,118.857342 247.632,117.14 C248.552005,115.422658 249.763326,114.027339 251.266,112.954 C252.768674,111.880661 254.48599,111.068003 256.418,110.516 C258.35001,109.963997 260.32799,109.504002 262.352,109.136 C264.498677,108.706665 266.53799,108.384668 268.47,108.17 C270.40201,107.955332 272.103993,107.648669 273.576,107.25 C275.048007,106.851331 276.213329,106.268671 277.072,105.502 C277.930671,104.73533 278.36,103.616007 278.36,102.144 C278.36,100.426658 278.038003,99.0466719 277.394,98.004 C276.749997,96.9613281 275.922005,96.1640028 274.91,95.612 C273.897995,95.0599972 272.76334,94.6920009 271.506,94.508 C270.24866,94.3239991 269.006673,94.232 267.78,94.232 C264.467983,94.232 261.708011,94.8606604 259.5,96.118 C257.291989,97.3753396 256.096001,99.7519825 255.912,103.248 L248.092,103.248 C248.214667,100.303985 248.827994,97.8200101 249.932,95.796 C251.036006,93.7719899 252.507991,92.1313396 254.348,90.874 C256.188009,89.6166604 258.288655,88.7120028 260.65,88.16 C263.011345,87.6079972 265.54132,87.332 268.24,87.332 C270.386677,87.332 272.517989,87.4853318 274.634,87.792 C276.750011,88.0986682 278.666658,88.7273286 280.384,89.678 C282.101342,90.6286714 283.481328,91.9626581 284.524,93.68 C285.566672,95.3973419 286.088,97.6359862 286.088,100.396 L286.088,124.868 C286.088,126.708009 286.195332,128.057329 286.41,128.916 C286.624668,129.774671 287.345327,130.204 288.572,130.204 C289.24667,130.204 290.043995,130.050668 290.964,129.744 L290.964,135.816 Z M278.268,111.436 C277.286662,112.172004 275.998675,112.708665 274.404,113.046 C272.809325,113.383335 271.138009,113.659332 269.39,113.874 C267.641991,114.088668 265.878676,114.333999 264.1,114.61 C262.321324,114.886001 260.726674,115.330664 259.316,115.944 C257.905326,116.557336 256.755338,117.431328 255.866,118.566 C254.976662,119.700672 254.532,121.249324 254.532,123.212 C254.532,124.500006 254.792664,125.588662 255.314,126.478 C255.835336,127.367338 256.509996,128.087997 257.338,128.64 C258.166004,129.192003 259.131994,129.590665 260.236,129.836 C261.340006,130.081335 262.505327,130.204 263.732,130.204 C266.308013,130.204 268.515991,129.851337 270.356,129.146 C272.196009,128.440663 273.698661,127.551339 274.864,126.478 C276.029339,125.404661 276.887997,124.23934 277.44,122.982 C277.992003,121.72466 278.268,120.544006 278.268,119.44 L278.268,111.436 Z M297.956,88.436 L297.956,136 L305.776,136 L305.776,114.84 C305.776,111.773318 306.082664,109.059345 306.696,106.698 C307.309336,104.336655 308.29066,102.328008 309.64,100.672 C310.98934,99.0159917 312.767989,97.758671 314.976,96.9 C317.184011,96.041329 319.851984,95.612 322.98,95.612 L322.98,87.332 C318.747979,87.2093327 315.252014,88.0679908 312.492,89.908 C309.731986,91.7480092 307.401343,94.5999807 305.5,98.464 L305.316,98.464 L305.316,88.436 L297.956,88.436 Z" id="Oar" fill="#BABABD" sketch:type="MSShapeGroup"></path>
                <path d="M183.416,310.08 C183.416,307.626654 183.845329,305.418676 184.704,303.456 C185.562671,301.493324 186.635994,299.730008 187.924,298.166 C189.212006,296.601992 190.607326,295.206673 192.11,293.98 C193.612674,292.753327 195.007994,291.588006 196.296,290.484 C197.584006,289.379994 198.657329,288.306672 199.516,287.264 C200.374671,286.221328 200.804,285.148006 200.804,284.044 L200.804,279.628 C200.804,276.377317 200.252006,274.092673 199.148,272.774 C198.043994,271.455327 196.326678,270.796 193.996,270.796 C193.014662,270.796 192.110004,270.903332 191.282,271.118 C190.453996,271.332668 189.74867,271.761997 189.166,272.406 C188.58333,273.050003 188.138668,273.969994 187.832,275.166 C187.525332,276.362006 187.372,277.910657 187.372,279.812 L187.372,282.756 L179.736,282.756 L179.736,279.076 C179.736,277.358658 179.950665,275.610676 180.38,273.832 C180.809335,272.053324 181.545328,270.443341 182.588,269.002 C183.630672,267.560659 185.041324,266.395338 186.82,265.506 C188.598676,264.616662 190.867986,264.172 193.628,264.172 C198.596025,264.172 202.306654,265.229989 204.76,267.346 C207.213346,269.462011 208.44,272.482647 208.44,276.408 L208.44,283.768 C208.44,284.810672 208.884662,285.837995 209.774,286.85 C210.663338,287.862005 211.751994,288.935328 213.04,290.07 C214.328006,291.204672 215.753992,292.431327 217.318,293.75 C218.882008,295.068673 220.307994,296.525325 221.596,298.12 C222.884006,299.714675 223.972662,301.47799 224.862,303.41 C225.751338,305.34201 226.196,307.473322 226.196,309.804 C226.196,312.809348 225.751338,315.553988 224.862,318.038 C223.972662,320.522012 222.638676,322.668658 220.86,324.478 C219.081324,326.287342 216.873347,327.697995 214.236,328.71 C211.598653,329.722005 208.562684,330.228 205.128,330.228 C201.202647,330.228 197.875347,329.706672 195.146,328.664 C192.416653,327.621328 190.178009,326.195342 188.43,324.386 C186.681991,322.576658 185.409337,320.445346 184.612,317.992 C183.814663,315.538654 183.416,312.901347 183.416,310.08 L183.416,310.08 Z M204.76,290.944 C204.269331,292.477341 203.288007,293.841994 201.816,295.038 C200.343993,296.234006 198.826008,297.50666 197.262,298.856 C195.697992,300.20534 194.302673,301.769324 193.076,303.548 C191.849327,305.326676 191.236,307.534653 191.236,310.172 C191.236,312.380011 191.619329,314.327325 192.386,316.014 C193.15267,317.700675 194.16466,319.111328 195.422,320.246 C196.67934,321.380672 198.120659,322.23933 199.746,322.822 C201.371341,323.40467 203.073324,323.696 204.852,323.696 C208.716019,323.696 211.920654,322.576678 214.466,320.338 C217.011346,318.099322 218.284,314.710689 218.284,310.172 C218.284,307.47332 217.670673,305.234676 216.444,303.456 C215.217327,301.677324 213.822008,300.128673 212.258,298.81 C210.693992,297.491327 209.176007,296.234006 207.704,295.038 C206.231993,293.841994 205.250669,292.477341 204.76,290.944 L204.76,290.944 Z M252.232,268.036 C252.232,270.918681 252.52333,273.417989 253.106,275.534 C253.68867,277.650011 254.961324,279.474659 256.924,281.008 C258.702676,282.418674 260.235994,283.706661 261.524,284.872 C262.812006,286.037339 263.869996,287.24866 264.698,288.506 C265.526004,289.76334 266.139331,291.112659 266.538,292.554 C266.936669,293.995341 267.136,295.666657 267.136,297.568 C267.136,299.59201 266.768004,301.523991 266.032,303.364 C265.295996,305.204009 264.222674,306.813993 262.812,308.194 C261.401326,309.574007 259.699343,310.662663 257.706,311.46 C255.712657,312.257337 253.428013,312.656 250.852,312.656 C248.521322,312.656 246.374676,312.349336 244.412,311.736 C242.449324,311.122664 240.762674,310.218006 239.352,309.022 C237.941326,307.825994 236.837337,306.323342 236.04,304.514 C235.242663,302.704658 234.844,300.604012 234.844,298.212 C234.844,297.475996 234.859333,296.801336 234.89,296.188 C234.920667,295.574664 234.966666,295.022669 235.028,294.532 C235.089334,293.979997 235.150666,293.458669 235.212,292.968 L243.032,293.06 C242.970666,293.366668 242.909334,293.765331 242.848,294.256 C242.786666,294.685335 242.756,295.221997 242.756,295.866 L242.756,298.12 C242.756,299.040005 242.924665,299.959995 243.262,300.88 C243.599335,301.800005 244.120663,302.643329 244.826,303.41 C245.531337,304.176671 246.389995,304.789998 247.402,305.25 C248.414005,305.710002 249.59466,305.94 250.944,305.94 C253.64268,305.94 255.697326,305.158008 257.108,303.594 C258.518674,302.029992 259.224,300.174677 259.224,298.028 C259.224,296.310658 259.040002,294.838673 258.672,293.612 C258.303998,292.385327 257.767337,291.312005 257.062,290.392 C256.356663,289.471995 255.528671,288.62867 254.578,287.862 C253.627329,287.095329 252.600006,286.313337 251.496,285.516 C250.023993,284.411994 248.812671,283.308006 247.862,282.204 C246.911329,281.099994 246.160003,279.888673 245.608,278.57 C245.055997,277.251327 244.672668,275.733342 244.458,274.016 C244.243332,272.298658 244.136,270.305345 244.136,268.036 L252.232,268.036 Z M276.244,253.868 C276.244,251.475988 276.611996,249.789338 277.348,248.808 C278.084004,247.826662 279.218659,247.336 280.752,247.336 C281.978673,247.336 283.235994,247.535331 284.524,247.934 C285.812006,248.332669 287.191993,248.761998 288.664,249.222 C290.136007,249.682002 291.730658,250.095998 293.448,250.464 C295.165342,250.832002 297.097323,251.016 299.244,251.016 C301.329344,251.016 303.261324,250.847335 305.04,250.51 C306.818676,250.172665 308.351994,249.789335 309.64,249.36 C311.173341,248.869331 312.522661,248.28667 313.688,247.612 L313.688,254.512 C312.645328,255.125336 311.388007,255.677331 309.916,256.168 C308.689327,256.597335 307.171342,256.965332 305.362,257.272 C303.552658,257.578668 301.482678,257.732 299.152,257.732 C296.821322,257.732 294.720676,257.609335 292.85,257.364 C290.979324,257.118665 289.400006,256.842668 288.112,256.536 C286.578659,256.167998 285.260006,255.738669 284.156,255.248 L284.156,265.644 C284.217334,267.054674 284.156001,268.633991 283.972,270.382 C283.787999,272.130009 283.604001,273.525328 283.42,274.568 C284.830674,272.850658 286.685988,271.36334 288.986,270.106 C291.286011,268.84866 294.183983,268.22 297.68,268.22 C300.501347,268.22 303.077322,268.572663 305.408,269.278 C307.738678,269.983337 309.762658,271.148659 311.48,272.774 C313.197342,274.399341 314.531329,276.56132 315.482,279.26 C316.432671,281.95868 316.908,285.301313 316.908,289.288 C316.908,292.722684 316.478671,295.865986 315.62,298.718 C314.761329,301.570014 313.473342,304.023323 311.756,306.078 C310.038658,308.132677 307.846013,309.742661 305.178,310.908 C302.509987,312.073339 299.397351,312.656 295.84,312.656 C291.79198,312.656 288.495346,311.935341 285.95,310.494 C283.404654,309.052659 281.411341,307.105346 279.97,304.652 C278.528659,302.198654 277.547336,299.33135 277.026,296.05 C276.504664,292.76865 276.244,289.288018 276.244,285.608 L276.244,253.868 Z M295.932,274.752 C294.214658,274.752 292.620007,275.104663 291.148,275.81 C289.675993,276.515337 288.388006,277.511994 287.284,278.8 C286.179994,280.088006 285.29067,281.605991 284.616,283.354 C283.94133,285.102009 283.573334,287.018656 283.512,289.104 C283.573334,291.312011 283.833998,293.42799 284.294,295.452 C284.754002,297.47601 285.489995,299.269992 286.502,300.834 C287.514005,302.398008 288.817325,303.655329 290.412,304.606 C292.006675,305.556671 293.969322,306.032 296.3,306.032 C300.593355,306.032 303.797989,304.529348 305.914,301.524 C308.030011,298.518652 309.088,294.501358 309.088,289.472 C309.088,284.381308 307.876679,280.655345 305.454,278.294 C303.031321,275.932655 299.857353,274.752 295.932,274.752 L295.932,274.752 Z" id="gan" fill="#BABABD" sketch:type="MSShapeGroup"></path>
                <path d="M0,181 L465,181" id="Path-1" stroke="#BABABD" sketch:type="MSShapeGroup"></path>
            </g>
        </g>
    </g>
</svg>