<?xml version="1.0" encoding="UTF-8" standalone="no"?>
<svg width="465px" height="360px" viewBox="0 0 465 360" version="1.1" xmlns="http://www.w3.org/2000/svg" xmlns:xlink="http://www.w3.org/1999/xlink" xmlns:sketch="http://www.bohemiancoding.com/sketch/ns">
    <!-- Generator: Sketch Beta 3.4.4 (17258) - http://www.bohemiancoding.com/sketch -->
    <title>Crossbar</title>
    <desc>Created with Sketch Beta.</desc>
    <defs>
        <rect id="path-1" x="0" y="0" width="30" height="360"></rect>
    </defs>
    <g id="Outline" stroke="none" stroke-width="1" fill="none" fill-rule="evenodd" sketch:type="MSPage">
        <g id="Crossbar" sketch:type="MSArtboardGroup">
            <g id="Group" sketch:type="MSLayerGroup">
                <g id="Tag">
                    <rect id="Rectangle-1" fill="#BABABD" sketch:type="MSShapeGroup" x="0" y="0" width="30" height="360"></rect>
                    <text id="აღმავალი" sketch:type="MSTextLayer" transform="translate(13.500000, 270.500000) rotate(-90.000000) translate(-13.500000, -270.500000) " font-family="BG Courier" font-size="21" font-weight="normal" sketch:alignment="middle" fill="#646466">
                        <tspan x="-24.972" y="275">განივა</tspan>
                    </text>
                    <text id="ascender" sketch:type="MSTextLayer" transform="translate(14.500000, 90.500000) rotate(-90.000000) translate(-14.500000, -90.500000) " font-family="BG Courier" font-size="21" font-weight="normal" sketch:alignment="middle" fill="#646466">
                        <tspan x="-35.9" y="95">crossbar</tspan>
                    </text>
                </g>
                <g id="In-Progress">
                    <mask id="mask-2" sketch:name="Mask" fill="white">
                        <use xlink:href="#path-1"></use>
                    </mask>
                    <use id="Mask" fill="#DCA708" sketch:type="MSShapeGroup" xlink:href="#path-1"></use>
                    <rect id="Rectangle-20" fill="#FFD863" sketch:type="MSShapeGroup" mask="url(#mask-2)" x="-11.9713024" y="240.528698" width="23" height="168">
                        <g transform="translate(-0.471302, 324.528698) rotate(-45.000000) translate(0.471302, -324.528698) "></g>
                    </rect>
                    <rect id="Rectangle-20" fill="#FFD863" sketch:type="MSShapeGroup" mask="url(#mask-2)" x="-11.9713024" y="176.528698" width="23" height="168">
                        <g transform="translate(-0.471302, 260.528698) rotate(-45.000000) translate(0.471302, -260.528698) "></g>
                    </rect>
                    <rect id="Rectangle-20" fill="#FFD863" sketch:type="MSShapeGroup" mask="url(#mask-2)" x="-11.9713024" y="112.528698" width="23" height="168">
                        <g transform="translate(-0.471302, 196.528698) rotate(-45.000000) translate(0.471302, -196.528698) "></g>
                    </rect>
                    <rect id="Rectangle-20" fill="#FFD863" sketch:type="MSShapeGroup" mask="url(#mask-2)" x="-11.9713024" y="48.5286976" width="23" height="168">
                        <g transform="translate(-0.471302, 132.528698) rotate(-45.000000) translate(0.471302, -132.528698) "></g>
                    </rect>
                    <rect id="Rectangle-20" fill="#FFD863" sketch:type="MSShapeGroup" mask="url(#mask-2)" x="-11.9713024" y="-15.4713024" width="23" height="168">
                        <g transform="translate(-0.471302, 68.528698) rotate(-45.000000) translate(0.471302, -68.528698) "></g>
                    </rect>
                    <rect id="Rectangle-20" fill="#FFD863" sketch:type="MSShapeGroup" mask="url(#mask-2)" x="-11.9713024" y="-79.4713024" width="23" height="168">
                        <g transform="translate(-0.471302, 4.528698) rotate(-45.000000) translate(0.471302, -4.528698) "></g>
                    </rect>
                </g>
                <path d="M184.474,70.312 L184.474,136 L193.214,136 L193.214,105.916 L227.806,105.916 L227.806,136 L236.546,136 L236.546,70.312 L227.806,70.312 L227.806,98.556 L193.214,98.556 L193.214,70.312 L184.474,70.312 Z M257.89,79.88 L257.89,70.312 L250.07,70.312 L250.07,79.88 L257.89,79.88 Z M250.07,88.436 L250.07,136 L257.89,136 L257.89,88.436 L250.07,88.436 Z M270.31,88.436 L270.31,154.124 L278.13,154.124 L278.13,129.652 L278.314,129.652 C279.172671,131.062674 280.23066,132.243329 281.488,133.194 C282.74534,134.144671 284.079326,134.895997 285.49,135.448 C286.900674,136.000003 288.326659,136.398665 289.768,136.644 C291.209341,136.889335 292.512661,137.012 293.678,137.012 C297.296685,137.012 300.470653,136.368006 303.2,135.08 C305.929347,133.791994 308.198658,132.028678 310.008,129.79 C311.817342,127.551322 313.166662,124.929348 314.056,121.924 C314.945338,118.918652 315.39,115.72935 315.39,112.356 C315.39,108.98265 314.930005,105.793348 314.01,102.788 C313.089995,99.7826516 311.725342,97.1300115 309.916,94.83 C308.106658,92.5299885 305.837347,90.7053401 303.108,89.356 C300.378653,88.0066599 297.174018,87.332 293.494,87.332 C290.181983,87.332 287.146014,87.929994 284.386,89.126 C281.625986,90.322006 279.602006,92.2386535 278.314,94.876 L278.13,94.876 L278.13,88.436 L270.31,88.436 Z M307.11,111.804 C307.11,114.134678 306.864669,116.403989 306.374,118.612 C305.883331,120.820011 305.086006,122.782658 303.982,124.5 C302.877994,126.217342 301.421342,127.597328 299.612,128.64 C297.802658,129.682672 295.54868,130.204 292.85,130.204 C290.15132,130.204 287.851343,129.698005 285.95,128.686 C284.048657,127.673995 282.500006,126.340008 281.304,124.684 C280.107994,123.027992 279.234003,121.111344 278.682,118.934 C278.129997,116.756656 277.854,114.502678 277.854,112.172 C277.854,109.963989 278.114664,107.786677 278.636,105.64 C279.157336,103.493323 280.000661,101.576675 281.166,99.89 C282.331339,98.2033249 283.833991,96.8386719 285.674,95.796 C287.514009,94.7533281 289.752653,94.232 292.39,94.232 C294.904679,94.232 297.097324,94.7226618 298.968,95.704 C300.838676,96.6853382 302.371994,98.0039917 303.568,99.66 C304.764006,101.316008 305.65333,103.201989 306.236,105.318 C306.81867,107.434011 307.11,109.595989 307.11,111.804 L307.11,111.804 Z" id="Hip" fill="#BABABD" sketch:type="MSShapeGroup"></path>
                <path d="M190.73,264.172 C190.975335,265.644007 191.266665,267.192659 191.604,268.818 C191.941335,270.443341 192.263332,272.145324 192.57,273.924 C193.796673,272.022657 195.467989,270.458673 197.584,269.232 C199.700011,268.005327 202.413983,267.392 205.726,267.392 C207.811344,267.392 209.835324,267.713997 211.798,268.358 C213.760676,269.002003 215.493326,270.013993 216.996,271.394 C218.498674,272.774007 219.694662,274.537323 220.584,276.684 C221.473338,278.830677 221.918,281.406652 221.918,284.412 C221.918,286.620011 221.688002,288.935321 221.228,291.358 C220.767998,293.780679 220.15467,296.249321 219.388,298.764 C218.621329,301.278679 217.747338,303.777988 216.766,306.262 C215.784662,308.746012 214.803338,311.122655 213.822,313.392 C211.429988,318.666693 208.731348,323.941307 205.726,329.216 L198.734,329.216 C196.157987,320.261289 193.796677,311.613375 191.65,303.272 C190.729995,299.714649 189.810005,296.080685 188.89,292.37 C187.969995,288.659315 187.12667,285.040684 186.36,281.514 C185.593329,277.987316 184.934003,274.675349 184.382,271.578 C183.829997,268.480651 183.431335,265.766678 183.186,263.436 C182.879332,260.553319 182.971331,258.10001 183.462,256.076 C183.952669,254.05199 184.703995,252.396006 185.716,251.108 C186.728005,249.819994 187.939326,248.88467 189.35,248.302 C190.760674,247.71933 192.232659,247.428 193.766,247.428 C195.544676,247.428 197.047327,247.688664 198.274,248.21 C199.500673,248.731336 200.497329,249.405996 201.264,250.234 C202.03067,251.062004 202.597998,251.997328 202.966,253.04 C203.334002,254.082672 203.579333,255.125328 203.702,256.168 C203.763334,255.247995 203.962665,254.266672 204.3,253.224 C204.637335,252.181328 205.173996,251.230671 205.91,250.372 C206.646004,249.513329 207.611994,248.808003 208.808,248.256 C210.004006,247.703997 211.521991,247.428 213.362,247.428 C216.919351,247.428 219.556658,248.623988 221.274,251.016 C222.991342,253.408012 223.85,257.241307 223.85,262.516 L217.41,262.516 C217.41,259.81732 217.134003,257.686008 216.582,256.122 C216.029997,254.557992 214.74201,253.776 212.718,253.776 C210.939324,253.776 209.66667,254.45066 208.9,255.8 C208.133329,257.14934 207.75,259.387984 207.75,262.516 L199.93,262.516 C199.93,259.326651 199.470005,257.088006 198.55,255.8 C197.629995,254.511994 196.311342,253.868 194.594,253.868 C192.999325,253.806666 191.81867,254.695991 191.052,256.536 C190.285329,258.376009 190.177997,260.921317 190.73,264.172 L190.73,264.172 Z M195.882,289.104 C197.292674,295.237364 198.67266,301.048639 200.022,306.538 C201.37134,312.027361 202.536662,316.703981 203.518,320.568 C204.622006,318.114654 205.80266,315.339349 207.06,312.242 C208.31734,309.144651 209.497994,306.032016 210.602,302.904 C211.706006,299.775984 212.610663,296.755348 213.316,293.842 C214.021337,290.928652 214.374,288.398677 214.374,286.252 C214.374,282.510648 213.607341,279.536011 212.074,277.328 C210.540659,275.119989 208.210016,274.016 205.082,274.016 C203.241991,274.016 201.678006,274.383996 200.39,275.12 C199.101994,275.856004 198.090004,276.883327 197.354,278.202 C196.617996,279.520673 196.127335,281.115324 195.882,282.986 C195.636665,284.856676 195.636665,286.895989 195.882,289.104 L195.882,289.104 Z M248.782,268.036 C248.782,270.918681 249.07333,273.417989 249.656,275.534 C250.23867,277.650011 251.511324,279.474659 253.474,281.008 C255.252676,282.418674 256.785994,283.706661 258.074,284.872 C259.362006,286.037339 260.419996,287.24866 261.248,288.506 C262.076004,289.76334 262.689331,291.112659 263.088,292.554 C263.486669,293.995341 263.686,295.666657 263.686,297.568 C263.686,299.59201 263.318004,301.523991 262.582,303.364 C261.845996,305.204009 260.772674,306.813993 259.362,308.194 C257.951326,309.574007 256.249343,310.662663 254.256,311.46 C252.262657,312.257337 249.978013,312.656 247.402,312.656 C245.071322,312.656 242.924676,312.349336 240.962,311.736 C238.999324,311.122664 237.312674,310.218006 235.902,309.022 C234.491326,307.825994 233.387337,306.323342 232.59,304.514 C231.792663,302.704658 231.394,300.604012 231.394,298.212 C231.394,297.475996 231.409333,296.801336 231.44,296.188 C231.470667,295.574664 231.516666,295.022669 231.578,294.532 C231.639334,293.979997 231.700666,293.458669 231.762,292.968 L239.582,293.06 C239.520666,293.366668 239.459334,293.765331 239.398,294.256 C239.336666,294.685335 239.306,295.221997 239.306,295.866 L239.306,298.12 C239.306,299.040005 239.474665,299.959995 239.812,300.88 C240.149335,301.800005 240.670663,302.643329 241.376,303.41 C242.081337,304.176671 242.939995,304.789998 243.952,305.25 C244.964005,305.710002 246.14466,305.94 247.494,305.94 C250.19268,305.94 252.247326,305.158008 253.658,303.594 C255.068674,302.029992 255.774,300.174677 255.774,298.028 C255.774,296.310658 255.590002,294.838673 255.222,293.612 C254.853998,292.385327 254.317337,291.312005 253.612,290.392 C252.906663,289.471995 252.078671,288.62867 251.128,287.862 C250.177329,287.095329 249.150006,286.313337 248.046,285.516 C246.573993,284.411994 245.362671,283.308006 244.412,282.204 C243.461329,281.099994 242.710003,279.888673 242.158,278.57 C241.605997,277.251327 241.222668,275.733342 241.008,274.016 C240.793332,272.298658 240.686,270.305345 240.686,268.036 L248.782,268.036 Z M312.814,247.428 L312.814,310.448 C312.814,313.14668 312.446004,315.707321 311.71,318.13 C310.973996,320.552679 309.808675,322.653324 308.214,324.432 C306.619325,326.210676 304.549346,327.621328 302.004,328.664 C299.458654,329.706672 296.346018,330.228 292.666,330.228 C285.9193,330.228 280.90535,328.58735 277.624,325.306 C274.34265,322.02465 272.702,316.642704 272.702,309.16 L280.614,309.16 C280.614,313.760023 281.641323,317.332654 283.696,319.878 C285.750677,322.423346 288.893979,323.696 293.126,323.696 C297.235354,323.696 300.271324,322.745343 302.234,320.844 C304.196676,318.942657 305.178,315.63069 305.178,310.908 L305.178,293.704 C305.178,291.434655 305.024668,289.410676 304.718,287.632 C304.411332,285.853324 303.87467,284.350673 303.108,283.124 C302.34133,281.897327 301.28334,280.962003 299.934,280.318 C298.58466,279.673997 296.836677,279.352 294.69,279.352 C291.377983,279.352 288.894008,280.179992 287.238,281.836 C285.581992,283.492008 284.723334,285.791985 284.662,288.736 L276.842,288.736 C276.964667,283.522641 278.482652,279.536014 281.396,276.776 C284.309348,274.015986 288.433973,272.636 293.77,272.636 C296.46868,272.636 298.737991,272.988663 300.578,273.694 C302.418009,274.399337 303.951327,275.303994 305.178,276.408 L305.178,247.428 L312.814,247.428 Z" id="წაქ" fill="#BABABD" sketch:type="MSShapeGroup"></path>
                <path d="M0,181 L465,181" id="Path-1" stroke="#BABABD" sketch:type="MSShapeGroup"></path>
                <path d="M193.214,105.916 L227.806,105.916 L227.806,98.556 L193.214,98.556 L193.214,105.916 Z" id="Hip" fill="#666666" sketch:type="MSShapeGroup"></path>
            </g>
        </g>
    </g>
</svg>