<?xml version="1.0" encoding="UTF-8" standalone="no"?>
<svg width="465px" height="360px" viewBox="0 0 465 360" version="1.1" xmlns="http://www.w3.org/2000/svg" xmlns:xlink="http://www.w3.org/1999/xlink" xmlns:sketch="http://www.bohemiancoding.com/sketch/ns">
    <!-- Generator: Sketch Beta 3.4.4 (17258) - http://www.bohemiancoding.com/sketch -->
    <title>Finial</title>
    <desc>Created with Sketch Beta.</desc>
    <defs></defs>
    <g id="Outline" stroke="none" stroke-width="1" fill="none" fill-rule="evenodd" sketch:type="MSPage">
        <g id="Finial" sketch:type="MSArtboardGroup">
            <g id="Group" sketch:type="MSLayerGroup">
                <g id="Tag">
                    <rect id="Rectangle-1" fill="#BABABD" sketch:type="MSShapeGroup" x="0" y="0" width="30" height="360"></rect>
                    <text id="აღმავალი" sketch:type="MSTextLayer" transform="translate(13.500000, 270.500000) rotate(-90.000000) translate(-13.500000, -270.500000) " font-family="BG Courier" font-size="21" font-weight="normal" sketch:alignment="middle" fill="#646466">
                        <tspan x="-31.272" y="275">ფინიალი</tspan>
                    </text>
                    <text id="ascender" sketch:type="MSTextLayer" transform="translate(14.500000, 90.500000) rotate(-90.000000) translate(-14.500000, -90.500000) " font-family="BG Courier" font-size="21" font-weight="normal" sketch:alignment="middle" fill="#646466">
                        <tspan x="-23.3" y="95">finial</tspan>
                    </text>
                </g>
                <path d="M0,181 L465,181" id="Path-1" stroke="#BABABD" sketch:type="MSShapeGroup"></path>
                <path d="M171.686,70.312 L171.686,136 L215.202,136 L215.202,128.64 L180.426,128.64 L180.426,70.312 L171.686,70.312 Z M229.83,79.88 L229.83,70.312 L222.01,70.312 L222.01,79.88 L229.83,79.88 Z M222.01,88.436 L222.01,136 L229.83,136 L229.83,88.436 L222.01,88.436 Z M263.41,136 L280.798,88.436 L272.61,88.436 L259.638,128.088 L259.454,128.088 L246.114,88.436 L237.374,88.436 L255.038,136 L263.41,136 Z M321.002,107.664 L293.678,107.664 C293.800667,105.823991 294.19933,104.091341 294.874,102.466 C295.54867,100.840659 296.468661,99.4146728 297.634,98.188 C298.799339,96.9613272 300.194659,95.9953369 301.82,95.29 C303.445341,94.5846631 305.26999,94.232 307.294,94.232 C309.256676,94.232 311.050659,94.5846631 312.676,95.29 C314.301341,95.9953369 315.711994,96.945994 316.908,98.142 C318.104006,99.338006 319.054663,100.763992 319.76,102.42 C320.465337,104.076008 320.879333,105.823991 321.002,107.664 L321.002,107.664 Z M328.546,120.912 L320.818,120.912 C320.14333,124.040016 318.748011,126.370659 316.632,127.904 C314.515989,129.437341 311.802017,130.204 308.49,130.204 C305.913987,130.204 303.675343,129.774671 301.774,128.916 C299.872657,128.057329 298.308673,126.907341 297.082,125.466 C295.855327,124.024659 294.966003,122.368676 294.414,120.498 C293.861997,118.627324 293.616666,116.649344 293.678,114.564 L329.282,114.564 C329.404667,111.681319 329.144003,108.645349 328.5,105.456 C327.855997,102.266651 326.690675,99.3226802 325.004,96.624 C323.317325,93.9253198 321.078681,91.7020087 318.288,89.954 C315.497319,88.2059913 311.986021,87.332 307.754,87.332 C304.503317,87.332 301.513347,87.9453272 298.784,89.172 C296.054653,90.3986728 293.693343,92.115989 291.7,94.324 C289.706657,96.532011 288.158006,99.1386516 287.054,102.144 C285.949994,105.149348 285.398,108.461315 285.398,112.08 C285.520667,115.698685 286.057329,119.041318 287.008,122.108 C287.958671,125.174682 289.384657,127.811989 291.286,130.02 C293.187343,132.228011 295.533319,133.945327 298.324,135.172 C301.114681,136.398673 304.411314,137.012 308.214,137.012 C313.61136,137.012 318.088649,135.66268 321.646,132.964 C325.203351,130.26532 327.503328,126.248027 328.546,120.912 L328.546,120.912 Z" id="Live" fill="#BABABD" sketch:type="MSShapeGroup"></path>
                <path d="M320.818,120.912 C320.14333,124.040016 318.748011,126.370659 316.632,127.904 C314.515989,129.437341 311.802017,130.204 308.49,130.204 L308.214,137.012 C313.61136,137.012 318.088649,135.66268 321.646,132.964 C325.203351,130.26532 327.503328,126.248027 328.546,120.912 L320.818,120.912 Z" id="Live" fill="#666666" sketch:type="MSShapeGroup"></path>
                <path d="M195.79,292.232 C195.79,295.237348 195.330005,297.997321 194.41,300.512 C193.489995,303.026679 192.156009,305.173324 190.408,306.952 C188.659991,308.730676 186.559346,310.125995 184.106,311.138 C181.652654,312.150005 178.923348,312.656 175.918,312.656 C172.115314,312.656 168.972012,312.165338 166.488,311.184 C164.003988,310.202662 162.026007,308.807342 160.554,306.998 C159.081993,305.188658 158.05467,303.011346 157.472,300.466 C156.88933,297.920654 156.598,295.053349 156.598,291.864 L156.598,248.256 L164.234,248.256 L164.234,290.852 C164.234,295.820025 165.123324,299.60732 166.902,302.214 C168.680676,304.82068 171.624646,306.124 175.734,306.124 C179.598019,306.124 182.603323,304.989345 184.75,302.72 C186.896677,300.450655 187.97,297.230688 187.97,293.06 C187.97,290.913323 187.648003,289.073341 187.004,287.54 C186.359997,286.006659 185.562671,284.596006 184.612,283.308 C183.661329,282.019994 182.634006,280.793339 181.53,279.628 C180.425994,278.462661 179.398671,277.20534 178.448,275.856 C177.497329,274.50666 176.700003,272.988675 176.056,271.302 C175.411997,269.615325 175.09,267.606678 175.09,265.276 L182.818,265.276 C182.818,267.177343 183.139997,268.848659 183.784,270.29 C184.428003,271.731341 185.225329,273.095994 186.176,274.384 C187.126671,275.672006 188.169328,276.929327 189.304,278.156 C190.438672,279.382673 191.481329,280.685993 192.432,282.066 C193.382671,283.446007 194.179997,284.948659 194.824,286.574 C195.468003,288.199341 195.79,290.085323 195.79,292.232 L195.79,292.232 Z M224.494,264.264 C227.376681,264.264 229.875989,264.708662 231.992,265.598 C234.108011,266.487338 235.84066,267.744659 237.19,269.37 C238.53934,270.995341 239.535997,272.927322 240.18,275.166 C240.824003,277.404678 241.146,279.87332 241.146,282.572 L241.146,309.988 C241.146,313.116016 240.640005,315.937321 239.628,318.452 C238.615995,320.966679 237.236009,323.097991 235.488,324.846 C233.739991,326.594009 231.700678,327.927995 229.37,328.848 C227.039322,329.768005 224.586013,330.228 222.01,330.228 C215.815302,330.228 211.154016,328.710015 208.026,325.674 C204.897984,322.637985 203.334,317.562702 203.334,310.448 L211.246,310.448 C211.246,314.925356 212.21199,318.252656 214.144,320.43 C216.07601,322.607344 218.667317,323.696 221.918,323.696 C223.94201,323.696 225.674659,323.35867 227.116,322.684 C228.557341,322.00933 229.722662,321.074006 230.612,319.878 C231.501338,318.681994 232.160665,317.286675 232.59,315.692 C233.019335,314.097325 233.234,312.380009 233.234,310.54 L233.234,284.136 C233.234,282.357324 233.096001,280.655341 232.82,279.03 C232.543999,277.404659 232.038004,275.994006 231.302,274.798 C230.565996,273.601994 229.600006,272.651337 228.404,271.946 C227.207994,271.240663 225.690009,270.888 223.85,270.888 C222.071324,270.888 220.568673,271.209997 219.342,271.854 C218.115327,272.498003 217.134004,273.417994 216.398,274.614 C215.661996,275.810006 215.140668,277.235992 214.834,278.892 C214.527332,280.548008 214.374,282.38799 214.374,284.412 L206.37,284.412 C206.37,280.731982 206.783996,277.619346 207.612,275.074 C208.440004,272.528654 209.635992,270.458675 211.2,268.864 C212.764008,267.269325 214.649989,266.104004 216.858,265.368 C219.066011,264.631996 221.611319,264.264 224.494,264.264 L224.494,264.264 Z M268.654,312.656 C265.648652,312.656 262.934679,312.104006 260.512,311 C258.089321,309.895994 256.034675,308.33201 254.348,306.308 C252.661325,304.28399 251.358005,301.846014 250.438,298.994 C249.517995,296.141986 249.058,292.968017 249.058,289.472 C249.058,285.853315 249.594661,282.495349 250.668,279.398 C251.741339,276.300651 253.320656,273.617345 255.406,271.348 C257.491344,269.078655 260.051985,267.300006 263.088,266.012 C266.124015,264.723994 269.604647,264.08 273.53,264.08 C277.455353,264.08 280.905318,264.723994 283.88,266.012 C286.854682,267.300006 289.338657,269.063322 291.332,271.302 C293.325343,273.540678 294.827995,276.193318 295.84,279.26 C296.852005,282.326682 297.358,285.607983 297.358,289.104 C297.358,292.048015 296.898005,294.930653 295.978,297.752 C295.057995,300.573347 293.770008,303.087989 292.114,305.296 C290.457992,307.504011 288.464678,309.28266 286.134,310.632 C283.803322,311.98134 281.227347,312.656 278.406,312.656 L278.406,306.032 C279.387338,306.032 280.521994,305.710003 281.81,305.066 C283.098006,304.421997 284.293994,303.410007 285.398,302.03 C286.502006,300.649993 287.437329,298.856011 288.204,296.648 C288.97067,294.439989 289.354,291.802682 289.354,288.736 C289.354,285.791985 288.955337,283.200678 288.158,280.962 C287.360663,278.723322 286.241341,276.837341 284.8,275.304 C283.358659,273.770659 281.641343,272.620671 279.648,271.854 C277.654657,271.08733 275.462012,270.704 273.07,270.704 C270.739322,270.704 268.577343,271.102663 266.584,271.9 C264.590657,272.697337 262.888674,273.862659 261.478,275.396 C260.067326,276.929341 258.963337,278.815322 258.166,281.054 C257.368663,283.292678 256.97,285.853319 256.97,288.736 C256.97,291.864016 257.383996,294.531989 258.212,296.74 C259.040004,298.948011 260.051994,300.741993 261.248,302.122 C262.444006,303.502007 263.71666,304.498664 265.066,305.112 C266.41534,305.725336 267.611328,306.032 268.654,306.032 L268.654,312.656 Z M322.382,268.036 C322.382,270.918681 322.67333,273.417989 323.256,275.534 C323.83867,277.650011 325.111324,279.474659 327.074,281.008 C328.852676,282.418674 330.385994,283.706661 331.674,284.872 C332.962006,286.037339 334.019996,287.24866 334.848,288.506 C335.676004,289.76334 336.289331,291.112659 336.688,292.554 C337.086669,293.995341 337.286,295.666657 337.286,297.568 C337.286,299.59201 336.918004,301.523991 336.182,303.364 C335.445996,305.204009 334.372674,306.813993 332.962,308.194 C331.551326,309.574007 329.849343,310.662663 327.856,311.46 C325.862657,312.257337 323.578013,312.656 321.002,312.656 C318.671322,312.656 316.524676,312.349336 314.562,311.736 C312.599324,311.122664 310.912674,310.218006 309.502,309.022 C308.091326,307.825994 306.987337,306.323342 306.19,304.514 C305.392663,302.704658 304.994,300.604012 304.994,298.212 C304.994,297.475996 305.009333,296.801336 305.04,296.188 C305.070667,295.574664 305.116666,295.022669 305.178,294.532 C305.239334,293.979997 305.300666,293.458669 305.362,292.968 L313.182,293.06 C313.120666,293.366668 313.059334,293.765331 312.998,294.256 C312.936666,294.685335 312.906,295.221997 312.906,295.866 L312.906,298.12 C312.906,299.040005 313.074665,299.959995 313.412,300.88 C313.749335,301.800005 314.270663,302.64333 314.976,303.41 C315.681337,304.176671 316.539995,304.789998 317.552,305.25 C318.564005,305.710002 319.74466,305.94 321.094,305.94 C323.79268,305.94 325.847326,305.158008 327.258,303.594 C328.668674,302.029992 329.374,300.174677 329.374,298.028 C329.374,296.310658 329.190002,294.838673 328.822,293.612 C328.453998,292.385327 327.917337,291.312005 327.212,290.392 C326.506663,289.471995 325.678671,288.628671 324.728,287.862 C323.777329,287.09533 322.750006,286.313337 321.646,285.516 C320.173993,284.411994 318.962671,283.308006 318.012,282.204 C317.061329,281.099994 316.310003,279.888673 315.758,278.57 C315.205997,277.251327 314.822668,275.733342 314.608,274.016 C314.393332,272.298658 314.286,270.305345 314.286,268.036 L322.382,268.036 Z" id="სეია" fill="#BABABD" sketch:type="MSShapeGroup"></path>
                <path d="M322.382,268.036 C322.382,270.918681 322.67333,273.417989 323.256,275.534 C323.83867,277.650011 325.111324,279.474659 327.074,281.008 C328.852676,282.418674 330.88645,283.319782 331.674,284.872 L321.646,285.516 C320.173993,284.411994 318.962671,283.308006 318.012,282.204 C317.061329,281.099994 316.310003,279.888673 315.758,278.57 C315.205997,277.251327 314.822668,275.733342 314.608,274.016 C314.393332,272.298658 314.286,270.305345 314.286,268.036 L322.382,268.036 Z" id="სეია-copy-2" fill="#666666" sketch:type="MSShapeGroup"></path>
                <path d="M184.612,283.308 C183.661329,282.019994 182.634006,280.793339 181.53,279.628 C180.425994,278.462661 179.398671,277.20534 178.448,275.856 C177.497329,274.50666 176.700003,272.988675 176.056,271.302 C175.411997,269.615325 175.09,267.606678 175.09,265.276 L182.818,265.276 C182.818,267.177343 183.139997,268.848659 183.784,270.29 C184.428003,271.731341 185.225329,273.095994 186.176,274.384 C187.126671,275.672006 188.169328,276.929327 189.304,278.156 C190.438672,279.382673 191.481329,280.685993 192.432,282.066 C185,283 184.612,283.308 184.612,283.308 Z M222.01,330.228 C215.841155,330.792858 211.154016,328.710015 208.026,325.674 C204.897984,322.637985 203.334,317.562702 203.334,310.448 L211.246,310.448 C211.246,314.925356 212.21199,318.252656 214.144,320.43 C216.07601,322.607344 218.703441,323.226631 221.918,323.696 L222.01,330.228 Z M295.978,297.752 C295.057995,300.573347 293.770008,303.087989 292.114,305.296 C290.457992,307.504011 288.464678,309.28266 286.134,310.632 C283.803322,311.98134 281.227347,312.656 278.406,312.656 L278.406,306.032 C279.387338,306.032 280.521994,305.710003 281.81,305.066 C283.098006,304.421997 284.293994,303.410007 285.398,302.03 C285.989489,301.290638 286.532559,300.432447 287.027214,299.455417 C287.455825,298.608836 287.642151,297.579212 288.204,296.648 L295.978,297.752 Z" id="სეია-copy" fill="#666666" sketch:type="MSShapeGroup"></path>
            </g>
        </g>
    </g>
</svg>