<?xml version="1.0" encoding="UTF-8" standalone="no"?>
<svg width="465px" height="360px" viewBox="0 0 465 360" version="1.1" xmlns="http://www.w3.org/2000/svg" xmlns:xlink="http://www.w3.org/1999/xlink" xmlns:sketch="http://www.bohemiancoding.com/sketch/ns">
    <!-- Generator: Sketch Beta 3.4.4 (17258) - http://www.bohemiancoding.com/sketch -->
    <title>Link</title>
    <desc>Created with Sketch Beta.</desc>
    <defs></defs>
    <g id="Outline" stroke="none" stroke-width="1" fill="none" fill-rule="evenodd" sketch:type="MSPage">
        <g id="Link" sketch:type="MSArtboardGroup">
            <g id="Group" sketch:type="MSLayerGroup">
                <g id="Tag">
                    <rect id="Rectangle-1" fill="#BABABD" sketch:type="MSShapeGroup" x="0" y="0" width="30" height="360"></rect>
                    <text id="აღმავალი" sketch:type="MSTextLayer" transform="translate(13.500000, 270.500000) rotate(-90.000000) translate(-13.500000, -270.500000) " font-family="BG Courier" font-size="21" font-weight="normal" sketch:alignment="middle" fill="#646466">
                        <tspan x="-18.672" y="275">ბმული</tspan>
                    </text>
                    <text id="ascender" sketch:type="MSTextLayer" transform="translate(14.500000, 90.500000) rotate(-90.000000) translate(-14.500000, -90.500000) " font-family="BG Courier" font-size="21" font-weight="normal" sketch:alignment="middle" fill="#646466">
                        <tspan x="-10.7" y="95">link</tspan>
                    </text>
                </g>
                <path d="M221.451172,127.417969 C222.649095,128.555995 223.592444,129.843743 224.28125,131.28125 C224.970056,132.718757 225.314453,134.50064 225.314453,136.626953 C225.314453,138.753266 224.850265,140.752269 223.921875,142.624023 C222.993485,144.495778 221.585947,146.120436 219.699219,147.498047 C217.692698,148.905606 215.296889,149.998694 212.511719,150.777344 C209.726549,151.555993 206.282573,151.945312 202.179688,151.945312 C195.471321,151.945312 190.455095,150.964528 187.130859,149.00293 C183.806624,147.041331 182.144531,144.173847 182.144531,140.400391 C182.144531,137.345688 183.342436,134.934905 185.738281,133.167969 C188.134127,131.401033 191.188784,130.442709 194.902344,130.292969 L194.902344,129.664062 C194.003902,129.39453 193.075526,129.057619 192.117188,128.65332 C191.158849,128.249021 190.33529,127.777346 189.646484,127.238281 C188.867835,126.609372 188.238935,125.868168 187.759766,125.014648 C187.280597,124.161129 187.041016,123.105475 187.041016,121.847656 C187.041016,120.260409 187.602533,118.800462 188.725586,117.467773 C189.848638,116.135084 191.548166,114.989588 193.824219,114.03125 L193.824219,113.357422 C190.949204,112.009759 188.718107,110.280284 187.130859,108.168945 C185.543612,106.057607 184.75,103.609389 184.75,100.824219 C184.75,96.6314895 186.314763,93.1875135 189.444336,90.4921875 C192.573909,87.7968615 196.579403,86.4492188 201.460938,86.4492188 C202.8086,86.4492188 204.148756,86.583983 205.481445,86.8535156 C206.814134,87.1230482 208.169264,87.4674458 209.546875,87.8867188 L225,87.8867188 L225,92.1992188 L214.578125,92.1992188 L214.578125,92.46875 C215.686203,93.7565169 216.509763,95.1790287 217.048828,96.7363281 C217.587893,98.2936276 217.857422,99.8209561 217.857422,101.318359 C217.857422,105.211608 216.277685,108.505846 213.118164,111.201172 C209.958643,113.896498 206.282573,115.244141 202.089844,115.244141 L196.654297,115.244141 C195.965491,115.483725 195.246749,115.917966 194.498047,116.546875 C193.749345,117.175784 193.375,118.029291 193.375,119.107422 C193.375,120.2155 193.68945,121.061521 194.318359,121.645508 C194.947269,122.229495 195.710933,122.626301 196.609375,122.835938 C197.477869,123.075522 198.488601,123.22526 199.641602,123.285156 C200.794602,123.345052 201.98502,123.389974 203.212891,123.419922 C204.530606,123.44987 206.334949,123.539713 208.625977,123.689453 C210.917004,123.839193 212.541662,123.929036 213.5,123.958984 C214.877611,124.018881 216.262688,124.348304 217.655273,124.947266 C219.047859,125.546227 220.313145,126.369786 221.451172,127.417969 L221.451172,127.417969 Z M209.322266,101.138672 C209.322266,97.6347481 208.61101,94.8421328 207.188477,92.7607422 C205.765943,90.6793516 203.76694,89.6386719 201.191406,89.6386719 C199.783847,89.6386719 198.578456,89.9306611 197.575195,90.5146484 C196.571935,91.0986357 195.755863,91.9296821 195.126953,93.0078125 C194.527992,93.9960987 194.101238,95.1865165 193.84668,96.5791016 C193.592121,97.9716867 193.464844,99.4016854 193.464844,100.869141 C193.464844,104.193376 194.191073,106.903635 195.643555,109 C197.096036,111.096365 198.975249,112.144531 201.28125,112.144531 C203.856784,112.144531 205.840813,111.103852 207.233398,109.022461 C208.625984,106.94107 209.322266,104.313167 209.322266,101.138672 L209.322266,101.138672 Z M217.947266,138.289062 C217.947266,136.611971 217.557947,135.23438 216.779297,134.15625 C216.000647,133.07812 214.817716,132.344403 213.230469,131.955078 C212.391923,131.835286 210.669935,131.700522 208.064453,131.550781 C205.458971,131.401041 202.434262,131.326172 198.990234,131.326172 C195.755843,131.955081 193.457364,133.010735 192.094727,134.493164 C190.73209,135.975593 190.050781,137.884754 190.050781,140.220703 C190.050781,141.268885 190.275388,142.272131 190.724609,143.230469 C191.17383,144.188807 191.952468,145.072262 193.060547,145.880859 C194.108729,146.659509 195.516267,147.295896 197.283203,147.790039 C199.050139,148.284182 201.206367,148.53125 203.751953,148.53125 C208.154319,148.53125 211.620756,147.68523 214.151367,145.993164 C216.681979,144.301098 217.947266,141.73309 217.947266,138.289062 L217.947266,138.289062 Z M251.863281,132 L230.435547,132 L230.435547,129.035156 C231.124352,128.97526 231.835608,128.915365 232.569336,128.855469 C233.303064,128.795573 233.93945,128.675782 234.478516,128.496094 C235.317061,128.226561 235.938475,127.754886 236.342773,127.081055 C236.747072,126.407223 236.949219,125.531255 236.949219,124.453125 L236.949219,97.0957031 C236.949219,96.137365 236.732099,95.2613972 236.297852,94.4677734 C235.863605,93.6741497 235.257165,93.0078152 234.478516,92.46875 C233.909502,92.1093732 233.085943,91.8024101 232.007812,91.5478516 C230.929682,91.293293 229.941411,91.136068 229.042969,91.0761719 L229.042969,88.15625 L244.675781,87.1679688 L245.304688,87.796875 L245.304688,123.914062 C245.304688,124.962245 245.506834,125.830726 245.911133,126.519531 C246.315432,127.208337 246.951819,127.717446 247.820312,128.046875 C248.47917,128.316408 249.123044,128.533528 249.751953,128.698242 C250.380863,128.862957 251.084632,128.97526 251.863281,129.035156 L251.863281,132 Z M246.203125,69.6933594 C246.203125,71.4003992 245.641607,72.8902931 244.518555,74.1630859 C243.395502,75.4358788 242.010425,76.0722656 240.363281,76.0722656 C238.83593,76.0722656 237.510748,75.4658264 236.387695,74.2529297 C235.264643,73.040033 234.703125,71.6549557 234.703125,70.0976562 C234.703125,68.4505126 235.264643,67.013027 236.387695,65.7851562 C237.510748,64.5572855 238.83593,63.9433594 240.363281,63.9433594 C242.070321,63.9433594 243.470372,64.519851 244.563477,65.6728516 C245.656581,66.8258521 246.203125,68.166008 246.203125,69.6933594 L246.203125,69.6933594 Z M290.271484,67.8066406 C290.271484,69.1543036 289.912113,70.2923131 289.193359,71.2207031 C288.474606,72.1490932 287.381518,72.6132812 285.914062,72.6132812 C284.985672,72.6132812 284.1696,72.4186217 283.46582,72.0292969 C282.762041,71.639972 282.11068,71.1158887 281.511719,70.4570312 C280.912757,69.7981738 280.358727,69.0494834 279.849609,68.2109375 C279.340492,67.3723916 278.906252,66.6985703 278.546875,66.1894531 C276.540355,66.2792973 274.990565,67.6793484 273.897461,70.3896484 C272.804357,73.0999484 272.257812,77.4198922 272.257812,83.3496094 L272.257812,87.8867188 L283.667969,87.8867188 L283.667969,92.1992188 L272.257812,92.1992188 L272.257812,124.003906 C272.257812,125.052089 272.459959,125.905596 272.864258,126.564453 C273.268557,127.223311 273.904944,127.717446 274.773438,128.046875 C275.492191,128.316408 276.450515,128.533528 277.648438,128.698242 C278.84636,128.862957 279.879553,128.97526 280.748047,129.035156 L280.748047,132 L257.388672,132 L257.388672,129.035156 C258.077477,128.97526 258.788733,128.915365 259.522461,128.855469 C260.256189,128.795573 260.892575,128.675782 261.431641,128.496094 C262.270186,128.226561 262.8916,127.754886 263.295898,127.081055 C263.700197,126.407223 263.902344,125.531255 263.902344,124.453125 L263.902344,92.1992188 L255.142578,92.1992188 L255.142578,87.8867188 L263.902344,87.8867188 L263.902344,85.0566406 C263.902344,78.3183257 265.646792,72.8603725 269.135742,68.6826172 C272.624692,64.5048619 276.989557,62.4160156 282.230469,62.4160156 C284.895847,62.4160156 286.902337,62.9400989 288.25,63.9882812 C289.597663,65.0364636 290.271484,66.3092373 290.271484,67.8066406 L290.271484,67.8066406 Z M314.574219,130.068359 C312.627594,130.876957 310.785816,131.558265 309.048828,132.112305 C307.31184,132.666344 305.185559,132.943359 302.669922,132.943359 C298.956362,132.943359 296.343432,132.007496 294.831055,130.135742 C293.318677,128.263988 292.5625,125.621111 292.5625,122.207031 L292.5625,92.1992188 L284.566406,92.1992188 L284.566406,87.8867188 L292.742188,87.8867188 L292.742188,74.0957031 L300.917969,74.0957031 L300.917969,87.8867188 L313.630859,87.8867188 L313.630859,92.1992188 L301.007812,92.1992188 L301.007812,116.951172 C301.007812,118.807952 301.075195,120.357741 301.209961,121.600586 C301.344727,122.843431 301.666664,123.929032 302.175781,124.857422 C302.65495,125.725916 303.373693,126.384763 304.332031,126.833984 C305.290369,127.283205 306.578117,127.507812 308.195312,127.507812 C308.944014,127.507812 310.044589,127.44043 311.49707,127.305664 C312.949552,127.170898 313.975257,126.998699 314.574219,126.789062 L314.574219,130.068359 Z" id="gift" fill="#BABABD" sketch:type="MSShapeGroup"></path>
                <path d="M194.902344,129.664062 C194.003902,129.39453 193.075526,129.057619 192.117188,128.65332 C191.158849,128.249021 190.33529,127.777346 189.646484,127.238281 C188.867835,126.609372 188.238935,125.868168 187.759766,125.014648 C187.280597,124.161129 187.041016,123.105475 187.041016,121.847656 C187.041016,120.260409 187.602533,118.800462 188.725586,117.467773 C189.848638,116.135084 191.548166,114.989588 193.824219,114.03125 L196.654297,115.244141 C195.965491,115.483725 195.246749,115.917966 194.498047,116.546875 C193.749345,117.175784 193.375,118.029291 193.375,119.107422 C193.375,120.2155 193.68945,121.061521 194.318359,121.645508 C194.947269,122.229495 195.710933,122.626301 196.609375,122.835938 C197.477869,123.075522 198.488601,123.22526 199.641602,123.285156 C195.966431,126.870667 194.902344,129.664062 194.902344,129.664062 Z" id="gift" fill="#666666" sketch:type="MSShapeGroup"></path>
                <path d="M188.016,292.416 C188.016,289.778653 188.460662,287.44801 189.35,285.424 C190.239338,283.39999 191.35866,281.590675 192.708,279.996 C194.05734,278.401325 195.498659,276.97534 197.032,275.718 C198.565341,274.46066 200.00666,273.264672 201.356,272.13 C202.70534,270.995328 203.824662,269.860672 204.714,268.726 C205.603338,267.591328 206.048,266.34934 206.048,265 C206.048,263.589326 206.002,262.362672 205.91,261.32 C205.818,260.277328 205.312005,259.510669 204.392,259.02 L197.952,255.432 L197.952,268.036 L190.224,268.036 L190.224,251.844 C190.224,250.862662 190.438665,250.03467 190.868,249.36 C191.297335,248.68533 191.84933,248.179335 192.524,247.842 C193.19867,247.504665 193.934663,247.366666 194.732,247.428 C195.529337,247.489334 196.326663,247.734665 197.124,248.164 L209.82,254.972 C210.617337,255.401335 211.276664,255.845998 211.798,256.306 C212.319336,256.766002 212.717999,257.348663 212.994,258.054 C213.270001,258.759337 213.454,259.633328 213.546,260.676 C213.638,261.718672 213.684,263.067992 213.684,264.724 C213.684,266.196007 214.097996,267.514661 214.926,268.68 C215.754004,269.845339 216.781327,271.010661 218.008,272.176 C219.234673,273.341339 220.583993,274.537327 222.056,275.764 C223.528007,276.990673 224.877327,278.385992 226.104,279.95 C227.330673,281.514008 228.357996,283.30799 229.186,285.332 C230.014004,287.35601 230.428,289.71732 230.428,292.416 C230.428,295.298681 229.922005,297.981988 228.91,300.466 C227.897995,302.950012 226.472009,305.081324 224.632,306.86 C222.791991,308.638676 220.584013,310.033995 218.008,311.046 C215.431987,312.058005 212.580016,312.564 209.452,312.564 C206.323984,312.564 203.441347,312.134671 200.804,311.276 C198.166653,310.417329 195.897343,309.129342 193.996,307.412 C192.094657,305.694658 190.622672,303.578679 189.58,301.064 C188.537328,298.549321 188.016,295.666683 188.016,292.416 L188.016,292.416 Z M209.82,271.808 C209.574665,273.096006 209.053337,274.245995 208.256,275.258 C207.458663,276.270005 206.554005,277.220662 205.542,278.11 C204.529995,278.999338 203.456672,279.888662 202.322,280.778 C201.187328,281.667338 200.144671,282.663994 199.194,283.768 C198.243329,284.872006 197.461336,286.129326 196.848,287.54 C196.234664,288.950674 195.928,290.606657 195.928,292.508 C195.928,294.593344 196.280663,296.463992 196.986,298.12 C197.691337,299.776008 198.657327,301.171328 199.884,302.306 C201.110673,303.440672 202.536659,304.314664 204.162,304.928 C205.787341,305.541336 207.519991,305.848 209.36,305.848 C213.40802,305.848 216.627988,304.744011 219.02,302.536 C221.412012,300.327989 222.608,296.832024 222.608,292.048 C222.608,290.269324 222.31667,288.70534 221.734,287.356 C221.15133,286.00666 220.430671,284.795339 219.572,283.722 C218.713329,282.648661 217.762672,281.667338 216.72,280.778 C215.677328,279.888662 214.680671,278.999338 213.73,278.11 C212.779329,277.220662 211.936004,276.270005 211.2,275.258 C210.463996,274.245995 210.004001,273.096006 209.82,271.808 L209.82,271.808 Z M267.872,264.172 C270.509347,264.172 272.609992,264.585996 274.174,265.414 C275.738008,266.242004 276.933996,267.391993 277.762,268.864 C278.590004,270.336007 279.157332,272.08399 279.464,274.108 C279.770668,276.13201 279.985333,278.370654 280.108,280.824 L280.384,280.824 C280.506667,278.309321 280.813331,276.024677 281.304,273.97 C281.794669,271.915323 282.576661,270.167341 283.65,268.726 C284.723339,267.284659 286.133991,266.165337 287.882,265.368 C289.630009,264.570663 291.85332,264.172 294.552,264.172 C297.680016,264.172 300.225324,264.616662 302.188,265.506 C304.150676,266.395338 305.683994,267.667992 306.788,269.324 C307.892006,270.980008 308.643331,272.988655 309.042,275.35 C309.440669,277.711345 309.64,280.363985 309.64,283.308 L309.64,309.344 C309.64,312.901351 308.904007,315.998653 307.432,318.636 C305.959993,321.273347 303.936013,323.450658 301.36,325.168 C298.783987,326.885342 295.732684,328.157996 292.206,328.986 C288.679316,329.814004 284.861354,330.228 280.752,330.228 C276.642646,330.228 272.962683,329.844671 269.712,329.078 C266.461317,328.311329 263.716678,327.038676 261.478,325.26 C259.239322,323.481324 257.522006,321.181347 256.326,318.36 C255.129994,315.538653 254.532,312.042688 254.532,307.872 L262.536,307.872 C262.536,310.938682 262.980662,313.48399 263.87,315.508 C264.759338,317.53201 266.016659,319.157327 267.642,320.384 C269.267341,321.610673 271.229989,322.469331 273.53,322.96 C275.830012,323.450669 278.390653,323.696 281.212,323.696 C284.033347,323.696 286.701321,323.420003 289.216,322.868 C291.730679,322.315997 293.923324,321.41134 295.794,320.154 C297.664676,318.89666 299.151994,317.240677 300.256,315.186 C301.360006,313.131323 301.912,310.570682 301.912,307.504 L301.912,285.332 C301.912,280.425309 301.390672,276.776012 300.348,274.384 C299.305328,271.991988 297.128017,270.796 293.816,270.796 C291.607989,270.796 289.936672,271.363328 288.802,272.498 C287.667328,273.632672 286.870002,275.150657 286.41,277.052 C285.949998,278.953343 285.704667,281.145988 285.674,283.63 C285.643333,286.114012 285.628,288.674653 285.628,291.312 L274.68,291.312 L274.68,284.136 C274.68,282.11199 274.572668,280.287341 274.358,278.662 C274.143332,277.036659 273.775336,275.641339 273.254,274.476 C272.732664,273.310661 272.042671,272.406003 271.184,271.762 C270.325329,271.117997 269.22134,270.796 267.872,270.796 C266.093324,270.796 264.713338,271.255995 263.732,272.176 C262.750662,273.096005 262.014669,274.23066 261.524,275.58 C261.033331,276.92934 260.665335,278.370659 260.42,279.904 C260.174665,281.437341 259.868002,282.786661 259.5,283.952 C259.070665,285.240006 258.580003,286.435994 258.028,287.54 C257.475997,288.644006 256.786004,289.609996 255.958,290.438 C255.129996,291.266004 254.133339,291.925331 252.968,292.416 C251.802661,292.906669 250.422675,293.152 248.828,293.152 C245.393316,293.152 242.894008,292.247342 241.33,290.438 C239.765992,288.628658 238.984,286.344014 238.984,283.584 L238.984,280.824 C238.984,280.026663 239.014666,279.352003 239.076,278.8 C239.137334,278.12533 239.198666,277.573335 239.26,277.144 L246.436,277.144 C246.374666,277.634669 246.344,278.125331 246.344,278.616 C246.282666,279.045335 246.252,279.505331 246.252,279.996 L246.252,281.468 C246.252,283.001341 246.420665,284.227995 246.758,285.148 C247.095335,286.068005 247.877327,286.528 249.104,286.528 C250.637341,286.528 251.69533,285.56201 252.278,283.63 C252.86067,281.69799 253.458664,279.168016 254.072,276.04 C254.378668,274.445325 254.838664,272.927341 255.452,271.486 C256.065336,270.044659 256.908661,268.787339 257.982,267.714 C259.055339,266.640661 260.389325,265.782003 261.984,265.138 C263.578675,264.493997 265.541322,264.172 267.872,264.172 L267.872,264.172 Z" id="ბუ" fill="#BABABD" sketch:type="MSShapeGroup"></path>
                <path d="M206.048,265 C206.048,265 206.002,262.362672 205.91,261.32 C205.818,260.277328 205.312005,259.510669 204.392,259.02 L197.952,255.432 L194.732,247.428 C194.732,247.428 196.326663,247.734665 197.124,248.164 L209.82,254.972 C210.617337,255.401335 211.276664,255.845998 211.798,256.306 C212.319336,256.766002 212.717999,257.348663 212.994,258.054 C213.270001,258.759337 213.454,259.633328 213.546,260.676 C213.638,261.718672 213.684,264.724 213.684,264.724 L206.048,265 Z" id="ბუ" fill="#666666" sketch:type="MSShapeGroup"></path>
                <path d="M0,181 L465,181" id="Path-1" stroke="#BABABD" sketch:type="MSShapeGroup"></path>
            </g>
        </g>
    </g>
</svg>