<?xml version="1.0" encoding="UTF-8" standalone="no"?>
<svg width="465px" height="360px" viewBox="0 0 465 360" version="1.1" xmlns="http://www.w3.org/2000/svg" xmlns:xlink="http://www.w3.org/1999/xlink" xmlns:sketch="http://www.bohemiancoding.com/sketch/ns">
    <!-- Generator: Sketch Beta 3.4.4 (17258) - http://www.bohemiancoding.com/sketch -->
    <title>Spur</title>
    <desc>Created with Sketch Beta.</desc>
    <defs></defs>
    <g id="Outline" stroke="none" stroke-width="1" fill="none" fill-rule="evenodd" sketch:type="MSPage">
        <g id="Spur" sketch:type="MSArtboardGroup">
            <g id="Group" sketch:type="MSLayerGroup">
                <g>
                    <g id="Tag">
                        <rect id="Rectangle-1" fill="#BABABD" sketch:type="MSShapeGroup" x="0" y="0" width="30" height="360"></rect>
                        <text id="აღმავალი" sketch:type="MSTextLayer" transform="translate(13.500000, 270.500000) rotate(-90.000000) translate(-13.500000, -270.500000) " font-family="BG Courier" font-size="21" font-weight="normal" sketch:alignment="middle" fill="#646466">
                            <tspan x="-18.672" y="275">შვერი</tspan>
                        </text>
                        <text id="ascender" sketch:type="MSTextLayer" transform="translate(14.500000, 90.500000) rotate(-90.000000) translate(-14.500000, -90.500000) " font-family="BG Courier" font-size="21" font-weight="normal" sketch:alignment="middle" fill="#646466">
                            <tspan x="-10.7" y="95">spur</tspan>
                        </text>
                    </g>
                    <path d="M230.198,127.812 L232.498,136 L238.018,136 L238.018,101.408 L209.222,101.408 L209.222,108.768 L230.198,108.768 C230.320667,111.773348 229.922005,114.57932 229.002,117.186 C228.081995,119.79268 226.717342,122.06199 224.908,123.994 C223.098658,125.92601 220.875347,127.443994 218.238,128.548 C215.600653,129.652006 212.564684,130.204 209.13,130.204 C205.449982,130.204 202.214681,129.483341 199.424,128.042 C196.633319,126.600659 194.287343,124.668679 192.386,122.246 C190.484657,119.823321 189.043338,117.032682 188.062,113.874 C187.080662,110.715318 186.59,107.418684 186.59,103.984 C186.59,100.487983 187.019329,97.0686834 187.878,93.726 C188.736671,90.3833166 190.070658,87.4086797 191.88,84.802 C193.689342,82.1953203 196.019986,80.0946746 198.872,78.5 C201.724014,76.9053254 205.143313,76.108 209.13,76.108 C211.583346,76.108 213.898656,76.3993304 216.076,76.982 C218.253344,77.5646696 220.200658,78.4386608 221.918,79.604 C223.635342,80.7693392 225.076661,82.2566576 226.242,84.066 C227.407339,85.8753424 228.204665,88.0373208 228.634,90.552 L237.374,90.552 C236.760664,86.6879807 235.610675,83.391347 233.924,80.662 C232.237325,77.932653 230.152012,75.6786756 227.668,73.9 C225.183988,72.1213244 222.362682,70.8180041 219.204,69.99 C216.045318,69.1619959 212.687351,68.748 209.13,68.748 C203.916641,68.748 199.362686,69.7139903 195.468,71.646 C191.573314,73.5780097 188.32268,76.1693171 185.716,79.42 C183.10932,82.6706829 181.146673,86.4579784 179.828,90.782 C178.509327,95.1060216 177.85,99.6599761 177.85,104.444 C177.85,108.737355 178.555326,112.877313 179.966,116.864 C181.376674,120.850687 183.43132,124.377318 186.13,127.444 C188.82868,130.510682 192.109981,132.948658 195.974,134.758 C199.838019,136.567342 204.223309,137.472 209.13,137.472 C212.994019,137.472 216.827314,136.720674 220.63,135.218 C224.432686,133.715326 227.621987,131.246684 230.198,127.812 L230.198,127.812 Z M282.638,107.664 L255.314,107.664 C255.436667,105.823991 255.83533,104.091341 256.51,102.466 C257.18467,100.840659 258.104661,99.4146728 259.27,98.188 C260.435339,96.9613272 261.830659,95.9953369 263.456,95.29 C265.081341,94.5846631 266.90599,94.232 268.93,94.232 C270.892676,94.232 272.686659,94.5846631 274.312,95.29 C275.937341,95.9953369 277.347994,96.945994 278.544,98.142 C279.740006,99.338006 280.690663,100.763992 281.396,102.42 C282.101337,104.076008 282.515333,105.823991 282.638,107.664 L282.638,107.664 Z M290.182,120.912 L282.454,120.912 C281.77933,124.040016 280.384011,126.370659 278.268,127.904 C276.151989,129.437341 273.438017,130.204 270.126,130.204 C267.549987,130.204 265.311343,129.774671 263.41,128.916 C261.508657,128.057329 259.944673,126.907341 258.718,125.466 C257.491327,124.024659 256.602003,122.368676 256.05,120.498 C255.497997,118.627324 255.252666,116.649344 255.314,114.564 L290.918,114.564 C291.040667,111.681319 290.780003,108.645349 290.136,105.456 C289.491997,102.266651 288.326675,99.3226802 286.64,96.624 C284.953325,93.9253198 282.714681,91.7020087 279.924,89.954 C277.133319,88.2059913 273.622021,87.332 269.39,87.332 C266.139317,87.332 263.149347,87.9453272 260.42,89.172 C257.690653,90.3986728 255.329343,92.115989 253.336,94.324 C251.342657,96.532011 249.794006,99.1386516 248.69,102.144 C247.585994,105.149348 247.034,108.461315 247.034,112.08 C247.156667,115.698685 247.693329,119.041318 248.644,122.108 C249.594671,125.174682 251.020657,127.811989 252.922,130.02 C254.823343,132.228011 257.169319,133.945327 259.96,135.172 C262.750681,136.398673 266.047314,137.012 269.85,137.012 C275.24736,137.012 279.724649,135.66268 283.282,132.964 C286.839351,130.26532 289.139328,126.248027 290.182,120.912 L290.182,120.912 Z M309.87,88.436 L309.87,74.176 L302.05,74.176 L302.05,88.436 L293.954,88.436 L293.954,95.336 L302.05,95.336 L302.05,125.604 C302.05,127.812011 302.264665,129.59066 302.694,130.94 C303.123335,132.28934 303.782662,133.331996 304.672,134.068 C305.561338,134.804004 306.726659,135.309999 308.168,135.586 C309.609341,135.862001 311.34199,136 313.366,136 L319.346,136 L319.346,129.1 L315.758,129.1 C314.531327,129.1 313.53467,129.054 312.768,128.962 C312.001329,128.87 311.403335,128.670668 310.974,128.364 C310.544665,128.057332 310.253334,127.628003 310.1,127.076 C309.946666,126.523997 309.87,125.788005 309.87,124.868 L309.87,95.336 L319.346,95.336 L319.346,88.436 L309.87,88.436 Z" id="Get" fill="#BABABD" sketch:type="MSShapeGroup"></path>
                    <path d="M232.498,136 L238.018,136 L238.018,127.812 L230.198,127.812 L232.498,136 Z" id="Get" fill="#666666" sketch:type="MSShapeGroup"></path>
                    <path d="M186.268,268.036 C186.268,270.918681 186.55933,273.417989 187.142,275.534 C187.72467,277.650011 188.997324,279.474659 190.96,281.008 C192.738676,282.418674 194.271994,283.706661 195.56,284.872 C196.848006,286.037339 197.905996,287.24866 198.734,288.506 C199.562004,289.76334 200.175331,291.112659 200.574,292.554 C200.972669,293.995341 201.172,295.666657 201.172,297.568 C201.172,299.59201 200.804004,301.523991 200.068,303.364 C199.331996,305.204009 198.258674,306.813993 196.848,308.194 C195.437326,309.574007 193.735343,310.662663 191.742,311.46 C189.748657,312.257337 187.464013,312.656 184.888,312.656 C182.557322,312.656 180.410676,312.349336 178.448,311.736 C176.485324,311.122664 174.798674,310.218006 173.388,309.022 C171.977326,307.825994 170.873337,306.323342 170.076,304.514 C169.278663,302.704658 168.88,300.604012 168.88,298.212 C168.88,297.475996 168.895333,296.801336 168.926,296.188 C168.956667,295.574664 169.002666,295.022669 169.064,294.532 C169.125334,293.979997 169.186666,293.458669 169.248,292.968 L177.068,293.06 C177.006666,293.366668 176.945334,293.765331 176.884,294.256 C176.822666,294.685335 176.792,295.221997 176.792,295.866 L176.792,298.12 C176.792,299.040005 176.960665,299.959995 177.298,300.88 C177.635335,301.800005 178.156663,302.643329 178.862,303.41 C179.567337,304.17667 180.425995,304.789998 181.438,305.25 C182.450005,305.710002 183.63066,305.94 184.98,305.94 C187.67868,305.94 189.733326,305.158008 191.144,303.594 C192.554674,302.029992 193.26,300.174677 193.26,298.028 C193.26,296.310658 193.076002,294.838673 192.708,293.612 C192.339998,292.385327 191.803337,291.312005 191.098,290.392 C190.392663,289.471995 189.564671,288.62867 188.614,287.862 C187.663329,287.095329 186.636006,286.313337 185.532,285.516 C184.059993,284.411994 182.848671,283.308006 181.898,282.204 C180.947329,281.099994 180.196003,279.888673 179.644,278.57 C179.091997,277.251327 178.708668,275.733342 178.494,274.016 C178.279332,272.298658 178.172,270.305345 178.172,268.036 L186.268,268.036 Z M249.472,292.232 C249.472,295.237348 249.012005,297.997321 248.092,300.512 C247.171995,303.026679 245.838009,305.173324 244.09,306.952 C242.341991,308.730676 240.241346,310.125995 237.788,311.138 C235.334654,312.150005 232.605348,312.656 229.6,312.656 C225.797314,312.656 222.654012,312.165338 220.17,311.184 C217.685988,310.202662 215.708007,308.807342 214.236,306.998 C212.763993,305.188658 211.73667,303.011346 211.154,300.466 C210.57133,297.920654 210.28,295.053349 210.28,291.864 L210.28,248.256 L217.916,248.256 L217.916,290.852 C217.916,295.820025 218.805324,299.60732 220.584,302.214 C222.362676,304.82068 225.306646,306.124 229.416,306.124 C233.280019,306.124 236.285323,304.989345 238.432,302.72 C240.578677,300.450655 241.652,297.230688 241.652,293.06 C241.652,290.913323 241.330003,289.073341 240.686,287.54 C240.041997,286.006659 239.244671,284.596006 238.294,283.308 C237.343329,282.019994 236.316006,280.793339 235.212,279.628 C234.107994,278.462661 233.080671,277.20534 232.13,275.856 C231.179329,274.50666 230.382003,272.988675 229.738,271.302 C229.093997,269.615325 228.772,267.606678 228.772,265.276 L236.5,265.276 C236.5,267.177343 236.821997,268.848659 237.466,270.29 C238.110003,271.731341 238.907329,273.095994 239.858,274.384 C240.808671,275.672006 241.851328,276.929327 242.986,278.156 C244.120672,279.382673 245.163329,280.685993 246.114,282.066 C247.064671,283.446007 247.861997,284.948659 248.506,286.574 C249.150003,288.199341 249.472,290.085323 249.472,292.232 L249.472,292.232 Z M290.596,283.032 C290.780001,280.517321 291.178664,278.125345 291.792,275.856 C292.405336,273.586655 293.34066,271.578009 294.598,269.83 C295.85534,268.081991 297.465324,266.702005 299.428,265.69 C301.390676,264.677995 303.751986,264.172 306.512,264.172 C309.762683,264.172 312.507322,264.769994 314.746,265.966 C316.984678,267.162006 318.793993,268.741324 320.174,270.704 C321.554007,272.666676 322.53533,274.905321 323.118,277.42 C323.70067,279.934679 323.992,282.479987 323.992,285.056 C323.992,289.533356 323.593337,293.07532 322.796,295.682 C321.998663,298.28868 320.986673,300.389325 319.76,301.984 C320.925339,301.677332 322.059994,301.401335 323.164,301.156 C324.268006,300.910665 325.279995,300.726667 326.2,300.604 C327.242672,300.419999 328.254662,300.297334 329.236,300.236 L329.236,307.596 C328.009327,307.534666 326.752006,307.534666 325.464,307.596 C324.359994,307.657334 323.118007,307.734 321.738,307.826 C320.357993,307.918 318.962674,308.086665 317.552,308.332 C316.263994,308.516001 314.853341,308.853331 313.32,309.344 C311.786659,309.834669 310.34534,310.325331 308.996,310.816 C307.64666,311.306669 306.527338,311.735998 305.638,312.104 C304.748662,312.472002 304.334666,312.656 304.396,312.656 C304.334666,312.656 304.304,312.686666 304.304,312.748 L304.304,305.204 C305.714674,305.204 307.125326,304.86667 308.536,304.192 C309.946674,303.51733 311.219328,302.474674 312.354,301.064 C313.488672,299.653326 314.408663,297.859344 315.114,295.682 C315.819337,293.504656 316.172,290.882682 316.172,287.816 C316.172,282.234639 315.374675,278.002681 313.78,275.12 C312.185325,272.237319 309.732017,270.796 306.42,270.796 C303.843987,270.796 301.850674,271.516659 300.44,272.958 C299.029326,274.399341 297.971337,276.269988 297.266,278.57 C296.560663,280.870011 296.131334,283.415319 295.978,286.206 C295.824666,288.996681 295.748,291.710653 295.748,294.348 L285.536,294.348 C285.536,291.710653 285.398001,288.996681 285.122,286.206 C284.845999,283.415319 284.309337,280.885345 283.512,278.616 C282.714663,276.346655 281.595341,274.476007 280.154,273.004 C278.712659,271.531993 276.826678,270.796 274.496,270.796 C271.183983,270.796 268.51601,272.160653 266.492,274.89 C264.46799,277.619347 263.456,282.142635 263.456,288.46 C263.456,292.140018 263.931329,295.129988 264.882,297.43 C265.832671,299.730011 266.997993,301.523994 268.378,302.812 C269.758007,304.100006 271.199326,304.958665 272.702,305.388 C274.204674,305.817335 275.507994,306.032 276.612,306.032 L276.612,312.656 C273.851986,312.656 271.214679,312.288004 268.7,311.552 C266.185321,310.815996 263.946676,309.558676 261.984,307.78 C260.021324,306.001324 258.457339,303.578682 257.292,300.512 C256.126661,297.445318 255.544,293.55069 255.544,288.828 C255.544,285.45465 255.865997,282.265348 256.51,279.26 C257.154003,276.254652 258.211993,273.632678 259.684,271.394 C261.156007,269.155322 263.103321,267.392006 265.526,266.104 C267.948679,264.815994 270.969315,264.172 274.588,264.172 C277.654682,264.172 280.15399,264.693328 282.086,265.736 C284.01801,266.778672 285.566661,268.158658 286.732,269.876 C287.897339,271.593342 288.740664,273.601988 289.262,275.902 C289.783336,278.202011 290.135999,280.578654 290.32,283.032 L290.596,283.032 Z" id="ასო" fill="#BABABD" sketch:type="MSShapeGroup"></path>
                    <path d="M319.76,301.984 C320.925339,301.677332 322.059994,301.401335 323.164,301.156 C324.268006,300.910665 325.279995,300.726667 326.2,300.604 C327.242672,300.419999 328.254662,300.297334 329.236,300.236 L329.236,307.596 C328.009327,307.534666 326.752006,307.534666 325.464,307.596 C324.359994,307.657334 323.118007,307.734 321.738,307.826 C320.357993,307.918 318.962674,308.086665 317.552,308.332 L319.76,301.984 Z" id="ასო" fill="#666666" sketch:type="MSShapeGroup"></path>
                    <path d="M0,181 L465,181" id="Path-1" stroke="#BABABD" sketch:type="MSShapeGroup"></path>
                </g>
            </g>
        </g>
    </g>
</svg>