<?xml version="1.0" encoding="UTF-8" standalone="no"?>
<svg width="465px" height="360px" viewBox="0 0 465 360" version="1.1" xmlns="http://www.w3.org/2000/svg" xmlns:xlink="http://www.w3.org/1999/xlink" xmlns:sketch="http://www.bohemiancoding.com/sketch/ns">
    <!-- Generator: Sketch Beta 3.4.4 (17258) - http://www.bohemiancoding.com/sketch -->
    <title>Stem</title>
    <desc>Created with Sketch Beta.</desc>
    <defs></defs>
    <g id="Outline" stroke="none" stroke-width="1" fill="none" fill-rule="evenodd" sketch:type="MSPage">
        <g id="Stem" sketch:type="MSArtboardGroup">
            <g id="Group" sketch:type="MSLayerGroup">
                <g id="Tag">
                    <rect id="Rectangle-1" fill="#BABABD" sketch:type="MSShapeGroup" x="0" y="0" width="30" height="360"></rect>
                    <text id="აღმავალი" sketch:type="MSTextLayer" transform="translate(13.500000, 270.500000) rotate(-90.000000) translate(-13.500000, -270.500000) " font-family="BG Courier" font-size="21" font-weight="normal" sketch:alignment="middle" fill="#646466">
                        <tspan x="-18.672" y="275">ღერძი</tspan>
                    </text>
                    <text id="ascender" sketch:type="MSTextLayer" transform="translate(14.500000, 90.500000) rotate(-90.000000) translate(-14.500000, -90.500000) " font-family="BG Courier" font-size="21" font-weight="normal" sketch:alignment="middle" fill="#646466">
                        <tspan x="-10.7" y="95">stem</tspan>
                    </text>
                </g>
                <path d="M183.646,70.312 L183.646,136 L192.386,136 L192.386,105.916 L222.562,105.916 L222.562,98.556 L192.386,98.556 L192.386,77.672 L226.794,77.672 L226.794,70.312 L183.646,70.312 Z M277.302,135.816 C275.95266,136.613337 274.082012,137.012 271.69,137.012 C269.66599,137.012 268.056006,136.444672 266.86,135.31 C265.663994,134.175328 265.066,132.320013 265.066,129.744 C262.919323,132.320013 260.420014,134.175328 257.568,135.31 C254.715986,136.444672 251.634017,137.012 248.322,137.012 C246.175323,137.012 244.13601,136.766669 242.204,136.276 C240.27199,135.785331 238.600674,135.018672 237.19,133.976 C235.779326,132.933328 234.660004,131.568675 233.832,129.882 C233.003996,128.195325 232.59,126.156012 232.59,123.764 C232.59,121.06532 233.049995,118.857342 233.97,117.14 C234.890005,115.422658 236.101326,114.027339 237.604,112.954 C239.106674,111.880661 240.82399,111.068003 242.756,110.516 C244.68801,109.963997 246.66599,109.504002 248.69,109.136 C250.836677,108.706665 252.87599,108.384668 254.808,108.17 C256.74001,107.955332 258.441993,107.648669 259.914,107.25 C261.386007,106.851331 262.551329,106.26867 263.41,105.502 C264.268671,104.735329 264.698,103.616007 264.698,102.144 C264.698,100.426658 264.376003,99.0466719 263.732,98.004 C263.087997,96.9613281 262.260005,96.1640028 261.248,95.612 C260.235995,95.0599972 259.10134,94.6920009 257.844,94.508 C256.58666,94.3239991 255.344673,94.232 254.118,94.232 C250.805983,94.232 248.046011,94.8606604 245.838,96.118 C243.629989,97.3753396 242.434001,99.7519825 242.25,103.248 L234.43,103.248 C234.552667,100.303985 235.165994,97.8200101 236.27,95.796 C237.374006,93.7719899 238.845991,92.1313396 240.686,90.874 C242.526009,89.6166604 244.626655,88.7120028 246.988,88.16 C249.349345,87.6079972 251.87932,87.332 254.578,87.332 C256.724677,87.332 258.855989,87.4853318 260.972,87.792 C263.088011,88.0986682 265.004658,88.7273286 266.722,89.678 C268.439342,90.6286714 269.819328,91.9626581 270.862,93.68 C271.904672,95.3973419 272.426,97.6359862 272.426,100.396 L272.426,124.868 C272.426,126.708009 272.533332,128.057329 272.748,128.916 C272.962668,129.774671 273.683327,130.204 274.91,130.204 C275.58467,130.204 276.381995,130.050668 277.302,129.744 L277.302,135.816 Z M264.606,111.436 C263.624662,112.172004 262.336675,112.708665 260.742,113.046 C259.147325,113.383335 257.476009,113.659332 255.728,113.874 C253.979991,114.088668 252.216676,114.333999 250.438,114.61 C248.659324,114.886001 247.064674,115.330664 245.654,115.944 C244.243326,116.557336 243.093338,117.431328 242.204,118.566 C241.314662,119.700672 240.87,121.249324 240.87,123.212 C240.87,124.500006 241.130664,125.588662 241.652,126.478 C242.173336,127.367338 242.847996,128.087997 243.676,128.64 C244.504004,129.192003 245.469994,129.590665 246.574,129.836 C247.678006,130.081335 248.843327,130.204 250.07,130.204 C252.646013,130.204 254.853991,129.851337 256.694,129.146 C258.534009,128.440663 260.036661,127.551339 261.202,126.478 C262.367339,125.404661 263.225997,124.23934 263.778,122.982 C264.330003,121.72466 264.606,120.544006 264.606,119.44 L264.606,111.436 Z M285.03,70.312 L285.03,136 L292.85,136 L292.85,70.312 L285.03,70.312 Z M305.454,70.312 L305.454,136 L313.274,136 L313.274,70.312 L305.454,70.312 Z" id="Fall" fill="#BABABD" sketch:type="MSShapeGroup"></path>
                <path d="M183.646,70.312 L183.646,136 L192.386,136 L192.386,70.312 L183.646,70.312 Z M285.03,70.312 L285.03,136 L292.85,136 L292.85,70.312 L285.03,70.312 Z M305.454,70.312 L305.454,136 L313.274,136 L313.274,70.312 L305.454,70.312 Z" id="Fall" fill="#666666" sketch:type="MSShapeGroup"></path>
                <path d="M196.618,247.428 L196.618,310.448 C196.618,313.14668 196.250004,315.707321 195.514,318.13 C194.777996,320.552679 193.612675,322.653324 192.018,324.432 C190.423325,326.210676 188.353346,327.621328 185.808,328.664 C183.262654,329.706672 180.150018,330.228 176.47,330.228 C169.7233,330.228 164.70935,328.58735 161.428,325.306 C158.14665,322.02465 156.506,316.642704 156.506,309.16 L164.418,309.16 C164.418,313.760023 165.445323,317.332654 167.5,319.878 C169.554677,322.423346 172.697979,323.696 176.93,323.696 C181.039354,323.696 184.075324,322.745343 186.038,320.844 C188.000676,318.942657 188.982,315.63069 188.982,310.908 L188.982,293.704 C188.982,291.434655 188.828668,289.410676 188.522,287.632 C188.215332,285.853324 187.678671,284.350673 186.912,283.124 C186.14533,281.897327 185.08734,280.962003 183.738,280.318 C182.38866,279.673997 180.640677,279.352 178.494,279.352 C175.181983,279.352 172.698008,280.179992 171.042,281.836 C169.385992,283.492008 168.527334,285.791985 168.466,288.736 L160.646,288.736 C160.768667,283.522641 162.286652,279.536014 165.2,276.776 C168.113348,274.015986 172.237973,272.636 177.574,272.636 C180.27268,272.636 182.541991,272.988663 184.382,273.694 C186.222009,274.399337 187.755327,275.303994 188.982,276.408 L188.982,247.428 L196.618,247.428 Z M223.206,312.656 C220.200652,312.656 217.486679,312.104006 215.064,311 C212.641321,309.895994 210.586675,308.33201 208.9,306.308 C207.213325,304.28399 205.910005,301.846014 204.99,298.994 C204.069995,296.141986 203.61,292.968017 203.61,289.472 C203.61,285.853315 204.146661,282.495349 205.22,279.398 C206.293339,276.300651 207.872656,273.617345 209.958,271.348 C212.043344,269.078655 214.603985,267.300006 217.64,266.012 C220.676015,264.723994 224.156647,264.08 228.082,264.08 C232.007353,264.08 235.457318,264.723994 238.432,266.012 C241.406682,267.300006 243.890657,269.063322 245.884,271.302 C247.877343,273.540678 249.379995,276.193318 250.392,279.26 C251.404005,282.326682 251.91,285.607983 251.91,289.104 C251.91,292.048015 251.450005,294.930653 250.53,297.752 C249.609995,300.573347 248.322008,303.087989 246.666,305.296 C245.009992,307.504011 243.016678,309.28266 240.686,310.632 C238.355322,311.98134 235.779347,312.656 232.958,312.656 L232.958,306.032 C233.939338,306.032 235.073994,305.710003 236.362,305.066 C237.650006,304.421997 238.845994,303.410007 239.95,302.03 C241.054006,300.649993 241.98933,298.856011 242.756,296.648 C243.522671,294.439989 243.906,291.802682 243.906,288.736 C243.906,285.791985 243.507337,283.200678 242.71,280.962 C241.912663,278.723322 240.793341,276.837341 239.352,275.304 C237.910659,273.770659 236.193343,272.62067 234.2,271.854 C232.206657,271.087329 230.014012,270.704 227.622,270.704 C225.291322,270.704 223.129343,271.102663 221.136,271.9 C219.142657,272.697337 217.440674,273.862659 216.03,275.396 C214.619326,276.929341 213.515337,278.815322 212.718,281.054 C211.920663,283.292678 211.522,285.853319 211.522,288.736 C211.522,291.864016 211.935996,294.531989 212.764,296.74 C213.592004,298.948011 214.603994,300.741993 215.8,302.122 C216.996006,303.502007 218.26866,304.498664 219.618,305.112 C220.96734,305.725336 222.163328,306.032 223.206,306.032 L223.206,312.656 Z M297.45,292.232 C297.45,295.237348 296.990005,297.997321 296.07,300.512 C295.149995,303.026679 293.816009,305.173324 292.068,306.952 C290.319991,308.730676 288.219346,310.125995 285.766,311.138 C283.312654,312.150005 280.583348,312.656 277.578,312.656 C273.775314,312.656 270.632012,312.165338 268.148,311.184 C265.663988,310.202662 263.686007,308.807342 262.214,306.998 C260.741993,305.188658 259.71467,303.011346 259.132,300.466 C258.54933,297.920654 258.258,295.053349 258.258,291.864 L258.258,248.256 L265.894,248.256 L265.894,290.852 C265.894,295.820025 266.783324,299.60732 268.562,302.214 C270.340676,304.82068 273.284646,306.124 277.394,306.124 C281.258019,306.124 284.263323,304.989345 286.41,302.72 C288.556677,300.450655 289.63,297.230688 289.63,293.06 C289.63,290.913323 289.308003,289.073341 288.664,287.54 C288.019997,286.006659 287.222671,284.596006 286.272,283.308 C285.321329,282.019994 284.294006,280.793339 283.19,279.628 C282.085994,278.462661 281.058671,277.20534 280.108,275.856 C279.157329,274.50666 278.360003,272.988675 277.716,271.302 C277.071997,269.615325 276.75,267.606678 276.75,265.276 L284.478,265.276 C284.478,267.177343 284.799997,268.848659 285.444,270.29 C286.088003,271.731341 286.885329,273.095994 287.836,274.384 C288.786671,275.672006 289.829328,276.929327 290.964,278.156 C292.098672,279.382673 293.141329,280.685993 294.092,282.066 C295.042671,283.446007 295.839997,284.948659 296.484,286.574 C297.128003,288.199341 297.45,290.085323 297.45,292.232 L297.45,292.232 Z M322.382,268.036 C322.382,270.918681 322.67333,273.417989 323.256,275.534 C323.83867,277.650011 325.111324,279.474659 327.074,281.008 C328.852676,282.418674 330.385994,283.706661 331.674,284.872 C332.962006,286.037339 334.019996,287.24866 334.848,288.506 C335.676004,289.76334 336.289331,291.112659 336.688,292.554 C337.086669,293.995341 337.286,295.666657 337.286,297.568 C337.286,299.59201 336.918004,301.523991 336.182,303.364 C335.445996,305.204009 334.372674,306.813993 332.962,308.194 C331.551326,309.574007 329.849343,310.662663 327.856,311.46 C325.862657,312.257337 323.578013,312.656 321.002,312.656 C318.671322,312.656 316.524676,312.349336 314.562,311.736 C312.599324,311.122664 310.912674,310.218006 309.502,309.022 C308.091326,307.825994 306.987337,306.323342 306.19,304.514 C305.392663,302.704658 304.994,300.604012 304.994,298.212 C304.994,297.475996 305.009333,296.801336 305.04,296.188 C305.070667,295.574664 305.116666,295.022669 305.178,294.532 C305.239334,293.979997 305.300666,293.458669 305.362,292.968 L313.182,293.06 C313.120666,293.366668 313.059334,293.765331 312.998,294.256 C312.936666,294.685335 312.906,295.221997 312.906,295.866 L312.906,298.12 C312.906,299.040005 313.074665,299.959995 313.412,300.88 C313.749335,301.800005 314.270663,302.643329 314.976,303.41 C315.681337,304.17667 316.539995,304.789998 317.552,305.25 C318.564005,305.710002 319.74466,305.94 321.094,305.94 C323.79268,305.94 325.847326,305.158008 327.258,303.594 C328.668674,302.029992 329.374,300.174677 329.374,298.028 C329.374,296.310658 329.190002,294.838673 328.822,293.612 C328.453998,292.385327 327.917337,291.312005 327.212,290.392 C326.506663,289.471995 325.678671,288.62867 324.728,287.862 C323.777329,287.095329 322.750006,286.313337 321.646,285.516 C320.173993,284.411994 318.962671,283.308006 318.012,282.204 C317.061329,281.099994 316.310003,279.888673 315.758,278.57 C315.205997,277.251327 314.822668,275.733342 314.608,274.016 C314.393332,272.298658 314.286,270.305345 314.286,268.036 L322.382,268.036 Z" id="ქისა" fill="#BABABD" sketch:type="MSShapeGroup"></path>
                <path d="M196.618,247.428 L196.618,310.908 L188.982,310.908 L188.982,247.428 L196.618,247.428 Z M258.258,291.864 L258.258,248.256 L265.894,248.256 L265.894,291.864 L258.258,291.864 Z" id="ქისა" fill="#666666" sketch:type="MSShapeGroup"></path>
                <path d="M0,181 L465,181" id="Path-1" stroke="#BABABD" sketch:type="MSShapeGroup"></path>
            </g>
        </g>
    </g>
</svg>