<?xml version="1.0" encoding="UTF-8" standalone="no"?>
<svg width="465px" height="360px" viewBox="0 0 465 360" version="1.1" xmlns="http://www.w3.org/2000/svg" xmlns:xlink="http://www.w3.org/1999/xlink" xmlns:sketch="http://www.bohemiancoding.com/sketch/ns">
    <!-- Generator: Sketch Beta 3.4.4 (17258) - http://www.bohemiancoding.com/sketch -->
    <title>Arm</title>
    <desc>Created with Sketch Beta.</desc>
    <defs></defs>
    <g id="Outline" stroke="none" stroke-width="1" fill="none" fill-rule="evenodd" sketch:type="MSPage">
        <g id="Arm" sketch:type="MSArtboardGroup">
            <g id="Group" sketch:type="MSLayerGroup">
                <g id="Tag">
                    <rect id="Rectangle-1" fill="#BABABD" sketch:type="MSShapeGroup" x="0" y="0" width="30" height="360"></rect>
                    <text id="აღმავალი" sketch:type="MSTextLayer" transform="translate(13.500000, 270.500000) rotate(-90.000000) translate(-13.500000, -270.500000) " font-family="BG Courier" font-size="21" font-weight="normal" sketch:alignment="middle" fill="#646466">
                        <tspan x="-12.372" y="275">ხელი</tspan>
                    </text>
                    <text id="ascender" sketch:type="MSTextLayer" transform="translate(14.500000, 90.500000) rotate(-90.000000) translate(-14.500000, -90.500000) " font-family="BG Courier" font-size="21" font-weight="normal" sketch:alignment="middle" fill="#646466">
                        <tspan x="-4.4" y="95">arm</tspan>
                    </text>
                </g>
                <path d="M0,181 L465,181" id="Path-1" stroke="#BABABD" sketch:type="MSShapeGroup"></path>
                <path d="M184.796,264.172 C185.041335,265.644007 185.332665,267.192659 185.67,268.818 C186.007335,270.443341 186.329332,272.145324 186.636,273.924 C187.862673,272.022657 189.533989,270.458673 191.65,269.232 C193.766011,268.005327 196.479983,267.392 199.792,267.392 C201.877344,267.392 203.901324,267.713997 205.864,268.358 C207.826676,269.002003 209.559326,270.013993 211.062,271.394 C212.564674,272.774007 213.760662,274.537323 214.65,276.684 C215.539338,278.830677 215.984,281.406652 215.984,284.412 C215.984,286.620011 215.754002,288.935321 215.294,291.358 C214.833998,293.780679 214.22067,296.249321 213.454,298.764 C212.68733,301.278679 211.813338,303.777988 210.832,306.262 C209.850662,308.746012 208.869338,311.122655 207.888,313.392 C205.495988,318.666693 202.797348,323.941307 199.792,329.216 L192.8,329.216 C190.223987,320.261289 187.862677,311.613375 185.716,303.272 C184.795995,299.714649 183.876005,296.080685 182.956,292.37 C182.035995,288.659315 181.192671,285.040684 180.426,281.514 C179.65933,277.987316 179.000003,274.675349 178.448,271.578 C177.895997,268.480651 177.497335,265.766678 177.252,263.436 C176.945332,260.553319 177.037331,258.10001 177.528,256.076 C178.018669,254.05199 178.769995,252.396006 179.782,251.108 C180.794005,249.819994 182.005326,248.88467 183.416,248.302 C184.826674,247.71933 186.298659,247.428 187.832,247.428 C189.610676,247.428 191.113327,247.688664 192.34,248.21 C193.566673,248.731336 194.56333,249.405996 195.33,250.234 C196.09667,251.062004 196.663998,251.997328 197.032,253.04 C197.400002,254.082672 197.645333,255.125328 197.768,256.168 C197.829334,255.247995 198.028665,254.266672 198.366,253.224 C198.703335,252.181328 199.239996,251.230671 199.976,250.372 C200.712004,249.513329 201.677994,248.808003 202.874,248.256 C204.070006,247.703997 205.587991,247.428 207.428,247.428 C210.985351,247.428 213.622658,248.623988 215.34,251.016 C217.057342,253.408012 217.916,257.241307 217.916,262.516 L211.476,262.516 C211.476,259.81732 211.200003,257.686008 210.648,256.122 C210.095997,254.557992 208.80801,253.776 206.784,253.776 C205.005324,253.776 203.73267,254.45066 202.966,255.8 C202.19933,257.14934 201.816,259.387984 201.816,262.516 L193.996,262.516 C193.996,259.326651 193.536005,257.088006 192.616,255.8 C191.695995,254.511994 190.377342,253.868 188.66,253.868 C187.065325,253.806666 185.88467,254.695991 185.118,256.536 C184.35133,258.376009 184.243997,260.921317 184.796,264.172 L184.796,264.172 Z M189.948,289.104 C191.358674,295.237364 192.73866,301.048639 194.088,306.538 C195.43734,312.027361 196.602662,316.703981 197.584,320.568 C198.688006,318.114654 199.86866,315.339349 201.126,312.242 C202.38334,309.144651 203.563994,306.032016 204.668,302.904 C205.772006,299.775984 206.676663,296.755348 207.382,293.842 C208.087337,290.928652 208.44,288.398677 208.44,286.252 C208.44,282.510648 207.673341,279.536011 206.14,277.328 C204.606659,275.119989 202.276016,274.016 199.148,274.016 C197.307991,274.016 195.744006,274.383996 194.456,275.12 C193.167994,275.856004 192.156004,276.883327 191.42,278.202 C190.683996,279.520673 190.193335,281.115324 189.948,282.986 C189.702665,284.856676 189.702665,286.895989 189.948,289.104 L189.948,289.104 Z M243.676,312.656 C240.670652,312.656 237.956679,312.104006 235.534,311 C233.111321,309.895994 231.056675,308.33201 229.37,306.308 C227.683325,304.28399 226.380005,301.846014 225.46,298.994 C224.539995,296.141986 224.08,292.968017 224.08,289.472 C224.08,285.853315 224.616661,282.495349 225.69,279.398 C226.763339,276.300651 228.342656,273.617345 230.428,271.348 C232.513344,269.078655 235.073985,267.300006 238.11,266.012 C241.146015,264.723994 244.626647,264.08 248.552,264.08 C252.477353,264.08 255.927318,264.723994 258.902,266.012 C261.876682,267.300006 264.360657,269.063322 266.354,271.302 C268.347343,273.540678 269.849995,276.193318 270.862,279.26 C271.874005,282.326682 272.38,285.607983 272.38,289.104 C272.38,292.048015 271.920005,294.930653 271,297.752 C270.079995,300.573347 268.792008,303.087989 267.136,305.296 C265.479992,307.504011 263.486678,309.28266 261.156,310.632 C258.825322,311.98134 256.249347,312.656 253.428,312.656 L253.428,306.032 C254.409338,306.032 255.543994,305.710003 256.832,305.066 C258.120006,304.421997 259.315994,303.410007 260.42,302.03 C261.524006,300.649993 262.459329,298.856011 263.226,296.648 C263.99267,294.439989 264.376,291.802682 264.376,288.736 C264.376,285.791985 263.977337,283.200678 263.18,280.962 C262.382663,278.723322 261.263341,276.837341 259.822,275.304 C258.380659,273.770659 256.663343,272.620671 254.67,271.854 C252.676657,271.08733 250.484012,270.704 248.092,270.704 C245.761322,270.704 243.599343,271.102663 241.606,271.9 C239.612657,272.697337 237.910674,273.862659 236.5,275.396 C235.089326,276.929341 233.985337,278.815322 233.188,281.054 C232.390663,283.292678 231.992,285.853319 231.992,288.736 C231.992,291.864016 232.405996,294.531989 233.234,296.74 C234.062004,298.948011 235.073994,300.741993 236.27,302.122 C237.466006,303.502007 238.73866,304.498664 240.088,305.112 C241.43734,305.725336 242.633328,306.032 243.676,306.032 L243.676,312.656 Z M278.728,253.868 C278.728,251.475988 279.095996,249.789338 279.832,248.808 C280.568004,247.826662 281.702659,247.336 283.236,247.336 C284.462673,247.336 285.719994,247.535331 287.008,247.934 C288.296006,248.332669 289.675993,248.761998 291.148,249.222 C292.620007,249.682002 294.214658,250.095998 295.932,250.464 C297.649342,250.832002 299.581323,251.016 301.728,251.016 C303.813344,251.016 305.745324,250.847335 307.524,250.51 C309.302676,250.172665 310.835994,249.789335 312.124,249.36 C313.657341,248.869331 315.006661,248.28667 316.172,247.612 L316.172,254.512 C315.129328,255.125336 313.872007,255.677331 312.4,256.168 C311.173327,256.597335 309.655342,256.965332 307.846,257.272 C306.036658,257.578668 303.966678,257.732 301.636,257.732 C299.305322,257.732 297.204676,257.609335 295.334,257.364 C293.463324,257.118665 291.884006,256.842668 290.596,256.536 C289.062659,256.167998 287.744006,255.738669 286.64,255.248 L286.64,265.644 C286.701334,267.054674 286.640001,268.633991 286.456,270.382 C286.271999,272.130009 286.088001,273.525328 285.904,274.568 C287.314674,272.850658 289.169988,271.36334 291.47,270.106 C293.770011,268.84866 296.667983,268.22 300.164,268.22 C302.985347,268.22 305.561322,268.572663 307.892,269.278 C310.222678,269.983337 312.246658,271.148659 313.964,272.774 C315.681342,274.399341 317.015329,276.56132 317.966,279.26 C318.916671,281.95868 319.392,285.301313 319.392,289.288 C319.392,292.722684 318.962671,295.865986 318.104,298.718 C317.245329,301.570014 315.957342,304.023323 314.24,306.078 C312.522658,308.132677 310.330013,309.742661 307.662,310.908 C304.993987,312.073339 301.881351,312.656 298.324,312.656 C294.27598,312.656 290.979346,311.935341 288.434,310.494 C285.888654,309.052659 283.895341,307.105346 282.454,304.652 C281.012659,302.198654 280.031336,299.33135 279.51,296.05 C278.988664,292.76865 278.728,289.288018 278.728,285.608 L278.728,253.868 Z M298.416,274.752 C296.698658,274.752 295.104007,275.104663 293.632,275.81 C292.159993,276.515337 290.872006,277.511994 289.768,278.8 C288.663994,280.088006 287.77467,281.605991 287.1,283.354 C286.42533,285.102009 286.057334,287.018656 285.996,289.104 C286.057334,291.312011 286.317998,293.42799 286.778,295.452 C287.238002,297.47601 287.973995,299.269992 288.986,300.834 C289.998005,302.398008 291.301325,303.655329 292.896,304.606 C294.490675,305.556671 296.453322,306.032 298.784,306.032 C303.077355,306.032 306.281989,304.529348 308.398,301.524 C310.514011,298.518652 311.572,294.501358 311.572,289.472 C311.572,284.381308 310.360679,280.655345 307.938,278.294 C305.515321,275.932655 302.341353,274.752 298.416,274.752 L298.416,274.752 Z" id="წინ" fill="#BABABD" sketch:type="MSShapeGroup"></path>
                <path d="M177.580002,256.047994 C178.052218,254.023372 178.822058,252.368 179.834113,251.079994 C180.846169,249.791987 182.05755,248.856663 183.468293,248.273994 C184.879037,247.691324 186.351095,247.399994 187.884512,247.399994 C189.663276,247.399994 191.166002,247.660658 192.392735,248.181994 C193.619469,248.70333 194.616175,249.37799 195.382883,250.205994 C196.149592,251.033998 196.716947,251.969322 197.084967,253.011994 C197.452987,254.054666 197.69833,255.097322 197.821004,256.139994 C197.88234,255.219989 198.081682,254.238666 198.419033,253.195994 C198.756385,252.153322 199.293073,251.202665 200.029113,250.343994 C200.765153,249.485323 201.731191,248.779997 202.927257,248.227994 C204.123322,247.675991 205.641382,247.399994 207.481482,247.399994 C211.039009,247.399994 213.676447,248.595982 215.393874,250.987994 C217.111301,253.380006 217.970001,257.213301 217.970001,262.487994 L211.529682,262.487994 C211.529682,259.789314 211.253672,257.658002 210.701641,256.093994 C210.149611,254.529986 208.86156,253.747994 206.83745,253.747994 C205.058687,253.747994 203.78597,254.422654 203.019261,255.771994 C202.252553,257.121334 201.869204,259.359978 201.869204,262.487994 L194.048817,262.487994 C194.048817,259.298645 193.588799,257.06 192.668749,255.771994 C191.748699,254.483987 190.42998,253.839994 188.712553,253.839994 C187.117799,253.77866 186.174022,254.683956 185.170378,256.507994 C177.580002,256.093994 177.580002,256.093994 177.580002,256.047994 Z" id="Path" fill="#666666" sketch:type="MSShapeGroup"></path>
                <path d="M278.718051,253.882006 C278.718051,251.489994 279.086048,249.803344 279.822051,248.822006 C280.558055,247.840668 281.69271,247.350006 283.226051,247.350006 C284.452724,247.350006 285.710045,247.549337 286.998051,247.948006 C288.286058,248.346675 289.666044,248.776004 291.138051,249.236006 C292.610059,249.696008 294.204709,250.110004 295.922051,250.478006 C297.639393,250.846008 299.571374,251.030006 301.718051,251.030006 C303.803395,251.030006 305.735376,250.861341 307.514051,250.524006 C309.292727,250.186671 310.826045,249.803342 312.114051,249.374006 C313.647392,248.883337 314.996712,248.300676 316.162051,247.626006 L316.162051,254.526006 C315.119379,255.139343 313.862059,255.691337 312.390051,256.182006 C311.163378,256.611342 309.645394,256.979338 307.836051,257.286006 C306.026709,257.592674 303.95673,257.746006 301.626051,257.746006 C299.295373,257.746006 297.194727,257.623341 295.324051,257.378006 C293.453375,257.132672 291.874058,256.856674 290.586051,256.550006 C289.05271,256.182004 287.734057,255.752675 286.630051,255.262006 L278.718051,253.882006 Z" id="Path" fill="#666666" sketch:type="MSShapeGroup"></path>
                <path d="M179.368,70.312 L179.368,136 L225,136 L225,128.64 L188.108,128.64 L188.108,105.916 L222.24,105.916 L222.24,98.556 L188.108,98.556 L188.108,77.672 L224.724,77.672 L224.724,70.312 L179.368,70.312 Z M255.728,136 L273.116,88.436 L264.928,88.436 L251.956,128.088 L251.772,128.088 L238.432,88.436 L229.692,88.436 L247.356,136 L255.728,136 Z M313.32,107.664 L285.996,107.664 C286.118667,105.823991 286.51733,104.091341 287.192,102.466 C287.86667,100.840659 288.786661,99.4146728 289.952,98.188 C291.117339,96.9613272 292.512659,95.9953369 294.138,95.29 C295.763341,94.5846631 297.58799,94.232 299.612,94.232 C301.574676,94.232 303.368659,94.5846631 304.994,95.29 C306.619341,95.9953369 308.029994,96.945994 309.226,98.142 C310.422006,99.338006 311.372663,100.763992 312.078,102.42 C312.783337,104.076008 313.197333,105.823991 313.32,107.664 L313.32,107.664 Z M320.864,120.912 L313.136,120.912 C312.46133,124.040016 311.066011,126.370659 308.95,127.904 C306.833989,129.437341 304.120017,130.204 300.808,130.204 C298.231987,130.204 295.993343,129.774671 294.092,128.916 C292.190657,128.057329 290.626673,126.907341 289.4,125.466 C288.173327,124.024659 287.284003,122.368676 286.732,120.498 C286.179997,118.627324 285.934666,116.649344 285.996,114.564 L321.6,114.564 C321.722667,111.681319 321.462003,108.645349 320.818,105.456 C320.173997,102.266651 319.008675,99.3226802 317.322,96.624 C315.635325,93.9253198 313.396681,91.7020087 310.606,89.954 C307.815319,88.2059913 304.304021,87.332 300.072,87.332 C296.821317,87.332 293.831347,87.9453272 291.102,89.172 C288.372653,90.3986728 286.011343,92.115989 284.018,94.324 C282.024657,96.532011 280.476006,99.1386516 279.372,102.144 C278.267994,105.149348 277.716,108.461315 277.716,112.08 C277.838667,115.698685 278.375329,119.041318 279.326,122.108 C280.276671,125.174682 281.702657,127.811989 283.604,130.02 C285.505343,132.228011 287.851319,133.945327 290.642,135.172 C293.432681,136.398673 296.729314,137.012 300.532,137.012 C305.92936,137.012 310.406649,135.66268 313.964,132.964 C317.521351,130.26532 319.821328,126.248027 320.864,120.912 L320.864,120.912 Z" id="Eve" fill="#BABABD" sketch:type="MSShapeGroup"></path>
                <path d="M187.7955,136 L224.6875,136 L224.6875,128.64 L187.7955,128.64 L187.7955,136 Z M187.7955,105.916 L221.9275,105.916 L221.9275,98.556 L187.7955,98.556 L187.7955,105.916 Z M187.7955,77.672 L224.4115,77.672 L224.4115,70.312 L187.7955,70.312 L187.7955,77.672 Z" id="Eve-Copy" fill="#666666" sketch:type="MSShapeGroup"></path>
            </g>
        </g>
    </g>
</svg>