<?xml version="1.0" encoding="UTF-8" standalone="no"?>
<svg width="465px" height="360px" viewBox="0 0 465 360" version="1.1" xmlns="http://www.w3.org/2000/svg" xmlns:xlink="http://www.w3.org/1999/xlink" xmlns:sketch="http://www.bohemiancoding.com/sketch/ns">
    <!-- Generator: Sketch Beta 3.4.4 (17258) - http://www.bohemiancoding.com/sketch -->
    <title>Descender</title>
    <desc>Created with Sketch Beta.</desc>
    <defs></defs>
    <g id="Outline" stroke="none" stroke-width="1" fill="none" fill-rule="evenodd" sketch:type="MSPage">
        <g id="Descender" sketch:type="MSArtboardGroup">
            <g id="Group" sketch:type="MSLayerGroup">
                <g>
                    <g id="Tag">
                        <rect id="Rectangle-1" fill="#BABABD" sketch:type="MSShapeGroup" x="0" y="0" width="30" height="360"></rect>
                        <text id="აღმავალი" sketch:type="MSTextLayer" transform="translate(13.500000, 270.500000) rotate(-90.000000) translate(-13.500000, -270.500000) " font-family="BG Courier" font-size="21" font-weight="normal" sketch:alignment="middle" fill="#646466">
                            <tspan x="-37.572" y="275">ჩამავალი</tspan>
                        </text>
                        <text id="ascender" sketch:type="MSTextLayer" transform="translate(14.500000, 90.500000) rotate(-90.000000) translate(-14.500000, -90.500000) " font-family="BG Courier" font-size="21" font-weight="normal" sketch:alignment="middle" fill="#646466">
                            <tspan x="-42.2" y="95">descender</tspan>
                        </text>
                    </g>
                    <g id="Baseline" transform="translate(30.000000, 134.000000)" stroke="#BABABD" sketch:type="MSShapeGroup">
                        <path d="M0,177 L434,177" id="Baseline-Copy-2"></path>
                        <path d="M0,1 L434,1" id="Baseline-Copy"></path>
                    </g>
                    <path d="M183.83,128.64 L183.83,77.672 L198.55,77.672 C202.59802,77.672 206.001986,78.2393277 208.762,79.374 C211.522014,80.5086723 213.775991,82.1646558 215.524,84.342 C217.272009,86.5193442 218.529329,89.1566512 219.296,92.254 C220.06267,95.3513488 220.446,98.862647 220.446,102.788 C220.446,106.83602 220.032004,110.285986 219.204,113.138 C218.375996,115.990014 217.318006,118.366657 216.03,120.268 C214.741994,122.169343 213.285341,123.671994 211.66,124.776 C210.034659,125.880006 208.394008,126.72333 206.738,127.306 C205.081992,127.88867 203.518007,128.256666 202.046,128.41 C200.573993,128.563334 199.347338,128.64 198.366,128.64 L183.83,128.64 Z M175.09,70.312 L175.09,136 L197.63,136 C203.088694,136 207.811313,135.233341 211.798,133.7 C215.784687,132.166659 219.065987,129.943348 221.642,127.03 C224.218013,124.116652 226.119327,120.528688 227.346,116.266 C228.572673,112.003312 229.186,107.112028 229.186,101.592 C229.186,91.0426139 226.456694,83.1920258 220.998,78.04 C215.539306,72.8879742 207.750051,70.312 197.63,70.312 L175.09,70.312 Z M280.706,135.816 C279.35666,136.613337 277.486012,137.012 275.094,137.012 C273.06999,137.012 271.460006,136.444672 270.264,135.31 C269.067994,134.175328 268.47,132.320013 268.47,129.744 C266.323323,132.320013 263.824014,134.175328 260.972,135.31 C258.119986,136.444672 255.038017,137.012 251.726,137.012 C249.579323,137.012 247.54001,136.766669 245.608,136.276 C243.67599,135.785331 242.004674,135.018672 240.594,133.976 C239.183326,132.933328 238.064004,131.568675 237.236,129.882 C236.407996,128.195325 235.994,126.156012 235.994,123.764 C235.994,121.06532 236.453995,118.857342 237.374,117.14 C238.294005,115.422658 239.505326,114.027339 241.008,112.954 C242.510674,111.880661 244.22799,111.068003 246.16,110.516 C248.09201,109.963997 250.06999,109.504002 252.094,109.136 C254.240677,108.706665 256.27999,108.384668 258.212,108.17 C260.14401,107.955332 261.845993,107.648669 263.318,107.25 C264.790007,106.851331 265.955329,106.26867 266.814,105.502 C267.672671,104.735329 268.102,103.616007 268.102,102.144 C268.102,100.426658 267.780003,99.0466719 267.136,98.004 C266.491997,96.9613281 265.664005,96.1640028 264.652,95.612 C263.639995,95.0599972 262.50534,94.6920009 261.248,94.508 C259.99066,94.3239991 258.748673,94.232 257.522,94.232 C254.209983,94.232 251.450011,94.8606604 249.242,96.118 C247.033989,97.3753396 245.838001,99.7519825 245.654,103.248 L237.834,103.248 C237.956667,100.303985 238.569994,97.8200101 239.674,95.796 C240.778006,93.7719899 242.249991,92.1313396 244.09,90.874 C245.930009,89.6166604 248.030655,88.7120028 250.392,88.16 C252.753345,87.6079972 255.28332,87.332 257.982,87.332 C260.128677,87.332 262.259989,87.4853318 264.376,87.792 C266.492011,88.0986682 268.408658,88.7273286 270.126,89.678 C271.843342,90.6286714 273.223328,91.9626581 274.266,93.68 C275.308672,95.3973419 275.83,97.6359862 275.83,100.396 L275.83,124.868 C275.83,126.708009 275.937332,128.057329 276.152,128.916 C276.366668,129.774671 277.087327,130.204 278.314,130.204 C278.98867,130.204 279.785995,130.050668 280.706,129.744 L280.706,135.816 Z M268.01,111.436 C267.028662,112.172004 265.740675,112.708665 264.146,113.046 C262.551325,113.383335 260.880009,113.659332 259.132,113.874 C257.383991,114.088668 255.620676,114.333999 253.842,114.61 C252.063324,114.886001 250.468674,115.330664 249.058,115.944 C247.647326,116.557336 246.497338,117.431328 245.608,118.566 C244.718662,119.700672 244.274,121.249324 244.274,123.212 C244.274,124.500006 244.534664,125.588662 245.056,126.478 C245.577336,127.367338 246.251996,128.087997 247.08,128.64 C247.908004,129.192003 248.873994,129.590665 249.978,129.836 C251.082006,130.081335 252.247327,130.204 253.474,130.204 C256.050013,130.204 258.257991,129.851337 260.098,129.146 C261.938009,128.440663 263.440661,127.551339 264.606,126.478 C265.771339,125.404661 266.629997,124.23934 267.182,122.982 C267.734003,121.72466 268.01,120.544006 268.01,119.44 L268.01,111.436 Z M306.65,142.348 C305.729995,144.678678 304.825338,146.641325 303.936,148.236 C303.046662,149.830675 302.065339,151.133995 300.992,152.146 C299.918661,153.158005 298.722673,153.893998 297.404,154.354 C296.085327,154.814002 294.567342,155.044 292.85,155.044 C291.929995,155.044 291.010005,154.982667 290.09,154.86 C289.169995,154.737333 288.280671,154.522668 287.422,154.216 L287.422,147.04 C288.09667,147.346668 288.878662,147.607332 289.768,147.822 C290.657338,148.036668 291.408664,148.144 292.022,148.144 C293.616675,148.144 294.950661,147.76067 296.024,146.994 C297.097339,146.227329 297.909997,145.138674 298.462,143.728 L301.682,135.724 L282.822,88.436 L291.654,88.436 L305.546,127.352 L305.73,127.352 L319.07,88.436 L327.35,88.436 L306.65,142.348 Z" id="Day" fill="#BABABD" sketch:type="MSShapeGroup"></path>
                    <path d="M301.67154,135.75 L298.462,143.728 C297.909997,145.138674 297.097339,146.227329 296.024,146.994 C294.950661,147.76067 293.616675,148.144 292.022,148.144 C291.408664,148.144 290.657338,148.036668 289.768,147.822 C288.878662,147.607332 288.09667,147.346668 287.422,147.04 L287.422,154.216 C288.280671,154.522668 289.169995,154.737333 290.09,154.86 C291.010005,154.982667 291.929995,155.044 292.85,155.044 C294.567342,155.044 296.085327,154.814002 297.404,154.354 C298.722673,153.893998 299.918661,153.158005 300.992,152.146 C302.065339,151.133995 303.046662,149.830675 303.936,148.236 C304.825338,146.641325 305.729995,144.678678 306.65,142.348 L309.183362,135.75 L301.67154,135.75 L301.67154,135.75 Z" id="Day-Copy" fill="#666666" sketch:type="MSShapeGroup"></path>
                    <path d="M199.378,300.972 C198.02866,300.972 196.848005,300.772669 195.836,300.374 C194.823995,299.975331 193.950004,299.469336 193.214,298.856 C192.477996,298.242664 191.81867,297.568004 191.236,296.832 C190.65333,296.095996 190.116669,295.360004 189.626,294.624 L189.626,310.54 C189.626,313.23868 189.273337,315.783988 188.568,318.176 C187.862663,320.568012 186.728008,322.653324 185.164,324.432 C183.599992,326.210676 181.560679,327.621328 179.046,328.664 C176.531321,329.706672 173.434018,330.228 169.754,330.228 C166.441983,330.228 163.651345,329.829337 161.382,329.032 C159.112655,328.234663 157.288007,326.992675 155.908,325.306 C154.527993,323.619325 153.531336,321.442013 152.918,318.774 C152.304664,316.105987 151.998,312.901352 151.998,309.16 L159.634,309.16 C159.634,311.429345 159.787332,313.468658 160.094,315.278 C160.400668,317.087342 160.952663,318.605327 161.75,319.832 C162.547337,321.058673 163.635993,322.00933 165.016,322.684 C166.396007,323.35867 168.159323,323.696 170.306,323.696 C172.391344,323.696 174.169993,323.35867 175.642,322.684 C177.114007,322.00933 178.309995,321.089339 179.23,319.924 C180.150005,318.758661 180.824665,317.394008 181.254,315.83 C181.683335,314.265992 181.898,312.625342 181.898,310.908 L181.898,293.704 C181.22333,294.501337 180.533337,295.375329 179.828,296.326 C179.122663,297.276671 178.310005,298.150663 177.39,298.948 C176.469995,299.745337 175.412006,300.419997 174.216,300.972 C173.019994,301.524003 171.563342,301.8 169.846,301.8 C167.883324,301.8 166.181341,301.447337 164.74,300.742 C163.298659,300.036663 162.118005,299.070673 161.198,297.844 C160.277995,296.617327 159.588002,295.145342 159.128,293.428 C158.667998,291.710658 158.438,289.84001 158.438,287.816 C158.438,283.76798 159.44999,280.532679 161.474,278.11 C163.49801,275.687321 166.288649,274.476 169.846,274.476 C171.563342,274.476 173.019994,274.736664 174.216,275.258 C175.412006,275.779336 176.469995,276.438663 177.39,277.236 C178.310005,278.033337 179.122663,278.876662 179.828,279.766 C180.533337,280.655338 181.22333,281.498663 181.898,282.296 L181.898,265.092 C181.898,262.699988 181.637336,260.768007 181.116,259.296 C180.594664,257.823993 179.828005,256.70467 178.816,255.938 C177.803995,255.171329 176.531341,254.665335 174.998,254.42 C173.464659,254.174665 171.68601,254.052 169.662,254.052 C169.723334,254.358668 169.815333,254.665332 169.938,254.972 C169.999334,255.278668 170.060666,255.631331 170.122,256.03 C170.183334,256.428669 170.214,256.873331 170.214,257.364 L170.214,263.896 L162.486,263.896 L162.486,247.428 L172.79,247.428 C174.81401,247.428 176.83799,247.703997 178.862,248.256 C180.88601,248.808003 182.695325,249.727994 184.29,251.016 C185.884675,252.304006 187.172662,254.005989 188.154,256.122 C189.135338,258.238011 189.626,260.859984 189.626,263.988 L189.626,281.652 C190.178003,280.915996 190.74533,280.180004 191.328,279.444 C191.91067,278.707996 192.58533,278.033336 193.352,277.42 C194.118671,276.806664 194.992662,276.300669 195.974,275.902 C196.955338,275.503331 198.089994,275.304 199.378,275.304 L199.378,282.02 C198.457995,282.02 197.66067,282.265331 196.986,282.756 C196.31133,283.246669 195.606004,283.813997 194.87,284.458 C194.133996,285.102003 193.260005,285.76133 192.248,286.436 C191.235995,287.11067 189.932675,287.631998 188.338,288 C189.994008,288.429335 191.343328,288.996663 192.386,289.702 C193.428672,290.407337 194.317996,291.081997 195.054,291.726 C195.790004,292.370003 196.479997,292.937331 197.124,293.428 C197.768003,293.918669 198.519329,294.164 199.378,294.164 L199.378,300.972 Z M182.266,288 C180.609992,287.631998 179.245339,287.049337 178.172,286.252 C177.098661,285.454663 176.163337,284.67267 175.366,283.906 C174.568663,283.139329 173.802004,282.46467 173.066,281.882 C172.329996,281.29933 171.471338,281.008 170.49,281.008 C169.447328,281.008 168.619336,281.237998 168.006,281.698 C167.392664,282.158002 166.932668,282.72533 166.626,283.4 C166.319332,284.07467 166.104667,284.825996 165.982,285.654 C165.859333,286.482004 165.798,287.294663 165.798,288.092 C165.798,288.889337 165.874666,289.701996 166.028,290.53 C166.181334,291.358004 166.426665,292.124663 166.764,292.83 C167.101335,293.535337 167.576664,294.102665 168.19,294.532 C168.803336,294.961335 169.569995,295.176 170.49,295.176 C171.410005,295.176 172.222663,294.88467 172.928,294.302 C173.633337,293.71933 174.384663,293.04467 175.182,292.278 C175.979337,291.511329 176.929994,290.729337 178.034,289.932 C179.138006,289.134663 180.548658,288.490669 182.266,288 L182.266,288 Z M225.23,312.656 C222.224652,312.656 219.510679,312.104006 217.088,311 C214.665321,309.895994 212.610675,308.33201 210.924,306.308 C209.237325,304.28399 207.934005,301.846014 207.014,298.994 C206.093995,296.141986 205.634,292.968017 205.634,289.472 C205.634,285.853315 206.170661,282.495349 207.244,279.398 C208.317339,276.300651 209.896656,273.617345 211.982,271.348 C214.067344,269.078655 216.627985,267.300006 219.664,266.012 C222.700015,264.723994 226.180647,264.08 230.106,264.08 C234.031353,264.08 237.481318,264.723994 240.456,266.012 C243.430682,267.300006 245.914657,269.063322 247.908,271.302 C249.901343,273.540678 251.403995,276.193318 252.416,279.26 C253.428005,282.326682 253.934,285.607983 253.934,289.104 C253.934,292.048015 253.474005,294.930653 252.554,297.752 C251.633995,300.573347 250.346008,303.087989 248.69,305.296 C247.033992,307.504011 245.040678,309.28266 242.71,310.632 C240.379322,311.98134 237.803347,312.656 234.982,312.656 L234.982,306.032 C235.963338,306.032 237.097994,305.710003 238.386,305.066 C239.674006,304.421997 240.869994,303.410007 241.974,302.03 C243.078006,300.649993 244.01333,298.856011 244.78,296.648 C245.546671,294.439989 245.93,291.802682 245.93,288.736 C245.93,285.791985 245.531337,283.200678 244.734,280.962 C243.936663,278.723322 242.817341,276.837341 241.376,275.304 C239.934659,273.770659 238.217343,272.62067 236.224,271.854 C234.230657,271.087329 232.038012,270.704 229.646,270.704 C227.315322,270.704 225.153343,271.102663 223.16,271.9 C221.166657,272.697337 219.464674,273.862659 218.054,275.396 C216.643326,276.929341 215.539337,278.815322 214.742,281.054 C213.944663,283.292678 213.546,285.853319 213.546,288.736 C213.546,291.864016 213.959996,294.531989 214.788,296.74 C215.616004,298.948011 216.627994,300.741993 217.824,302.122 C219.020006,303.502007 220.29266,304.498664 221.642,305.112 C222.99134,305.725336 224.187328,306.032 225.23,306.032 L225.23,312.656 Z M300.302,247.428 L300.302,310.448 C300.302,313.14668 299.934004,315.707321 299.198,318.13 C298.461996,320.552679 297.296675,322.653324 295.702,324.432 C294.107325,326.210676 292.037346,327.621328 289.492,328.664 C286.946654,329.706672 283.834018,330.228 280.154,330.228 C273.4073,330.228 268.39335,328.58735 265.112,325.306 C261.83065,322.02465 260.19,316.642704 260.19,309.16 L268.102,309.16 C268.102,313.760023 269.129323,317.332654 271.184,319.878 C273.238677,322.423346 276.381979,323.696 280.614,323.696 C284.723354,323.696 287.759324,322.745343 289.722,320.844 C291.684676,318.942657 292.666,315.63069 292.666,310.908 L292.666,293.704 C292.666,291.434655 292.512668,289.410676 292.206,287.632 C291.899332,285.853324 291.362671,284.350673 290.596,283.124 C289.82933,281.897327 288.77134,280.962003 287.422,280.318 C286.07266,279.673997 284.324677,279.352 282.178,279.352 C278.865983,279.352 276.382008,280.179992 274.726,281.836 C273.069992,283.492008 272.211334,285.791985 272.15,288.736 L264.33,288.736 C264.452667,283.522641 265.970652,279.536014 268.884,276.776 C271.797348,274.015986 275.921973,272.636 281.258,272.636 C283.95668,272.636 286.225991,272.988663 288.066,273.694 C289.906009,274.399337 291.439327,275.303994 292.666,276.408 L292.666,247.428 L300.302,247.428 Z M326.062,268.036 C326.062,270.918681 326.35333,273.417989 326.936,275.534 C327.51867,277.650011 328.791324,279.474659 330.754,281.008 C332.532676,282.418674 334.065994,283.706661 335.354,284.872 C336.642006,286.037339 337.699996,287.24866 338.528,288.506 C339.356004,289.76334 339.969331,291.112659 340.368,292.554 C340.766669,293.995341 340.966,295.666657 340.966,297.568 C340.966,299.59201 340.598004,301.523991 339.862,303.364 C339.125996,305.204009 338.052674,306.813993 336.642,308.194 C335.231326,309.574007 333.529343,310.662663 331.536,311.46 C329.542657,312.257337 327.258013,312.656 324.682,312.656 C322.351322,312.656 320.204676,312.349336 318.242,311.736 C316.279324,311.122664 314.592674,310.218006 313.182,309.022 C311.771326,307.825994 310.667337,306.323342 309.87,304.514 C309.072663,302.704658 308.674,300.604012 308.674,298.212 C308.674,297.475996 308.689333,296.801336 308.72,296.188 C308.750667,295.574664 308.796666,295.022669 308.858,294.532 C308.919334,293.979997 308.980666,293.458669 309.042,292.968 L316.862,293.06 C316.800666,293.366668 316.739334,293.765331 316.678,294.256 C316.616666,294.685335 316.586,295.221997 316.586,295.866 C316.586,296.510003 316.586,297.261329 316.586,298.12 C316.586,299.040005 316.754665,299.959995 317.092,300.88 C317.429335,301.800005 317.950663,302.643329 318.656,303.41 C319.361337,304.17667 320.219995,304.789998 321.232,305.25 C322.244005,305.710002 323.42466,305.94 324.774,305.94 C327.47268,305.94 329.527326,305.158008 330.938,303.594 C332.348674,302.029992 333.054,300.174677 333.054,298.028 C333.054,296.310658 332.870002,294.838673 332.502,293.612 C332.133998,292.385327 331.597337,291.312005 330.892,290.392 C330.186663,289.471995 329.358671,288.62867 328.408,287.862 C327.457329,287.095329 326.430006,286.313337 325.326,285.516 C323.853993,284.411994 322.642671,283.308006 321.692,282.204 C320.741329,281.099994 319.990003,279.888673 319.438,278.57 C318.885997,277.251327 318.502668,275.733342 318.288,274.016 C318.073332,272.298658 317.966,270.305345 317.966,268.036 L326.062,268.036 Z" id="ჭიქა" fill="#BABABD" sketch:type="MSShapeGroup"></path>
                    <path d="M300.296832,311 C300.24992,313.496437 299.883646,315.873083 299.198,318.13 C298.461996,320.552679 297.296675,322.653324 295.702,324.432 C294.107325,326.210676 292.037346,327.621328 289.492,328.664 C286.946654,329.706672 283.834018,330.228 280.154,330.228 C273.4073,330.228 268.39335,328.58735 265.112,325.306 C262.106104,322.300104 260.477011,317.531478 260.224684,311 L268.160318,311 C268.404075,314.723478 269.411962,317.682789 271.184,319.878 C273.238677,322.423346 276.381979,323.696 280.614,323.696 C284.723354,323.696 287.759324,322.745343 289.722,320.844 C291.671907,318.955028 292.653189,315.673727 292.665875,311 L300.296833,311 L300.296832,311 Z" id="ჭიქა-copy" fill="#666666" sketch:type="MSShapeGroup"></path>
                    <path d="M189.622562,311 C189.584649,313.52836 189.233131,315.920339 188.568,318.176 C187.862663,320.568012 186.728008,322.653324 185.164,324.432 C183.599992,326.210676 181.560679,327.621328 179.046,328.664 C176.531321,329.706672 173.434018,330.228 169.754,330.228 C166.441983,330.228 163.651345,329.829337 161.382,329.032 C159.112655,328.234663 157.288007,326.992675 155.908,325.306 C154.527993,323.619325 153.531336,321.442013 152.918,318.774 C152.407693,316.554164 152.109681,313.962849 152.02396,311 L159.669578,311 C159.731146,312.545859 159.872619,313.971852 160.094,315.278 C160.400668,317.087342 160.952663,318.605327 161.75,319.832 C162.547337,321.058673 163.635993,322.00933 165.016,322.684 C166.396007,323.35867 168.159323,323.696 170.306,323.696 C172.391344,323.696 174.169993,323.35867 175.642,322.684 C177.114007,322.00933 178.309995,321.089339 179.23,319.924 C180.150005,318.758661 180.824665,317.394008 181.254,315.83 C181.675663,314.293943 181.890259,312.683959 181.897794,311 L189.622564,311 L189.622562,311 Z" id="ჭიქა-copy-2" fill="#666666" sketch:type="MSShapeGroup"></path>
                    <path d="M0,181 L465,181" id="Path-1" stroke="#BABABD" sketch:type="MSShapeGroup"></path>
                </g>
            </g>
        </g>
    </g>
</svg>