<?xml version="1.0" encoding="UTF-8" standalone="no"?>
<svg width="465px" height="360px" viewBox="0 0 465 360" version="1.1" xmlns="http://www.w3.org/2000/svg" xmlns:xlink="http://www.w3.org/1999/xlink" xmlns:sketch="http://www.bohemiancoding.com/sketch/ns">
    <!-- Generator: Sketch Beta 3.4.4 (17258) - http://www.bohemiancoding.com/sketch -->
    <title>Loop</title>
    <desc>Created with Sketch Beta.</desc>
    <defs></defs>
    <g id="Outline" stroke="none" stroke-width="1" fill="none" fill-rule="evenodd" sketch:type="MSPage">
        <g id="Loop" sketch:type="MSArtboardGroup">
            <g id="Group" sketch:type="MSLayerGroup">
                <g id="Tag">
                    <rect id="Rectangle-1" fill="#BABABD" sketch:type="MSShapeGroup" x="0" y="0" width="30" height="360"></rect>
                    <text id="აღმავალი" sketch:type="MSTextLayer" transform="translate(13.500000, 270.500000) rotate(-90.000000) translate(-13.500000, -270.500000) " font-family="BG Courier" font-size="21" font-weight="normal" sketch:alignment="middle" fill="#646466">
                        <tspan x="-18.672" y="275">რგოლი</tspan>
                    </text>
                    <text id="ascender" sketch:type="MSTextLayer" transform="translate(14.500000, 90.500000) rotate(-90.000000) translate(-14.500000, -90.500000) " font-family="BG Courier" font-size="21" font-weight="normal" sketch:alignment="middle" fill="#646466">
                        <tspan x="-10.7" y="95">loop</tspan>
                    </text>
                </g>
                <path d="M204.470703,127.417969 C205.668626,128.555995 206.611976,129.843743 207.300781,131.28125 C207.989587,132.718757 208.333984,134.50064 208.333984,136.626953 C208.333984,138.753266 207.869796,140.752269 206.941406,142.624023 C206.013016,144.495778 204.605478,146.120436 202.71875,147.498047 C200.71223,148.905606 198.31642,149.998694 195.53125,150.777344 C192.74608,151.555993 189.302104,151.945312 185.199219,151.945312 C178.490852,151.945312 173.474626,150.964528 170.150391,149.00293 C166.826155,147.041331 165.164062,144.173847 165.164062,140.400391 C165.164062,137.345688 166.361967,134.934905 168.757812,133.167969 C171.153658,131.401033 174.208315,130.442709 177.921875,130.292969 L177.921875,129.664062 C177.023433,129.39453 176.095057,129.057619 175.136719,128.65332 C174.178381,128.249021 173.354821,127.777346 172.666016,127.238281 C171.887366,126.609372 171.258466,125.868168 170.779297,125.014648 C170.300128,124.161129 170.060547,123.105475 170.060547,121.847656 C170.060547,120.260409 170.622065,118.800462 171.745117,117.467773 C172.86817,116.135084 174.567697,114.989588 176.84375,114.03125 L176.84375,113.357422 C173.968736,112.009759 171.737638,110.280284 170.150391,108.168945 C168.563143,106.057607 167.769531,103.609389 167.769531,100.824219 C167.769531,96.6314895 169.334294,93.1875135 172.463867,90.4921875 C175.59344,87.7968615 179.598934,86.4492188 184.480469,86.4492188 C185.828132,86.4492188 187.168288,86.583983 188.500977,86.8535156 C189.833666,87.1230482 191.188795,87.4674458 192.566406,87.8867188 L208.019531,87.8867188 L208.019531,92.1992188 L197.597656,92.1992188 L197.597656,92.46875 C198.705735,93.7565169 199.529294,95.1790287 200.068359,96.7363281 C200.607425,98.2936276 200.876953,99.8209561 200.876953,101.318359 C200.876953,105.211608 199.297216,108.505846 196.137695,111.201172 C192.978174,113.896498 189.302104,115.244141 185.109375,115.244141 L179.673828,115.244141 C178.985023,115.483725 178.26628,115.917966 177.517578,116.546875 C176.768876,117.175784 176.394531,118.029291 176.394531,119.107422 C176.394531,120.2155 176.708981,121.061521 177.337891,121.645508 C177.9668,122.229495 178.730464,122.626301 179.628906,122.835938 C180.4974,123.075522 181.508132,123.22526 182.661133,123.285156 C183.814133,123.345052 185.004551,123.389974 186.232422,123.419922 C187.550137,123.44987 189.354481,123.539713 191.645508,123.689453 C193.936535,123.839193 195.561193,123.929036 196.519531,123.958984 C197.897142,124.018881 199.28222,124.348304 200.674805,124.947266 C202.06739,125.546227 203.332677,126.369786 204.470703,127.417969 L204.470703,127.417969 Z M192.341797,101.138672 C192.341797,97.6347481 191.630541,94.8421328 190.208008,92.7607422 C188.785475,90.6793516 186.786471,89.6386719 184.210938,89.6386719 C182.803378,89.6386719 181.597987,89.9306611 180.594727,90.5146484 C179.591466,91.0986357 178.775394,91.9296821 178.146484,93.0078125 C177.547523,93.9960987 177.12077,95.1865165 176.866211,96.5791016 C176.611652,97.9716867 176.484375,99.4016854 176.484375,100.869141 C176.484375,104.193376 177.210605,106.903635 178.663086,109 C180.115567,111.096365 181.99478,112.144531 184.300781,112.144531 C186.876315,112.144531 188.860345,111.103852 190.25293,109.022461 C191.645515,106.94107 192.341797,104.313167 192.341797,101.138672 L192.341797,101.138672 Z M200.966797,138.289062 C200.966797,136.611971 200.577478,135.23438 199.798828,134.15625 C199.020178,133.07812 197.837248,132.344403 196.25,131.955078 C195.411454,131.835286 193.689466,131.700522 191.083984,131.550781 C188.478503,131.401041 185.453793,131.326172 182.009766,131.326172 C178.775374,131.955081 176.476895,133.010735 175.114258,134.493164 C173.751621,135.975593 173.070312,137.884754 173.070312,140.220703 C173.070312,141.268885 173.29492,142.272131 173.744141,143.230469 C174.193362,144.188807 174.972,145.072262 176.080078,145.880859 C177.12826,146.659509 178.535798,147.295896 180.302734,147.790039 C182.06967,148.284182 184.225899,148.53125 186.771484,148.53125 C191.17385,148.53125 194.640287,147.68523 197.170898,145.993164 C199.70151,144.301098 200.966797,141.73309 200.966797,138.289062 L200.966797,138.289062 Z M255.322266,131.191406 C253.914707,131.700523 252.679367,132.112303 251.616211,132.426758 C250.553055,132.741213 249.347663,132.898438 248,132.898438 C245.664051,132.898438 243.799812,132.351893 242.407227,131.258789 C241.014641,130.165685 240.1237,128.570974 239.734375,126.474609 L239.464844,126.474609 C237.518219,128.63087 235.429373,130.277989 233.198242,131.416016 C230.967111,132.554042 228.279313,133.123047 225.134766,133.123047 C221.81053,133.123047 219.07781,132.104828 216.936523,130.068359 C214.795237,128.031891 213.724609,125.366553 213.724609,122.072266 C213.724609,120.365226 213.96419,118.837897 214.443359,117.490234 C214.922528,116.142571 215.641271,114.929693 216.599609,113.851562 C217.348311,112.953121 218.336582,112.152022 219.564453,111.448242 C220.792324,110.744463 221.945307,110.182945 223.023438,109.763672 C224.3711,109.254555 227.103821,108.311205 231.22168,106.933594 C235.339539,105.555983 238.11718,104.477868 239.554688,103.699219 L239.554688,99.2519531 C239.554688,98.8626283 239.472332,98.1139378 239.307617,97.0058594 C239.142903,95.8977809 238.791018,94.8496143 238.251953,93.8613281 C237.652992,92.7532497 236.806972,91.787439 235.713867,90.9638672 C234.620763,90.1402954 233.070974,89.7285156 231.064453,89.7285156 C229.686842,89.7285156 228.406581,89.9606097 227.223633,90.4248047 C226.040684,90.8889997 225.209638,91.3756485 224.730469,91.8847656 C224.730469,92.483727 224.87272,93.3671817 225.157227,94.5351562 C225.441733,95.7031308 225.583984,96.7812451 225.583984,97.7695312 C225.583984,98.8177136 225.112309,99.7760373 224.168945,100.644531 C223.225581,101.513025 221.915373,101.947266 220.238281,101.947266 C218.740878,101.947266 217.640303,101.415695 216.936523,100.352539 C216.232744,99.2893827 215.880859,98.0989649 215.880859,96.78125 C215.880859,95.4036389 216.367508,94.0859438 217.34082,92.828125 C218.314132,91.5703062 219.579419,90.4472706 221.136719,89.4589844 C222.484382,88.6204385 224.116527,87.9091826 226.033203,87.3251953 C227.949879,86.741208 229.821605,86.4492188 231.648438,86.4492188 C234.164075,86.4492188 236.357738,86.6214175 238.229492,86.9658203 C240.101246,87.3102231 241.800774,88.0514266 243.328125,89.1894531 C244.855476,90.2975316 246.015947,91.8023993 246.80957,93.7041016 C247.603194,95.6058038 248,98.0540215 248,101.048828 C248,105.331402 247.955079,109.127262 247.865234,112.436523 C247.77539,115.745785 247.730469,119.36196 247.730469,123.285156 C247.730469,124.453131 247.932615,125.381507 248.336914,126.070312 C248.741213,126.759118 249.362626,127.343097 250.201172,127.822266 C250.650393,128.091798 251.361649,128.241536 252.334961,128.271484 C253.308273,128.301432 254.304031,128.316406 255.322266,128.316406 L255.322266,131.191406 Z M239.644531,107.472656 C237.098946,108.221358 234.867848,108.955075 232.951172,109.673828 C231.034496,110.392582 229.252612,111.29101 227.605469,112.369141 C226.108065,113.387375 224.925135,114.592766 224.056641,115.985352 C223.188147,117.377937 222.753906,119.032543 222.753906,120.949219 C222.753906,123.434908 223.405267,125.261713 224.708008,126.429688 C226.010749,127.597662 227.665355,128.181641 229.671875,128.181641 C231.798188,128.181641 233.669914,127.665044 235.287109,126.631836 C236.904305,125.598628 238.266922,124.378262 239.375,122.970703 L239.644531,107.472656 Z M287.082031,130.068359 C285.135407,130.876957 283.293628,131.558265 281.556641,132.112305 C279.819653,132.666344 277.693372,132.943359 275.177734,132.943359 C271.464174,132.943359 268.851245,132.007496 267.338867,130.135742 C265.82649,128.263988 265.070312,125.621111 265.070312,122.207031 L265.070312,92.1992188 L257.074219,92.1992188 L257.074219,87.8867188 L265.25,87.8867188 L265.25,74.0957031 L273.425781,74.0957031 L273.425781,87.8867188 L286.138672,87.8867188 L286.138672,92.1992188 L273.515625,92.1992188 L273.515625,116.951172 C273.515625,118.807952 273.583007,120.357741 273.717773,121.600586 C273.85254,122.843431 274.174477,123.929032 274.683594,124.857422 C275.162763,125.725916 275.881506,126.384763 276.839844,126.833984 C277.798182,127.283205 279.085929,127.507812 280.703125,127.507812 C281.451827,127.507812 282.552402,127.44043 284.004883,127.305664 C285.457364,127.170898 286.48307,126.998699 287.082031,126.789062 L287.082031,130.068359 Z M330.835938,121.578125 C328.979157,125.111997 326.493505,127.927073 323.378906,130.023438 C320.264307,132.119802 316.685567,133.167969 312.642578,133.167969 C309.078758,133.167969 305.956719,132.539069 303.276367,131.28125 C300.596015,130.023431 298.387378,128.316417 296.650391,126.160156 C294.913403,124.003895 293.618168,121.488296 292.764648,118.613281 C291.911129,115.738267 291.484375,112.698584 291.484375,109.494141 C291.484375,106.619126 291.941076,103.796563 292.854492,101.026367 C293.767908,98.256171 295.108064,95.7630319 296.875,93.546875 C298.58204,91.4205623 300.700834,89.7060612 303.231445,88.4033203 C305.762057,87.1005794 308.599594,86.4492188 311.744141,86.4492188 C314.978532,86.4492188 317.748686,86.9583282 320.054688,87.9765625 C322.360689,88.9947968 324.232415,90.387361 325.669922,92.1542969 C327.047533,93.8313886 328.073239,95.8079313 328.74707,98.0839844 C329.420902,100.360037 329.757812,102.830716 329.757812,105.496094 L329.757812,108.460938 L300.423828,108.460938 C300.423828,111.3659 300.700844,114.00129 301.254883,116.367188 C301.808922,118.733085 302.68489,120.814444 303.882812,122.611328 C305.050787,124.348316 306.578116,125.718419 308.464844,126.72168 C310.351572,127.72494 312.597643,128.226562 315.203125,128.226562 C317.868503,128.226562 320.166983,127.605149 322.098633,126.362305 C324.030283,125.11946 325.894522,122.880876 327.691406,119.646484 L330.835938,121.578125 Z M320.908203,104.6875 C320.908203,103.010408 320.765952,101.213551 320.481445,99.296875 C320.196939,97.3801988 319.740238,95.7780012 319.111328,94.4902344 C318.422523,93.1126233 317.479173,91.9895877 316.28125,91.1210938 C315.083327,90.2525998 313.541025,89.8183594 311.654297,89.8183594 C308.50975,89.8183594 305.89682,91.1285676 303.81543,93.7490234 C301.734039,96.3694792 300.603517,100.015602 300.423828,104.6875 L320.908203,104.6875 Z" id="gate" fill="#BABABD" sketch:type="MSShapeGroup"></path>
                <path d="M207.300781,131.28125 C207.989587,132.718757 208.333984,134.50064 208.333984,136.626953 C208.333984,138.753266 207.869796,140.752269 206.941406,142.624023 C206.013016,144.495778 204.605478,146.120436 202.71875,147.498047 C200.71223,148.905606 198.31642,149.998694 195.53125,150.777344 C192.74608,151.555993 189.302104,151.945312 185.199219,151.945312 C178.490852,151.945312 173.474626,150.964528 170.150391,149.00293 C166.826155,147.041331 165.164062,144.173847 165.164062,140.400391 C165.164062,137.345688 166.361967,134.934905 168.757812,133.167969 C171.153658,131.401033 174.208315,130.442709 177.921875,130.292969 L177.921875,129.664062 C177.023433,129.39453 185.004551,123.389974 186.232422,123.419922 C187.550137,123.44987 189.354481,123.539713 191.645508,123.689453 C193.936535,123.839193 195.561193,123.929036 196.519531,123.958984 C197.897142,124.018881 199.28222,124.348304 200.674805,124.947266 C202.06739,125.546227 203.332677,126.369786 204.470703,127.417969 C205.668626,128.555995 206.611976,129.843743 207.300781,131.28125 Z M200.966797,138.289062 C200.966797,136.611971 200.577478,135.23438 199.798828,134.15625 C199.020178,133.07812 197.837248,132.344403 196.25,131.955078 C195.411454,131.835286 193.689466,131.700522 191.083984,131.550781 C188.478503,131.401041 185.453793,131.326172 182.009766,131.326172 C178.775374,131.955081 176.476895,133.010735 175.114258,134.493164 C173.751621,135.975593 173.070312,137.884754 173.070312,140.220703 C173.070312,141.268885 173.29492,142.272131 173.744141,143.230469 C174.193362,144.188807 174.972,145.072262 176.080078,145.880859 C177.12826,146.659509 178.535798,147.295896 180.302734,147.790039 C182.06967,148.284182 184.225899,148.53125 186.771484,148.53125 C191.17385,148.53125 194.640287,147.68523 197.170898,145.993164 C199.70151,144.301098 200.966797,141.73309 200.966797,138.289062 L200.966797,138.289062 Z" id="gate" fill="#666666" sketch:type="MSShapeGroup"></path>
                <path d="M157.012,292.416 C157.012,289.778653 157.456662,287.44801 158.346,285.424 C159.235338,283.39999 160.35466,281.590675 161.704,279.996 C163.05334,278.401325 164.494659,276.97534 166.028,275.718 C167.561341,274.46066 169.00266,273.264672 170.352,272.13 C171.70134,270.995328 172.820662,269.860672 173.71,268.726 C174.599338,267.591328 175.044,266.34934 175.044,265 C175.044,263.589326 174.998,262.362672 174.906,261.32 C174.814,260.277328 174.308005,259.510669 173.388,259.02 L166.948,255.432 L166.948,268.036 L159.22,268.036 L159.22,251.844 C159.22,250.862662 159.434665,250.03467 159.864,249.36 C160.293335,248.68533 160.84533,248.179335 161.52,247.842 C162.19467,247.504665 162.930663,247.366666 163.728,247.428 C164.525337,247.489334 165.322663,247.734665 166.12,248.164 L178.816,254.972 C179.613337,255.401335 180.272664,255.845998 180.794,256.306 C181.315336,256.766002 181.713999,257.348663 181.99,258.054 C182.266001,258.759337 182.45,259.633328 182.542,260.676 C182.634,261.718672 182.68,263.067992 182.68,264.724 C182.68,266.196007 183.093996,267.514661 183.922,268.68 C184.750004,269.845339 185.777327,271.010661 187.004,272.176 C188.230673,273.341339 189.579993,274.537327 191.052,275.764 C192.524007,276.990673 193.873327,278.385992 195.1,279.95 C196.326673,281.514008 197.353996,283.30799 198.182,285.332 C199.010004,287.35601 199.424,289.71732 199.424,292.416 C199.424,295.298681 198.918005,297.981988 197.906,300.466 C196.893995,302.950012 195.468009,305.081324 193.628,306.86 C191.787991,308.638676 189.580013,310.033995 187.004,311.046 C184.427987,312.058005 181.576016,312.564 178.448,312.564 C175.319984,312.564 172.437347,312.134671 169.8,311.276 C167.162653,310.417329 164.893343,309.129342 162.992,307.412 C161.090657,305.694658 159.618672,303.578679 158.576,301.064 C157.533328,298.549321 157.012,295.666683 157.012,292.416 L157.012,292.416 Z M178.816,271.808 C178.570665,273.096006 178.049337,274.245995 177.252,275.258 C176.454663,276.270005 175.550005,277.220662 174.538,278.11 C173.525995,278.999338 172.452672,279.888662 171.318,280.778 C170.183328,281.667338 169.140671,282.663994 168.19,283.768 C167.239329,284.872006 166.457336,286.129326 165.844,287.54 C165.230664,288.950674 164.924,290.606657 164.924,292.508 C164.924,294.593344 165.276663,296.463992 165.982,298.12 C166.687337,299.776008 167.653327,301.171328 168.88,302.306 C170.106673,303.440672 171.532659,304.314664 173.158,304.928 C174.783341,305.541336 176.515991,305.848 178.356,305.848 C182.40402,305.848 185.623988,304.744011 188.016,302.536 C190.408012,300.327989 191.604,296.832024 191.604,292.048 C191.604,290.269324 191.31267,288.70534 190.73,287.356 C190.14733,286.00666 189.426671,284.795339 188.568,283.722 C187.709329,282.648661 186.758672,281.667338 185.716,280.778 C184.673328,279.888662 183.676671,278.999338 182.726,278.11 C181.775329,277.220662 180.932004,276.270005 180.196,275.258 C179.459996,274.245995 179.000001,273.096006 178.816,271.808 L178.816,271.808 Z M226.932,268.036 C226.932,270.918681 227.22333,273.417989 227.806,275.534 C228.38867,277.650011 229.661324,279.474659 231.624,281.008 C233.402676,282.418674 234.935994,283.706661 236.224,284.872 C237.512006,286.037339 238.569996,287.24866 239.398,288.506 C240.226004,289.76334 240.839331,291.112659 241.238,292.554 C241.636669,293.995341 241.836,295.666657 241.836,297.568 C241.836,299.59201 241.468004,301.523991 240.732,303.364 C239.995996,305.204009 238.922674,306.813993 237.512,308.194 C236.101326,309.574007 234.399343,310.662663 232.406,311.46 C230.412657,312.257337 228.128013,312.656 225.552,312.656 C223.221322,312.656 221.074676,312.349336 219.112,311.736 C217.149324,311.122664 215.462674,310.218006 214.052,309.022 C212.641326,307.825994 211.537337,306.323342 210.74,304.514 C209.942663,302.704658 209.544,300.604012 209.544,298.212 C209.544,297.475996 209.559333,296.801336 209.59,296.188 C209.620667,295.574664 209.666666,295.022669 209.728,294.532 C209.789334,293.979997 209.850666,293.458669 209.912,292.968 L217.732,293.06 C217.670666,293.366668 217.609334,293.765331 217.548,294.256 C217.486666,294.685335 217.456,295.221997 217.456,295.866 L217.456,298.12 C217.456,299.040005 217.624665,299.959995 217.962,300.88 C218.299335,301.800005 218.820663,302.643329 219.526,303.41 C220.231337,304.176671 221.089995,304.789998 222.102,305.25 C223.114005,305.710002 224.29466,305.94 225.644,305.94 C228.34268,305.94 230.397326,305.158008 231.808,303.594 C233.218674,302.029992 233.924,300.174677 233.924,298.028 C233.924,296.310658 233.740002,294.838673 233.372,293.612 C233.003998,292.385327 232.467337,291.312005 231.762,290.392 C231.056663,289.471995 230.228671,288.62867 229.278,287.862 C228.327329,287.095329 227.300006,286.313337 226.196,285.516 C224.723993,284.411994 223.512671,283.308006 222.562,282.204 C221.611329,281.099994 220.860003,279.888673 220.308,278.57 C219.755997,277.251327 219.372668,275.733342 219.158,274.016 C218.943332,272.298658 218.836,270.305345 218.836,268.036 L226.932,268.036 Z M254.716,310.08 C254.716,307.626654 255.145329,305.418676 256.004,303.456 C256.862671,301.493324 257.935994,299.730008 259.224,298.166 C260.512006,296.601992 261.907326,295.206673 263.41,293.98 C264.912674,292.753327 266.307994,291.588006 267.596,290.484 C268.884006,289.379994 269.957329,288.306672 270.816,287.264 C271.674671,286.221328 272.104,285.148006 272.104,284.044 L272.104,279.628 C272.104,276.377317 271.552006,274.092673 270.448,272.774 C269.343994,271.455327 267.626678,270.796 265.296,270.796 C264.314662,270.796 263.410004,270.903332 262.582,271.118 C261.753996,271.332668 261.04867,271.761997 260.466,272.406 C259.88333,273.050003 259.438668,273.969994 259.132,275.166 C258.825332,276.362006 258.672,277.910657 258.672,279.812 L258.672,282.756 L251.036,282.756 L251.036,279.076 C251.036,277.358658 251.250665,275.610676 251.68,273.832 C252.109335,272.053324 252.845328,270.443341 253.888,269.002 C254.930672,267.560659 256.341324,266.395338 258.12,265.506 C259.898676,264.616662 262.167986,264.172 264.928,264.172 C269.896025,264.172 273.606654,265.229989 276.06,267.346 C278.513346,269.462011 279.74,272.482647 279.74,276.408 L279.74,283.768 C279.74,284.810672 280.184662,285.837995 281.074,286.85 C281.963338,287.862005 283.051994,288.935328 284.34,290.07 C285.628006,291.204672 287.053992,292.431327 288.618,293.75 C290.182008,295.068673 291.607994,296.525325 292.896,298.12 C294.184006,299.714675 295.272662,301.47799 296.162,303.41 C297.051338,305.34201 297.496,307.473322 297.496,309.804 C297.496,312.809348 297.051338,315.553988 296.162,318.038 C295.272662,320.522012 293.938676,322.668658 292.16,324.478 C290.381324,326.287342 288.173347,327.697995 285.536,328.71 C282.898653,329.722005 279.862684,330.228 276.428,330.228 C272.502647,330.228 269.175347,329.706672 266.446,328.664 C263.716653,327.621328 261.478009,326.195342 259.73,324.386 C257.981991,322.576658 256.709337,320.445346 255.912,317.992 C255.114663,315.538654 254.716,312.901347 254.716,310.08 L254.716,310.08 Z M276.06,290.944 C275.569331,292.477341 274.588007,293.841994 273.116,295.038 C271.643993,296.234006 270.126008,297.50666 268.562,298.856 C266.997992,300.20534 265.602673,301.769324 264.376,303.548 C263.149327,305.326676 262.536,307.534653 262.536,310.172 C262.536,312.380011 262.919329,314.327325 263.686,316.014 C264.45267,317.700675 265.46466,319.111328 266.722,320.246 C267.97934,321.380672 269.420659,322.23933 271.046,322.822 C272.671341,323.40467 274.373324,323.696 276.152,323.696 C280.016019,323.696 283.220654,322.576678 285.766,320.338 C288.311346,318.099322 289.584,314.710689 289.584,310.172 C289.584,307.47332 288.970673,305.234676 287.744,303.456 C286.517327,301.677324 285.122008,300.128673 283.558,298.81 C281.993992,297.491327 280.476007,296.234006 279.004,295.038 C277.531993,293.841994 276.550669,292.477341 276.06,290.944 L276.06,290.944 Z M323.532,268.036 C323.532,270.918681 323.82333,273.417989 324.406,275.534 C324.98867,277.650011 326.261324,279.474659 328.224,281.008 C330.002676,282.418674 331.535994,283.706661 332.824,284.872 C334.112006,286.037339 335.169996,287.24866 335.998,288.506 C336.826004,289.76334 337.439331,291.112659 337.838,292.554 C338.236669,293.995341 338.436,295.666657 338.436,297.568 C338.436,299.59201 338.068004,301.523991 337.332,303.364 C336.595996,305.204009 335.522674,306.813993 334.112,308.194 C332.701326,309.574007 330.999343,310.662663 329.006,311.46 C327.012657,312.257337 324.728013,312.656 322.152,312.656 C319.821322,312.656 317.674676,312.349336 315.712,311.736 C313.749324,311.122664 312.062674,310.218006 310.652,309.022 C309.241326,307.825994 308.137337,306.323342 307.34,304.514 C306.542663,302.704658 306.144,300.604012 306.144,298.212 C306.144,297.475996 306.159333,296.801336 306.19,296.188 C306.220667,295.574664 306.266666,295.022669 306.328,294.532 C306.389334,293.979997 306.450666,293.458669 306.512,292.968 L314.332,293.06 C314.270666,293.366668 314.209334,293.765331 314.148,294.256 C314.086666,294.685335 314.056,295.221997 314.056,295.866 L314.056,298.12 C314.056,299.040005 314.224665,299.959995 314.562,300.88 C314.899335,301.800005 315.420663,302.643329 316.126,303.41 C316.831337,304.176671 317.689995,304.789998 318.702,305.25 C319.714005,305.710002 320.89466,305.94 322.244,305.94 C324.94268,305.94 326.997326,305.158008 328.408,303.594 C329.818674,302.029992 330.524,300.174677 330.524,298.028 C330.524,296.310658 330.340002,294.838673 329.972,293.612 C329.603998,292.385327 329.067337,291.312005 328.362,290.392 C327.656663,289.471995 326.828671,288.62867 325.878,287.862 C324.927329,287.095329 323.900006,286.313337 322.796,285.516 C321.323993,284.411994 320.112671,283.308006 319.162,282.204 C318.211329,281.099994 317.460003,279.888673 316.908,278.57 C316.355997,277.251327 315.972668,275.733342 315.758,274.016 C315.543332,272.298658 315.436,270.305345 315.436,268.036 L323.532,268.036 Z" id="ბაგა" fill="#BABABD" sketch:type="MSShapeGroup"></path>
                <path d="M158.346,285.424 C159.235338,283.39999 160.35466,281.590675 161.704,279.996 C163.05334,278.401325 164.494659,276.97534 166.028,275.718 C167.561341,274.46066 169.00266,273.264672 170.352,272.13 C171.70134,270.995328 172.820662,269.860672 173.71,268.726 C174.599338,267.591328 183.093996,267.514661 183.922,268.68 C184.750004,269.845339 185.777327,271.010661 187.004,272.176 C188.230673,273.341339 189.579993,274.537327 191.052,275.764 C192.524007,276.990673 193.873327,278.385992 195.1,279.95 C196.326673,281.514008 197.353996,283.30799 198.182,285.332 C199.010004,287.35601 199.424,289.71732 199.424,292.416 C199.424,295.298681 198.918005,297.981988 197.906,300.466 C196.893995,302.950012 195.468009,305.081324 193.628,306.86 C191.787991,308.638676 189.580013,310.033995 187.004,311.046 C184.427987,312.058005 181.576016,312.564 178.448,312.564 C175.319984,312.564 172.437347,312.134671 169.8,311.276 C167.162653,310.417329 164.893343,309.129342 162.992,307.412 C161.090657,305.694658 159.618672,303.578679 158.576,301.064 C157.533328,298.549321 157.012,295.666683 157.012,292.416 C157.012,289.778653 157.456662,287.44801 158.346,285.424 Z M178.816,271.808 C178.570665,273.096006 178.049337,274.245995 177.252,275.258 C176.454663,276.270005 175.550005,277.220662 174.538,278.11 C173.525995,278.999338 172.452672,279.888662 171.318,280.778 C170.183328,281.667338 169.140671,282.663994 168.19,283.768 C167.239329,284.872006 166.457336,286.129326 165.844,287.54 C165.230664,288.950674 164.924,290.606657 164.924,292.508 C164.924,294.593344 165.276663,296.463992 165.982,298.12 C166.687337,299.776008 167.653327,301.171328 168.88,302.306 C170.106673,303.440672 171.532659,304.314664 173.158,304.928 C174.783341,305.541336 176.515991,305.848 178.356,305.848 C182.40402,305.848 185.623988,304.744011 188.016,302.536 C190.408012,300.327989 191.604,296.832024 191.604,292.048 C191.604,290.269324 191.31267,288.70534 190.73,287.356 C190.14733,286.00666 189.426671,284.795339 188.568,283.722 C187.709329,282.648661 186.758672,281.667338 185.716,280.778 C184.673328,279.888662 183.676671,278.999338 182.726,278.11 C181.775329,277.220662 180.932004,276.270005 180.196,275.258 C179.459996,274.245995 179.000001,273.096006 178.816,271.808 L178.816,271.808 Z M256.004,303.456 C256.862671,301.493324 257.935994,299.730008 259.224,298.166 C260.512006,296.601992 261.907326,295.206673 263.41,293.98 C264.912674,292.753327 266.307994,291.588006 267.596,290.484 C268.884006,289.379994 269.957329,288.306672 270.816,287.264 C271.674671,286.221328 280.184662,285.837995 281.074,286.85 C281.963338,287.862005 283.051994,288.935328 284.34,290.07 C285.628006,291.204672 287.053992,292.431327 288.618,293.75 C290.182008,295.068673 291.607994,296.525325 292.896,298.12 C294.184006,299.714675 295.272662,301.47799 296.162,303.41 C297.051338,305.34201 297.496,307.473322 297.496,309.804 C297.496,312.809348 297.051338,315.553988 296.162,318.038 C295.272662,320.522012 293.938676,322.668658 292.16,324.478 C290.381324,326.287342 288.173347,327.697995 285.536,328.71 C282.898653,329.722005 279.862684,330.228 276.428,330.228 C272.502647,330.228 269.175347,329.706672 266.446,328.664 C263.716653,327.621328 261.478009,326.195342 259.73,324.386 C257.981991,322.576658 256.709337,320.445346 255.912,317.992 C255.114663,315.538654 254.716,312.901347 254.716,310.08 C254.716,307.626654 255.145329,305.418676 256.004,303.456 Z M276.06,290.944 C275.569331,292.477341 274.588007,293.841994 273.116,295.038 C271.643993,296.234006 270.126008,297.50666 268.562,298.856 C266.997992,300.20534 265.602673,301.769324 264.376,303.548 C263.149327,305.326676 262.536,307.534653 262.536,310.172 C262.536,312.380011 262.91933,314.327325 263.686,316.014 C264.452671,317.700675 265.46466,319.111328 266.722,320.246 C267.97934,321.380672 269.420659,322.23933 271.046,322.822 C272.671341,323.40467 274.373324,323.696 276.152,323.696 C280.016019,323.696 283.220654,322.576678 285.766,320.338 C288.311346,318.099322 289.584,314.710689 289.584,310.172 C289.584,307.47332 288.970673,305.234676 287.744,303.456 C286.517327,301.677324 285.122008,300.128673 283.558,298.81 C281.993992,297.491327 280.476007,296.234006 279.004,295.038 C277.531993,293.841994 276.550669,292.477341 276.06,290.944 L276.06,290.944 Z" id="ბაგა" fill="#666666" sketch:type="MSShapeGroup"></path>
                <path d="M0,181 L465,181" id="Path-1" stroke="#BABABD" sketch:type="MSShapeGroup"></path>
            </g>
        </g>
    </g>
</svg>