<?xml version="1.0" encoding="UTF-8" standalone="no"?>
<svg width="465px" height="360px" viewBox="0 0 465 360" version="1.1" xmlns="http://www.w3.org/2000/svg" xmlns:xlink="http://www.w3.org/1999/xlink" xmlns:sketch="http://www.bohemiancoding.com/sketch/ns">
    <!-- Generator: Sketch Beta 3.4.4 (17258) - http://www.bohemiancoding.com/sketch -->
    <title>Lowercase</title>
    <desc>Created with Sketch Beta.</desc>
    <defs></defs>
    <g id="Outline" stroke="none" stroke-width="1" fill="none" fill-rule="evenodd" sketch:type="MSPage">
        <g id="Lowercase" sketch:type="MSArtboardGroup">
            <g id="Tag" sketch:type="MSLayerGroup">
                <rect id="Rectangle-1" fill="#BABABD" sketch:type="MSShapeGroup" x="0" y="0" width="30" height="360"></rect>
                <text id="აღმავალი" sketch:type="MSTextLayer" transform="translate(13.500000, 270.500000) rotate(-90.000000) translate(-13.500000, -270.500000) " font-family="BG Courier" font-size="21" font-weight="normal" sketch:alignment="middle" fill="#646466">
                    <tspan x="-50.172" y="275">პატარა ასო</tspan>
                </text>
                <text id="ascender" sketch:type="MSTextLayer" transform="translate(14.500000, 90.500000) rotate(-90.000000) translate(-14.500000, -90.500000) " font-family="BG Courier" font-size="21" font-weight="normal" sketch:alignment="middle" fill="#646466">
                    <tspan x="-42.2" y="95">lowercase</tspan>
                </text>
            </g>
            <path d="M166.672,117.232 L162.072,122.568 L169.34,128.364 C166.395985,129.590673 163.360016,130.204 160.232,130.204 C156.245313,130.204 152.810681,129.422008 149.928,127.858 C147.045319,126.293992 144.684009,124.224013 142.844,121.648 C141.003991,119.071987 139.654671,116.174016 138.796,112.954 C137.937329,109.733984 137.508,106.468017 137.508,103.156 C137.508,99.8439834 137.937329,96.5780161 138.796,93.358 C139.654671,90.1379839 141.003991,87.2400129 142.844,84.664 C144.684009,82.0879871 147.045319,80.0180078 149.928,78.454 C152.810681,76.8899922 156.245313,76.108 160.232,76.108 C164.218687,76.108 167.653319,76.8899922 170.536,78.454 C173.418681,80.0180078 175.779991,82.0879871 177.62,84.664 C179.460009,87.2400129 180.809329,90.1379839 181.668,93.358 C182.526671,96.5780161 182.956,99.8439834 182.956,103.156 C182.956,107.20402 182.342673,111.083315 181.116,114.794 C179.889327,118.504685 177.988013,121.647987 175.412,124.224 L166.672,117.232 Z M185.992,141.612 L190.408,136.092 L181.76,129.284 C185.072017,125.971983 187.555992,122.046689 189.212,117.508 C190.868008,112.969311 191.696,108.185358 191.696,103.156 C191.696,98.6786443 191.036673,94.3700207 189.718,90.23 C188.399327,86.0899793 186.421347,82.4253493 183.784,79.236 C181.146653,76.0466507 177.865353,73.5013428 173.94,71.6 C170.014647,69.6986572 165.445359,68.748 160.232,68.748 C155.018641,68.748 150.449353,69.6986572 146.524,71.6 C142.598647,73.5013428 139.317347,76.0466507 136.68,79.236 C134.042653,82.4253493 132.064673,86.0899793 130.746,90.23 C129.427327,94.3700207 128.768,98.6786443 128.768,103.156 C128.768,107.633356 129.427327,111.941979 130.746,116.082 C132.064673,120.222021 134.042653,123.886651 136.68,127.076 C139.317347,130.265349 142.598647,132.795324 146.524,134.666 C150.449353,136.536676 155.018641,137.472 160.232,137.472 C166.30403,137.472 171.547978,136.184013 175.964,133.608 L185.992,141.612 Z M240.456,136 L240.456,88.436 L232.636,88.436 L232.636,115.3 C232.636,117.446677 232.34467,119.424658 231.762,121.234 C231.17933,123.043342 230.305339,124.62266 229.14,125.972 C227.974661,127.32134 226.518009,128.363996 224.77,129.1 C223.021991,129.836004 220.952012,130.204 218.56,130.204 C215.554652,130.204 213.193342,129.345342 211.476,127.628 C209.758658,125.910658 208.9,123.580015 208.9,120.636 L208.9,88.436 L201.08,88.436 L201.08,119.716 C201.08,122.292013 201.340664,124.637989 201.862,126.754 C202.383336,128.870011 203.287994,130.694659 204.576,132.228 C205.864006,133.761341 207.550656,134.941996 209.636,135.77 C211.721344,136.598004 214.327984,137.012 217.456,137.012 C220.952017,137.012 223.987987,136.322007 226.564,134.942 C229.140013,133.561993 231.255992,131.400015 232.912,128.456 L233.096,128.456 L233.096,136 L240.456,136 Z M285.26,107.664 L257.936,107.664 C258.058667,105.823991 258.45733,104.091341 259.132,102.466 C259.80667,100.840659 260.726661,99.4146728 261.892,98.188 C263.057339,96.9613272 264.452659,95.9953369 266.078,95.29 C267.703341,94.5846631 269.52799,94.232 271.552,94.232 C273.514676,94.232 275.308659,94.5846631 276.934,95.29 C278.559341,95.9953369 279.969994,96.945994 281.166,98.142 C282.362006,99.338006 283.312663,100.763992 284.018,102.42 C284.723337,104.076008 285.137333,105.823991 285.26,107.664 L285.26,107.664 Z M292.804,120.912 L285.076,120.912 C284.40133,124.040016 283.006011,126.370659 280.89,127.904 C278.773989,129.437341 276.060017,130.204 272.748,130.204 C270.171987,130.204 267.933343,129.774671 266.032,128.916 C264.130657,128.057329 262.566673,126.907341 261.34,125.466 C260.113327,124.024659 259.224003,122.368676 258.672,120.498 C258.119997,118.627324 257.874666,116.649344 257.936,114.564 L293.54,114.564 C293.662667,111.681319 293.402003,108.645349 292.758,105.456 C292.113997,102.266651 290.948675,99.3226802 289.262,96.624 C287.575325,93.9253198 285.336681,91.7020087 282.546,89.954 C279.755319,88.2059913 276.244021,87.332 272.012,87.332 C268.761317,87.332 265.771347,87.9453272 263.042,89.172 C260.312653,90.3986728 257.951343,92.115989 255.958,94.324 C253.964657,96.532011 252.416006,99.1386516 251.312,102.144 C250.207994,105.149348 249.656,108.461315 249.656,112.08 C249.778667,115.698685 250.315329,119.041318 251.266,122.108 C252.216671,125.174682 253.642657,127.811989 255.544,130.02 C257.445343,132.228011 259.791319,133.945327 262.582,135.172 C265.372681,136.398673 268.669314,137.012 272.472,137.012 C277.86936,137.012 282.346649,135.66268 285.904,132.964 C289.461351,130.26532 291.761328,126.248027 292.804,120.912 L292.804,120.912 Z M306.42,121.004 L298.6,121.004 C298.722667,123.948015 299.335994,126.447323 300.44,128.502 C301.544006,130.556677 303.015991,132.21266 304.856,133.47 C306.696009,134.72734 308.811988,135.631997 311.204,136.184 C313.596012,136.736003 316.110653,137.012 318.748,137.012 C321.140012,137.012 323.547321,136.782002 325.97,136.322 C328.392679,135.861998 330.56999,135.049339 332.502,133.884 C334.43401,132.718661 335.997994,131.185343 337.194,129.284 C338.390006,127.382657 338.988,124.990681 338.988,122.108 C338.988,119.838655 338.543338,117.937341 337.654,116.404 C336.764662,114.870659 335.599341,113.598005 334.158,112.586 C332.716659,111.573995 331.060676,110.761336 329.19,110.148 C327.319324,109.534664 325.402676,109.013335 323.44,108.584 C321.599991,108.154665 319.760009,107.740669 317.92,107.342 C316.079991,106.943331 314.424007,106.45267 312.952,105.87 C311.479993,105.28733 310.268671,104.551338 309.318,103.662 C308.367329,102.772662 307.892,101.65334 307.892,100.304 C307.892,99.0773272 308.198664,98.0806705 308.812,97.314 C309.425336,96.5473295 310.222662,95.9340023 311.204,95.474 C312.185338,95.0139977 313.273994,94.6920009 314.47,94.508 C315.666006,94.3239991 316.846661,94.232 318.012,94.232 C319.300006,94.232 320.57266,94.3699986 321.83,94.646 C323.08734,94.9220014 324.237328,95.3666636 325.28,95.98 C326.322672,96.5933364 327.18133,97.4059949 327.856,98.418 C328.53067,99.4300051 328.929333,100.702659 329.052,102.236 L336.872,102.236 C336.687999,99.3533189 336.074672,96.9460097 335.032,95.014 C333.989328,93.0819903 332.594009,91.5486723 330.846,90.414 C329.097991,89.2793277 327.089345,88.4820023 324.82,88.022 C322.550655,87.5619977 320.06668,87.332 317.368,87.332 C315.282656,87.332 313.182011,87.5926641 311.066,88.114 C308.949989,88.6353359 307.048675,89.4326613 305.362,90.506 C303.675325,91.5793387 302.295339,92.9746581 301.222,94.692 C300.148661,96.4093419 299.612,98.463988 299.612,100.856 C299.612,103.922682 300.378659,106.314658 301.912,108.032 C303.445341,109.749342 305.361988,111.083329 307.662,112.034 C309.962012,112.984671 312.46132,113.720664 315.16,114.242 C317.85868,114.763336 320.357988,115.345997 322.658,115.99 C324.958011,116.634003 326.874659,117.477328 328.408,118.52 C329.941341,119.562672 330.708,121.09599 330.708,123.12 C330.708,124.592007 330.340004,125.803329 329.604,126.754 C328.867996,127.704671 327.932672,128.425331 326.798,128.916 C325.663328,129.406669 324.42134,129.743999 323.072,129.928 C321.72266,130.112001 320.434673,130.204 319.208,130.204 C317.613325,130.204 316.064674,130.050668 314.562,129.744 C313.059326,129.437332 311.710006,128.931337 310.514,128.226 C309.317994,127.520663 308.352004,126.570006 307.616,125.374 C306.879996,124.177994 306.481334,122.721342 306.42,121.004 L306.42,121.004 Z M358.492,88.436 L358.492,74.176 L350.672,74.176 L350.672,88.436 L342.576,88.436 L342.576,95.336 L350.672,95.336 L350.672,125.604 C350.672,127.812011 350.886665,129.59066 351.316,130.94 C351.745335,132.28934 352.404662,133.331996 353.294,134.068 C354.183338,134.804004 355.348659,135.309999 356.79,135.586 C358.231341,135.862001 359.96399,136 361.988,136 L367.968,136 L367.968,129.1 L364.38,129.1 C363.153327,129.1 362.15667,129.054 361.39,128.962 C360.62333,128.87 360.025335,128.670668 359.596,128.364 C359.166665,128.057332 358.875334,127.628003 358.722,127.076 C358.568666,126.523997 358.492,125.788005 358.492,124.868 L358.492,95.336 L367.968,95.336 L367.968,88.436 L358.492,88.436 Z" id="Quest" fill="#BABABD" sketch:type="MSShapeGroup"></path>
            <path d="M240.456,136 L240.456,88.436 L232.636,88.436 L232.636,115.3 C232.636,117.446677 232.34467,119.424658 231.762,121.234 C231.17933,123.043342 230.305339,124.62266 229.14,125.972 C227.974661,127.32134 226.518009,128.363996 224.77,129.1 C223.021991,129.836004 220.952012,130.204 218.56,130.204 C215.554652,130.204 213.193342,129.345342 211.476,127.628 C209.758658,125.910658 208.9,123.580015 208.9,120.636 L208.9,88.436 L201.08,88.436 L201.08,119.716 C201.08,122.292013 201.340664,124.637989 201.862,126.754 C202.383336,128.870011 203.287994,130.694659 204.576,132.228 C205.864006,133.761341 207.550656,134.941996 209.636,135.77 C211.721344,136.598004 214.327984,137.012 217.456,137.012 C220.952017,137.012 223.987987,136.322007 226.564,134.942 C229.140013,133.561993 231.255992,131.400015 232.912,128.456 L233.096,128.456 L233.096,136 L240.456,136 Z M285.26,107.664 L257.936,107.664 C258.058667,105.823991 258.45733,104.091341 259.132,102.466 C259.80667,100.840659 260.726661,99.4146728 261.892,98.188 C263.057339,96.9613272 264.452659,95.9953369 266.078,95.29 C267.703341,94.5846631 269.52799,94.232 271.552,94.232 C273.514676,94.232 275.308659,94.5846631 276.934,95.29 C278.559341,95.9953369 279.969994,96.945994 281.166,98.142 C282.362006,99.338006 283.312663,100.763992 284.018,102.42 C284.723337,104.076008 285.137333,105.823991 285.26,107.664 L285.26,107.664 Z M292.804,120.912 L285.076,120.912 C284.40133,124.040016 283.006011,126.370659 280.89,127.904 C278.773989,129.437341 276.060017,130.204 272.748,130.204 C270.171987,130.204 267.933343,129.774671 266.032,128.916 C264.130657,128.057329 262.566673,126.907341 261.34,125.466 C260.113327,124.024659 259.224003,122.368676 258.672,120.498 C258.119997,118.627324 257.874666,116.649344 257.936,114.564 L293.54,114.564 C293.662667,111.681319 293.402003,108.645349 292.758,105.456 C292.113997,102.266651 290.948675,99.3226802 289.262,96.624 C287.575325,93.9253198 285.336681,91.7020087 282.546,89.954 C279.755319,88.2059913 276.244021,87.332 272.012,87.332 C268.761317,87.332 265.771347,87.9453272 263.042,89.172 C260.312653,90.3986728 257.951343,92.115989 255.958,94.324 C253.964657,96.532011 252.416006,99.1386516 251.312,102.144 C250.207994,105.149348 249.656,108.461315 249.656,112.08 C249.778667,115.698685 250.315329,119.041318 251.266,122.108 C252.216671,125.174682 253.642657,127.811989 255.544,130.02 C257.445343,132.228011 259.791319,133.945327 262.582,135.172 C265.372681,136.398673 268.669314,137.012 272.472,137.012 C277.86936,137.012 282.346649,135.66268 285.904,132.964 C289.461351,130.26532 291.761328,126.248027 292.804,120.912 L292.804,120.912 Z M306.42,121.004 L298.6,121.004 C298.722667,123.948015 299.335994,126.447323 300.44,128.502 C301.544006,130.556677 303.015991,132.21266 304.856,133.47 C306.696009,134.72734 308.811988,135.631997 311.204,136.184 C313.596012,136.736003 316.110653,137.012 318.748,137.012 C321.140012,137.012 323.547321,136.782002 325.97,136.322 C328.392679,135.861998 330.56999,135.049339 332.502,133.884 C334.43401,132.718661 335.997994,131.185343 337.194,129.284 C338.390006,127.382657 338.988,124.990681 338.988,122.108 C338.988,119.838655 338.543338,117.937341 337.654,116.404 C336.764662,114.870659 335.599341,113.598005 334.158,112.586 C332.716659,111.573995 331.060676,110.761336 329.19,110.148 C327.319324,109.534664 325.402676,109.013335 323.44,108.584 C321.599991,108.154665 319.760009,107.740669 317.92,107.342 C316.079991,106.943331 314.424007,106.45267 312.952,105.87 C311.479993,105.28733 310.268671,104.551338 309.318,103.662 C308.367329,102.772662 307.892,101.65334 307.892,100.304 C307.892,99.0773272 308.198664,98.0806705 308.812,97.314 C309.425336,96.5473295 310.222662,95.9340023 311.204,95.474 C312.185338,95.0139977 313.273994,94.6920009 314.47,94.508 C315.666006,94.3239991 316.846661,94.232 318.012,94.232 C319.300006,94.232 320.57266,94.3699986 321.83,94.646 C323.08734,94.9220014 324.237328,95.3666636 325.28,95.98 C326.322672,96.5933364 327.18133,97.4059949 327.856,98.418 C328.53067,99.4300051 328.929333,100.702659 329.052,102.236 L336.872,102.236 C336.687999,99.3533189 336.074672,96.9460097 335.032,95.014 C333.989328,93.0819903 332.594009,91.5486723 330.846,90.414 C329.097991,89.2793277 327.089345,88.4820023 324.82,88.022 C322.550655,87.5619977 320.06668,87.332 317.368,87.332 C315.282656,87.332 313.182011,87.5926641 311.066,88.114 C308.949989,88.6353359 307.048675,89.4326613 305.362,90.506 C303.675325,91.5793387 302.295339,92.9746581 301.222,94.692 C300.148661,96.4093419 299.612,98.463988 299.612,100.856 C299.612,103.922682 300.378659,106.314658 301.912,108.032 C303.445341,109.749342 305.361989,111.083329 307.662,112.034 C309.962012,112.984671 312.46132,113.720664 315.16,114.242 C317.85868,114.763336 320.357989,115.345997 322.658,115.99 C324.958012,116.634003 326.874659,117.477328 328.408,118.52 C329.941341,119.562672 330.708,121.09599 330.708,123.12 C330.708,124.592007 330.340004,125.803329 329.604,126.754 C328.867996,127.704671 327.932672,128.425331 326.798,128.916 C325.663328,129.406669 324.42134,129.743999 323.072,129.928 C321.72266,130.112001 320.434673,130.204 319.208,130.204 C317.613325,130.204 316.064674,130.050668 314.562,129.744 C313.059326,129.437332 311.710006,128.931337 310.514,128.226 C309.317994,127.520663 308.352004,126.570006 307.616,125.374 C306.879996,124.177994 306.481334,122.721342 306.42,121.004 L306.42,121.004 Z M358.492,88.436 L358.492,74.176 L350.672,74.176 L350.672,88.436 L342.576,88.436 L342.576,95.336 L350.672,95.336 L350.672,125.604 C350.672,127.812011 350.886665,129.59066 351.316,130.94 C351.745335,132.28934 352.404662,133.331996 353.294,134.068 C354.183338,134.804004 355.348659,135.309999 356.79,135.586 C358.231341,135.862001 359.96399,136 361.988,136 L367.968,136 L367.968,129.1 L364.38,129.1 C363.153327,129.1 362.156671,129.054 361.39,128.962 C360.62333,128.87 360.025335,128.670668 359.596,128.364 C359.166665,128.057332 358.875334,127.628003 358.722,127.076 C358.568666,126.523997 358.492,125.788005 358.492,124.868 L358.492,95.336 L367.968,95.336 L367.968,88.436 L358.492,88.436 Z" id="Quest" fill="#666666" sketch:type="MSShapeGroup"></path>
            <path d="M242.48,300.788 L242.48,311 L252.692,311 L252.692,300.788 L242.48,300.788 Z M227.484,265.828 L235.304,265.828 C235.304,263.681323 235.549331,261.688009 236.04,259.848 C236.530669,258.007991 237.312661,256.41334 238.386,255.064 C239.459339,253.71466 240.793325,252.641337 242.388,251.844 C243.982675,251.046663 245.883989,250.648 248.092,250.648 C251.404017,250.648 254.02599,251.598657 255.958,253.5 C257.89001,255.401343 258.978665,258.03865 259.224,261.412 C259.346667,263.681345 259.07067,265.613325 258.396,267.208 C257.72133,268.802675 256.816672,270.259327 255.682,271.578 C254.547328,272.896673 253.320673,274.153994 252.002,275.35 C250.683327,276.546006 249.426006,277.849326 248.23,279.26 C247.033994,280.670674 246.022004,282.280658 245.194,284.09 C244.365996,285.899342 243.890667,288.091987 243.768,290.668 L243.768,294.992 L251.588,294.992 L251.588,291.404 C251.588,289.809325 251.817998,288.38334 252.278,287.126 C252.738002,285.86866 253.35133,284.703339 254.118,283.63 C254.88467,282.556661 255.743329,281.544671 256.694,280.594 C257.644671,279.643329 258.610662,278.708005 259.592,277.788 C260.573338,276.806662 261.539329,275.794672 262.49,274.752 C263.440671,273.709328 264.283996,272.574673 265.02,271.348 C265.756004,270.121327 266.353998,268.756674 266.814,267.254 C267.274002,265.751326 267.504,264.049343 267.504,262.148 C267.504,259.203985 267.028671,256.597345 266.078,254.328 C265.127329,252.058655 263.793342,250.142008 262.076,248.578 C260.358658,247.013992 258.319345,245.818004 255.958,244.99 C253.596655,244.161996 250.974681,243.748 248.092,243.748 C244.902651,243.748 242.020013,244.299994 239.444,245.404 C236.867987,246.508006 234.690676,248.056657 232.912,250.05 C231.133324,252.043343 229.768671,254.38932 228.818,257.088 C227.867329,259.78668 227.422666,262.699984 227.484,265.828 L227.484,265.828 Z" id="?" fill="#BABABD" sketch:type="MSShapeGroup"></path>
            <path d="M0,181 L465,181" id="Path-1" stroke="#BABABD" sketch:type="MSShapeGroup"></path>
        </g>
    </g>
</svg>