<?xml version="1.0" encoding="UTF-8" standalone="no"?>
<svg width="465px" height="360px" viewBox="0 0 465 360" version="1.1" xmlns="http://www.w3.org/2000/svg" xmlns:xlink="http://www.w3.org/1999/xlink" xmlns:sketch="http://www.bohemiancoding.com/sketch/ns">
    <!-- Generator: Sketch Beta 3.4.4 (17258) - http://www.bohemiancoding.com/sketch -->
    <title>Serif</title>
    <desc>Created with Sketch Beta.</desc>
    <defs></defs>
    <g id="Outline" stroke="none" stroke-width="1" fill="none" fill-rule="evenodd" sketch:type="MSPage">
        <g id="Serif" sketch:type="MSArtboardGroup">
            <g id="Group" sketch:type="MSLayerGroup">
                <g sketch:type="MSShapeGroup">
                    <g id="Tag">
                        <rect id="Rectangle-1" fill="#BABABD" x="0" y="0" width="30" height="360"></rect>
                        <path d="M-13.569,271.43 C-13.569,273.95 -15.417,275.42 -18,275.42 C-20.583,275.42 -22.431,273.95 -22.431,271.43 L-22.431,260.237 L-21.612,260.237 L-21.612,271.43 C-21.612,273.425 -20.037,274.58 -18,274.58 C-15.963,274.58 -14.388,273.425 -14.388,271.43 C-14.388,270.695 -14.598,270.065 -15.039,269.561 L-16.236,268.532 C-16.677,268.07 -16.887,267.629 -16.887,267.188 C-16.887,266.264 -16.152,265.529 -15.228,265.529 L-14.808,265.529 L-14.808,266.348 L-15.228,266.348 C-15.711,266.348 -16.068,266.705 -16.068,267.188 C-16.068,267.461 -15.858,267.797 -15.417,268.154 C-14.178,269.141 -13.569,269.75 -13.569,271.43 L-13.569,271.43 Z M-0.843,270.674 L-0.843,277.982 C-0.843,280.649 -2.649,282.077 -5.358,282.077 C-8.025,282.077 -9.957,280.586 -9.957,277.982 C-9.957,276.701 -9.348,275.546 -8.13,274.559 L-7.605,275.189 C-8.613,276.008 -9.117,276.953 -9.117,277.982 C-9.117,280.187 -7.605,281.258 -5.358,281.258 C-3.153,281.258 -1.662,280.145 -1.662,277.982 L-1.662,270.674 C-1.662,269.435 -2.439,268.511 -3.636,268.322 C-3.93,268.259 -4.329,268.238 -4.833,268.238 C-6.009,268.238 -6.891,268.553 -7.479,269.162 C-8.34,270.023 -8.256,271.367 -7.395,272.606 L-8.067,273.089 L-8.298,272.753 C-9.054,271.766 -9.222,269.855 -8.13,268.658 C-7.122,267.545 -6.009,267.419 -4.833,267.419 C-3.657,267.419 -2.502,267.44 -1.557,268.595 C-1.074,269.162 -0.843,269.855 -0.843,270.674 L-0.843,270.674 Z M12.723,271.409 C12.723,272.648 12.198,274.034 11.148,275.567 L10.476,275.105 C11.421,273.698 11.904,272.48 11.904,271.409 C11.904,269.288 11.148,268.238 9.615,268.238 C8.67,268.238 8.019,268.658 7.641,269.519 L7.683,269.582 L7.62,269.603 L7.62,269.624 L7.599,273.11 L6.78,273.11 C6.801,272.963 6.801,272.774 6.801,272.543 L6.801,269.645 C6.318,268.7 5.646,268.238 4.785,268.238 C3.252,268.238 2.496,269.288 2.496,271.409 C2.496,272.459 2.979,273.698 3.924,275.105 L3.252,275.567 L3.021,275.231 C2.118,273.887 1.677,272.606 1.677,271.409 C1.677,269.099 2.496,267.335 4.113,266.096 C4.617,265.718 5.541,265.256 6.885,264.689 C9.09,263.744 10.119,262.778 10.119,260.657 L10.119,260.237 L10.938,260.237 L10.938,260.657 C10.938,263.03 9.468,264.878 7.137,265.445 C5.772,265.76 4.659,266.474 3.819,267.566 C4.113,267.461 4.428,267.419 4.785,267.419 C5.793,267.419 6.591,267.839 7.179,268.7 C7.788,267.839 8.586,267.419 9.615,267.419 C12.198,267.419 12.723,269.813 12.723,271.409 L12.723,271.409 Z M24.294,271.619 C24.21,272.984 23.664,274.286 22.677,275.567 L22.026,275.063 C22.908,273.929 23.391,272.774 23.475,271.619 C23.307,269.624 21.795,268.238 19.8,268.238 C17.805,268.238 16.293,269.624 16.125,271.619 C16.209,272.774 16.692,273.929 17.574,275.063 L16.923,275.567 L16.671,275.252 C15.852,274.181 15.39,272.984 15.306,271.619 C15.474,269.162 17.343,267.419 19.8,267.419 C22.257,267.419 24.126,269.162 24.294,271.619 L24.294,271.619 Z M38.07,277.121 L38.07,277.982 C38.07,280.649 36.264,282.077 33.555,282.077 C31.476,282.077 30.069,281.342 29.376,279.851 C28.809,278.654 28.977,277.394 29.229,276.449 L30.027,276.68 C29.859,277.142 29.775,277.583 29.775,277.982 C29.775,279.557 30.531,280.586 32.043,281.048 C32.505,281.195 33.009,281.258 33.555,281.258 C35.76,281.258 37.251,280.145 37.251,277.982 L37.251,277.121 C37.251,275.882 36.558,275.189 35.193,275.042 L35.172,275.042 C35.025,275.021 34.752,275.021 34.332,275.021 L34.332,274.202 L34.815,274.202 C34.941,274.202 35.067,274.202 35.172,274.223 C36.558,273.992 37.251,273.278 37.251,272.102 L37.251,270.338 C37.251,269.141 36.348,268.238 35.151,268.238 C34.437,268.238 33.849,268.574 33.408,269.225 C33.765,269.876 33.954,270.632 33.954,271.493 C33.954,273.593 32.799,275.336 30.762,275.525 L30.762,275.546 L30.342,275.546 C28.053,275.546 26.73,273.824 26.73,271.493 C26.73,269.225 28.137,267.419 30.342,267.419 C31.329,267.419 32.19,267.776 32.883,268.49 C33.471,267.776 34.227,267.419 35.151,267.419 C36.915,267.419 38.07,268.574 38.07,270.338 L38.07,272.102 C38.07,273.236 37.566,274.076 36.579,274.601 C37.566,275.126 38.07,275.966 38.07,277.121 L38.07,277.121 Z M33.135,271.493 C33.135,270.758 32.967,270.086 32.652,269.519 C32.001,268.658 31.224,268.238 30.342,268.238 C28.578,268.238 27.549,269.645 27.549,271.493 C27.549,273.32 28.578,274.727 30.342,274.727 C32.127,274.727 33.135,273.32 33.135,271.493 L33.135,271.493 Z M49.494,271.619 C49.41,272.984 48.864,274.286 47.877,275.567 L47.226,275.063 C48.108,273.929 48.591,272.774 48.675,271.619 C48.507,269.624 46.995,268.238 45,268.238 C43.005,268.238 41.493,269.624 41.325,271.619 C41.409,272.774 41.892,273.929 42.774,275.063 L42.123,275.567 L41.871,275.252 C41.052,274.181 40.59,272.984 40.506,271.619 C40.674,269.162 42.543,267.419 45,267.419 C47.457,267.419 49.326,269.162 49.494,271.619 L49.494,271.619 Z" id="აღმავალი" fill="#646466" transform="translate(14.434500, 271.157000) rotate(-90.000000) translate(-14.434500, -271.157000) "></path>
                        <path d="M-6.521,92.522 C-6.521,94.454 -8.579,95.336 -10.679,95.336 C-12.044,95.336 -13.157,95 -14.018,94.307 C-14.018,94.769 -14.165,95 -14.438,95 C-14.732,95 -14.879,94.811 -14.879,94.433 L-14.879,92.648 C-14.879,92.27 -14.732,92.081 -14.438,92.081 C-14.144,92.081 -13.997,92.228 -13.997,92.543 C-13.997,93.908 -12.296,94.475 -10.7,94.475 C-9.167,94.475 -7.382,93.887 -7.382,92.522 C-7.382,91.472 -8.474,90.842 -10.658,90.611 C-12.338,90.422 -14.438,90.317 -14.438,88.217 C-14.438,86.6 -12.548,85.802 -10.763,85.802 C-9.566,85.802 -8.6,86.096 -7.844,86.684 C-7.844,86.306 -7.697,86.117 -7.424,86.117 C-7.13,86.117 -6.983,86.306 -6.983,86.705 L-6.983,88.175 C-6.983,88.574 -7.13,88.763 -7.424,88.763 C-7.676,88.763 -7.823,88.595 -7.844,88.28 C-7.949,87.125 -9.377,86.684 -10.721,86.684 C-11.981,86.684 -13.556,87.167 -13.556,88.259 C-13.556,89.078 -12.8,89.498 -10.973,89.729 C-8.537,89.981 -6.521,90.317 -6.521,92.522 L-6.521,92.522 Z M6.583,93.593 C6.583,93.698 6.52,93.824 6.415,93.929 C5.575,94.79 3.538,95.336 2.089,95.336 C-0.872,95.336 -3.077,93.32 -3.077,90.38 C-3.077,87.671 -0.977,85.802 1.732,85.802 C4.693,85.802 6.583,87.818 6.562,90.758 L-2.216,90.758 C-1.901,93.089 -0.242,94.475 2.089,94.475 C3.601,94.475 4.84,94.097 5.827,93.32 C5.974,93.215 6.079,93.173 6.163,93.173 C6.436,93.173 6.583,93.32 6.583,93.593 L6.583,93.593 Z M-2.216,89.897 L5.68,89.897 C5.344,87.902 3.769,86.684 1.732,86.684 C-0.284,86.684 -1.859,87.902 -2.216,89.897 L-2.216,89.897 Z M19.624,87.209 C19.624,87.503 19.477,87.65 19.162,87.65 C19.057,87.65 18.91,87.566 18.721,87.398 C18.322,86.978 17.944,86.768 17.587,86.768 C16.474,86.768 15.298,87.818 13.471,89.414 L13.471,94.139 L17.293,94.139 C17.671,94.139 17.86,94.286 17.86,94.559 C17.86,94.853 17.671,95 17.293,95 L10.531,95 C10.132,95 9.943,94.853 9.943,94.58 C9.943,94.307 10.132,94.16 10.531,94.16 L12.61,94.16 L12.61,86.999 L11.014,86.999 C10.636,86.999 10.447,86.852 10.447,86.558 C10.447,86.264 10.636,86.117 11.014,86.117 L13.471,86.117 L13.471,88.301 C15.046,86.852 16.264,85.907 17.524,85.907 C18.217,85.907 19.624,86.6 19.624,87.209 L19.624,87.209 Z M26.26,81.707 L27.52,81.707 L27.52,83.933 L26.26,83.933 L26.26,81.707 Z M31.531,94.559 C31.531,94.853 31.342,95 30.943,95 L23.32,95 C22.921,95 22.732,94.853 22.732,94.559 C22.732,94.286 22.921,94.139 23.32,94.139 L26.701,94.139 L26.701,86.999 L24.181,86.999 C23.782,86.999 23.593,86.852 23.593,86.558 C23.593,86.264 23.782,86.117 24.181,86.117 L27.562,86.117 L27.562,94.139 L30.943,94.139 C31.342,94.139 31.531,94.286 31.531,94.559 L31.531,94.559 Z M44.824,82.841 C44.824,83.114 44.677,83.261 44.362,83.261 C44.32,83.261 44.236,83.261 44.089,83.24 C43.06,83.093 42.199,83.009 41.485,83.009 C40.225,83.009 39.133,83.639 39.133,84.815 L39.133,86.117 L43.165,86.117 C43.543,86.117 43.732,86.264 43.732,86.558 C43.732,86.852 43.543,86.999 43.165,86.999 L39.133,86.999 L39.133,94.139 L42.913,94.139 C43.291,94.139 43.48,94.286 43.48,94.559 C43.48,94.853 43.291,95 42.913,95 L36.172,95 C35.794,95 35.605,94.853 35.605,94.559 C35.605,94.286 35.794,94.139 36.172,94.139 L38.251,94.139 L38.251,86.999 L36.403,86.999 C36.004,86.999 35.815,86.852 35.815,86.558 C35.815,86.264 36.004,86.117 36.403,86.117 L38.251,86.117 L38.251,84.815 C38.251,83.156 39.742,82.127 41.485,82.127 C42.304,82.127 43.186,82.211 44.089,82.358 C44.572,82.442 44.824,82.61 44.824,82.841 L44.824,82.841 Z" id="ascender" fill="#646466" transform="translate(15.560500, 88.521500) rotate(-90.000000) translate(-15.560500, -88.521500) "></path>
                    </g>
                    <path d="M226.864258,102.306641 C228.721038,103.564459 230.26334,105.211578 231.491211,107.248047 C232.719082,109.284515 233.333008,111.755194 233.333008,114.660156 C233.333008,117.625015 232.689134,120.20051 231.401367,122.386719 C230.1136,124.572928 228.436534,126.369785 226.370117,127.777344 C224.363597,129.154955 222.095065,130.203121 219.564453,130.921875 C217.033842,131.640629 214.420912,132 211.725586,132 L181.538086,132 L181.538086,128.810547 C182.25684,128.750651 183.305006,128.623373 184.682617,128.428711 C186.060228,128.234049 187.0485,128.001954 187.647461,127.732422 C188.575851,127.313149 189.234699,126.751631 189.624023,126.047852 C190.013348,125.344072 190.208008,124.438157 190.208008,123.330078 L190.208008,77.5097656 C190.208008,76.4915314 190.035809,75.5931029 189.691406,74.8144531 C189.347003,74.0358034 188.665695,73.4069034 187.647461,72.9277344 C186.749019,72.4785134 185.745774,72.1341158 184.637695,71.8945312 C183.529617,71.6549467 182.601241,71.5052086 181.852539,71.4453125 L181.852539,68.2558594 L211.276367,68.2558594 C213.55242,68.2558594 215.731109,68.4804665 217.8125,68.9296875 C219.893891,69.3789085 221.87792,70.1725204 223.764648,71.3105469 C225.531584,72.3587292 226.984044,73.781241 228.12207,75.578125 C229.260097,77.375009 229.829102,79.561185 229.829102,82.1367188 C229.829102,84.3828237 229.424809,86.3818272 228.616211,88.1337891 C227.807613,89.8857509 226.669604,91.3906187 225.202148,92.6484375 C223.824537,93.8463602 222.244801,94.8570922 220.462891,95.6806641 C218.680981,96.5042359 216.756846,97.1406228 214.69043,97.5898438 L214.69043,97.9941406 C216.517262,98.2037771 218.561187,98.6604783 220.822266,99.3642578 C223.083345,100.068037 225.097322,101.048822 226.864258,102.306641 L226.864258,102.306641 Z M216.038086,92.6933594 C217.146164,91.4055925 217.917316,89.9980545 218.351562,88.4707031 C218.785809,86.9433517 219.00293,85.1315209 219.00293,83.0351562 C219.00293,79.5312325 218.044606,76.7835386 216.12793,74.7919922 C214.211253,72.8004458 211.186544,71.8046875 207.053711,71.8046875 C206.095373,71.8046875 204.889981,71.8271482 203.4375,71.8720703 C201.985019,71.9169924 200.764653,71.9544269 199.776367,71.984375 L199.776367,96.4667969 L205.481445,96.4667969 C207.937187,96.4667969 210.041007,96.1523469 211.792969,95.5234375 C213.544931,94.8945281 214.959956,93.9511782 216.038086,92.6933594 L216.038086,92.6933594 Z M222.237305,113.042969 C222.237305,109.269512 220.972018,106.169934 218.441406,103.744141 C215.910795,101.318347 212.29462,100.105469 207.592773,100.105469 C205.676097,100.105469 204.058926,100.127929 202.741211,100.172852 C201.423496,100.217774 200.435225,100.255208 199.776367,100.285156 L199.776367,122.746094 C199.776367,124.632822 200.540031,126.055334 202.067383,127.013672 C203.594734,127.97201 205.721015,128.451172 208.446289,128.451172 C212.908551,128.451172 216.322579,127.148451 218.688477,124.542969 C221.054374,121.937487 222.237305,118.104192 222.237305,113.042969 L222.237305,113.042969 Z M262.172852,132 L240.745117,132 L240.745117,129.035156 C241.433923,128.97526 242.145179,128.915365 242.878906,128.855469 C243.612634,128.795573 244.249021,128.675782 244.788086,128.496094 C245.626632,128.226561 246.248045,127.754886 246.652344,127.081055 C247.056643,126.407223 247.258789,125.531255 247.258789,124.453125 L247.258789,97.0957031 C247.258789,96.137365 247.041669,95.2613972 246.607422,94.4677734 C246.173175,93.6741497 245.566736,93.0078152 244.788086,92.46875 C244.219073,92.1093732 243.395513,91.8024101 242.317383,91.5478516 C241.239252,91.293293 240.250981,91.136068 239.352539,91.0761719 L239.352539,88.15625 L254.985352,87.1679688 L255.614258,87.796875 L255.614258,123.914062 C255.614258,124.962245 255.816404,125.830726 256.220703,126.519531 C256.625002,127.208337 257.261389,127.717446 258.129883,128.046875 C258.78874,128.316408 259.432614,128.533528 260.061523,128.698242 C260.690433,128.862957 261.394202,128.97526 262.172852,129.035156 L262.172852,132 Z M256.512695,69.6933594 C256.512695,71.4003992 255.951177,72.8902931 254.828125,74.1630859 C253.705073,75.4358788 252.319995,76.0722656 250.672852,76.0722656 C249.1455,76.0722656 247.820318,75.4658264 246.697266,74.2529297 C245.574213,73.040033 245.012695,71.6549557 245.012695,70.0976562 C245.012695,68.4505126 245.574213,67.013027 246.697266,65.7851562 C247.820318,64.5572855 249.1455,63.9433594 250.672852,63.9433594 C252.379891,63.9433594 253.779942,64.519851 254.873047,65.6728516 C255.966151,66.8258521 256.512695,68.166008 256.512695,69.6933594 L256.512695,69.6933594 Z M316.52832,132 L294.831055,132 L294.831055,129.035156 C295.51986,128.97526 296.276038,128.915365 297.099609,128.855469 C297.923181,128.795573 298.604489,128.675782 299.143555,128.496094 C299.982101,128.226561 300.603514,127.754886 301.007812,127.081055 C301.412111,126.407223 301.614258,125.531255 301.614258,124.453125 L301.614258,101.677734 C301.614258,98.5331874 300.873054,96.1074304 299.390625,94.4003906 C297.908196,92.6933508 296.103852,91.8398438 293.977539,91.8398438 C292.390292,91.8398438 290.937832,92.0869116 289.620117,92.5810547 C288.302402,93.0751978 287.134445,93.681637 286.116211,94.4003906 C285.127925,95.0891962 284.3418,95.8303997 283.757812,96.6240234 C283.173825,97.4176472 282.747072,98.0540341 282.477539,98.5332031 L282.477539,124.003906 C282.477539,125.022141 282.687172,125.860674 283.106445,126.519531 C283.525718,127.178389 284.154618,127.687498 284.993164,128.046875 C285.622073,128.346356 286.303382,128.570963 287.037109,128.720703 C287.770837,128.870443 288.527014,128.97526 289.305664,129.035156 L289.305664,132 L267.608398,132 L267.608398,129.035156 C268.297204,128.97526 269.00846,128.915365 269.742188,128.855469 C270.475915,128.795573 271.112302,128.675782 271.651367,128.496094 C272.489913,128.226561 273.111326,127.754886 273.515625,127.081055 C273.919924,126.407223 274.12207,125.531255 274.12207,124.453125 L274.12207,97.0957031 C274.12207,96.0774689 273.90495,95.1416058 273.470703,94.2880859 C273.036456,93.434566 272.430017,92.7382839 271.651367,92.1992188 C271.082354,91.839842 270.408533,91.5778003 269.629883,91.4130859 C268.851233,91.2483716 268.0127,91.136068 267.114258,91.0761719 L267.114258,88.15625 L281.848633,87.1679688 L282.477539,87.796875 L282.477539,94.0410156 L282.702148,94.0410156 C283.420902,93.322262 284.319331,92.461268 285.397461,91.4580078 C286.475591,90.4547476 287.49381,89.638675 288.452148,89.0097656 C289.560227,88.291012 290.877922,87.6920597 292.405273,87.2128906 C293.932625,86.7337216 295.654613,86.4941406 297.571289,86.4941406 C301.823914,86.4941406 304.975901,87.8193227 307.027344,90.4697266 C309.078786,93.1201304 310.104492,96.6464624 310.104492,101.048828 L310.104492,124.09375 C310.104492,125.141932 310.284178,125.987953 310.643555,126.631836 C311.002931,127.275719 311.616858,127.777342 312.485352,128.136719 C313.204105,128.436199 313.825518,128.645833 314.349609,128.765625 C314.873701,128.885417 315.59993,128.97526 316.52832,129.035156 L316.52832,132 Z" id="Bin" fill="#BABABD"></path>
                    <path d="M190.208008,132 L181.538086,132 L181.538086,128.810547 C182.25684,128.750651 183.305006,128.623373 184.682617,128.428711 C186.060228,128.234049 187.0485,128.001954 187.647461,127.732422 C188.575851,127.313149 189.234699,126.751631 189.624023,126.047852 C190.013348,125.344072 190.208008,124.438157 190.208008,123.330078 L190.208008,132 L190.208008,132 L190.208008,132 L190.208008,132 L190.208008,132 L190.208008,132 L190.208008,132 L190.208008,132 L190.208008,132 L190.208008,132 L190.208008,132 L190.208008,132 L190.208008,132 L190.208008,132 L190.208008,132 L190.208008,132 L190.208008,132 Z M190.208008,77.5097656 C190.208008,76.4915314 190.035809,75.5931029 189.691406,74.8144531 C189.347003,74.0358034 188.665695,73.4069034 187.647461,72.9277344 C186.749019,72.4785134 185.745774,72.1341158 184.637695,71.8945312 C183.529617,71.6549467 182.601241,71.5052086 181.852539,71.4453125 L181.852539,68.2558594 L190.208008,68.2558594 L190.208008,77.5097656 L190.208008,77.5097656 L190.208008,77.5097656 L190.208008,77.5097656 L190.208008,77.5097656 L190.208008,77.5097656 L190.208008,77.5097656 L190.208008,77.5097656 L190.208008,77.5097656 L190.208008,77.5097656 L190.208008,77.5097656 L190.208008,77.5097656 L190.208008,77.5097656 L190.208008,77.5097656 L190.208008,77.5097656 L190.208008,77.5097656 L190.208008,77.5097656 Z M240.745117,132 L240.745117,129.035156 C241.433923,128.97526 242.145179,128.915365 242.878906,128.855469 C243.612634,128.795573 244.249021,128.675782 244.788086,128.496094 C245.626632,128.226561 246.248045,127.754886 246.652344,127.081055 L246.652344,132 L240.745117,132 L240.745117,132 L240.745117,132 L240.745117,132 L240.745117,132 L240.745117,132 L240.745117,132 L240.745117,132 L240.745117,132 L240.745117,132 Z M247.258789,97.0957031 C247.258789,96.137365 247.041669,95.2613972 246.607422,94.4677734 C246.173175,93.6741497 245.566736,93.0078152 244.788086,92.46875 C244.219073,92.1093732 243.395513,91.8024101 242.317383,91.5478516 C241.239252,91.293293 240.250981,91.136068 239.352539,91.0761719 L239.352539,88.15625 L247.258789,87.6621094 L247.258789,97.0957031 L247.258789,97.0957031 L247.258789,97.0957031 L247.258789,97.0957031 L247.258789,97.0957031 L247.258789,97.0957031 L247.258789,97.0957031 L247.258789,97.0957031 L247.258789,97.0957031 L247.258789,97.0957031 Z M256.220703,126.519531 C256.625002,127.208337 257.261389,127.717446 258.129883,128.046875 C258.78874,128.316408 259.432614,128.533528 260.061523,128.698242 C260.690433,128.862957 261.394202,128.97526 262.172852,129.035156 L262.172852,132 L256.220703,132 M301.007812,132 L294.831055,132 L294.831055,129.035156 C295.51986,128.97526 296.276038,128.915365 297.099609,128.855469 C297.923181,128.795573 298.604489,128.675782 299.143555,128.496094 C299.982101,128.226561 300.603514,127.754886 301.007812,127.081055 L301.007812,132 Z M283.106445,126.519531 C283.525718,127.178389 284.154618,127.687498 284.993164,128.046875 C285.622073,128.346356 286.303382,128.570963 287.037109,128.720703 C287.770837,128.870443 288.527014,128.97526 289.305664,129.035156 L289.305664,132 L283.106445,132 L283.106445,126.519531 Z M273.515625,132 L267.608398,132 L267.608398,129.035156 C268.297204,128.97526 269.00846,128.915365 269.742188,128.855469 C270.475915,128.795573 271.112302,128.675782 271.651367,128.496094 C272.489913,128.226561 273.111326,127.754886 273.515625,127.081055 L273.515625,132 Z M274.12207,97.0957031 C274.12207,96.0774689 273.90495,95.1416058 273.470703,94.2880859 C273.036456,93.434566 272.430017,92.7382839 271.651367,92.1992188 C271.082354,91.839842 270.408533,91.5778003 269.629883,91.4130859 C268.851233,91.2483716 268.0127,91.136068 267.114258,91.0761719 L267.114258,88.15625 C267.114258,88.15625 272.025716,87.8268229 274.12207,87.6621094 L274.12207,97.0957031 Z M310.643555,126.631836 C311.002931,127.275719 311.616858,127.777342 312.485352,128.136719 C313.204105,128.436199 313.825518,128.645833 314.349609,128.765625 C314.873701,128.885417 315.59993,128.97526 316.52832,129.035156 L316.52832,132 L310.643555,132 L310.643555,126.631836 Z" id="Bin" fill="#666666"></path>
                    <path d="M0,181 L465,181" id="Path-1" stroke="#BABABD"></path>
                    <path d="M199.746,279.936 L199.746,249.116 C199.746,232.832 195.882,227.956 187.142,227.956 C179.046,227.956 172.33,233.936 172.33,241.664 L172.33,242.032 C172.33,249.392 174.354,253.072 178.31,253.072 C180.978,253.072 182.266,251.968 182.266,249.76 C182.266,247.276 180.978,246.172 177.666,246.172 C177.206,245.068 177.022,243.78 177.022,242.308 C177.022,236.144 180.886,232.74 187.142,232.464 C192.846,232.924 194.962,236.604 194.962,249.116 L194.962,269.724 C192.57,268.528 189.994,267.976 187.142,267.976 C180.058,267.976 174.538,272.852 174.538,280.488 C174.538,288.032 179.506,293 187.142,293 C194.41,293 199.746,287.296 199.746,279.936 L199.746,279.936 Z M194.962,274.232 L194.962,277.912 C194.962,284.904 192.294,288.4 187.05,288.308 C181.806,288.308 179.23,285.732 179.23,280.488 C179.23,275.244 181.806,272.484 187.05,272.392 C190.086,272.484 192.754,273.128 194.962,274.232 L194.962,274.232 Z M234.246,281.316 C234.154,278.096 233.234,275.336 231.118,273.22 C227.438,269.816 222.194,266.32 222.194,260.892 C220.538,260.892 218.79,264.02 218.79,265.952 C218.79,267.424 220.63,269.908 224.218,273.312 C227.806,276.716 229.554,279.384 229.554,281.5 C229.554,286.1 226.886,288.4 221.458,288.4 C217.594,288.4 213.822,285.916 213.822,282.972 L214.926,279.2 C214.926,277.912 214.282,277.268 212.994,277.268 C210.418,277.268 209.13,279.108 209.13,282.696 C209.13,288.308 215.11,293 221.642,293 C228.634,293 234.246,288.216 234.246,281.316 L234.246,281.316 Z M289.078,280.58 L289.078,280.488 C289.078,273.864 283.098,267.976 276.75,267.976 C272.058,267.976 268.47,269.448 265.802,272.392 C263.594,269.448 260.374,267.976 256.142,267.976 C249.15,267.976 243.63,273.036 243.63,280.12 C243.63,287.48 248.782,293 256.142,293 C264.514,293 268.746,287.848 268.746,277.636 C268.746,277.36 268.93,276.9 269.39,276.256 C271.138,273.772 273.622,272.576 276.75,272.576 C280.706,272.576 284.478,276.256 284.478,280.58 C284.478,283.616 283.098,288.492 280.614,288.492 C279.97,288.492 279.326,288.124 278.682,288.124 C276.934,288.124 276.106,288.86 276.106,290.332 C276.106,292.08 277.394,293 279.878,293 C285.766,293 289.078,287.296 289.078,280.58 L289.078,280.58 Z M264.054,279.66 C264.054,284.444 260.926,288.4 256.142,288.4 C251.266,288.4 248.322,285.272 248.322,280.396 C248.322,275.888 251.818,272.576 256.142,272.576 C260.006,272.576 264.054,275.152 264.054,279.66 L264.054,279.66 Z M323.67,280.488 C323.67,273.128 318.426,267.976 311.066,267.976 C303.522,267.976 298.554,273.312 298.554,281.132 C298.554,286.1 301.682,293 305.454,293 C307.57,293 308.582,292.356 308.582,290.976 L308.582,290.884 C308.582,289.228 308.582,289.136 305.914,287.664 C304.166,286.744 303.246,284.72 303.246,281.5 C303.246,275.52 305.822,272.576 311.066,272.576 C316.494,272.576 318.978,275.704 318.978,280.488 C318.978,284.26 318.242,286.468 315.114,288.86 C314.654,289.136 314.47,289.872 314.47,290.976 C314.47,292.356 315.39,293 317.138,293 C321.186,293 323.67,286.468 323.67,280.488 L323.67,280.488 Z" id="მათი" fill="#BABABD"></path>
                    <path d="M178.31,253.072 C180.977627,253.12452 182.266,251.968 182.266,249.76 C182.266,247.276 180.978,246.172 177.666,246.172 C177.816806,248.438104 177.869208,249.17338 178.31,253.072 L178.31,253.072 L178.31,253.072 L178.31,253.072 L178.31,253.072 L178.31,253.072 L178.31,253.072 L178.31,253.072 L178.31,253.072 L178.31,253.072 L178.31,253.072 L178.31,253.072 L178.31,253.072 Z M214.926,279.2 C214.926,277.912 214.280593,277.152707 212.994,277.268 C212.693237,277.783875 212.833109,279.62583 212.994,280.734192 C213.154891,281.842554 213.822,282.972 213.822,282.972 L214.926,279.2 Z M280.614,288.492 C279.986602,288.395219 279.326,288.124 278.682,288.124 C276.934,288.124 276.106,288.86 276.106,290.332 C276.106,292.08 277.398901,293.120266 279.878,293 C280.332323,291.373402 280.332323,290.745136 280.614,288.492 L280.614,288.492 L280.614,288.492 L280.614,288.492 L280.614,288.492 L280.614,288.492 L280.614,288.492 L280.614,288.492 L280.614,288.492 L280.614,288.492 L280.614,288.492 L280.614,288.492 L280.614,288.492 Z M305.454,293 C307.57,293 308.582,292.356 308.582,290.976 L308.582,290.884 C308.582,289.228 308.582,289.136 305.914,287.664 L305.454,293 Z M315.943348,288.180693 C315.687604,288.406467 315.41163,288.6324 315.114,288.86 C314.654,289.136 314.47,289.872 314.47,290.976 C314.47,292.356 315.39,293 317.138,293 C317.676478,293 318.18728,292.884415 318.668242,292.669921 L315.943348,288.180693 Z" id="მათი" fill="#666666"></path>
                </g>
            </g>
        </g>
    </g>
</svg>