<?xml version="1.0" encoding="UTF-8" standalone="no"?>
<svg width="465px" height="360px" viewBox="0 0 465 360" version="1.1" xmlns="http://www.w3.org/2000/svg" xmlns:xlink="http://www.w3.org/1999/xlink" xmlns:sketch="http://www.bohemiancoding.com/sketch/ns">
    <!-- Generator: Sketch Beta 3.4.4 (17258) - http://www.bohemiancoding.com/sketch -->
    <title>Shoulder</title>
    <desc>Created with Sketch Beta.</desc>
    <defs></defs>
    <g id="Outline" stroke="none" stroke-width="1" fill="none" fill-rule="evenodd" sketch:type="MSPage">
        <g id="Shoulder" sketch:type="MSArtboardGroup">
            <g id="Tag" sketch:type="MSLayerGroup">
                <rect id="Rectangle-1" fill="#BABABD" sketch:type="MSShapeGroup" x="0" y="0" width="30" height="360"></rect>
                <text id="აღმავალი" sketch:type="MSTextLayer" transform="translate(13.500000, 270.500000) rotate(-90.000000) translate(-13.500000, -270.500000) " font-family="BG Courier" font-size="21" font-weight="normal" sketch:alignment="middle" fill="#646466">
                    <tspan x="-18.672" y="275">მხარი</tspan>
                </text>
                <text id="ascender" sketch:type="MSTextLayer" transform="translate(14.500000, 90.500000) rotate(-90.000000) translate(-14.500000, -90.500000) " font-family="BG Courier" font-size="21" font-weight="normal" sketch:alignment="middle" fill="#646466">
                    <tspan x="-17" y="95">serif</tspan>
                </text>
            </g>
            <path d="M174.63,70.312 L174.63,136 L182.45,136 L182.45,109.136 C182.45,106.989323 182.74133,105.011342 183.324,103.202 C183.90667,101.392658 184.780661,99.8133401 185.946,98.464 C187.111339,97.1146599 188.567991,96.0720037 190.316,95.336 C192.064009,94.5999963 194.133988,94.232 196.526,94.232 C199.531348,94.232 201.892658,95.0906581 203.61,96.808 C205.327342,98.5253419 206.186,100.855985 206.186,103.8 L206.186,136 L214.006,136 L214.006,104.72 C214.006,102.143987 213.745336,99.7980106 213.224,97.682 C212.702664,95.5659894 211.798006,93.741341 210.51,92.208 C209.221994,90.674659 207.535344,89.478671 205.45,88.62 C203.364656,87.761329 200.758016,87.332 197.63,87.332 C196.219326,87.332 194.762674,87.4853318 193.26,87.792 C191.757326,88.0986682 190.316007,88.5739968 188.936,89.218 C187.555993,89.8620032 186.314006,90.6899949 185.21,91.702 C184.105994,92.7140051 183.247336,93.9559926 182.634,95.428 L182.45,95.428 L182.45,70.312 L174.63,70.312 Z M231.486,112.264 C231.486,109.381319 231.86933,106.820678 232.636,104.582 C233.40267,102.343322 234.46066,100.457341 235.81,98.924 C237.15934,97.390659 238.738658,96.2253373 240.548,95.428 C242.357342,94.6306627 244.27399,94.232 246.298,94.232 C248.32201,94.232 250.238658,94.6306627 252.048,95.428 C253.857342,96.2253373 255.43666,97.390659 256.786,98.924 C258.13534,100.457341 259.19333,102.343322 259.96,104.582 C260.726671,106.820678 261.11,109.381319 261.11,112.264 C261.11,115.146681 260.726671,117.707322 259.96,119.946 C259.19333,122.184678 258.13534,124.055326 256.786,125.558 C255.43666,127.060674 253.857342,128.210663 252.048,129.008 C250.238658,129.805337 248.32201,130.204 246.298,130.204 C244.27399,130.204 242.357342,129.805337 240.548,129.008 C238.738658,128.210663 237.15934,127.060674 235.81,125.558 C234.46066,124.055326 233.40267,122.184678 232.636,119.946 C231.86933,117.707322 231.486,115.146681 231.486,112.264 L231.486,112.264 Z M223.206,112.264 C223.206,115.760017 223.696662,119.010652 224.678,122.016 C225.659338,125.021348 227.131324,127.643322 229.094,129.882 C231.056676,132.120678 233.479319,133.86866 236.362,135.126 C239.244681,136.38334 242.556648,137.012 246.298,137.012 C250.100686,137.012 253.427986,136.38334 256.28,135.126 C259.132014,133.86866 261.539324,132.120678 263.502,129.882 C265.464676,127.643322 266.936662,125.021348 267.918,122.016 C268.899338,119.010652 269.39,115.760017 269.39,112.264 C269.39,108.767983 268.899338,105.502015 267.918,102.466 C266.936662,99.4299848 265.464676,96.7926779 263.502,94.554 C261.539324,92.3153221 259.132014,90.5520064 256.28,89.264 C253.427986,87.9759936 250.100686,87.332 246.298,87.332 C242.556648,87.332 239.244681,87.9759936 236.362,89.264 C233.479319,90.5520064 231.056676,92.3153221 229.094,94.554 C227.131324,96.7926779 225.659338,99.4299848 224.678,102.466 C223.696662,105.502015 223.206,108.767983 223.206,112.264 L223.206,112.264 Z M278.866,88.436 L278.866,154.124 L286.686,154.124 L286.686,129.652 L286.87,129.652 C287.728671,131.062674 288.78666,132.243329 290.044,133.194 C291.30134,134.144671 292.635326,134.895997 294.046,135.448 C295.456674,136.000003 296.882659,136.398665 298.324,136.644 C299.765341,136.889335 301.068661,137.012 302.234,137.012 C305.852685,137.012 309.026653,136.368006 311.756,135.08 C314.485347,133.791994 316.754658,132.028678 318.564,129.79 C320.373342,127.551322 321.722662,124.929348 322.612,121.924 C323.501338,118.918652 323.946,115.72935 323.946,112.356 C323.946,108.98265 323.486005,105.793348 322.566,102.788 C321.645995,99.7826516 320.281342,97.1300115 318.472,94.83 C316.662658,92.5299885 314.393347,90.7053401 311.664,89.356 C308.934653,88.0066599 305.730018,87.332 302.05,87.332 C298.737983,87.332 295.702014,87.929994 292.942,89.126 C290.181986,90.322006 288.158006,92.2386535 286.87,94.876 L286.686,94.876 L286.686,88.436 L278.866,88.436 Z M315.666,111.804 C315.666,114.134678 315.420669,116.403989 314.93,118.612 C314.439331,120.820011 313.642006,122.782658 312.538,124.5 C311.433994,126.217342 309.977342,127.597328 308.168,128.64 C306.358658,129.682672 304.10468,130.204 301.406,130.204 C298.70732,130.204 296.407343,129.698005 294.506,128.686 C292.604657,127.673995 291.056006,126.340008 289.86,124.684 C288.663994,123.027992 287.790003,121.111344 287.238,118.934 C286.685997,116.756656 286.41,114.502678 286.41,112.172 C286.41,109.963989 286.670664,107.786677 287.192,105.64 C287.713336,103.493323 288.556661,101.576675 289.722,99.89 C290.887339,98.2033249 292.389991,96.8386719 294.23,95.796 C296.070009,94.7533281 298.308653,94.232 300.946,94.232 C303.460679,94.232 305.653324,94.7226618 307.524,95.704 C309.394676,96.6853382 310.927994,98.0039917 312.124,99.66 C313.320006,101.316008 314.20933,103.201989 314.792,105.318 C315.37467,107.434011 315.666,109.595989 315.666,111.804 L315.666,111.804 Z" id="hop" fill="#BABABD" sketch:type="MSShapeGroup"></path>
            <path d="M182.45,109.136 C182.45,106.989323 182.74133,105.011342 183.324,103.202 C183.90667,101.392658 184.780661,99.8133401 185.946,98.464 C187.111339,97.1146599 188.567991,96.0720037 190.316,95.336 C192.064009,94.5999963 194.133988,94.232 196.526,94.232 C199.531348,94.232 201.892658,95.0906581 203.61,96.808 C205.327342,98.5253419 206.186,100.855985 206.186,103.8 L214.006,103.8 C214.006,102.143987 213.745336,99.7980106 213.224,97.682 C212.702664,95.5659894 211.798006,93.741341 210.51,92.208 C209.221994,90.674659 207.535344,89.478671 205.45,88.62 C203.364656,87.761329 200.758016,87.332 197.63,87.332 C196.219326,87.332 194.762674,87.4853318 193.26,87.792 C191.757326,88.0986682 190.316007,88.5739968 188.936,89.218 C187.555993,89.8620032 186.314006,90.6899949 185.21,91.702 C184.105994,92.7140051 183.247336,93.9559926 182.634,95.428 L182.45,95.428 L182.45,109.136 Z" id="hop" fill="#666666" sketch:type="MSShapeGroup"></path>
            <path d="M189.902,264.172 C190.147335,265.644007 190.438665,267.192659 190.776,268.818 C191.113335,270.443341 191.435332,272.145324 191.742,273.924 C192.968673,272.022657 194.639989,270.458673 196.756,269.232 C198.872011,268.005327 201.585983,267.392 204.898,267.392 C206.983344,267.392 209.007324,267.713997 210.97,268.358 C212.932676,269.002003 214.665326,270.013993 216.168,271.394 C217.670674,272.774007 218.866662,274.537323 219.756,276.684 C220.645338,278.830677 221.09,281.406652 221.09,284.412 C221.09,286.620011 220.860002,288.935321 220.4,291.358 C219.939998,293.780679 219.32667,296.249321 218.56,298.764 C217.793329,301.278679 216.919338,303.777988 215.938,306.262 C214.956662,308.746012 213.975338,311.122655 212.994,313.392 C210.601988,318.666693 207.903348,323.941307 204.898,329.216 L197.906,329.216 C195.329987,320.261289 192.968677,311.613375 190.822,303.272 C189.901995,299.714649 188.982005,296.080685 188.062,292.37 C187.141995,288.659315 186.29867,285.040684 185.532,281.514 C184.765329,277.987316 184.106003,274.675349 183.554,271.578 C183.001997,268.480651 182.603335,265.766678 182.358,263.436 C182.051332,260.553319 182.143331,258.10001 182.634,256.076 C183.124669,254.05199 183.875995,252.396006 184.888,251.108 C185.900005,249.819994 187.111326,248.88467 188.522,248.302 C189.932674,247.71933 191.404659,247.428 192.938,247.428 C194.716676,247.428 196.219327,247.688664 197.446,248.21 C198.672673,248.731336 199.66933,249.405996 200.436,250.234 C201.202671,251.062004 201.769998,251.997328 202.138,253.04 C202.506002,254.082672 202.751333,255.125328 202.874,256.168 C202.935334,255.247995 203.134665,254.266672 203.472,253.224 C203.809335,252.181328 204.345996,251.230671 205.082,250.372 C205.818004,249.513329 206.783994,248.808003 207.98,248.256 C209.176006,247.703997 210.693991,247.428 212.534,247.428 C216.091351,247.428 218.728658,248.623988 220.446,251.016 C222.163342,253.408012 223.022,257.241307 223.022,262.516 L216.582,262.516 C216.582,259.81732 216.306003,257.686008 215.754,256.122 C215.201997,254.557992 213.91401,253.776 211.89,253.776 C210.111324,253.776 208.83867,254.45066 208.072,255.8 C207.305329,257.14934 206.922,259.387984 206.922,262.516 L199.102,262.516 C199.102,259.326651 198.642005,257.088006 197.722,255.8 C196.801995,254.511994 195.483342,253.868 193.766,253.868 C192.171325,253.806666 190.99067,254.695991 190.224,256.536 C189.45733,258.376009 189.349997,260.921317 189.902,264.172 L189.902,264.172 Z M195.054,289.104 C196.464674,295.237364 197.84466,301.048639 199.194,306.538 C200.54334,312.027361 201.708662,316.703981 202.69,320.568 C203.794006,318.114654 204.97466,315.339349 206.232,312.242 C207.48934,309.144651 208.669994,306.032016 209.774,302.904 C210.878006,299.775984 211.782663,296.755348 212.488,293.842 C213.193337,290.928652 213.546,288.398677 213.546,286.252 C213.546,282.510648 212.779341,279.536011 211.246,277.328 C209.712659,275.119989 207.382016,274.016 204.254,274.016 C202.413991,274.016 200.850006,274.383996 199.562,275.12 C198.273994,275.856004 197.262004,276.883327 196.526,278.202 C195.789996,279.520673 195.299335,281.115324 195.054,282.986 C194.808665,284.856676 194.808665,286.895989 195.054,289.104 L195.054,289.104 Z M247.954,268.036 C247.954,270.918681 248.24533,273.417989 248.828,275.534 C249.41067,277.650011 250.683324,279.474659 252.646,281.008 C254.424676,282.418674 255.957994,283.706661 257.246,284.872 C258.534006,286.037339 259.591996,287.24866 260.42,288.506 C261.248004,289.76334 261.861331,291.112659 262.26,292.554 C262.658669,293.995341 262.858,295.666657 262.858,297.568 C262.858,299.59201 262.490004,301.523991 261.754,303.364 C261.017996,305.204009 259.944674,306.813993 258.534,308.194 C257.123326,309.574007 255.421343,310.662663 253.428,311.46 C251.434657,312.257337 249.150013,312.656 246.574,312.656 C244.243322,312.656 242.096676,312.349336 240.134,311.736 C238.171324,311.122664 236.484674,310.218006 235.074,309.022 C233.663326,307.825994 232.559337,306.323342 231.762,304.514 C230.964663,302.704658 230.566,300.604012 230.566,298.212 C230.566,297.475996 230.581333,296.801336 230.612,296.188 C230.642667,295.574664 230.688666,295.022669 230.75,294.532 C230.811334,293.979997 230.872666,293.458669 230.934,292.968 L238.754,293.06 C238.692666,293.366668 238.631334,293.765331 238.57,294.256 C238.508666,294.685335 238.478,295.221997 238.478,295.866 L238.478,298.12 C238.478,299.040005 238.646665,299.959995 238.984,300.88 C239.321335,301.800005 239.842663,302.643329 240.548,303.41 C241.253337,304.176671 242.111995,304.789998 243.124,305.25 C244.136005,305.710002 245.31666,305.94 246.666,305.94 C249.36468,305.94 251.419326,305.158008 252.83,303.594 C254.240674,302.029992 254.946,300.174677 254.946,298.028 C254.946,296.310658 254.762002,294.838673 254.394,293.612 C254.025998,292.385327 253.489337,291.312005 252.784,290.392 C252.078663,289.471995 251.250671,288.62867 250.3,287.862 C249.349329,287.095329 248.322006,286.313337 247.218,285.516 C245.745993,284.411994 244.534671,283.308006 243.584,282.204 C242.633329,281.099994 241.882003,279.888673 241.33,278.57 C240.777997,277.251327 240.394668,275.733342 240.18,274.016 C239.965332,272.298658 239.858,270.305345 239.858,268.036 L247.954,268.036 Z M271.598,262.516 C271.598,256.873305 272.56399,252.948011 274.496,250.74 C276.42801,248.531989 279.08065,247.428 282.454,247.428 C284.171342,247.428 285.597328,247.749997 286.732,248.394 C287.866672,249.038003 288.77133,249.865995 289.446,250.878 C290.12067,251.890005 290.611332,253.02466 290.918,254.282 C291.224668,255.53934 291.439333,256.750661 291.562,257.916 L291.838,257.916 C291.960667,256.811994 292.190665,255.63134 292.528,254.374 C292.865335,253.11666 293.401996,251.982005 294.138,250.97 C294.874004,249.957995 295.839994,249.11467 297.036,248.44 C298.232006,247.76533 299.719324,247.428 301.498,247.428 C303.583344,247.428 305.361993,247.688664 306.834,248.21 C308.306007,248.731336 309.501995,249.559328 310.422,250.694 C311.342005,251.828672 312.016665,253.331324 312.446,255.202 C312.875335,257.072676 313.09,259.35732 313.09,262.056 L313.09,287.816 C313.09,291.250684 312.70667,294.470652 311.94,297.476 C311.173329,300.481348 309.962008,303.118655 308.306,305.388 C306.649992,307.657345 304.503347,309.451327 301.866,310.77 C299.228653,312.088673 296.039352,312.748 292.298,312.748 C288.679315,312.748 285.551347,312.150006 282.914,310.954 C280.276653,309.757994 278.084009,308.132677 276.336,306.078 C274.587991,304.023323 273.300004,301.631347 272.472,298.902 C271.643996,296.172653 271.23,293.274682 271.23,290.208 C271.23,285.791978 271.85866,282.112015 273.116,279.168 C274.37334,276.223985 275.998657,273.847342 277.992,272.038 C279.985343,270.228658 282.193321,268.940671 284.616,268.174 C287.038679,267.40733 289.445988,267.024 291.838,267.024 C295.150017,267.024 297.909989,267.545328 300.118,268.588 C302.326011,269.630672 304.10466,270.887993 305.454,272.36 L305.454,263.16 C305.454,259.602649 305.07067,257.180006 304.304,255.892 C303.537329,254.603994 302.418007,253.96 300.946,253.96 C299.044657,253.96 297.787336,254.741992 297.174,256.306 C296.560664,257.870008 296.254,259.939987 296.254,262.516 L287.238,262.516 C287.238,261.289327 287.192,260.154672 287.1,259.112 C287.008,258.069328 286.808668,257.180004 286.502,256.444 C286.195332,255.707996 285.75067,255.125335 285.168,254.696 C284.58533,254.266665 283.803338,254.052 282.822,254.052 C281.840662,254.052 281.074003,254.297331 280.522,254.788 C279.969997,255.278669 279.540668,255.90733 279.234,256.674 C278.927332,257.440671 278.728,258.329995 278.636,259.342 C278.544,260.354005 278.498,261.411994 278.498,262.516 L271.598,262.516 Z M292.666,306.124 C296.530019,306.124 299.627322,304.728681 301.958,301.938 C304.288678,299.147319 305.454,295.145359 305.454,289.932 L305.454,288.092 C305.147332,283.062642 303.874678,279.398011 301.636,277.098 C299.397322,274.797988 296.25402,273.648 292.206,273.648 C287.789978,273.648 284.493344,275.043319 282.316,277.834 C280.138656,280.624681 279.05,284.534642 279.05,289.564 C279.05,294.716026 280.138656,298.763985 282.316,301.708 C284.493344,304.652015 287.94331,306.124 292.666,306.124 L292.666,306.124 Z" id="წაშ" fill="#BABABD" sketch:type="MSShapeGroup"></path>
            <path d="M182.447876,264.172 C181.943686,262.049263 182.143331,258.10001 182.634,256.076 C183.124669,254.05199 183.875995,252.396006 184.888,251.108 C185.900005,249.819994 187.111326,248.88467 188.522,248.302 C189.932674,247.71933 192.046142,247.304993 193.766,247.451538 L193.766,253.868 C192.171325,253.806666 190.99067,254.695991 190.224,256.536 C189.457329,258.376009 189.349997,260.921317 189.902,264.172 L182.447876,264.172 Z" id="წაშ" fill="#666666" sketch:type="MSShapeGroup"></path>
            <path d="M0,181 L465,181" id="Path-1" stroke="#BABABD" sketch:type="MSShapeGroup"></path>
        </g>
    </g>
</svg>