<?xml version="1.0" encoding="UTF-8" standalone="no"?>
<svg width="465px" height="360px" viewBox="0 0 465 360" version="1.1" xmlns="http://www.w3.org/2000/svg" xmlns:xlink="http://www.w3.org/1999/xlink" xmlns:sketch="http://www.bohemiancoding.com/sketch/ns">
    <!-- Generator: Sketch Beta 3.4.4 (17258) - http://www.bohemiancoding.com/sketch -->
    <title>SmallCaps</title>
    <desc>Created with Sketch Beta.</desc>
    <defs></defs>
    <g id="Outline" stroke="none" stroke-width="1" fill="none" fill-rule="evenodd" sketch:type="MSPage">
        <g id="SmallCaps" sketch:type="MSArtboardGroup">
            <g id="Tag" sketch:type="MSLayerGroup">
                <rect id="Rectangle-1" fill="#BABABD" sketch:type="MSShapeGroup" x="0" y="0" width="30" height="360"></rect>
                <text id="აღმავალი" sketch:type="MSTextLayer" transform="translate(13.500000, 270.500000) rotate(-90.000000) translate(-13.500000, -270.500000) " font-family="BG Courier" font-size="21" font-weight="normal" sketch:alignment="middle" fill="#646466">
                    <tspan x="-69.072" y="275">პატ. მთავრული</tspan>
                </text>
                <text id="ascender" sketch:type="MSTextLayer" transform="translate(14.500000, 90.500000) rotate(-90.000000) translate(-14.500000, -90.500000) " font-family="BG Courier" font-size="21" font-weight="normal" sketch:alignment="middle" fill="#646466">
                    <tspan x="-48.5" y="95">small caps</tspan>
                </text>
            </g>
            <path d="M134.762,70.312 L134.762,136 L143.502,136 L143.502,105.916 L178.094,105.916 L178.094,136 L186.834,136 L186.834,70.312 L178.094,70.312 L178.094,98.556 L143.502,98.556 L143.502,70.312 L134.762,70.312 Z M232.926,107.664 L205.602,107.664 C205.724667,105.823991 206.12333,104.091341 206.798,102.466 C207.47267,100.840659 208.392661,99.4146728 209.558,98.188 C210.723339,96.9613272 212.118659,95.9953369 213.744,95.29 C215.369341,94.5846631 217.19399,94.232 219.218,94.232 C221.180676,94.232 222.974659,94.5846631 224.6,95.29 C226.225341,95.9953369 227.635994,96.945994 228.832,98.142 C230.028006,99.338006 230.978663,100.763992 231.684,102.42 C232.389337,104.076008 232.803333,105.823991 232.926,107.664 L232.926,107.664 Z M240.47,120.912 L232.742,120.912 C232.06733,124.040016 230.672011,126.370659 228.556,127.904 C226.439989,129.437341 223.726017,130.204 220.414,130.204 C217.837987,130.204 215.599343,129.774671 213.698,128.916 C211.796657,128.057329 210.232673,126.907341 209.006,125.466 C207.779327,124.024659 206.890003,122.368676 206.338,120.498 C205.785997,118.627324 205.540666,116.649344 205.602,114.564 L241.206,114.564 C241.328667,111.681319 241.068003,108.645349 240.424,105.456 C239.779997,102.266651 238.614675,99.3226802 236.928,96.624 C235.241325,93.9253198 233.002681,91.7020087 230.212,89.954 C227.421319,88.2059913 223.910021,87.332 219.678,87.332 C216.427317,87.332 213.437347,87.9453272 210.708,89.172 C207.978653,90.3986728 205.617343,92.115989 203.624,94.324 C201.630657,96.532011 200.082006,99.1386516 198.978,102.144 C197.873994,105.149348 197.322,108.461315 197.322,112.08 C197.444667,115.698685 197.981329,119.041318 198.932,122.108 C199.882671,125.174682 201.308657,127.811989 203.21,130.02 C205.111343,132.228011 207.457319,133.945327 210.248,135.172 C213.038681,136.398673 216.335314,137.012 220.138,137.012 C225.53536,137.012 230.012649,135.66268 233.57,132.964 C237.127351,130.26532 239.427328,126.248027 240.47,120.912 L240.47,120.912 Z" id="He" fill="#BABABD" sketch:type="MSShapeGroup"></path>
            <path d="M282.9005,88.519 L291.213,88.519 L291.213,107.405 L312.8255,107.405 L312.8255,88.519 L321.138,88.519 L321.138,136 L312.8255,136 L312.8255,114.587 L291.213,114.587 L291.213,136 L282.9005,136 L282.9005,88.519 Z M331.113,88.519 L365.294,88.519 L365.294,95.701 L339.4255,95.701 L339.4255,108.1365 L363.3655,108.1365 L363.3655,114.9195 L339.4255,114.9195 L339.4255,128.818 L365.7595,128.818 L365.7595,136 L331.113,136 L331.113,88.519 Z" id="HE" fill="#666666" sketch:type="MSShapeGroup"></path>
            <path d="M0,181 L465,181" id="Path-1" stroke="#BABABD" sketch:type="MSShapeGroup"></path>
            <path d="M242.48,300.788 L242.48,311 L252.692,311 L252.692,300.788 L242.48,300.788 Z M227.484,265.828 L235.304,265.828 C235.304,263.681323 235.549331,261.688009 236.04,259.848 C236.530669,258.007991 237.312661,256.41334 238.386,255.064 C239.459339,253.71466 240.793325,252.641337 242.388,251.844 C243.982675,251.046663 245.883989,250.648 248.092,250.648 C251.404017,250.648 254.02599,251.598657 255.958,253.5 C257.89001,255.401343 258.978665,258.03865 259.224,261.412 C259.346667,263.681345 259.07067,265.613325 258.396,267.208 C257.72133,268.802675 256.816672,270.259327 255.682,271.578 C254.547328,272.896673 253.320673,274.153994 252.002,275.35 C250.683327,276.546006 249.426006,277.849326 248.23,279.26 C247.033994,280.670674 246.022004,282.280658 245.194,284.09 C244.365996,285.899342 243.890667,288.091987 243.768,290.668 L243.768,294.992 L251.588,294.992 L251.588,291.404 C251.588,289.809325 251.817998,288.38334 252.278,287.126 C252.738002,285.86866 253.35133,284.703339 254.118,283.63 C254.88467,282.556661 255.743329,281.544671 256.694,280.594 C257.644671,279.643329 258.610662,278.708005 259.592,277.788 C260.573338,276.806662 261.539329,275.794672 262.49,274.752 C263.440671,273.709328 264.283996,272.574673 265.02,271.348 C265.756004,270.121327 266.353998,268.756674 266.814,267.254 C267.274002,265.751326 267.504,264.049343 267.504,262.148 C267.504,259.203985 267.028671,256.597345 266.078,254.328 C265.127329,252.058655 263.793342,250.142008 262.076,248.578 C260.358658,247.013992 258.319345,245.818004 255.958,244.99 C253.596655,244.161996 250.974681,243.748 248.092,243.748 C244.902651,243.748 242.020013,244.299994 239.444,245.404 C236.867987,246.508006 234.690676,248.056657 232.912,250.05 C231.133324,252.043343 229.768671,254.38932 228.818,257.088 C227.867329,259.78668 227.422666,262.699984 227.484,265.828 L227.484,265.828 Z" id="?" fill="#BABABD" sketch:type="MSShapeGroup"></path>
        </g>
    </g>
</svg>