<?xml version="1.0" encoding="UTF-8" standalone="no"?>
<svg width="465px" height="360px" viewBox="0 0 465 360" version="1.1" xmlns="http://www.w3.org/2000/svg" xmlns:xlink="http://www.w3.org/1999/xlink" xmlns:sketch="http://www.bohemiancoding.com/sketch/ns">
    <!-- Generator: Sketch Beta 3.4.4 (17258) - http://www.bohemiancoding.com/sketch -->
    <title>Spine</title>
    <desc>Created with Sketch Beta.</desc>
    <defs></defs>
    <g id="Outline" stroke="none" stroke-width="1" fill="none" fill-rule="evenodd" sketch:type="MSPage">
        <g id="Spine" sketch:type="MSArtboardGroup">
            <g id="Group" sketch:type="MSLayerGroup">
                <g id="Tag">
                    <rect id="Rectangle-1" fill="#BABABD" sketch:type="MSShapeGroup" x="0" y="0" width="30" height="360"></rect>
                    <text id="აღმავალი" sketch:type="MSTextLayer" transform="translate(13.500000, 270.500000) rotate(-90.000000) translate(-13.500000, -270.500000) " font-family="BG Courier" font-size="21" font-weight="normal" sketch:alignment="middle" fill="#646466">
                        <tspan x="-43.872" y="275">ხერხემალი</tspan>
                    </text>
                    <text id="ascender" sketch:type="MSTextLayer" transform="translate(14.500000, 90.500000) rotate(-90.000000) translate(-14.500000, -90.500000) " font-family="BG Courier" font-size="21" font-weight="normal" sketch:alignment="middle" fill="#646466">
                        <tspan x="-17" y="95">spine</tspan>
                    </text>
                </g>
                <path d="M0,181 L465,181" id="Path-1" stroke="#BABABD" sketch:type="MSShapeGroup"></path>
                <path d="M203.748,89.54 L212.028,89.54 C211.905333,85.9213152 211.21534,82.8086797 209.958,80.202 C208.70066,77.5953203 206.983344,75.4333419 204.806,73.716 C202.628656,71.9986581 200.098681,70.7413373 197.216,69.944 C194.333319,69.1466627 191.20535,68.748 187.832,68.748 C184.826652,68.748 181.898014,69.1313295 179.046,69.898 C176.193986,70.6646705 173.648678,71.8299922 171.41,73.394 C169.171322,74.9580078 167.37734,76.9513212 166.028,79.374 C164.67866,81.7966788 164.004,84.6639834 164.004,87.976 C164.004,90.9813484 164.601994,93.4806567 165.798,95.474 C166.994006,97.4673433 168.588657,99.0926604 170.582,100.35 C172.575343,101.60734 174.829321,102.61933 177.344,103.386 C179.858679,104.152671 182.41932,104.82733 185.026,105.41 C187.63268,105.99267 190.193321,106.559997 192.708,107.112 C195.222679,107.664003 197.476657,108.384662 199.47,109.274 C201.463343,110.163338 203.057994,111.313326 204.254,112.724 C205.450006,114.134674 206.048,115.974655 206.048,118.244 C206.048,120.636012 205.557338,122.598659 204.576,124.132 C203.594662,125.665341 202.306675,126.876662 200.712,127.766 C199.117325,128.655338 197.323343,129.283998 195.33,129.652 C193.336657,130.020002 191.358676,130.204 189.396,130.204 C186.942654,130.204 184.550678,129.897336 182.22,129.284 C179.889322,128.670664 177.850009,127.720006 176.102,126.432 C174.353991,125.143994 172.943339,123.503343 171.87,121.51 C170.796661,119.516657 170.26,117.140014 170.26,114.38 L161.98,114.38 C161.98,118.366687 162.700659,121.816652 164.142,124.73 C165.583341,127.643348 167.545988,130.035324 170.03,131.906 C172.514012,133.776676 175.39665,135.171995 178.678,136.092 C181.95935,137.012005 185.439982,137.472 189.12,137.472 C192.125348,137.472 195.145985,137.119337 198.182,136.414 C201.218015,135.708663 203.962654,134.574008 206.416,133.01 C208.869346,131.445992 210.877992,129.422012 212.442,126.938 C214.006008,124.453988 214.788,121.464017 214.788,117.968 C214.788,114.717317 214.190006,112.018677 212.994,109.872 C211.797994,107.725323 210.203343,105.946674 208.21,104.536 C206.216657,103.125326 203.962679,102.006004 201.448,101.178 C198.933321,100.349996 196.37268,99.6293364 193.766,99.016 C191.15932,98.4026636 188.598679,97.8353359 186.084,97.314 C183.569321,96.7926641 181.315343,96.1333373 179.322,95.336 C177.328657,94.5386627 175.734006,93.5113396 174.538,92.254 C173.341994,90.9966604 172.744,89.3560101 172.744,87.332 C172.744,85.1853226 173.157996,83.3913405 173.986,81.95 C174.814004,80.5086595 175.917993,79.358671 177.298,78.5 C178.678007,77.641329 180.257324,77.0280018 182.036,76.66 C183.814676,76.2919982 185.623991,76.108 187.464,76.108 C192.002689,76.108 195.728652,77.1659894 198.642,79.282 C201.555348,81.3980106 203.257331,84.8173097 203.748,89.54 L203.748,89.54 Z M266.216,135.816 C264.86666,136.613337 262.996012,137.012 260.604,137.012 C258.57999,137.012 256.970006,136.444672 255.774,135.31 C254.577994,134.175328 253.98,132.320013 253.98,129.744 C251.833323,132.320013 249.334014,134.175328 246.482,135.31 C243.629986,136.444672 240.548017,137.012 237.236,137.012 C235.089323,137.012 233.05001,136.766669 231.118,136.276 C229.18599,135.785331 227.514674,135.018672 226.104,133.976 C224.693326,132.933328 223.574004,131.568675 222.746,129.882 C221.917996,128.195325 221.504,126.156012 221.504,123.764 C221.504,121.06532 221.963995,118.857342 222.884,117.14 C223.804005,115.422658 225.015326,114.027339 226.518,112.954 C228.020674,111.880661 229.73799,111.068003 231.67,110.516 C233.60201,109.963997 235.57999,109.504002 237.604,109.136 C239.750677,108.706665 241.78999,108.384668 243.722,108.17 C245.65401,107.955332 247.355993,107.648669 248.828,107.25 C250.300007,106.851331 251.465329,106.268671 252.324,105.502 C253.182671,104.73533 253.612,103.616007 253.612,102.144 C253.612,100.426658 253.290003,99.0466719 252.646,98.004 C252.001997,96.9613281 251.174005,96.1640028 250.162,95.612 C249.149995,95.0599972 248.01534,94.6920009 246.758,94.508 C245.50066,94.3239991 244.258673,94.232 243.032,94.232 C239.719983,94.232 236.960011,94.8606604 234.752,96.118 C232.543989,97.3753396 231.348001,99.7519825 231.164,103.248 L223.344,103.248 C223.466667,100.303985 224.079994,97.8200101 225.184,95.796 C226.288006,93.7719899 227.759991,92.1313396 229.6,90.874 C231.440009,89.6166604 233.540655,88.7120028 235.902,88.16 C238.263345,87.6079972 240.79332,87.332 243.492,87.332 C245.638677,87.332 247.769989,87.4853318 249.886,87.792 C252.002011,88.0986682 253.918658,88.7273286 255.636,89.678 C257.353342,90.6286714 258.733328,91.9626581 259.776,93.68 C260.818672,95.3973419 261.34,97.6359862 261.34,100.396 L261.34,124.868 C261.34,126.708009 261.447332,128.057329 261.662,128.916 C261.876668,129.774671 262.597327,130.204 263.824,130.204 C264.49867,130.204 265.295995,130.050668 266.216,129.744 L266.216,135.816 Z M253.52,111.436 C252.538662,112.172004 251.250675,112.708665 249.656,113.046 C248.061325,113.383335 246.390009,113.659332 244.642,113.874 C242.893991,114.088668 241.130676,114.333999 239.352,114.61 C237.573324,114.886001 235.978674,115.330664 234.568,115.944 C233.157326,116.557336 232.007338,117.431328 231.118,118.566 C230.228662,119.700672 229.784,121.249324 229.784,123.212 C229.784,124.500006 230.044664,125.588662 230.566,126.478 C231.087336,127.367338 231.761996,128.087997 232.59,128.64 C233.418004,129.192003 234.383994,129.590665 235.488,129.836 C236.592006,130.081335 237.757327,130.204 238.984,130.204 C241.560013,130.204 243.767991,129.851337 245.608,129.146 C247.448009,128.440663 248.950661,127.551339 250.116,126.478 C251.281339,125.404661 252.139997,124.23934 252.692,122.982 C253.244003,121.72466 253.52,120.544006 253.52,119.44 L253.52,111.436 Z M273.944,70.312 L273.944,136 L281.764,136 L281.764,70.312 L273.944,70.312 Z M326.936,107.664 L299.612,107.664 C299.734667,105.823991 300.13333,104.091341 300.808,102.466 C301.48267,100.840659 302.402661,99.4146728 303.568,98.188 C304.733339,96.9613272 306.128659,95.9953369 307.754,95.29 C309.379341,94.5846631 311.20399,94.232 313.228,94.232 C315.190676,94.232 316.984659,94.5846631 318.61,95.29 C320.235341,95.9953369 321.645994,96.945994 322.842,98.142 C324.038006,99.338006 324.988663,100.763992 325.694,102.42 C326.399337,104.076008 326.813333,105.823991 326.936,107.664 L326.936,107.664 Z M334.48,120.912 L326.752,120.912 C326.07733,124.040016 324.682011,126.370659 322.566,127.904 C320.449989,129.437341 317.736017,130.204 314.424,130.204 C311.847987,130.204 309.609343,129.774671 307.708,128.916 C305.806657,128.057329 304.242673,126.907341 303.016,125.466 C301.789327,124.024659 300.900003,122.368676 300.348,120.498 C299.795997,118.627324 299.550666,116.649344 299.612,114.564 L335.216,114.564 C335.338667,111.681319 335.078003,108.645349 334.434,105.456 C333.789997,102.266651 332.624675,99.3226802 330.938,96.624 C329.251325,93.9253198 327.012681,91.7020087 324.222,89.954 C321.431319,88.2059913 317.920021,87.332 313.688,87.332 C310.437317,87.332 307.447347,87.9453272 304.718,89.172 C301.988653,90.3986728 299.627343,92.115989 297.634,94.324 C295.640657,96.532011 294.092006,99.1386516 292.988,102.144 C291.883994,105.149348 291.332,108.461315 291.332,112.08 C291.454667,115.698685 291.991329,119.041318 292.942,122.108 C293.892671,125.174682 295.318657,127.811989 297.22,130.02 C299.121343,132.228011 301.467319,133.945327 304.258,135.172 C307.048681,136.398673 310.345314,137.012 314.148,137.012 C319.54536,137.012 324.022649,135.66268 327.58,132.964 C331.137351,130.26532 333.437328,126.248027 334.48,120.912 L334.48,120.912 Z" id="Sale" fill="#BABABD" sketch:type="MSShapeGroup"></path>
                <path d="M164.004,87.976 C163.743711,90.9751539 164.601994,93.4806567 165.798,95.474 C166.994006,97.4673433 168.588657,99.0926604 170.582,100.35 C172.575343,101.60734 174.829321,102.61933 177.344,103.386 C179.858679,104.152671 182.41932,104.82733 185.026,105.41 C187.63268,105.99267 190.193321,106.559997 192.708,107.112 C195.222679,107.664003 197.476657,108.384662 199.47,109.274 C201.463343,110.163338 203.057994,111.313326 204.254,112.724 C205.450006,114.134674 206.048,115.974655 206.048,118.244 C206.048,120.636012 205.275624,122.507143 204.576,124.132 L213.748129,124.132 C214.621757,122.264132 214.788,118.818092 214.788,117.968 C214.788,114.717317 214.190006,112.018677 212.994,109.872 C211.797994,107.725323 210.203343,105.946674 208.21,104.536 C206.216657,103.125326 203.962679,102.006004 201.448,101.178 C198.933321,100.349996 196.37268,99.6293364 193.766,99.016 C191.15932,98.4026636 188.598679,97.8353359 186.084,97.314 C183.569321,96.7926641 181.315343,96.1333373 179.322,95.336 C177.328657,94.5386627 175.734006,93.5113396 174.538,92.254 C173.341994,90.9966604 172.778273,89.3557661 172.744,87.976 L164.004,87.976 Z" id="Sale" fill="#666666" sketch:type="MSShapeGroup"></path>
            </g>
            <path d="M242.48,300.788 L242.48,311 L252.692,311 L252.692,300.788 L242.48,300.788 Z M227.484,265.828 L235.304,265.828 C235.304,263.681323 235.549331,261.688009 236.04,259.848 C236.530669,258.007991 237.312661,256.41334 238.386,255.064 C239.459339,253.71466 240.793325,252.641337 242.388,251.844 C243.982675,251.046663 245.883989,250.648 248.092,250.648 C251.404017,250.648 254.02599,251.598657 255.958,253.5 C257.89001,255.401343 258.978665,258.03865 259.224,261.412 C259.346667,263.681345 259.07067,265.613325 258.396,267.208 C257.72133,268.802675 256.816672,270.259327 255.682,271.578 C254.547328,272.896673 253.320673,274.153994 252.002,275.35 C250.683327,276.546006 249.426006,277.849326 248.23,279.26 C247.033994,280.670674 246.022004,282.280658 245.194,284.09 C244.365996,285.899342 243.890667,288.091987 243.768,290.668 L243.768,294.992 L251.588,294.992 L251.588,291.404 C251.588,289.809325 251.817998,288.38334 252.278,287.126 C252.738002,285.86866 253.35133,284.703339 254.118,283.63 C254.88467,282.556661 255.743329,281.544671 256.694,280.594 C257.644671,279.643329 258.610662,278.708005 259.592,277.788 C260.573338,276.806662 261.539329,275.794672 262.49,274.752 C263.440671,273.709328 264.283996,272.574673 265.02,271.348 C265.756004,270.121327 266.353998,268.756674 266.814,267.254 C267.274002,265.751326 267.504,264.049343 267.504,262.148 C267.504,259.203985 267.028671,256.597345 266.078,254.328 C265.127329,252.058655 263.793342,250.142008 262.076,248.578 C260.358658,247.013992 258.319345,245.818004 255.958,244.99 C253.596655,244.161996 250.974681,243.748 248.092,243.748 C244.902651,243.748 242.020013,244.299994 239.444,245.404 C236.867987,246.508006 234.690676,248.056657 232.912,250.05 C231.133324,252.043343 229.768671,254.38932 228.818,257.088 C227.867329,259.78668 227.422666,262.699984 227.484,265.828 L227.484,265.828 Z" id="?" fill="#BABABD" sketch:type="MSShapeGroup"></path>
        </g>
    </g>
</svg>