<?xml version="1.0" encoding="UTF-8" standalone="no"?>
<svg width="465px" height="360px" viewBox="0 0 465 360" version="1.1" xmlns="http://www.w3.org/2000/svg" xmlns:xlink="http://www.w3.org/1999/xlink" xmlns:sketch="http://www.bohemiancoding.com/sketch/ns">
    <!-- Generator: Sketch Beta 3.4.4 (17258) - http://www.bohemiancoding.com/sketch -->
    <title>Terminal</title>
    <desc>Created with Sketch Beta.</desc>
    <defs></defs>
    <g id="Outline" stroke="none" stroke-width="1" fill="none" fill-rule="evenodd" sketch:type="MSPage">
        <g id="Terminal" sketch:type="MSArtboardGroup">
            <g id="Group" sketch:type="MSLayerGroup">
                <g id="Tag">
                    <rect id="Rectangle-1" fill="#BABABD" sketch:type="MSShapeGroup" x="0" y="0" width="30" height="360"></rect>
                    <text id="აღმავალი" sketch:type="MSTextLayer" transform="translate(13.500000, 270.500000) rotate(-90.000000) translate(-13.500000, -270.500000) " font-family="BG Courier" font-size="21" font-weight="normal" sketch:alignment="middle" fill="#646466">
                        <tspan x="-43.872" y="275">დასასრული</tspan>
                    </text>
                    <text id="ascender" sketch:type="MSTextLayer" transform="translate(14.500000, 90.500000) rotate(-90.000000) translate(-14.500000, -90.500000) " font-family="BG Courier" font-size="21" font-weight="normal" sketch:alignment="middle" fill="#646466">
                        <tspan x="-35.9" y="95">terminal</tspan>
                    </text>
                </g>
                <path d="M193.26,95.336 L193.26,136 L201.08,136 L201.08,95.336 L210.28,95.336 L210.28,88.436 L201.08,88.436 L201.08,81.812 C201.08,79.7266562 201.601328,78.3160037 202.644,77.58 C203.686672,76.8439963 205.158657,76.476 207.06,76.476 C207.73467,76.476 208.470663,76.5219995 209.268,76.614 C210.065337,76.7060005 210.80133,76.8746654 211.476,77.12 L211.476,70.312 C210.739996,70.0666654 209.896671,69.8826673 208.946,69.76 C207.995329,69.6373327 207.152004,69.576 206.416,69.576 C202.122645,69.576 198.856678,70.5726567 196.618,72.566 C194.379322,74.5593433 193.26,77.4879807 193.26,81.352 L193.26,88.436 L185.256,88.436 L185.256,95.336 L193.26,95.336 Z M222.976,112.264 C222.976,109.381319 223.359329,106.820678 224.126,104.582 C224.89267,102.343322 225.95066,100.457341 227.3,98.924 C228.64934,97.390659 230.228658,96.2253373 232.038,95.428 C233.847342,94.6306627 235.76399,94.232 237.788,94.232 C239.81201,94.232 241.728658,94.6306627 243.538,95.428 C245.347342,96.2253373 246.92666,97.390659 248.276,98.924 C249.62534,100.457341 250.683329,102.343322 251.45,104.582 C252.21667,106.820678 252.6,109.381319 252.6,112.264 C252.6,115.146681 252.21667,117.707322 251.45,119.946 C250.683329,122.184678 249.62534,124.055326 248.276,125.558 C246.92666,127.060674 245.347342,128.210663 243.538,129.008 C241.728658,129.805337 239.81201,130.204 237.788,130.204 C235.76399,130.204 233.847342,129.805337 232.038,129.008 C230.228658,128.210663 228.64934,127.060674 227.3,125.558 C225.95066,124.055326 224.89267,122.184678 224.126,119.946 C223.359329,117.707322 222.976,115.146681 222.976,112.264 L222.976,112.264 Z M214.696,112.264 C214.696,115.760017 215.186662,119.010652 216.168,122.016 C217.149338,125.021348 218.621324,127.643322 220.584,129.882 C222.546676,132.120678 224.969319,133.86866 227.852,135.126 C230.734681,136.38334 234.046648,137.012 237.788,137.012 C241.590686,137.012 244.917986,136.38334 247.77,135.126 C250.622014,133.86866 253.029324,132.120678 254.992,129.882 C256.954676,127.643322 258.426662,125.021348 259.408,122.016 C260.389338,119.010652 260.88,115.760017 260.88,112.264 C260.88,108.767983 260.389338,105.502015 259.408,102.466 C258.426662,99.4299848 256.954676,96.7926779 254.992,94.554 C253.029324,92.3153221 250.622014,90.5520064 247.77,89.264 C244.917986,87.9759936 241.590686,87.332 237.788,87.332 C234.046648,87.332 230.734681,87.9759936 227.852,89.264 C224.969319,90.5520064 222.546676,92.3153221 220.584,94.554 C218.621324,96.7926779 217.149338,99.4299848 216.168,102.466 C215.186662,105.502015 214.696,108.767983 214.696,112.264 L214.696,112.264 Z M282.868,110.976 L265.02,136 L274.496,136 L287.744,116.312 L300.992,136 L311.02,136 L292.62,110.332 L308.996,88.436 L299.612,88.436 L287.744,105.088 L276.336,88.436 L266.308,88.436 L282.868,110.976 Z" id="fox" fill="#BABABD" sketch:type="MSShapeGroup"></path>
                <path d="M202.644,77.58 C204.386606,76.6488459 205.158657,76.476 207.06,76.476 C207.73467,76.476 208.470663,76.5219995 209.268,76.614 C210.065337,76.7060005 210.80133,76.8746654 211.476,77.12 L211.476,70.312 C210.739996,70.0666654 209.896671,69.8826673 208.946,69.76 C207.995329,69.6373327 207.152004,69.576 206.416,69.576 C202.122645,69.576 198.628157,70.7513173 196.618,72.566 L202.644,77.58 Z" id="fox" fill="#666666" sketch:type="MSShapeGroup"></path>
                <g id="ენა-+-ენა" transform="translate(184.000000, 247.000000)" sketch:type="MSShapeGroup">
                    <path d="M21.496,17.264 C24.3786811,17.264 26.8779894,17.7086622 28.994,18.598 C31.1100106,19.4873378 32.8426599,20.7446585 34.192,22.37 C35.5413401,23.9953415 36.5379968,25.9273221 37.182,28.166 C37.8260032,30.4046779 38.148,32.8733198 38.148,35.572 L38.148,62.988 C38.148,66.1160156 37.6420051,68.9373208 36.63,71.452 C35.6179949,73.9666792 34.2380087,76.0979913 32.49,77.846 C30.7419913,79.5940087 28.7026783,80.9279954 26.372,81.848 C24.0413217,82.7680046 21.5880129,83.228 19.012,83.228 C12.8173024,83.228 8.15601564,81.7100152 5.028,78.674 C1.89998436,75.6379848 0.336,70.5627022 0.336,63.448 L8.248,63.448 C8.248,67.9253557 9.21399034,71.2526558 11.146,73.43 C13.0780097,75.6073442 15.6693171,76.696 18.92,76.696 C20.9440101,76.696 22.6766595,76.35867 24.118,75.684 C25.5593405,75.00933 26.7246622,74.074006 27.614,72.878 C28.5033378,71.681994 29.1626645,70.2866746 29.592,68.692 C30.0213355,67.0973254 30.236,65.3800092 30.236,63.54 L30.236,37.136 C30.236,35.3573244 30.0980014,33.6553415 29.822,32.03 C29.5459986,30.4046585 29.0400037,28.994006 28.304,27.798 C27.5679963,26.601994 26.602006,25.6513369 25.406,24.946 C24.209994,24.2406631 22.6920092,23.888 20.852,23.888 C19.0733244,23.888 17.5706728,24.2099968 16.344,24.854 C15.1173272,25.4980032 14.1360037,26.417994 13.4,27.614 C12.6639963,28.810006 12.1426682,30.2359917 11.836,31.892 C11.5293318,33.5480083 11.376,35.3879899 11.376,37.412 L3.372,37.412 C3.372,33.7319816 3.78599586,30.6193461 4.614,28.074 C5.44200414,25.5286539 6.63799218,23.4586746 8.202,21.864 C9.76600782,20.2693254 11.651989,19.1040037 13.86,18.368 C16.068011,17.6319963 18.6133189,17.264 21.496,17.264 L21.496,17.264 Z M46.152,6.868 C46.152,4.47598804 46.5199963,2.78933824 47.256,1.808 C47.9920037,0.82666176 49.126659,0.336 50.66,0.336 C51.8866728,0.336 53.1439936,0.53533134 54.432,0.934 C55.7200064,1.33266866 57.0999926,1.7619977 58.572,2.222 C60.0440074,2.6820023 61.6386581,3.09599816 63.356,3.464 C65.0733419,3.83200184 67.0053226,4.016 69.152,4.016 C71.2373438,4.016 73.1693244,3.84733502 74.948,3.51 C76.7266756,3.17266498 78.2599936,2.78933548 79.548,2.36 C81.081341,1.86933088 82.4306608,1.28667004 83.596,0.612 L83.596,7.512 C82.5533281,8.1253364 81.2960074,8.67733088 79.824,9.168 C78.5973272,9.59733548 77.0793424,9.9653318 75.27,10.272 C73.4606576,10.5786682 71.3906783,10.732 69.06,10.732 C66.7293217,10.732 64.628676,10.6093346 62.758,10.364 C60.887324,10.1186654 59.3080064,9.8426682 58.02,9.536 C56.486659,9.16799816 55.1680055,8.73866912 54.064,8.248 L54.064,18.644 C54.1253336,20.0546737 54.0640009,21.6339913 53.88,23.382 C53.6959991,25.1300087 53.5120009,26.5253281 53.328,27.568 C54.7386737,25.8506581 56.5939885,24.3633396 58.894,23.106 C61.1940115,21.8486604 64.0919825,21.22 67.588,21.22 C70.4093474,21.22 72.9853217,21.5726631 75.316,22.278 C77.6466783,22.9833369 79.6706581,24.1486585 81.388,25.774 C83.1053419,27.3993415 84.4393286,29.5613198 85.39,32.26 C86.3406714,34.9586802 86.816,38.3013134 86.816,42.288 C86.816,45.7226838 86.386671,48.8659857 85.528,51.718 C84.669329,54.5700143 83.3813419,57.0233231 81.664,59.078 C79.9466581,61.1326769 77.7540133,62.7426608 75.086,63.908 C72.4179867,65.0733392 69.3053511,65.656 65.748,65.656 C61.6999798,65.656 58.4033461,64.9353405 55.858,63.494 C53.3126539,62.0526595 51.3193405,60.1053456 49.878,57.652 C48.4366595,55.1986544 47.4553359,52.3313497 46.934,49.05 C46.4126641,45.7686503 46.152,42.2880184 46.152,38.608 L46.152,6.868 Z M65.84,27.752 C64.1226581,27.752 62.5280074,28.1046631 61.056,28.81 C59.5839926,29.5153369 58.2960055,30.5119936 57.192,31.8 C56.0879945,33.0880064 55.19867,34.6059913 54.524,36.354 C53.84933,38.1020087 53.4813336,40.0186562 53.42,42.104 C53.4813336,44.312011 53.7419977,46.4279899 54.202,48.452 C54.6620023,50.4760101 55.3979949,52.2699922 56.41,53.834 C57.4220051,55.3980078 58.7253254,56.6553286 60.32,57.606 C61.9146746,58.5566714 63.8773217,59.032 66.208,59.032 C70.5013548,59.032 73.7059894,57.5293484 75.822,54.524 C77.9380106,51.5186516 78.996,47.5013585 78.996,42.472 C78.996,37.3813079 77.7846788,33.6553451 75.362,31.294 C72.9393212,28.9326549 69.765353,27.752 65.84,27.752 L65.84,27.752 Z M111.932,21.036 C111.932,23.9186811 112.22333,26.4179894 112.806,28.534 C113.38867,30.6500106 114.661324,32.474659 116.624,34.008 C118.402676,35.4186737 119.935994,36.7066608 121.224,37.872 C122.512006,39.0373392 123.569996,40.2486604 124.398,41.506 C125.226004,42.7633396 125.839331,44.1126595 126.238,45.554 C126.636669,46.9953405 126.836,48.6666572 126.836,50.568 C126.836,52.5920101 126.468004,54.5239908 125.732,56.364 C124.995996,58.2040092 123.922674,59.8139931 122.512,61.194 C121.101326,62.5740069 119.399343,63.6626627 117.406,64.46 C115.412657,65.2573373 113.128013,65.656 110.552,65.656 C108.221322,65.656 106.074676,65.3493364 104.112,64.736 C102.149324,64.1226636 100.462674,63.218006 99.052,62.022 C97.6413263,60.825994 96.5373373,59.3233424 95.74,57.514 C94.9426627,55.7046576 94.544,53.604012 94.544,51.212 C94.544,50.4759963 94.5593332,49.8013364 94.59,49.188 C94.6206668,48.5746636 94.6666664,48.0226691 94.728,47.532 C94.7893336,46.9799972 94.8506664,46.4586691 94.912,45.968 L102.732,46.06 C102.670666,46.3666682 102.609334,46.7653309 102.548,47.256 C102.486666,47.6853355 102.456,48.2219968 102.456,48.866 C102.456,49.5100032 102.456,50.261329 102.456,51.12 C102.456,52.0400046 102.624665,52.9599954 102.962,53.88 C103.299335,54.8000046 103.820663,55.6433295 104.526,56.41 C105.231337,57.1766705 106.089995,57.7899977 107.102,58.25 C108.114005,58.7100023 109.29466,58.94 110.644,58.94 C113.34268,58.94 115.397326,58.1580078 116.808,56.594 C118.218674,55.0299922 118.924,53.1746774 118.924,51.028 C118.924,49.3106581 118.740002,47.8386728 118.372,46.612 C118.003998,45.3853272 117.467337,44.3120046 116.762,43.392 C116.056663,42.4719954 115.228671,41.6286705 114.278,40.862 C113.327329,40.0953295 112.300006,39.3133373 111.196,38.516 C109.723993,37.4119945 108.512671,36.3080055 107.562,35.204 C106.611329,34.0999945 105.860003,32.8886733 105.308,31.57 C104.755997,30.2513267 104.372668,28.7333419 104.158,27.016 C103.943332,25.2986581 103.836,23.3053447 103.836,21.036 L111.932,21.036 Z" id="ენა" fill="#BABABD"></path>
                    <path d="M5.028,78.674 C1.63991291,76.2733258 0.336,70.5627022 0.336,63.448 L8.248,63.448 C8.248,67.9253557 9.05094463,71.6730792 11.146,73.43 L5.028,78.674 Z M74.948,3.51 C74.948,3.51 78.2599936,2.78933548 79.548,2.36 C81.081341,1.86933088 82.4306608,1.28667004 83.596,0.612 L83.596,7.512 C82.5533281,8.1253364 81.2960074,8.67733088 79.824,9.168 C78.5973272,9.59733548 75.27,10.272 75.27,10.272 L74.948,3.51 Z M111.932,21.036 C111.932,23.9186811 112.151794,26.1749268 112.806,28.534 L105.308,31.57 C104.869751,30.5072021 104.372668,28.7333419 104.158,27.016 C103.943332,25.2986581 103.836,23.3053447 103.836,21.036 L111.932,21.036 Z" id="ენა" fill="#666666"></path>
                </g>
                <path d="M0,181 L465,181" id="Path-1" stroke="#BABABD" sketch:type="MSShapeGroup"></path>
            </g>
        </g>
    </g>
</svg>