<?xml version="1.0" encoding="UTF-8" standalone="no"?>
<svg width="465px" height="360px" viewBox="0 0 465 360" version="1.1" xmlns="http://www.w3.org/2000/svg" xmlns:xlink="http://www.w3.org/1999/xlink" xmlns:sketch="http://www.bohemiancoding.com/sketch/ns">
    <!-- Generator: Sketch Beta 3.4.4 (17258) - http://www.bohemiancoding.com/sketch -->
    <title>x-height</title>
    <desc>Created with Sketch Beta.</desc>
    <defs></defs>
    <g id="Outline" stroke="none" stroke-width="1" fill="none" fill-rule="evenodd" sketch:type="MSPage">
        <g id="x-height" sketch:type="MSArtboardGroup">
            <g id="Group" sketch:type="MSLayerGroup">
                <g id="Tag">
                    <rect id="Rectangle-1" fill="#BABABD" sketch:type="MSShapeGroup" x="0" y="0" width="30" height="360"></rect>
                    <text id="აღმავალი" sketch:type="MSTextLayer" transform="translate(13.500000, 270.500000) rotate(-90.000000) translate(-13.500000, -270.500000) " font-family="BG Courier" font-size="21" font-weight="normal" sketch:alignment="middle" fill="#646466">
                        <tspan x="-56.472" y="275">ასო-სიმაღლე</tspan>
                    </text>
                    <text id="ascender" sketch:type="MSTextLayer" transform="translate(14.500000, 90.500000) rotate(-90.000000) translate(-14.500000, -90.500000) " font-family="BG Courier" font-size="21" font-weight="normal" sketch:alignment="middle" fill="#646466">
                        <tspan x="-35.9" y="95">x-height</tspan>
                    </text>
                </g>
                <g id="Baseline" transform="translate(30.000000, 134.000000)" stroke="#666666" stroke-width="2" sketch:type="MSShapeGroup">
                    <path d="M0,177 L434,177" id="Baseline-Copy-2"></path>
                    <path d="M0,1 L434,1" id="Baseline-Copy"></path>
                </g>
                <g id="Ascender" transform="translate(30.000000, 88.000000)" stroke="#666666" stroke-width="2" sketch:type="MSShapeGroup">
                    <path d="M0,181 L434,181" id="Baseline-Copy-4"></path>
                    <path d="M0,1.5 L434,1.5" id="Baseline-Copy-3"></path>
                </g>
                <path d="M193.962,95.336 L193.962,136 L201.782,136 L201.782,95.336 L210.982,95.336 L210.982,88.436 L201.782,88.436 L201.782,81.812 C201.782,79.7266562 202.303328,78.3160037 203.346,77.58 C204.388672,76.8439963 205.860657,76.476 207.762,76.476 C208.43667,76.476 209.172663,76.5219995 209.97,76.614 C210.767337,76.7060005 211.50333,76.8746654 212.178,77.12 L212.178,70.312 C211.441996,70.0666654 210.598671,69.8826673 209.648,69.76 C208.697329,69.6373327 207.854004,69.576 207.118,69.576 C202.824645,69.576 199.558678,70.5726567 197.32,72.566 C195.081322,74.5593433 193.962,77.4879807 193.962,81.352 L193.962,88.436 L185.958,88.436 L185.958,95.336 L193.962,95.336 Z M260.11,135.816 C258.76066,136.613337 256.890012,137.012 254.498,137.012 C252.47399,137.012 250.864006,136.444672 249.668,135.31 C248.471994,134.175328 247.874,132.320013 247.874,129.744 C245.727323,132.320013 243.228014,134.175328 240.376,135.31 C237.523986,136.444672 234.442017,137.012 231.13,137.012 C228.983323,137.012 226.94401,136.766669 225.012,136.276 C223.07999,135.785331 221.408674,135.018672 219.998,133.976 C218.587326,132.933328 217.468004,131.568675 216.64,129.882 C215.811996,128.195325 215.398,126.156012 215.398,123.764 C215.398,121.06532 215.857995,118.857342 216.778,117.14 C217.698005,115.422658 218.909326,114.027339 220.412,112.954 C221.914674,111.880661 223.63199,111.068003 225.564,110.516 C227.49601,109.963997 229.47399,109.504002 231.498,109.136 C233.644677,108.706665 235.68399,108.384668 237.616,108.17 C239.54801,107.955332 241.249993,107.648669 242.722,107.25 C244.194007,106.851331 245.359329,106.268671 246.218,105.502 C247.076671,104.73533 247.506,103.616007 247.506,102.144 C247.506,100.426658 247.184003,99.0466719 246.54,98.004 C245.895997,96.9613281 245.068005,96.1640028 244.056,95.612 C243.043995,95.0599972 241.90934,94.6920009 240.652,94.508 C239.39466,94.3239991 238.152673,94.232 236.926,94.232 C233.613983,94.232 230.854011,94.8606604 228.646,96.118 C226.437989,97.3753396 225.242001,99.7519825 225.058,103.248 L217.238,103.248 C217.360667,100.303985 217.973994,97.8200101 219.078,95.796 C220.182006,93.7719899 221.653991,92.1313396 223.494,90.874 C225.334009,89.6166604 227.434655,88.7120028 229.796,88.16 C232.157345,87.6079972 234.68732,87.332 237.386,87.332 C239.532677,87.332 241.663989,87.4853318 243.78,87.792 C245.896011,88.0986682 247.812658,88.7273286 249.53,89.678 C251.247342,90.6286714 252.627328,91.9626581 253.67,93.68 C254.712672,95.3973419 255.234,97.6359862 255.234,100.396 L255.234,124.868 C255.234,126.708009 255.341332,128.057329 255.556,128.916 C255.770668,129.774671 256.491327,130.204 257.718,130.204 C258.39267,130.204 259.189995,130.050668 260.11,129.744 L260.11,135.816 Z M247.414,111.436 C246.432662,112.172004 245.144675,112.708665 243.55,113.046 C241.955325,113.383335 240.284009,113.659332 238.536,113.874 C236.787991,114.088668 235.024676,114.333999 233.246,114.61 C231.467324,114.886001 229.872674,115.330664 228.462,115.944 C227.051326,116.557336 225.901338,117.431328 225.012,118.566 C224.122662,119.700672 223.678,121.249324 223.678,123.212 C223.678,124.500006 223.938664,125.588662 224.46,126.478 C224.981336,127.367338 225.655996,128.087997 226.484,128.64 C227.312004,129.192003 228.277994,129.590665 229.382,129.836 C230.486006,130.081335 231.651327,130.204 232.878,130.204 C235.454013,130.204 237.661991,129.851337 239.502,129.146 C241.342009,128.440663 242.844661,127.551339 244.01,126.478 C245.175339,125.404661 246.033997,124.23934 246.586,122.982 C247.138003,121.72466 247.414,120.544006 247.414,119.44 L247.414,111.436 Z M280.166,110.976 L262.318,136 L271.794,136 L285.042,116.312 L298.29,136 L308.318,136 L289.918,110.332 L306.294,88.436 L296.91,88.436 L285.042,105.088 L273.634,88.436 L263.606,88.436 L280.166,110.976 Z" id="fax" fill="#BABABD" sketch:type="MSShapeGroup"></path>
                <path d="M219.342,292.232 C219.342,295.237348 218.882005,297.997321 217.962,300.512 C217.041995,303.026679 215.708009,305.173324 213.96,306.952 C212.211991,308.730676 210.111346,310.125995 207.658,311.138 C205.204654,312.150005 202.475348,312.656 199.47,312.656 C195.667314,312.656 192.524012,312.165338 190.04,311.184 C187.555988,310.202662 185.578007,308.807342 184.106,306.998 C182.633993,305.188658 181.60667,303.011346 181.024,300.466 C180.44133,297.920654 180.15,295.053349 180.15,291.864 L180.15,248.256 L187.786,248.256 L187.786,290.852 C187.786,295.820025 188.675324,299.60732 190.454,302.214 C192.232676,304.82068 195.176646,306.124 199.286,306.124 C203.150019,306.124 206.155323,304.989345 208.302,302.72 C210.448677,300.450655 211.522,297.230688 211.522,293.06 C211.522,290.913323 211.200003,289.073341 210.556,287.54 C209.911997,286.006659 209.114671,284.596006 208.164,283.308 C207.213329,282.019994 206.186006,280.793339 205.082,279.628 C203.977994,278.462661 202.950671,277.20534 202,275.856 C201.049329,274.50666 200.252003,272.988675 199.608,271.302 C198.963997,269.615325 198.642,267.606678 198.642,265.276 L206.37,265.276 C206.37,267.177343 206.691997,268.848659 207.336,270.29 C207.980003,271.731341 208.777329,273.095994 209.728,274.384 C210.678671,275.672006 211.721328,276.929327 212.856,278.156 C213.990672,279.382673 215.033329,280.685993 215.984,282.066 C216.934671,283.446007 217.731997,284.948659 218.376,286.574 C219.020003,288.199341 219.342,290.085323 219.342,292.232 L219.342,292.232 Z M245.102,312.656 C242.096652,312.656 239.382679,312.104006 236.96,311 C234.537321,309.895994 232.482675,308.33201 230.796,306.308 C229.109325,304.28399 227.806005,301.846014 226.886,298.994 C225.965995,296.141986 225.506,292.968017 225.506,289.472 C225.506,285.853315 226.042661,282.495349 227.116,279.398 C228.189339,276.300651 229.768656,273.617345 231.854,271.348 C233.939344,269.078655 236.499985,267.300006 239.536,266.012 C242.572015,264.723994 246.052647,264.08 249.978,264.08 C253.903353,264.08 257.353318,264.723994 260.328,266.012 C263.302682,267.300006 265.786657,269.063322 267.78,271.302 C269.773343,273.540678 271.275995,276.193318 272.288,279.26 C273.300005,282.326682 273.806,285.607983 273.806,289.104 C273.806,292.048015 273.346005,294.930653 272.426,297.752 C271.505995,300.573347 270.218008,303.087989 268.562,305.296 C266.905992,307.504011 264.912678,309.28266 262.582,310.632 C260.251322,311.98134 257.675347,312.656 254.854,312.656 L254.854,306.032 C255.835338,306.032 256.969994,305.710003 258.258,305.066 C259.546006,304.421997 260.741994,303.410007 261.846,302.03 C262.950006,300.649993 263.88533,298.856011 264.652,296.648 C265.418671,294.439989 265.802,291.802682 265.802,288.736 C265.802,285.791985 265.403337,283.200678 264.606,280.962 C263.808663,278.723322 262.689341,276.837341 261.248,275.304 C259.806659,273.770659 258.089343,272.62067 256.096,271.854 C254.102657,271.087329 251.910012,270.704 249.518,270.704 C247.187322,270.704 245.025343,271.102663 243.032,271.9 C241.038657,272.697337 239.336674,273.862659 237.926,275.396 C236.515326,276.929341 235.411337,278.815322 234.614,281.054 C233.816663,283.292678 233.418,285.853319 233.418,288.736 C233.418,291.864016 233.831996,294.531989 234.66,296.74 C235.488004,298.948011 236.499994,300.741993 237.696,302.122 C238.892006,303.502007 240.16466,304.498664 241.514,305.112 C242.86334,305.725336 244.059328,306.032 245.102,306.032 L245.102,312.656 Z M298.83,268.036 C298.83,270.918681 299.12133,273.417989 299.704,275.534 C300.28667,277.650011 301.559324,279.474659 303.522,281.008 C305.300676,282.418674 306.833994,283.706661 308.122,284.872 C309.410006,286.037339 310.467996,287.24866 311.296,288.506 C312.124004,289.76334 312.737331,291.112659 313.136,292.554 C313.534669,293.995341 313.734,295.666657 313.734,297.568 C313.734,299.59201 313.366004,301.523991 312.63,303.364 C311.893996,305.204009 310.820674,306.813993 309.41,308.194 C307.999326,309.574007 306.297343,310.662663 304.304,311.46 C302.310657,312.257337 300.026013,312.656 297.45,312.656 C295.119322,312.656 292.972676,312.349336 291.01,311.736 C289.047324,311.122664 287.360674,310.218006 285.95,309.022 C284.539326,307.825994 283.435337,306.323342 282.638,304.514 C281.840663,302.704658 281.442,300.604012 281.442,298.212 C281.442,297.475996 281.457333,296.801336 281.488,296.188 C281.518667,295.574664 281.564666,295.022669 281.626,294.532 C281.687334,293.979997 281.748666,293.458669 281.81,292.968 L289.63,293.06 C289.568666,293.366668 289.507334,293.765331 289.446,294.256 C289.384666,294.685335 289.354,295.221997 289.354,295.866 L289.354,298.12 C289.354,299.040005 289.522665,299.959995 289.86,300.88 C290.197335,301.800005 290.718663,302.643329 291.424,303.41 C292.129337,304.17667 292.987995,304.789998 294,305.25 C295.012005,305.710002 296.19266,305.94 297.542,305.94 C300.24068,305.94 302.295326,305.158008 303.706,303.594 C305.116674,302.029992 305.822,300.174677 305.822,298.028 C305.822,296.310658 305.638002,294.838673 305.27,293.612 C304.901998,292.385327 304.365337,291.312005 303.66,290.392 C302.954663,289.471995 302.126671,288.62867 301.176,287.862 C300.225329,287.095329 299.198006,286.313337 298.094,285.516 C296.621993,284.411994 295.410671,283.308006 294.46,282.204 C293.509329,281.099994 292.758003,279.888673 292.206,278.57 C291.653997,277.251327 291.270668,275.733342 291.056,274.016 C290.841332,272.298658 290.734,270.305345 290.734,268.036 L298.83,268.036 Z" id="სია" fill="#BABABD" sketch:type="MSShapeGroup"></path>
                <path d="M0,181 L465,181" id="Path-1" stroke="#BABABD" sketch:type="MSShapeGroup"></path>
                <g id="Path-107-+-Rectangle-92-+-Rectangle-92" transform="translate(322.000000, 91.000000)" stroke="#666666" stroke-width="2" sketch:type="MSShapeGroup">
                    <path d="M10,2 L10,40.8295216" id="Path-107"></path>
                    <path d="M3.82842712,16.6923882 L3.55634919,3.82842712 L16.8284271,3.69238816" id="Rectangle-92" transform="translate(10.192388, 10.192388) rotate(-315.000000) translate(-10.192388, -10.192388) "></path>
                    <path d="M3.69238816,38.6923882 L3.76040764,26.1685245 L16.6923882,25.6923882" id="Rectangle-92" transform="translate(10.192388, 32.192388) scale(1, -1) rotate(-315.000000) translate(-10.192388, -32.192388) "></path>
                </g>
                <g id="Path-107-+-Rectangle-92-+-Rectangle-92" transform="translate(323.000000, 272.000000)" stroke="#666666" stroke-width="2" sketch:type="MSShapeGroup">
                    <path d="M9,0 L9,35" id="Path-107"></path>
                    <path d="M2.9246212,15.7885822 L2.65254326,2.9246212 L15.9246212,2.78858223" id="Rectangle-92" transform="translate(9.288582, 9.288582) rotate(-315.000000) translate(-9.288582, -9.288582) "></path>
                    <path d="M2.69238816,33.6923882 L2.82842712,21.1005051 L15.6923882,20.6923882" id="Rectangle-92" transform="translate(9.192388, 27.192388) scale(1, -1) rotate(-315.000000) translate(-9.192388, -27.192388) "></path>
                </g>
            </g>
        </g>
    </g>
</svg>