<?xml version="1.0" encoding="UTF-8" standalone="no"?>
<svg width="465px" height="360px" viewBox="0 0 465 360" version="1.1" xmlns="http://www.w3.org/2000/svg" xmlns:xlink="http://www.w3.org/1999/xlink" xmlns:sketch="http://www.bohemiancoding.com/sketch/ns">
    <!-- Generator: Sketch Beta 3.4.4 (17258) - http://www.bohemiancoding.com/sketch -->
    <title>Aperture</title>
    <desc>Created with Sketch Beta.</desc>
    <defs></defs>
    <g id="Outline" stroke="none" stroke-width="1" fill="none" fill-rule="evenodd" sketch:type="MSPage">
        <g id="Aperture" sketch:type="MSArtboardGroup">
            <g id="Group" sketch:type="MSLayerGroup">
                <g id="Tag">
                    <rect id="Rectangle-1" fill="#BABABD" sketch:type="MSShapeGroup" x="0" y="0" width="30" height="360"></rect>
                    <text id="აღმავალი" sketch:type="MSTextLayer" transform="translate(13.500000, 270.500000) rotate(-90.000000) translate(-13.500000, -270.500000) " font-family="BG Courier" font-size="21" font-weight="normal" sketch:alignment="middle" fill="#646466">
                        <tspan x="-37.572" y="275">აპერტურა</tspan>
                    </text>
                    <text id="ascender" sketch:type="MSTextLayer" transform="translate(14.500000, 90.500000) rotate(-90.000000) translate(-14.500000, -90.500000) " font-family="BG Courier" font-size="21" font-weight="normal" sketch:alignment="middle" fill="#646466">
                        <tspan x="-35.9" y="95">aperture</tspan>
                    </text>
                </g>
                <path d="M170,135 L216.211536,135" id="Path-41" stroke="#666666" stroke-width="2" sketch:type="MSShapeGroup"></path>
                <path d="M236,135 L263.864156,135" id="Path-41-Copy" stroke="#666666" stroke-width="2" sketch:type="MSShapeGroup"></path>
                <path d="M182.83,108.86 L193.962,78.224 L194.146,78.224 L205.094,108.86 L182.83,108.86 Z M189.362,70.312 L163.786,136 L172.71,136 L180.07,116.22 L207.854,116.22 L215.03,136 L224.69,136 L199.022,70.312 L189.362,70.312 Z M229.842,88.436 L229.842,136 L237.662,136 L237.662,109.136 C237.662,106.989323 237.95333,105.011342 238.536,103.202 C239.11867,101.392658 239.992661,99.8133401 241.158,98.464 C242.323339,97.1146599 243.779991,96.0720037 245.528,95.336 C247.276009,94.5999963 249.345988,94.232 251.738,94.232 C254.743348,94.232 257.104658,95.0906581 258.822,96.808 C260.539342,98.5253419 261.398,100.855985 261.398,103.8 L261.398,136 L269.218,136 L269.218,104.72 C269.218,102.143987 268.957336,99.7980106 268.436,97.682 C267.914664,95.5659894 267.010006,93.741341 265.722,92.208 C264.433994,90.674659 262.747344,89.478671 260.662,88.62 C258.576656,87.761329 255.970016,87.332 252.842,87.332 C245.788631,87.332 240.636683,90.2146378 237.386,95.98 L237.202,95.98 L237.202,88.436 L229.842,88.436 Z M286.698,112.632 C286.698,110.301322 286.943331,108.032011 287.434,105.824 C287.924669,103.615989 288.721994,101.653342 289.826,99.936 C290.930006,98.2186581 292.401991,96.8386719 294.242,95.796 C296.082009,94.7533281 298.320653,94.232 300.958,94.232 C303.65668,94.232 305.956657,94.7379949 307.858,95.75 C309.759343,96.7620051 311.307994,98.0959917 312.504,99.752 C313.700006,101.408008 314.573997,103.324656 315.126,105.502 C315.678003,107.679344 315.954,109.933322 315.954,112.264 C315.954,114.472011 315.693336,116.649323 315.172,118.796 C314.650664,120.942677 313.807339,122.859325 312.642,124.546 C311.476661,126.232675 309.974009,127.597328 308.134,128.64 C306.293991,129.682672 304.055347,130.204 301.418,130.204 C298.903321,130.204 296.710676,129.713338 294.84,128.732 C292.969324,127.750662 291.436006,126.432008 290.24,124.776 C289.043994,123.119992 288.15467,121.234011 287.572,119.118 C286.98933,117.001989 286.698,114.840011 286.698,112.632 L286.698,112.632 Z M323.498,136 L323.498,70.312 L315.678,70.312 L315.678,94.784 L315.494,94.784 C314.635329,93.3733263 313.57734,92.1926714 312.32,91.242 C311.06266,90.2913286 309.728674,89.5246696 308.318,88.942 C306.907326,88.3593304 305.496674,87.9453346 304.086,87.7 C302.675326,87.4546654 301.356673,87.332 300.13,87.332 C296.511315,87.332 293.337347,87.9913267 290.608,89.31 C287.878653,90.6286733 285.609342,92.4073221 283.8,94.646 C281.990658,96.8846779 280.641338,99.5066516 279.752,102.512 C278.862662,105.517348 278.418,108.70665 278.418,112.08 C278.418,115.45335 278.877995,118.642652 279.798,121.648 C280.718005,124.653348 282.082658,127.290655 283.892,129.56 C285.701342,131.829345 287.970653,133.63866 290.7,134.988 C293.429347,136.33734 296.633982,137.012 300.314,137.012 C303.626017,137.012 306.661986,136.429339 309.422,135.264 C312.182014,134.098661 314.205994,132.197347 315.494,129.56 L315.678,129.56 L315.678,136 L323.498,136 Z" id="And" fill="#BABABD" sketch:type="MSShapeGroup"></path>
                <path d="M317,309 L331.041595,309" id="Path-43" stroke="#666666" stroke-width="2" sketch:type="MSShapeGroup"></path>
                <path d="M194,293 L284,293" id="Path-44" stroke="#666666" stroke-width="2" sketch:type="MSShapeGroup"></path>
                <path d="M167.546,268.036 C167.546,270.918681 167.83733,273.417989 168.42,275.534 C169.00267,277.650011 170.275324,279.474659 172.238,281.008 C174.016676,282.418674 175.549994,283.706661 176.838,284.872 C178.126006,286.037339 179.183996,287.24866 180.012,288.506 C180.840004,289.76334 181.453331,291.112659 181.852,292.554 C182.250669,293.995341 182.45,295.666657 182.45,297.568 C182.45,299.59201 182.082004,301.523991 181.346,303.364 C180.609996,305.204009 179.536674,306.813993 178.126,308.194 C176.715326,309.574007 175.013343,310.662663 173.02,311.46 C171.026657,312.257337 168.742013,312.656 166.166,312.656 C163.835322,312.656 161.688676,312.349336 159.726,311.736 C157.763324,311.122664 156.076674,310.218006 154.666,309.022 C153.255326,307.825994 152.151337,306.323342 151.354,304.514 C150.556663,302.704658 150.158,300.604012 150.158,298.212 C150.158,297.475996 150.173333,296.801336 150.204,296.188 C150.234667,295.574664 150.280666,295.022669 150.342,294.532 C150.403334,293.979997 150.464666,293.458669 150.526,292.968 L158.346,293.06 C158.284666,293.366668 158.223334,293.765331 158.162,294.256 C158.100666,294.685335 158.07,295.221997 158.07,295.866 L158.07,298.12 C158.07,299.040005 158.238665,299.959995 158.576,300.88 C158.913335,301.800005 159.434663,302.643329 160.14,303.41 C160.845337,304.17667 161.703995,304.789998 162.716,305.25 C163.728005,305.710002 164.90866,305.94 166.258,305.94 C168.95668,305.94 171.011326,305.158008 172.422,303.594 C173.832674,302.029992 174.538,300.174677 174.538,298.028 C174.538,296.310658 174.354002,294.838673 173.986,293.612 C173.617998,292.385327 173.081337,291.312005 172.376,290.392 C171.670663,289.471995 170.842671,288.62867 169.892,287.862 C168.941329,287.095329 167.914006,286.313337 166.81,285.516 C165.337993,284.411994 164.126671,283.308006 163.176,282.204 C162.225329,281.099994 161.474003,279.888673 160.922,278.57 C160.369997,277.251327 159.986668,275.733342 159.772,274.016 C159.557332,272.298658 159.45,270.305345 159.45,268.036 L167.546,268.036 Z M223.298,319.096 L212.074,316.52 C205.633968,315.047993 200.574018,312.196021 196.894,307.964 C193.213982,303.731979 191.374,297.782705 191.374,290.116 C191.374,286.74265 191.695997,283.492016 192.34,280.364 C192.984003,277.235984 194.041993,274.476012 195.514,272.084 C196.986007,269.691988 198.933321,267.775341 201.356,266.334 C203.778679,264.892659 206.799315,264.172 210.418,264.172 C213.484682,264.172 215.98399,264.739328 217.916,265.874 C219.84801,267.008672 221.381328,268.495991 222.516,270.336 C223.650672,272.176009 224.478664,274.276655 225,276.638 C225.521336,278.999345 225.904665,281.437321 226.15,283.952 L226.426,283.952 C226.426,281.191986 226.701997,278.616012 227.254,276.224 C227.806003,273.831988 228.71066,271.746676 229.968,269.968 C231.22534,268.189324 232.881323,266.778672 234.936,265.736 C236.990677,264.693328 239.551318,264.172 242.618,264.172 C245.562015,264.172 247.99999,264.723994 249.932,265.828 C251.86401,266.932006 253.397328,268.373324 254.532,270.152 C255.666672,271.930676 256.494664,273.969988 257.016,276.27 C257.537336,278.570011 257.859333,280.946654 257.982,283.4 L258.35,283.4 C258.534001,280.823987 258.932664,278.370678 259.546,276.04 C260.159336,273.709322 261.09466,271.670009 262.352,269.922 C263.60934,268.173991 265.188657,266.778672 267.09,265.736 C268.991343,264.693328 271.29132,264.172 273.99,264.172 C277.240683,264.172 279.985322,264.785327 282.224,266.012 C284.462678,267.238673 286.271993,268.894656 287.652,270.98 C289.032007,273.065344 290.01333,275.503319 290.596,278.294 C291.17867,281.084681 291.47,284.013318 291.47,287.08 C291.47,290.208016 290.994671,293.105987 290.044,295.774 C289.093329,298.442013 287.790008,300.74199 286.134,302.674 C284.477992,304.60601 282.561344,306.123994 280.384,307.228 C278.206656,308.332006 275.891346,308.884 273.438,308.884 L273.438,301.34 C274.910007,301.34 276.259327,300.910671 277.486,300.052 C278.712673,299.193329 279.770662,298.028007 280.66,296.556 C281.549338,295.083993 282.254664,293.366676 282.776,291.404 C283.297336,289.441324 283.558,287.325345 283.558,285.056 C283.558,283.093324 283.358669,281.253342 282.96,279.536 C282.561331,277.818658 281.963337,276.316006 281.166,275.028 C280.368663,273.739994 279.372006,272.728004 278.176,271.992 C276.979994,271.255996 275.554008,270.888 273.898,270.888 C271.137986,270.888 269.052674,271.608659 267.642,273.05 C266.231326,274.491341 265.204003,276.346655 264.56,278.616 C263.915997,280.885345 263.563334,283.415319 263.502,286.206 C263.440666,288.996681 263.41,291.710653 263.41,294.348 L252.922,294.348 L252.922,287.172 C252.922,281.958641 251.986676,277.926014 250.116,275.074 C248.245324,272.221986 245.746016,270.796 242.618,270.796 C239.121983,270.796 236.392676,272.221986 234.43,275.074 C232.467324,277.926014 231.516666,281.927974 231.578,287.08 L231.578,294.348 L221.366,294.348 C221.366,291.710653 221.228001,288.996681 220.952,286.206 C220.675999,283.415319 220.124004,280.885345 219.296,278.616 C218.467996,276.346655 217.318007,274.476007 215.846,273.004 C214.373993,271.531993 212.411346,270.796 209.958,270.796 C206.58465,270.796 203.962676,272.329318 202.092,275.396 C200.221324,278.462682 199.286,282.970637 199.286,288.92 C199.286,292.845353 199.837994,296.11132 200.942,298.718 C202.046006,301.32468 203.56399,303.532658 205.496,305.342 C207.42801,307.151342 209.74332,308.68466 212.442,309.942 C215.14068,311.19934 218.053984,312.410661 221.182,313.576 C223.942014,314.680006 226.916651,315.799328 230.106,316.934 C233.295349,318.068672 236.269986,319.095995 239.03,320.016 C242.219349,321.120006 245.377984,322.193328 248.506,323.236 L248.506,323.42 L245.93,330.504 C244.396659,329.767996 242.648676,329.06267 240.686,328.388 C239.029992,327.774664 237.036678,327.17667 234.706,326.594 C232.375322,326.01133 229.768681,325.474669 226.886,324.984 C223.941985,324.493331 221.473343,324.202 219.48,324.11 C217.486657,324.018 215.570009,323.972 213.73,323.972 L197.814,323.972 L197.814,317.44 L206.646,317.44 C208.240675,317.44 209.988657,317.547332 211.89,317.762 C213.791343,317.976668 215.600658,318.237332 217.318,318.544 C219.34201,318.850668 221.335324,319.187998 223.298,319.556 L223.298,319.096 Z M319.07,312.656 C316.064652,312.656 313.350679,312.104006 310.928,311 C308.505321,309.895994 306.450675,308.33201 304.764,306.308 C303.077325,304.28399 301.774005,301.846014 300.854,298.994 C299.933995,296.141986 299.474,292.968017 299.474,289.472 C299.474,285.853315 300.010661,282.495349 301.084,279.398 C302.157339,276.300651 303.736656,273.617345 305.822,271.348 C307.907344,269.078655 310.467985,267.300006 313.504,266.012 C316.540015,264.723994 320.020647,264.08 323.946,264.08 C327.871353,264.08 331.321318,264.723994 334.296,266.012 C337.270682,267.300006 339.754657,269.063322 341.748,271.302 C343.741343,273.540678 345.243995,276.193318 346.256,279.26 C347.268005,282.326682 347.774,285.607983 347.774,289.104 C347.774,292.048015 347.314005,294.930653 346.394,297.752 C345.473995,300.573347 344.186008,303.087989 342.53,305.296 C340.873992,307.504011 338.880678,309.28266 336.55,310.632 C334.219322,311.98134 331.643347,312.656 328.822,312.656 L328.822,306.032 C329.803338,306.032 330.937994,305.710003 332.226,305.066 C333.514006,304.421997 334.709994,303.410007 335.814,302.03 C336.918006,300.649993 337.853329,298.856011 338.62,296.648 C339.38667,294.439989 339.77,291.802682 339.77,288.736 C339.77,285.791985 339.371337,283.200678 338.574,280.962 C337.776663,278.723322 336.657341,276.837341 335.216,275.304 C333.774659,273.770659 332.057343,272.62067 330.064,271.854 C328.070657,271.087329 325.878012,270.704 323.486,270.704 C321.155322,270.704 318.993343,271.102663 317,271.9 C315.006657,272.697337 313.304674,273.862659 311.894,275.396 C310.483326,276.929341 309.379337,278.815322 308.582,281.054 C307.784663,283.292678 307.386,285.853319 307.386,288.736 C307.386,291.864016 307.799996,294.531989 308.628,296.74 C309.456004,298.948011 310.467994,300.741993 311.664,302.122 C312.860006,303.502007 314.13266,304.498664 315.482,305.112 C316.83134,305.725336 318.027328,306.032 319.07,306.032 L319.07,312.656 Z" id="ალი" fill="#BABABD" sketch:type="MSShapeGroup"></path>
                <path d="M0,181 L465,181" id="Path-1" stroke="#BABABD" sketch:type="MSShapeGroup"></path>
            </g>
        </g>
    </g>
</svg>