<?xml version="1.0" encoding="UTF-8" standalone="no"?>
<svg width="465px" height="360px" viewBox="0 0 465 360" version="1.1" xmlns="http://www.w3.org/2000/svg" xmlns:xlink="http://www.w3.org/1999/xlink" xmlns:sketch="http://www.bohemiancoding.com/sketch/ns">
    <!-- Generator: Sketch Beta 3.4.4 (17258) - http://www.bohemiancoding.com/sketch -->
    <title>Ascender</title>
    <desc>Created with Sketch Beta.</desc>
    <defs></defs>
    <g id="Outline" stroke="none" stroke-width="1" fill="none" fill-rule="evenodd" sketch:type="MSPage">
        <g id="Ascender" sketch:type="MSArtboardGroup">
            <g id="Group" sketch:type="MSLayerGroup">
                <g id="Tag">
                    <rect id="Rectangle-1" fill="#BABABD" sketch:type="MSShapeGroup" x="0" y="0" width="30" height="360"></rect>
                    <text id="აღმავალი" sketch:type="MSTextLayer" transform="translate(13.500000, 270.500000) rotate(-90.000000) translate(-13.500000, -270.500000) " font-family="BG Courier" font-size="21" font-weight="normal" sketch:alignment="middle" fill="#646466">
                        <tspan x="-37.572" y="275">აღმავალი</tspan>
                    </text>
                    <text id="ascender" sketch:type="MSTextLayer" transform="translate(14.500000, 90.500000) rotate(-90.000000) translate(-14.500000, -90.500000) " font-family="BG Courier" font-size="21" font-weight="normal" sketch:alignment="middle" fill="#646466">
                        <tspan x="-35.9" y="95">ascender</tspan>
                    </text>
                </g>
                <g id="Ascender" transform="translate(32.444308, 88.000000)" stroke="#BABABD" sketch:type="MSShapeGroup">
                    <path d="M0,181 L434,181" id="Baseline-Copy-4"></path>
                    <path d="M0,1 L434,1" id="Baseline-Copy-3"></path>
                </g>
                <path d="M209.406,247.428 L209.406,310.448 C209.406,313.14668 209.038004,315.707321 208.302,318.13 C207.565996,320.552679 206.400675,322.653324 204.806,324.432 C203.211325,326.210676 201.141346,327.621328 198.596,328.664 C196.050654,329.706672 192.938018,330.228 189.258,330.228 C182.5113,330.228 177.49735,328.58735 174.216,325.306 C170.93465,322.02465 169.294,316.642704 169.294,309.16 L177.206,309.16 C177.206,313.760023 178.233323,317.332654 180.288,319.878 C182.342677,322.423346 185.485979,323.696 189.718,323.696 C193.827354,323.696 196.863324,322.745343 198.826,320.844 C200.788676,318.942657 201.77,315.63069 201.77,310.908 L201.77,293.704 C201.77,291.434655 201.616668,289.410676 201.31,287.632 C201.003332,285.853324 200.46667,284.350673 199.7,283.124 C198.933329,281.897327 197.87534,280.962003 196.526,280.318 C195.17666,279.673997 193.428677,279.352 191.282,279.352 C187.969983,279.352 185.486008,280.179992 183.83,281.836 C182.173992,283.492008 181.315334,285.791985 181.254,288.736 L173.434,288.736 C173.556667,283.522641 175.074652,279.536014 177.988,276.776 C180.901348,274.015986 185.025973,272.636 190.362,272.636 C193.06068,272.636 195.329991,272.988663 197.17,273.694 C199.010009,274.399337 200.543327,275.303994 201.77,276.408 L201.77,247.428 L209.406,247.428 Z M235.994,312.656 C232.988652,312.656 230.274679,312.104006 227.852,311 C225.429321,309.895994 223.374675,308.33201 221.688,306.308 C220.001325,304.28399 218.698005,301.846014 217.778,298.994 C216.857995,296.141986 216.398,292.968017 216.398,289.472 C216.398,285.853315 216.934661,282.495349 218.008,279.398 C219.081339,276.300651 220.660656,273.617345 222.746,271.348 C224.831344,269.078655 227.391985,267.300006 230.428,266.012 C233.464015,264.723994 236.944647,264.08 240.87,264.08 C244.795353,264.08 248.245318,264.723994 251.22,266.012 C254.194682,267.300006 256.678657,269.063322 258.672,271.302 C260.665343,273.540678 262.167995,276.193318 263.18,279.26 C264.192005,282.326682 264.698,285.607983 264.698,289.104 C264.698,292.048015 264.238005,294.930653 263.318,297.752 C262.397995,300.573347 261.110008,303.087989 259.454,305.296 C257.797992,307.504011 255.804678,309.28266 253.474,310.632 C251.143322,311.98134 248.567347,312.656 245.746,312.656 L245.746,306.032 C246.727338,306.032 247.861994,305.710003 249.15,305.066 C250.438006,304.421997 251.633994,303.410007 252.738,302.03 C253.842006,300.649993 254.777329,298.856011 255.544,296.648 C256.31067,294.439989 256.694,291.802682 256.694,288.736 C256.694,285.791985 256.295337,283.200678 255.498,280.962 C254.700663,278.723322 253.581341,276.837341 252.14,275.304 C250.698659,273.770659 248.981343,272.620671 246.988,271.854 C244.994657,271.08733 242.802012,270.704 240.41,270.704 C238.079322,270.704 235.917343,271.102663 233.924,271.9 C231.930657,272.697337 230.228674,273.862659 228.818,275.396 C227.407326,276.929341 226.303337,278.815322 225.506,281.054 C224.708663,283.292678 224.31,285.853319 224.31,288.736 C224.31,291.864016 224.723996,294.531989 225.552,296.74 C226.380004,298.948011 227.391994,300.741993 228.588,302.122 C229.784006,303.502007 231.05666,304.498664 232.406,305.112 C233.75534,305.725336 234.951328,306.032 235.994,306.032 L235.994,312.656 Z M310.238,292.232 C310.238,295.237348 309.778005,297.997321 308.858,300.512 C307.937995,303.026679 306.604009,305.173324 304.856,306.952 C303.107991,308.730676 301.007346,310.125995 298.554,311.138 C296.100654,312.150005 293.371348,312.656 290.366,312.656 C286.563314,312.656 283.420012,312.165338 280.936,311.184 C278.451988,310.202662 276.474007,308.807342 275.002,306.998 C273.529993,305.188658 272.50267,303.011346 271.92,300.466 C271.33733,297.920654 271.046,295.053349 271.046,291.864 L271.046,248.256 L278.682,248.256 L278.682,290.852 C278.682,295.820025 279.571324,299.60732 281.35,302.214 C283.128676,304.82068 286.072646,306.124 290.182,306.124 C294.046019,306.124 297.051323,304.989345 299.198,302.72 C301.344677,300.450655 302.418,297.230688 302.418,293.06 C302.418,290.913323 302.096003,289.073341 301.452,287.54 C300.807997,286.006659 300.010671,284.596006 299.06,283.308 C298.109329,282.019994 297.082006,280.793339 295.978,279.628 C294.873994,278.462661 293.846671,277.20534 292.896,275.856 C291.945329,274.50666 291.148003,272.988675 290.504,271.302 C289.859997,269.615325 289.538,267.606678 289.538,265.276 L297.266,265.276 C297.266,267.177343 297.587997,268.848659 298.232,270.29 C298.876003,271.731341 299.673329,273.095994 300.624,274.384 C301.574671,275.672006 302.617328,276.929327 303.752,278.156 C304.886672,279.382673 305.929329,280.685993 306.88,282.066 C307.830671,283.446007 308.627997,284.948659 309.272,286.574 C309.916003,288.199341 310.238,290.085323 310.238,292.232 L310.238,292.232 Z M335.17,268.036 C335.17,270.918681 335.46133,273.417989 336.044,275.534 C336.62667,277.650011 337.899324,279.474659 339.862,281.008 C341.640676,282.418674 343.173994,283.706661 344.462,284.872 C345.750006,286.037339 346.807996,287.24866 347.636,288.506 C348.464004,289.76334 349.077331,291.112659 349.476,292.554 C349.874669,293.995341 350.074,295.666657 350.074,297.568 C350.074,299.59201 349.706004,301.523991 348.97,303.364 C348.233996,305.204009 347.160674,306.813993 345.75,308.194 C344.339326,309.574007 342.637343,310.662663 340.644,311.46 C338.650657,312.257337 336.366013,312.656 333.79,312.656 C331.459322,312.656 329.312676,312.349336 327.35,311.736 C325.387324,311.122664 323.700674,310.218006 322.29,309.022 C320.879326,307.825994 319.775337,306.323342 318.978,304.514 C318.180663,302.704658 317.782,300.604012 317.782,298.212 C317.782,297.475996 317.797333,296.801336 317.828,296.188 C317.858667,295.574664 317.904666,295.022669 317.966,294.532 C318.027334,293.979997 318.088666,293.458669 318.15,292.968 L325.97,293.06 C325.908666,293.366668 325.847334,293.765331 325.786,294.256 C325.724666,294.685335 325.694,295.221997 325.694,295.866 L325.694,298.12 C325.694,299.040005 325.862665,299.959995 326.2,300.88 C326.537335,301.800005 327.058663,302.643329 327.764,303.41 C328.469337,304.176671 329.327995,304.789998 330.34,305.25 C331.352005,305.710002 332.53266,305.94 333.882,305.94 C336.58068,305.94 338.635326,305.158008 340.046,303.594 C341.456674,302.029992 342.162,300.174677 342.162,298.028 C342.162,296.310658 341.978002,294.838673 341.61,293.612 C341.241998,292.385327 340.705337,291.312005 340,290.392 C339.294663,289.471995 338.466671,288.62867 337.516,287.862 C336.565329,287.095329 335.538006,286.313337 334.434,285.516 C332.961993,284.411994 331.750671,283.308006 330.8,282.204 C329.849329,281.099994 329.098003,279.888673 328.546,278.57 C327.993997,277.251327 327.610668,275.733342 327.396,274.016 C327.181332,272.298658 327.074,270.305345 327.074,268.036 L335.17,268.036 Z" id="-ქისა" fill="#BABABD" sketch:type="MSShapeGroup"></path>
                <path d="M0,181 L465,181" id="Path-1" stroke="#BABABD" sketch:type="MSShapeGroup"></path>
                <path d="M169.984,70.312 L169.984,136 L178.724,136 L178.724,105.916 L208.9,105.916 L208.9,98.556 L178.724,98.556 L178.724,77.672 L213.132,77.672 L213.132,70.312 L169.984,70.312 Z M229.784,79.88 L229.784,70.312 L221.964,70.312 L221.964,79.88 L229.784,79.88 Z M221.964,88.436 L221.964,136 L229.784,136 L229.784,88.436 L221.964,88.436 Z M246.712,121.004 L238.892,121.004 C239.014667,123.948015 239.627994,126.447323 240.732,128.502 C241.836006,130.556677 243.307991,132.21266 245.148,133.47 C246.988009,134.72734 249.103988,135.631997 251.496,136.184 C253.888012,136.736003 256.402653,137.012 259.04,137.012 C261.432012,137.012 263.839321,136.782002 266.262,136.322 C268.684679,135.861998 270.86199,135.049339 272.794,133.884 C274.72601,132.718661 276.289994,131.185343 277.486,129.284 C278.682006,127.382657 279.28,124.990681 279.28,122.108 C279.28,119.838655 278.835338,117.937341 277.946,116.404 C277.056662,114.870659 275.891341,113.598005 274.45,112.586 C273.008659,111.573995 271.352676,110.761336 269.482,110.148 C267.611324,109.534664 265.694676,109.013335 263.732,108.584 C261.891991,108.154665 260.052009,107.740669 258.212,107.342 C256.371991,106.943331 254.716007,106.45267 253.244,105.87 C251.771993,105.28733 250.560671,104.551338 249.61,103.662 C248.659329,102.772662 248.184,101.65334 248.184,100.304 C248.184,99.0773272 248.490664,98.0806705 249.104,97.314 C249.717336,96.5473295 250.514662,95.9340023 251.496,95.474 C252.477338,95.0139977 253.565994,94.6920009 254.762,94.508 C255.958006,94.3239991 257.138661,94.232 258.304,94.232 C259.592006,94.232 260.86466,94.3699986 262.122,94.646 C263.37934,94.9220014 264.529328,95.3666636 265.572,95.98 C266.614672,96.5933364 267.47333,97.4059949 268.148,98.418 C268.82267,99.4300051 269.221333,100.702659 269.344,102.236 L277.164,102.236 C276.979999,99.3533189 276.366672,96.9460097 275.324,95.014 C274.281328,93.0819903 272.886009,91.5486723 271.138,90.414 C269.389991,89.2793277 267.381345,88.4820023 265.112,88.022 C262.842655,87.5619977 260.35868,87.332 257.66,87.332 C255.574656,87.332 253.474011,87.5926641 251.358,88.114 C249.241989,88.6353359 247.340675,89.4326613 245.654,90.506 C243.967325,91.5793387 242.587339,92.9746581 241.514,94.692 C240.440661,96.4093419 239.904,98.463988 239.904,100.856 C239.904,103.922682 240.670659,106.314658 242.204,108.032 C243.737341,109.749342 245.653988,111.083329 247.954,112.034 C250.254011,112.984671 252.75332,113.720664 255.452,114.242 C258.15068,114.763336 260.649988,115.345997 262.95,115.99 C265.250011,116.634003 267.166659,117.477328 268.7,118.52 C270.233341,119.562672 271,121.09599 271,123.12 C271,124.592007 270.632004,125.803329 269.896,126.754 C269.159996,127.704671 268.224672,128.425331 267.09,128.916 C265.955328,129.406669 264.71334,129.743999 263.364,129.928 C262.01466,130.112001 260.726673,130.204 259.5,130.204 C257.905325,130.204 256.356674,130.050668 254.854,129.744 C253.351326,129.437332 252.002006,128.931337 250.806,128.226 C249.609994,127.520663 248.644004,126.570006 247.908,125.374 C247.171996,124.177994 246.773334,122.721342 246.712,121.004 L246.712,121.004 Z M287.928,70.312 L287.928,136 L295.748,136 L295.748,109.136 C295.748,106.989323 296.03933,105.011342 296.622,103.202 C297.20467,101.392658 298.078661,99.8133401 299.244,98.464 C300.409339,97.1146599 301.865991,96.0720037 303.614,95.336 C305.362009,94.5999963 307.431988,94.232 309.824,94.232 C312.829348,94.232 315.190658,95.0906581 316.908,96.808 C318.625342,98.5253419 319.484,100.855985 319.484,103.8 L319.484,136 L327.304,136 L327.304,104.72 C327.304,102.143987 327.043336,99.7980106 326.522,97.682 C326.000664,95.5659894 325.096006,93.741341 323.808,92.208 C322.519994,90.674659 320.833344,89.478671 318.748,88.62 C316.662656,87.761329 314.056016,87.332 310.928,87.332 C309.517326,87.332 308.060674,87.4853318 306.558,87.792 C305.055326,88.0986682 303.614007,88.5739968 302.234,89.218 C300.853993,89.8620032 299.612006,90.6899949 298.508,91.702 C297.403994,92.7140051 296.545336,93.9559926 295.932,95.428 L295.748,95.428 L295.748,70.312 L287.928,70.312 Z" id="Fish" fill="#BABABD" sketch:type="MSShapeGroup"></path>
                <path d="M287.920859,70.3116338 L287.920859,88.9996335 L295.740859,88.9996335 L295.740859,70.3116338 L287.920859,70.3116338 Z" id="Fish" fill="#666666" sketch:type="MSShapeGroup"></path>
                <path d="M209.384655,247.428 L209.384655,269 L201.748655,269 L201.748655,247.428 L209.384655,247.428 Z M271.024062,269 L271.024062,248.256 L278.660062,248.256 L278.660062,269 L271.024062,269 Z" id="-ქისა-copy" fill="#666666" sketch:type="MSShapeGroup"></path>
            </g>
        </g>
    </g>
</svg>