<?xml version="1.0" encoding="UTF-8" standalone="no"?>
<svg width="465px" height="360px" viewBox="0 0 465 360" version="1.1" xmlns="http://www.w3.org/2000/svg" xmlns:xlink="http://www.w3.org/1999/xlink" xmlns:sketch="http://www.bohemiancoding.com/sketch/ns">
    <!-- Generator: Sketch Beta 3.4.4 (17258) - http://www.bohemiancoding.com/sketch -->
    <title>Baseline</title>
    <desc>Created with Sketch Beta.</desc>
    <defs></defs>
    <g id="Outline" stroke="none" stroke-width="1" fill="none" fill-rule="evenodd" sketch:type="MSPage">
        <g id="Baseline" sketch:type="MSArtboardGroup">
            <g id="Group" sketch:type="MSLayerGroup">
                <g id="Tag">
                    <rect id="Rectangle-1" fill="#BABABD" sketch:type="MSShapeGroup" x="0" y="0" width="30" height="360"></rect>
                    <text id="აღმავალი" sketch:type="MSTextLayer" transform="translate(13.500000, 270.500000) rotate(-90.000000) translate(-13.500000, -270.500000) " font-family="BG Courier" font-size="21" font-weight="normal" sketch:alignment="middle" fill="#646466">
                        <tspan x="-50.172" y="275">ფუძის ხაზი</tspan>
                    </text>
                    <text id="ascender" sketch:type="MSTextLayer" transform="translate(14.500000, 90.500000) rotate(-90.000000) translate(-14.500000, -90.500000) " font-family="BG Courier" font-size="21" font-weight="normal" sketch:alignment="middle" fill="#646466">
                        <tspan x="-35.9" y="95">baseline</tspan>
                    </text>
                </g>
                <g id="Baseline" transform="translate(30.000000, 134.000000)" stroke="#BABABD" sketch:type="MSShapeGroup">
                    <path d="M0,177 L434,177" id="Baseline-Copy-2"></path>
                    <path d="M0,1 L434,1" id="Baseline-Copy"></path>
                </g>
                <g id="Baseline" transform="translate(30.000000, 134.000000)" stroke="#666666" stroke-width="2" sketch:type="MSShapeGroup">
                    <path d="M0,177 L434,177" id="Baseline-Copy-2"></path>
                    <path d="M0,1 L434,1" id="Baseline-Copy"></path>
                </g>
                <path d="M181.3,98.556 L181.3,77.672 L198.78,77.672 C200.681343,77.672 202.475325,77.7793323 204.162,77.994 C205.848675,78.2086677 207.335994,78.6839963 208.624,79.42 C209.912006,80.1560037 210.923996,81.1986599 211.66,82.548 C212.396004,83.8973401 212.764,85.7373217 212.764,88.068 C212.764,91.5640175 211.675344,94.1859913 209.498,95.934 C207.320656,97.6820087 203.748025,98.556 198.78,98.556 L181.3,98.556 Z M172.56,70.312 L172.56,136 L204.3,136 C207.550683,136 210.417988,135.463339 212.902,134.39 C215.386012,133.316661 217.471325,131.906009 219.158,130.158 C220.844675,128.409991 222.117329,126.401345 222.976,124.132 C223.834671,121.862655 224.264,119.532012 224.264,117.14 C224.264,113.09198 223.190677,109.657347 221.044,106.836 C218.897323,104.014653 215.80002,102.174671 211.752,101.316 L211.752,101.132 C214.880016,99.9053272 217.287325,98.0193461 218.974,95.474 C220.660675,92.9286539 221.504,89.9080175 221.504,86.412 C221.504,83.0999834 220.752674,80.3093447 219.25,78.04 C217.747326,75.7706553 215.922677,73.9920064 213.776,72.704 C212.794662,72.0906636 211.614007,71.6306682 210.234,71.324 C208.853993,71.0173318 207.366675,70.7873341 205.772,70.634 C204.177325,70.4806659 202.567341,70.3886668 200.942,70.358 C199.316659,70.3273332 197.798674,70.312 196.388,70.312 L172.56,70.312 Z M181.3,128.64 L181.3,105.916 L201.264,105.916 C203.104009,105.916 204.882658,106.084665 206.6,106.422 C208.317342,106.759335 209.835327,107.341996 211.154,108.17 C212.472673,108.998004 213.530663,110.117326 214.328,111.528 C215.125337,112.938674 215.524,114.717323 215.524,116.864 C215.524,120.544018 214.435344,123.426656 212.258,125.512 C210.080656,127.597344 207.060019,128.64 203.196,128.64 L181.3,128.64 Z M276.428,135.816 C275.07866,136.613337 273.208012,137.012 270.816,137.012 C268.79199,137.012 267.182006,136.444672 265.986,135.31 C264.789994,134.175328 264.192,132.320013 264.192,129.744 C262.045323,132.320013 259.546014,134.175328 256.694,135.31 C253.841986,136.444672 250.760017,137.012 247.448,137.012 C245.301323,137.012 243.26201,136.766669 241.33,136.276 C239.39799,135.785331 237.726674,135.018672 236.316,133.976 C234.905326,132.933328 233.786004,131.568675 232.958,129.882 C232.129996,128.195325 231.716,126.156012 231.716,123.764 C231.716,121.06532 232.175995,118.857342 233.096,117.14 C234.016005,115.422658 235.227326,114.027339 236.73,112.954 C238.232674,111.880661 239.94999,111.068003 241.882,110.516 C243.81401,109.963997 245.79199,109.504002 247.816,109.136 C249.962677,108.706665 252.00199,108.384668 253.934,108.17 C255.86601,107.955332 257.567993,107.648669 259.04,107.25 C260.512007,106.851331 261.677329,106.268671 262.536,105.502 C263.394671,104.73533 263.824,103.616007 263.824,102.144 C263.824,100.426658 263.502003,99.0466719 262.858,98.004 C262.213997,96.9613281 261.386005,96.1640028 260.374,95.612 C259.361995,95.0599972 258.22734,94.6920009 256.97,94.508 C255.71266,94.3239991 254.470673,94.232 253.244,94.232 C249.931983,94.232 247.172011,94.8606604 244.964,96.118 C242.755989,97.3753396 241.560001,99.7519825 241.376,103.248 L233.556,103.248 C233.678667,100.303985 234.291994,97.8200101 235.396,95.796 C236.500006,93.7719899 237.971991,92.1313396 239.812,90.874 C241.652009,89.6166604 243.752655,88.7120028 246.114,88.16 C248.475345,87.6079972 251.00532,87.332 253.704,87.332 C255.850677,87.332 257.981989,87.4853318 260.098,87.792 C262.214011,88.0986682 264.130658,88.7273286 265.848,89.678 C267.565342,90.6286714 268.945328,91.9626581 269.988,93.68 C271.030672,95.3973419 271.552,97.6359862 271.552,100.396 L271.552,124.868 C271.552,126.708009 271.659332,128.057329 271.874,128.916 C272.088668,129.774671 272.809327,130.204 274.036,130.204 C274.71067,130.204 275.507995,130.050668 276.428,129.744 L276.428,135.816 Z M263.732,111.436 C262.750662,112.172004 261.462675,112.708665 259.868,113.046 C258.273325,113.383335 256.602009,113.659332 254.854,113.874 C253.105991,114.088668 251.342676,114.333999 249.564,114.61 C247.785324,114.886001 246.190674,115.330664 244.78,115.944 C243.369326,116.557336 242.219338,117.431328 241.33,118.566 C240.440662,119.700672 239.996,121.249324 239.996,123.212 C239.996,124.500006 240.256664,125.588662 240.778,126.478 C241.299336,127.367338 241.973996,128.087997 242.802,128.64 C243.630004,129.192003 244.595994,129.590665 245.7,129.836 C246.804006,130.081335 247.969327,130.204 249.196,130.204 C251.772013,130.204 253.979991,129.851337 255.82,129.146 C257.660009,128.440663 259.162661,127.551339 260.328,126.478 C261.493339,125.404661 262.351997,124.23934 262.904,122.982 C263.456003,121.72466 263.732,120.544006 263.732,119.44 L263.732,111.436 Z M324.728,131.952 L324.728,88.436 L317.368,88.436 L317.368,95.244 L317.276,95.244 C315.865326,92.6066535 313.902679,90.6286733 311.388,89.31 C308.873321,87.9913267 306.113348,87.332 303.108,87.332 C298.998646,87.332 295.533347,88.1139922 292.712,89.678 C289.890653,91.2420078 287.621342,93.2353212 285.904,95.658 C284.186658,98.0806788 282.960004,100.779318 282.224,103.754 C281.487996,106.728682 281.12,109.626653 281.12,112.448 C281.12,115.698683 281.564662,118.780652 282.454,121.694 C283.343338,124.607348 284.677324,127.152656 286.456,129.33 C288.234676,131.507344 290.442653,133.239994 293.08,134.528 C295.717347,135.816006 298.814649,136.46 302.372,136.46 C305.438682,136.46 308.336653,135.770007 311.066,134.39 C313.795347,133.009993 315.83466,130.848015 317.184,127.904 L317.368,127.904 L317.368,131.032 C317.368,133.669347 317.107336,136.091989 316.586,138.3 C316.064664,140.508011 315.221339,142.393992 314.056,143.958 C312.890661,145.522008 311.418676,146.748662 309.64,147.638 C307.861324,148.527338 305.684013,148.972 303.108,148.972 C301.819994,148.972 300.470674,148.834001 299.06,148.558 C297.649326,148.281999 296.346006,147.837336 295.15,147.224 C293.953994,146.610664 292.942004,145.813338 292.114,144.832 C291.285996,143.850662 290.841334,142.654674 290.78,141.244 L282.96,141.244 C283.082667,143.820013 283.757327,145.997324 284.984,147.776 C286.210673,149.554676 287.759324,150.995994 289.63,152.1 C291.500676,153.204006 293.585988,154.001331 295.886,154.492 C298.186011,154.982669 300.439989,155.228 302.648,155.228 C310.253371,155.228 315.834649,153.296019 319.392,149.432 C322.949351,145.567981 324.728,139.741372 324.728,131.952 L324.728,131.952 Z M302.832,129.652 C300.255987,129.652 298.109342,129.115339 296.392,128.042 C294.674658,126.968661 293.294672,125.558009 292.252,123.81 C291.209328,122.061991 290.473335,120.114677 290.044,117.968 C289.614665,115.821323 289.4,113.674677 289.4,111.528 C289.4,109.258655 289.660664,107.081344 290.182,104.996 C290.703336,102.910656 291.531328,101.070675 292.666,99.476 C293.800672,97.8813254 295.257324,96.6086714 297.036,95.658 C298.814676,94.7073286 300.961321,94.232 303.476,94.232 C305.929346,94.232 308.014658,94.7226618 309.732,95.704 C311.449342,96.6853382 312.844661,97.9886585 313.918,99.614 C314.991339,101.239341 315.773331,103.06399 316.264,105.088 C316.754669,107.11201 317,109.166656 317,111.252 C317,113.460011 316.739336,115.667989 316.218,117.876 C315.696664,120.084011 314.884006,122.061991 313.78,123.81 C312.675994,125.558009 311.219342,126.968661 309.41,128.042 C307.600658,129.115339 305.408013,129.652 302.832,129.652 L302.832,129.652 Z" id="Bag" fill="#BABABD" sketch:type="MSShapeGroup"></path>
                <path d="M178.402,282.296 C178.402,280.94666 178.616665,279.244677 179.046,277.19 C179.475335,275.135323 180.36466,273.14201 181.714,271.21 C183.06334,269.27799 184.979988,267.622007 187.464,266.242 C189.948012,264.861993 193.21398,264.172 197.262,264.172 C200.819351,264.172 203.778655,264.723994 206.14,265.828 C208.501345,266.932006 210.371993,268.296659 211.752,269.922 C213.132007,271.547341 214.097997,273.295324 214.65,275.166 C215.202003,277.036676 215.478,278.769325 215.478,280.364 C215.478,282.326676 215.171336,284.181991 214.558,285.93 C213.944664,287.678009 213.147338,289.241993 212.166,290.622 C211.184662,292.002007 210.034673,293.151995 208.716,294.072 C207.397327,294.992005 206.06334,295.543999 204.714,295.728 C206.308675,295.850667 207.933992,296.24933 209.59,296.924 C211.246008,297.59867 212.763993,298.56466 214.144,299.822 C215.524007,301.07934 216.658662,302.627991 217.548,304.468 C218.437338,306.308009 218.882,308.454654 218.882,310.908 C218.882,313.729347 218.391338,316.335988 217.41,318.728 C216.428662,321.120012 214.97201,323.159325 213.04,324.846 C211.10799,326.532675 208.746681,327.851329 205.956,328.802 C203.165319,329.752671 199.930018,330.228 196.25,330.228 C189.073964,330.228 183.906682,328.388018 180.748,324.708 C177.589318,321.027982 176.01,315.416038 176.01,307.872 L183.646,307.872 C183.646,312.962692 184.719323,316.872653 186.866,319.602 C189.012677,322.331347 192.293978,323.696 196.71,323.696 C198.73401,323.696 200.619991,323.450669 202.368,322.96 C204.116009,322.469331 205.633994,321.718005 206.922,320.706 C208.210006,319.693995 209.221996,318.452007 209.958,316.98 C210.694004,315.507993 211.062,313.790676 211.062,311.828 C211.062,309.558655 210.648004,307.657341 209.82,306.124 C208.991996,304.590659 207.90334,303.333338 206.554,302.352 C205.20466,301.370662 203.625342,300.665335 201.816,300.236 C200.006658,299.806665 198.151343,299.592 196.25,299.592 C195.452663,299.592 194.793336,299.607333 194.272,299.638 C193.750664,299.668667 193.306002,299.714666 192.938,299.776 C192.508665,299.837334 192.140668,299.898666 191.834,299.96 L191.742,292.784 C191.987335,292.845334 192.355331,292.906666 192.846,292.968 C193.214002,293.029334 193.704664,293.06 194.318,293.06 L196.526,293.06 C197.752673,293.06 199.025327,292.876002 200.344,292.508 C201.662673,292.139998 202.858661,291.496005 203.932,290.576 C205.005339,289.655995 205.894663,288.429341 206.6,286.896 C207.305337,285.362659 207.658,283.430678 207.658,281.1 C207.658,278.033318 206.630677,275.549343 204.576,273.648 C202.521323,271.746657 199.930016,270.796 196.802,270.796 C194.655323,270.796 192.90734,271.209996 191.558,272.038 C190.20866,272.866004 189.150671,273.862661 188.384,275.028 C187.61733,276.193339 187.080668,277.45066 186.774,278.8 C186.467332,280.14934 186.314,281.314662 186.314,282.296 L178.402,282.296 Z M245.194,312.656 C242.188652,312.656 239.474679,312.104006 237.052,311 C234.629321,309.895994 232.574675,308.33201 230.888,306.308 C229.201325,304.28399 227.898005,301.846014 226.978,298.994 C226.057995,296.141986 225.598,292.968017 225.598,289.472 C225.598,285.853315 226.134661,282.495349 227.208,279.398 C228.281339,276.300651 229.860656,273.617345 231.946,271.348 C234.031344,269.078655 236.591985,267.300006 239.628,266.012 C242.664015,264.723994 246.144647,264.08 250.07,264.08 C253.995353,264.08 257.445318,264.723994 260.42,266.012 C263.394682,267.300006 265.878657,269.063322 267.872,271.302 C269.865343,273.540678 271.367995,276.193318 272.38,279.26 C273.392005,282.326682 273.898,285.607983 273.898,289.104 C273.898,292.048015 273.438005,294.930653 272.518,297.752 C271.597995,300.573347 270.310008,303.087989 268.654,305.296 C266.997992,307.504011 265.004678,309.28266 262.674,310.632 C260.343322,311.98134 257.767347,312.656 254.946,312.656 L254.946,306.032 C255.927338,306.032 257.061994,305.710003 258.35,305.066 C259.638006,304.421997 260.833994,303.410007 261.938,302.03 C263.042006,300.649993 263.97733,298.856011 264.744,296.648 C265.510671,294.439989 265.894,291.802682 265.894,288.736 C265.894,285.791985 265.495337,283.200678 264.698,280.962 C263.900663,278.723322 262.781341,276.837341 261.34,275.304 C259.898659,273.770659 258.181343,272.620671 256.188,271.854 C254.194657,271.08733 252.002012,270.704 249.61,270.704 C247.279322,270.704 245.117343,271.102663 243.124,271.9 C241.130657,272.697337 239.428674,273.862659 238.018,275.396 C236.607326,276.929341 235.503337,278.815322 234.706,281.054 C233.908663,283.292678 233.51,285.853319 233.51,288.736 C233.51,291.864016 233.923996,294.531989 234.752,296.74 C235.580004,298.948011 236.591994,300.741993 237.788,302.122 C238.984006,303.502007 240.25666,304.498664 241.606,305.112 C242.95534,305.725336 244.151328,306.032 245.194,306.032 L245.194,312.656 Z M280.246,253.868 C280.246,251.475988 280.613996,249.789338 281.35,248.808 C282.086004,247.826662 283.220659,247.336 284.754,247.336 C285.980673,247.336 287.237994,247.535331 288.526,247.934 C289.814006,248.332669 291.193993,248.761998 292.666,249.222 C294.138007,249.682002 295.732658,250.095998 297.45,250.464 C299.167342,250.832002 301.099323,251.016 303.246,251.016 C305.331344,251.016 307.263324,250.847335 309.042,250.51 C310.820676,250.172665 312.353994,249.789335 313.642,249.36 C315.175341,248.869331 316.524661,248.28667 317.69,247.612 L317.69,254.512 C316.647328,255.125336 315.390007,255.677331 313.918,256.168 C312.691327,256.597335 311.173342,256.965332 309.364,257.272 C307.554658,257.578668 305.484678,257.732 303.154,257.732 C300.823322,257.732 298.722676,257.609335 296.852,257.364 C294.981324,257.118665 293.402006,256.842668 292.114,256.536 C290.580659,256.167998 289.262006,255.738669 288.158,255.248 L288.158,265.644 C288.219334,267.054674 288.158001,268.633991 287.974,270.382 C287.789999,272.130009 287.606001,273.525328 287.422,274.568 C288.832674,272.850658 290.687989,271.36334 292.988,270.106 C295.288012,268.84866 298.185983,268.22 301.682,268.22 C304.503347,268.22 307.079322,268.572663 309.41,269.278 C311.740678,269.983337 313.764658,271.148659 315.482,272.774 C317.199342,274.399341 318.533329,276.56132 319.484,279.26 C320.434671,281.95868 320.91,285.301313 320.91,289.288 C320.91,292.722684 320.480671,295.865986 319.622,298.718 C318.763329,301.570014 317.475342,304.023323 315.758,306.078 C314.040658,308.132677 311.848013,309.742661 309.18,310.908 C306.511987,312.073339 303.399351,312.656 299.842,312.656 C295.79398,312.656 292.497346,311.935341 289.952,310.494 C287.406654,309.052659 285.413341,307.105346 283.972,304.652 C282.530659,302.198654 281.549336,299.33135 281.028,296.05 C280.506664,292.76865 280.246,289.288018 280.246,285.608 L280.246,253.868 Z M299.934,274.752 C298.216658,274.752 296.622007,275.104663 295.15,275.81 C293.677993,276.515337 292.390006,277.511994 291.286,278.8 C290.181994,280.088006 289.29267,281.605991 288.618,283.354 C287.94333,285.102009 287.575334,287.018656 287.514,289.104 C287.575334,291.312011 287.835998,293.42799 288.296,295.452 C288.756002,297.47601 289.491995,299.269992 290.504,300.834 C291.516005,302.398008 292.819325,303.655329 294.414,304.606 C296.008675,305.556671 297.971322,306.032 300.302,306.032 C304.595355,306.032 307.799989,304.529348 309.916,301.524 C312.032011,298.518652 313.09,294.501358 313.09,289.472 C313.09,284.381308 311.878679,280.655345 309.456,278.294 C307.033321,275.932655 303.859353,274.752 299.934,274.752 L299.934,274.752 Z" id="ვინ" fill="#BABABD" sketch:type="MSShapeGroup"></path>
                <path d="M0,181 L465,181" id="Path-1" stroke="#BABABD" sketch:type="MSShapeGroup"></path>
            </g>
        </g>
    </g>
</svg>