<?xml version="1.0" encoding="UTF-8" standalone="no"?>
<svg width="465px" height="360px" viewBox="0 0 465 360" version="1.1" xmlns="http://www.w3.org/2000/svg" xmlns:xlink="http://www.w3.org/1999/xlink" xmlns:sketch="http://www.bohemiancoding.com/sketch/ns">
    <!-- Generator: Sketch Beta 3.4.4 (17258) - http://www.bohemiancoding.com/sketch -->
    <title>Bowl</title>
    <desc>Created with Sketch Beta.</desc>
    <defs></defs>
    <g id="Outline" stroke="none" stroke-width="1" fill="none" fill-rule="evenodd" sketch:type="MSPage">
        <g id="Bowl" sketch:type="MSArtboardGroup">
            <g id="Group" sketch:type="MSLayerGroup">
                <g id="Tag" sketch:type="MSShapeGroup">
                    <rect id="Rectangle-1" fill="#BABABD" x="0" y="0" width="30" height="360"></rect>
                    <path d="M0.312,278.276 C0.312,279.389 -0.549,280.25 -1.662,280.25 C-2.586,280.25 -3.216,279.809 -3.531,278.927 L-5.169,274.433 L-7.815,276.575 C-6.387,276.764 -5.421,277.877 -5.421,279.326 C-5.421,280.985 -6.513,282.077 -8.193,282.077 L-8.571,282.077 C-9.432,282.077 -10.272,281.678 -11.112,280.901 L-10.566,280.292 C-9.873,280.943 -9.222,281.258 -8.571,281.258 L-8.193,281.258 C-7.08,281.258 -6.24,280.418 -6.24,279.326 C-6.24,278.213 -7.08,277.373 -8.193,277.373 C-8.382,277.373 -8.655,277.436 -9.012,277.562 L-9.012,276.512 L-5.484,273.614 L-7.08,269.267 C-7.332,268.574 -7.815,268.238 -8.55,268.238 C-9.453,268.238 -10.125,268.91 -10.125,269.813 C-10.125,270.422 -9.726,270.947 -8.928,271.388 L-9.327,272.102 C-10.398,271.535 -10.944,270.758 -10.944,269.813 C-10.944,268.406 -9.957,267.419 -8.55,267.419 C-7.437,267.419 -6.702,267.944 -6.303,268.973 L-4.812,273.068 L-0.759,269.771 C-0.591,269.624 -0.507,269.414 -0.507,269.12 C-0.507,268.637 -0.906,268.238 -1.389,268.238 L-4.413,268.238 L-4.413,267.419 L-1.389,267.419 C-0.444,267.419 0.312,268.175 0.312,269.12 C0.312,269.666 0.123,270.086 -0.255,270.401 L-4.518,273.887 L-2.754,278.633 C-2.565,279.158 -2.187,279.431 -1.662,279.431 C-1.011,279.431 -0.507,278.927 -0.507,278.276 C-0.507,277.625 -0.969,277.205 -1.872,277.058 L-1.725,276.26 L-1.326,276.323 C-0.381,276.491 0.312,277.289 0.312,278.276 L0.312,278.276 Z M11.715,271.451 C11.715,274.034 9.825,275.42 7.2,275.42 C4.68,275.42 2.685,273.908 2.685,271.451 C2.685,270.758 2.937,270.002 3.42,269.162 L4.134,269.582 L3.924,269.918 C3.651,270.401 3.525,270.905 3.525,271.451 C3.525,273.488 5.121,274.58 7.2,274.58 C9.279,274.58 10.896,273.467 10.896,271.451 C10.896,270.422 10.518,269.666 9.762,269.141 L7.473,267.839 C6.801,267.356 6.36,266.684 6.15,265.865 L6.045,265.466 L6.843,265.277 C7.158,266.6 7.851,267.398 8.901,267.713 C10.581,268.196 11.715,269.687 11.715,271.451 L11.715,271.451 Z M24.315,264.269 L24.294,271.43 C24.294,273.782 22.677,275.42 20.304,275.42 C17.7,275.42 16.314,273.236 16.314,271.409 C16.314,268.889 18.435,267.419 20.304,267.419 C21.627,267.419 22.698,267.965 23.475,269.036 L23.496,264.269 C23.496,261.77 21.312,261.056 19.8,261.056 C17.763,261.056 16.125,262.274 16.125,264.29 C16.125,264.752 16.272,265.319 16.587,265.991 L15.831,266.348 C15.474,265.55 15.285,264.857 15.285,264.29 C15.285,261.686 17.175,260.237 19.8,260.237 C22.341,260.237 24.315,261.77 24.315,264.269 L24.315,264.269 Z M23.475,271.43 C23.475,271.01 23.433,270.674 23.328,270.422 C22.887,269.141 21.669,268.238 20.304,268.238 C18.393,268.238 17.133,269.498 17.133,271.409 C17.133,273.32 18.393,274.58 20.304,274.58 C22.236,274.58 23.475,273.341 23.475,271.43 L23.475,271.43 Z M36.894,271.619 C36.81,272.984 36.264,274.286 35.277,275.567 L34.626,275.063 C35.508,273.929 35.991,272.774 36.075,271.619 C35.907,269.624 34.395,268.238 32.4,268.238 C30.405,268.238 28.893,269.624 28.725,271.619 C28.809,272.774 29.292,273.929 30.174,275.063 L29.523,275.567 L29.271,275.252 C28.452,274.181 27.99,272.984 27.906,271.619 C28.074,269.162 29.943,267.419 32.4,267.419 C34.857,267.419 36.726,269.162 36.894,271.619 L36.894,271.619 Z" id="აღმავალი" fill="#646466" transform="translate(13.794000, 271.157000) rotate(-90.000000) translate(-13.794000, -271.157000) "></path>
                    <path d="M0.682,90.548 C0.682,93.215 -1.25,95.336 -3.875,95.336 C-5.387,95.336 -6.647,94.664 -7.634,93.299 L-7.634,95 L-9.671,95 C-9.86,95 -10.007,94.958 -10.112,94.874 C-10.196,94.79 -10.238,94.685 -10.238,94.559 C-10.238,94.433 -10.196,94.328 -10.112,94.265 C-10.007,94.181 -9.86,94.139 -9.671,94.139 L-8.516,94.139 L-8.516,83.009 L-9.671,83.009 C-10.049,83.009 -10.238,82.862 -10.238,82.568 C-10.238,82.274 -10.049,82.127 -9.671,82.127 L-7.634,82.127 L-7.634,87.839 C-6.605,86.474 -5.345,85.802 -3.875,85.802 C-1.208,85.802 0.682,87.86 0.682,90.548 L0.682,90.548 Z M-0.179,90.59 C-0.179,88.406 -1.733,86.684 -3.896,86.684 C-6.059,86.684 -7.634,88.406 -7.634,90.59 C-7.634,92.753 -6.059,94.475 -3.896,94.475 C-1.733,94.475 -0.179,92.753 -0.179,90.59 L-0.179,90.59 Z M8.2,85.802 C10.951,85.802 13.009,87.839 13.009,90.59 C13.009,93.278 10.909,95.336 8.2,95.336 C5.449,95.336 3.391,93.341 3.391,90.59 C3.391,87.839 5.491,85.802 8.2,85.802 L8.2,85.802 Z M8.2,86.684 C5.932,86.684 4.252,88.322 4.252,90.59 C4.252,92.837 5.953,94.475 8.2,94.475 C10.447,94.475 12.148,92.837 12.148,90.59 C12.148,88.322 10.447,86.684 8.2,86.684 L8.2,86.684 Z M26.512,86.558 C26.512,86.852 26.323,86.999 25.924,86.999 L25.525,86.999 L23.761,95 L22.711,95 L20.8,89.477 L18.91,95 L17.86,95 L16.075,86.999 L15.655,86.999 C15.256,86.999 15.067,86.852 15.067,86.558 C15.067,86.264 15.256,86.117 15.655,86.117 L18.007,86.117 C18.406,86.117 18.595,86.264 18.595,86.558 C18.595,86.852 18.406,86.999 18.007,86.999 L16.915,86.999 L18.448,93.824 L20.275,88.364 L21.304,88.364 L23.194,93.824 L24.664,86.999 L23.572,86.999 C23.173,86.999 22.984,86.852 22.984,86.558 C22.984,86.264 23.173,86.117 23.572,86.117 L25.924,86.117 C26.323,86.117 26.512,86.264 26.512,86.558 L26.512,86.558 Z M37.81,94.559 C37.81,94.853 37.621,95 37.222,95 L29.599,95 C29.2,95 29.011,94.853 29.011,94.559 C29.011,94.286 29.2,94.139 29.599,94.139 L32.98,94.139 L32.98,83.009 L30.502,83.009 C30.103,83.009 29.914,82.862 29.914,82.568 C29.914,82.274 30.103,82.127 30.502,82.127 L33.841,82.127 L33.841,94.139 L37.222,94.139 C37.621,94.139 37.81,94.286 37.81,94.559 L37.81,94.559 Z" id="ascender" fill="#646466" transform="translate(14.731000, 88.731500) rotate(-90.000000) translate(-14.731000, -88.731500) "></path>
                </g>
                <path d="M187.878,70.312 L187.878,136 L233.51,136 L233.51,128.64 L196.618,128.64 L196.618,105.916 L230.75,105.916 L230.75,98.556 L196.618,98.556 L196.618,77.672 L233.234,77.672 L233.234,70.312 L187.878,70.312 Z M284.938,135.816 C283.58866,136.613337 281.718012,137.012 279.326,137.012 C277.30199,137.012 275.692006,136.444672 274.496,135.31 C273.299994,134.175328 272.702,132.320013 272.702,129.744 C270.555323,132.320013 268.056014,134.175328 265.204,135.31 C262.351986,136.444672 259.270017,137.012 255.958,137.012 C253.811323,137.012 251.77201,136.766669 249.84,136.276 C247.90799,135.785331 246.236674,135.018672 244.826,133.976 C243.415326,132.933328 242.296004,131.568675 241.468,129.882 C240.639996,128.195325 240.226,126.156012 240.226,123.764 C240.226,121.06532 240.685995,118.857342 241.606,117.14 C242.526005,115.422658 243.737326,114.027339 245.24,112.954 C246.742674,111.880661 248.45999,111.068003 250.392,110.516 C252.32401,109.963997 254.30199,109.504002 256.326,109.136 C258.472677,108.706665 260.51199,108.384668 262.444,108.17 C264.37601,107.955332 266.077993,107.648669 267.55,107.25 C269.022007,106.851331 270.187329,106.268671 271.046,105.502 C271.904671,104.73533 272.334,103.616007 272.334,102.144 C272.334,100.426658 272.012003,99.0466719 271.368,98.004 C270.723997,96.9613281 269.896005,96.1640028 268.884,95.612 C267.871995,95.0599972 266.73734,94.6920009 265.48,94.508 C264.22266,94.3239991 262.980673,94.232 261.754,94.232 C258.441983,94.232 255.682011,94.8606604 253.474,96.118 C251.265989,97.3753396 250.070001,99.7519825 249.886,103.248 L242.066,103.248 C242.188667,100.303985 242.801994,97.8200101 243.906,95.796 C245.010006,93.7719899 246.481991,92.1313396 248.322,90.874 C250.162009,89.6166604 252.262655,88.7120028 254.624,88.16 C256.985345,87.6079972 259.51532,87.332 262.214,87.332 C264.360677,87.332 266.491989,87.4853318 268.608,87.792 C270.724011,88.0986682 272.640658,88.7273286 274.358,89.678 C276.075342,90.6286714 277.455328,91.9626581 278.498,93.68 C279.540672,95.3973419 280.062,97.6359862 280.062,100.396 L280.062,124.868 C280.062,126.708009 280.169332,128.057329 280.384,128.916 C280.598668,129.774671 281.319327,130.204 282.546,130.204 C283.22067,130.204 284.017995,130.050668 284.938,129.744 L284.938,135.816 Z M272.242,111.436 C271.260662,112.172004 269.972675,112.708665 268.378,113.046 C266.783325,113.383335 265.112009,113.659332 263.364,113.874 C261.615991,114.088668 259.852676,114.333999 258.074,114.61 C256.295324,114.886001 254.700674,115.330664 253.29,115.944 C251.879326,116.557336 250.729338,117.431328 249.84,118.566 C248.950662,119.700672 248.506,121.249324 248.506,123.212 C248.506,124.500006 248.766664,125.588662 249.288,126.478 C249.809336,127.367338 250.483996,128.087997 251.312,128.64 C252.140004,129.192003 253.105994,129.590665 254.21,129.836 C255.314006,130.081335 256.479327,130.204 257.706,130.204 C260.282013,130.204 262.489991,129.851337 264.33,129.146 C266.170009,128.440663 267.672661,127.551339 268.838,126.478 C270.003339,125.404661 270.861997,124.23934 271.414,122.982 C271.966003,121.72466 272.242,120.544006 272.242,119.44 L272.242,111.436 Z M303.062,88.436 L303.062,74.176 L295.242,74.176 L295.242,88.436 L287.146,88.436 L287.146,95.336 L295.242,95.336 L295.242,125.604 C295.242,127.812011 295.456665,129.59066 295.886,130.94 C296.315335,132.28934 296.974662,133.331996 297.864,134.068 C298.753338,134.804004 299.918659,135.309999 301.36,135.586 C302.801341,135.862001 304.53399,136 306.558,136 L312.538,136 L312.538,129.1 L308.95,129.1 C307.723327,129.1 306.726671,129.054 305.96,128.962 C305.19333,128.87 304.595335,128.670668 304.166,128.364 C303.736665,128.057332 303.445334,127.628003 303.292,127.076 C303.138666,126.523997 303.062,125.788005 303.062,124.868 L303.062,95.336 L312.538,95.336 L312.538,88.436 L303.062,88.436 Z" id="Eat" fill="#BABABD" sketch:type="MSShapeGroup"></path>
                <path d="M110.874,253.868 C110.874,251.475988 111.241996,249.789338 111.978,248.808 C112.714004,247.826662 113.848659,247.336 115.382,247.336 C116.608673,247.336 117.865994,247.535331 119.154,247.934 C120.442006,248.332669 121.821993,248.761998 123.294,249.222 C124.766007,249.682002 126.360658,250.095998 128.078,250.464 C129.795342,250.832002 131.727323,251.016 133.874,251.016 C135.959344,251.016 137.891324,250.847335 139.67,250.51 C141.448676,250.172665 142.981994,249.789335 144.27,249.36 C145.803341,248.869331 147.152661,248.28667 148.318,247.612 L148.318,254.512 C147.275328,255.125336 146.018007,255.677331 144.546,256.168 C143.319327,256.597335 141.801342,256.965332 139.992,257.272 C138.182658,257.578668 136.112678,257.732 133.782,257.732 C131.451322,257.732 129.350676,257.609335 127.48,257.364 C125.609324,257.118665 124.030006,256.842668 122.742,256.536 C121.208659,256.167998 119.890006,255.738669 118.786,255.248 L118.786,265.644 C118.847334,267.054674 118.786001,268.633991 118.602,270.382 C118.417999,272.130009 118.234001,273.525328 118.05,274.568 C119.460674,272.850658 121.315988,271.36334 123.616,270.106 C125.916011,268.84866 128.813983,268.22 132.31,268.22 C135.131347,268.22 137.707322,268.572663 140.038,269.278 C142.368678,269.983337 144.392658,271.148659 146.11,272.774 C147.827342,274.399341 149.161329,276.56132 150.112,279.26 C151.062671,281.95868 151.538,285.301313 151.538,289.288 C151.538,292.722684 151.108671,295.865986 150.25,298.718 C149.391329,301.570014 148.103342,304.023323 146.386,306.078 C144.668658,308.132677 142.476013,309.742661 139.808,310.908 C137.139987,312.073339 134.027351,312.656 130.47,312.656 C126.42198,312.656 123.125346,311.935341 120.58,310.494 C118.034654,309.052659 116.041341,307.105346 114.6,304.652 C113.158659,302.198654 112.177336,299.33135 111.656,296.05 C111.134664,292.76865 110.874,289.288018 110.874,285.608 L110.874,253.868 Z M130.562,274.752 C128.844658,274.752 127.250007,275.104663 125.778,275.81 C124.305993,276.515337 123.018006,277.511994 121.914,278.8 C120.809994,280.088006 119.92067,281.605991 119.246,283.354 C118.57133,285.102009 118.203334,287.018656 118.142,289.104 C118.203334,291.312011 118.463998,293.42799 118.924,295.452 C119.384002,297.47601 120.119995,299.269992 121.132,300.834 C122.144005,302.398008 123.447325,303.655329 125.042,304.606 C126.636675,305.556671 128.599322,306.032 130.93,306.032 C135.223355,306.032 138.427989,304.529348 140.544,301.524 C142.660011,298.518652 143.718,294.501358 143.718,289.472 C143.718,284.381308 142.506679,280.655345 140.084,278.294 C137.661321,275.932655 134.487353,274.752 130.562,274.752 L130.562,274.752 Z M176.654,268.036 C176.654,270.918681 176.94533,273.417989 177.528,275.534 C178.11067,277.650011 179.383324,279.474659 181.346,281.008 C183.124676,282.418674 184.657994,283.706661 185.946,284.872 C187.234006,286.037339 188.291996,287.24866 189.12,288.506 C189.948004,289.76334 190.561331,291.112659 190.96,292.554 C191.358669,293.995341 191.558,295.666657 191.558,297.568 C191.558,299.59201 191.190004,301.523991 190.454,303.364 C189.717996,305.204009 188.644674,306.813993 187.234,308.194 C185.823326,309.574007 184.121343,310.662663 182.128,311.46 C180.134657,312.257337 177.850013,312.656 175.274,312.656 C172.943322,312.656 170.796676,312.349336 168.834,311.736 C166.871324,311.122664 165.184674,310.218006 163.774,309.022 C162.363326,307.825994 161.259337,306.323342 160.462,304.514 C159.664663,302.704658 159.266,300.604012 159.266,298.212 C159.266,297.475996 159.281333,296.801336 159.312,296.188 C159.342667,295.574664 159.388666,295.022669 159.45,294.532 C159.511334,293.979997 159.572666,293.458669 159.634,292.968 L167.454,293.06 C167.392666,293.366668 167.331334,293.765331 167.27,294.256 C167.208666,294.685335 167.178,295.221997 167.178,295.866 C167.178,296.510003 167.178,297.261329 167.178,298.12 C167.178,299.040005 167.346665,299.959995 167.684,300.88 C168.021335,301.800005 168.542663,302.643329 169.248,303.41 C169.953337,304.176671 170.811995,304.789998 171.824,305.25 C172.836005,305.710002 174.01666,305.94 175.366,305.94 C178.06468,305.94 180.119326,305.158008 181.53,303.594 C182.940674,302.029992 183.646,300.174677 183.646,298.028 C183.646,296.310658 183.462002,294.838673 183.094,293.612 C182.725998,292.385327 182.189337,291.312005 181.484,290.392 C180.778663,289.471995 179.950671,288.62867 179,287.862 C178.049329,287.095329 177.022006,286.313337 175.918,285.516 C174.445993,284.411994 173.234671,283.308006 172.284,282.204 C171.333329,281.099994 170.582003,279.888673 170.03,278.57 C169.477997,277.251327 169.094668,275.733342 168.88,274.016 C168.665332,272.298658 168.558,270.305345 168.558,268.036 L176.654,268.036 Z M200.298,262.516 C200.298,256.873305 201.26399,252.948011 203.196,250.74 C205.12801,248.531989 207.78065,247.428 211.154,247.428 C212.871342,247.428 214.297328,247.749997 215.432,248.394 C216.566672,249.038003 217.47133,249.865995 218.146,250.878 C218.82067,251.890005 219.311332,253.02466 219.618,254.282 C219.924668,255.53934 220.139333,256.750661 220.262,257.916 L220.538,257.916 C220.660667,256.811994 220.890665,255.63134 221.228,254.374 C221.565335,253.11666 222.101996,251.982005 222.838,250.97 C223.574004,249.957995 224.539994,249.11467 225.736,248.44 C226.932006,247.76533 228.419324,247.428 230.198,247.428 C232.283344,247.428 234.061993,247.688664 235.534,248.21 C237.006007,248.731336 238.201995,249.559328 239.122,250.694 C240.042005,251.828672 240.716665,253.331324 241.146,255.202 C241.575335,257.072676 241.79,259.35732 241.79,262.056 L241.79,287.816 C241.79,291.250684 241.40667,294.470652 240.64,297.476 C239.873329,300.481348 238.662008,303.118655 237.006,305.388 C235.349992,307.657345 233.203347,309.451327 230.566,310.77 C227.928653,312.088673 224.739352,312.748 220.998,312.748 C217.379315,312.748 214.251347,312.150006 211.614,310.954 C208.976653,309.757994 206.784009,308.132677 205.036,306.078 C203.287991,304.023323 202.000004,301.631347 201.172,298.902 C200.343996,296.172653 199.93,293.274682 199.93,290.208 C199.93,285.791978 200.55866,282.112015 201.816,279.168 C203.07334,276.223985 204.698657,273.847342 206.692,272.038 C208.685343,270.228658 210.893321,268.940671 213.316,268.174 C215.738679,267.40733 218.145988,267.024 220.538,267.024 C223.850017,267.024 226.609989,267.545328 228.818,268.588 C231.026011,269.630672 232.80466,270.887993 234.154,272.36 L234.154,263.16 C234.154,259.602649 233.77067,257.180006 233.004,255.892 C232.237329,254.603994 231.118007,253.96 229.646,253.96 C227.744657,253.96 226.487336,254.741992 225.874,256.306 C225.260664,257.870008 224.954,259.939987 224.954,262.516 L215.938,262.516 C215.938,261.289327 215.892,260.154672 215.8,259.112 C215.708,258.069328 215.508668,257.180004 215.202,256.444 C214.895332,255.707996 214.45067,255.125335 213.868,254.696 C213.28533,254.266665 212.503338,254.052 211.522,254.052 C210.540662,254.052 209.774003,254.297331 209.222,254.788 C208.669997,255.278669 208.240668,255.90733 207.934,256.674 C207.627332,257.440671 207.428,258.329995 207.336,259.342 C207.244,260.354005 207.198,261.411994 207.198,262.516 L200.298,262.516 Z M221.366,306.124 C225.230019,306.124 228.327322,304.728681 230.658,301.938 C232.988678,299.147319 234.154,295.145359 234.154,289.932 L234.154,288.092 C233.847332,283.062642 232.574678,279.398011 230.336,277.098 C228.097322,274.797988 224.95402,273.648 220.906,273.648 C216.489978,273.648 213.193344,275.043319 211.016,277.834 C208.838656,280.624681 207.75,284.534642 207.75,289.564 C207.75,294.716026 208.838656,298.763985 211.016,301.708 C213.193344,304.652015 216.64331,306.124 221.366,306.124 L221.366,306.124 Z M293.77,288.552 C293.77,291.864017 293.371337,294.991985 292.574,297.936 C291.776663,300.880015 290.488676,303.440656 288.71,305.618 C286.931324,307.795344 284.616014,309.527994 281.764,310.816 C278.911986,312.104006 275.431354,312.748 271.322,312.748 C267.151312,312.748 263.640014,312.11934 260.788,310.862 C257.935986,309.60466 255.636009,307.902677 253.888,305.756 C252.139991,303.609323 250.88267,301.094681 250.116,298.212 C249.349329,295.329319 248.966,292.262683 248.966,289.012 C248.966,285.699983 249.349329,282.556682 250.116,279.582 C250.88267,276.607318 252.139991,273.970011 253.888,271.67 C255.636009,269.369988 257.920653,267.54534 260.742,266.196 C263.563347,264.84666 266.99798,264.172 271.046,264.172 C275.76869,264.172 279.709318,265.122657 282.868,267.024 C286.026682,268.925343 288.495324,271.439984 290.274,274.568 C291.071337,273.21866 292.052661,271.91534 293.218,270.658 C294.383339,269.40066 295.717326,268.296671 297.22,267.346 C298.722674,266.395329 300.43999,265.62867 302.372,265.046 C304.30401,264.46333 306.465988,264.172 308.858,264.172 C312.23135,264.172 315.282653,264.708661 318.012,265.782 C320.741347,266.855339 323.056657,268.388657 324.958,270.382 C326.859343,272.375343 328.331328,274.828652 329.374,277.742 C330.416672,280.655348 330.938,283.951982 330.938,287.632 C330.938,291.496019 330.355339,294.976651 329.19,298.074 C328.024661,301.171349 326.460676,303.793323 324.498,305.94 C322.535324,308.086677 320.235347,309.727328 317.598,310.862 C314.960653,311.996672 312.139348,312.564 309.134,312.564 L309.134,305.94 C310.851342,305.94 312.553325,305.510671 314.24,304.652 C315.926675,303.793329 317.429327,302.566675 318.748,300.972 C320.066673,299.377325 321.124663,297.460678 321.922,295.222 C322.719337,292.983322 323.118,290.51468 323.118,287.816 C323.118,282.111971 321.845346,277.849347 319.3,275.028 C316.754654,272.206653 313.182023,270.796 308.582,270.796 C305.944653,270.796 303.706009,271.347994 301.866,272.452 C300.025991,273.556006 298.523339,274.966658 297.358,276.684 C296.192661,278.401342 295.31867,280.302656 294.736,282.388 C294.15333,284.473344 293.831334,286.497324 293.77,288.46 L293.77,288.552 Z M271.322,270.796 C266.721977,270.796 263.164679,272.298652 260.65,275.304 C258.135321,278.309348 256.878,282.694638 256.878,288.46 C256.878,293.980028 258.119988,298.303984 260.604,301.432 C263.088012,304.560016 266.69131,306.124 271.414,306.124 C276.198024,306.124 279.801321,304.590682 282.224,301.524 C284.646679,298.457318 285.858,294.133361 285.858,288.552 C285.858,282.970639 284.570013,278.616016 281.994,275.488 C279.417987,272.359984 275.860689,270.796 271.322,270.796 L271.322,270.796 Z M357.066,312.656 C354.060652,312.656 351.346679,312.104006 348.924,311 C346.501321,309.895994 344.446675,308.33201 342.76,306.308 C341.073325,304.28399 339.770005,301.846014 338.85,298.994 C337.929995,296.141986 337.47,292.968017 337.47,289.472 C337.47,285.853315 338.006661,282.495349 339.08,279.398 C340.153339,276.300651 341.732656,273.617345 343.818,271.348 C345.903344,269.078655 348.463985,267.300006 351.5,266.012 C354.536015,264.723994 358.016647,264.08 361.942,264.08 C365.867353,264.08 369.317318,264.723994 372.292,266.012 C375.266682,267.300006 377.750657,269.063322 379.744,271.302 C381.737343,273.540678 383.239995,276.193318 384.252,279.26 C385.264005,282.326682 385.77,285.607983 385.77,289.104 C385.77,292.048015 385.310005,294.930653 384.39,297.752 C383.469995,300.573347 382.182008,303.087989 380.526,305.296 C378.869992,307.504011 376.876678,309.28266 374.546,310.632 C372.215322,311.98134 369.639347,312.656 366.818,312.656 L366.818,306.032 C367.799338,306.032 368.933994,305.710003 370.222,305.066 C371.510006,304.421997 372.705994,303.410007 373.81,302.03 C374.914006,300.649993 375.849329,298.856011 376.616,296.648 C377.38267,294.439989 377.766,291.802682 377.766,288.736 C377.766,285.791985 377.367337,283.200678 376.57,280.962 C375.772663,278.723322 374.653341,276.837341 373.212,275.304 C371.770659,273.770659 370.053343,272.620671 368.06,271.854 C366.066657,271.08733 363.874012,270.704 361.482,270.704 C359.151322,270.704 356.989343,271.102663 354.996,271.9 C353.002657,272.697337 351.300674,273.862659 349.89,275.396 C348.479326,276.929341 347.375337,278.815322 346.578,281.054 C345.780663,283.292678 345.382,285.853319 345.382,288.736 C345.382,291.864016 345.795996,294.531989 346.624,296.74 C347.452004,298.948011 348.463994,300.741993 349.66,302.122 C350.856006,303.502007 352.12866,304.498664 353.478,305.112 C354.82734,305.725336 356.023328,306.032 357.066,306.032 L357.066,312.656 Z" id="ნაშთი" fill="#BABABD" sketch:type="MSShapeGroup"></path>
                <path d="M272.239988,103.414799 L272.23999,111.43 C272.253983,114.516517 272.28033,114.504222 272.23999,120.053468 C272.298501,125.365574 272.702,129.744 272.702,129.744 C270.555323,132.320013 268.056014,134.175328 265.204,135.31 C262.351986,136.444672 259.270017,137.012 255.958,137.012 C253.811323,137.012 251.77201,136.766669 249.84,136.276 C247.90799,135.785331 246.236674,135.018672 244.826,133.976 C243.415326,132.933328 242.296004,131.568675 241.468,129.882 C240.639996,128.195325 240.226,126.156012 240.226,123.764 C240.226,121.06532 240.685995,118.857342 241.606,117.14 C242.526005,115.422658 243.737326,114.027339 245.24,112.954 C246.742674,111.880661 248.45999,111.068003 250.392,110.516 C252.32401,109.963997 254.30199,109.504002 256.326,109.136 C258.472677,108.706665 260.51199,108.384668 262.444,108.17 C264.37601,107.955332 266.077993,107.648669 267.55,107.25 C269.022007,106.851331 270.117006,106.342426 271.046,105.502 C271.046,105.502 271.84472,104.989982 272.239988,103.414799 Z M272.242,111.436 C271.260662,112.172004 269.972675,112.708665 268.378,113.046 C266.783325,113.383335 265.112009,113.659332 263.364,113.874 C261.615991,114.088668 259.852676,114.333999 258.074,114.61 C256.295324,114.886001 254.700674,115.330664 253.29,115.944 C251.879326,116.557336 250.729338,117.431328 249.84,118.566 C248.950662,119.700672 248.506,121.249324 248.506,123.212 C248.506,124.500006 248.766664,125.588662 249.288,126.478 C249.809336,127.367338 250.483996,128.087997 251.312,128.64 C252.140004,129.192003 253.105994,129.590665 254.21,129.836 C255.314006,130.081335 256.479327,130.204 257.706,130.204 C260.282013,130.204 262.489991,129.851337 264.33,129.146 C266.170009,128.440663 267.672661,127.551339 268.838,126.478 C270.003339,125.404661 270.861997,124.23934 271.414,122.982 C271.966003,121.72466 272.242,120.544006 272.242,119.44 L272.242,111.436 Z" id="Eat" fill="#666666" sketch:type="MSShapeGroup"></path>
                <path d="M118.05,274.568 C119.514001,272.808029 121.348987,271.345301 123.616,270.106 C125.916011,268.84866 128.813983,268.22 132.31,268.22 C135.131347,268.22 137.707322,268.572663 140.038,269.278 C142.368678,269.983337 144.392658,271.148659 146.11,272.774 C147.827342,274.399341 149.161329,276.56132 150.112,279.26 C151.062671,281.95868 151.538,285.301313 151.538,289.288 C151.538,292.722684 151.108671,295.865986 150.25,298.718 C149.391329,301.570014 148.103342,304.023323 146.386,306.078 C144.668658,308.132677 142.476013,309.742661 139.808,310.908 C137.139987,312.073339 134.027351,312.656 130.47,312.656 C126.42198,312.656 123.125346,311.935341 120.58,310.494 C119.966678,310.146697 119.385407,309.770017 118.836186,309.363958 C118.484409,309.103876 118.436401,309.085204 118.110991,308.781798 C118.110991,308.781798 118.234001,273.525328 118.05,274.568 Z M130.562,274.752 C128.844658,274.752 127.250007,275.104663 125.778,275.81 C124.305993,276.515337 123.018006,277.511994 121.914,278.8 C120.809994,280.088006 119.92067,281.605991 119.246,283.354 C118.57133,285.102009 118.203334,287.018656 118.142,289.104 C118.203334,291.312011 118.463998,293.42799 118.924,295.452 C119.384002,297.47601 120.119995,299.269992 121.132,300.834 C122.144005,302.398008 123.447325,303.655329 125.042,304.606 C126.636675,305.556671 128.599322,306.032 130.93,306.032 C135.223355,306.032 138.427989,304.529348 140.544,301.524 C142.660011,298.518652 143.718,294.501358 143.718,289.472 C143.718,284.381308 142.506679,280.655345 140.084,278.294 C137.661321,275.932655 134.487353,274.752 130.562,274.752 L130.562,274.752 Z M234.154,308.529666 C234.040344,308.529666 231.838314,310.133843 230.566,310.77 C227.928653,312.088673 224.739352,312.748 220.998,312.748 C217.379315,312.748 214.251347,312.150006 211.614,310.954 C208.976653,309.757994 206.784009,308.132677 205.036,306.078 C203.287991,304.023323 202.000004,301.631347 201.172,298.902 C200.343996,296.172653 199.93,293.274682 199.93,290.208 C199.93,285.791978 200.55866,282.112015 201.816,279.168 C203.07334,276.223985 204.698657,273.847342 206.692,272.038 C208.685343,270.228658 210.893321,268.940671 213.316,268.174 C215.738679,267.40733 218.145988,267.024 220.538,267.024 C223.850017,267.024 226.609989,267.545328 228.818,268.588 C231.026011,269.630672 232.80466,270.887993 234.154,272.36 L234.154,308.529666 Z M221.366,306.124 C225.230019,306.124 228.327322,304.728681 230.658,301.938 C232.988678,299.147319 234.154,295.145359 234.154,289.932 L234.154,288.092 C233.847332,283.062642 232.574678,279.398011 230.336,277.098 C228.097322,274.797988 224.95402,273.648 220.906,273.648 C216.489978,273.648 213.193344,275.043319 211.016,277.834 C208.838656,280.624681 207.75,284.534642 207.75,289.564 C207.75,294.716026 208.838656,298.763985 211.016,301.708 C213.193344,304.652015 216.64331,306.124 221.366,306.124 L221.366,306.124 Z M285.847908,308.341228 C284.505303,309.407096 283.122119,310.202656 281.764,310.816 C278.911986,312.104006 275.431354,312.748 271.322,312.748 C267.151312,312.748 263.640014,312.11934 260.788,310.862 C257.935986,309.60466 255.636009,307.902677 253.888,305.756 C252.139991,303.609323 250.88267,301.094681 250.116,298.212 C249.349329,295.329319 248.966,292.262683 248.966,289.012 C248.966,285.699983 249.349329,282.556682 250.116,279.582 C250.88267,276.607318 252.139991,273.970011 253.888,271.67 C255.636009,269.369988 257.920653,267.54534 260.742,266.196 C263.563347,264.84666 266.99798,264.172 271.046,264.172 C275.76869,264.172 281.764,265.266305 285.847908,269.177938 L285.847908,308.341228 Z M271.322,270.796 C266.721977,270.796 263.164679,272.298652 260.65,275.304 C258.135321,278.309348 256.878,282.694638 256.878,288.46 C256.878,293.980028 258.119988,298.303984 260.604,301.432 C263.088012,304.560016 266.69131,306.124 271.414,306.124 C276.198024,306.124 279.801321,304.590682 282.224,301.524 C284.646679,298.457318 285.858,294.133361 285.858,288.552 C285.858,282.970639 284.570013,278.616016 281.994,275.488 C279.417987,272.359984 275.860689,270.796 271.322,270.796 L271.322,270.796 Z" id="ნაშთი" fill="#666666" sketch:type="MSShapeGroup"></path>
                <path d="M0,181 L465,181" id="Path-1" stroke="#BABABD" sketch:type="MSShapeGroup"></path>
            </g>
        </g>
    </g>
</svg>