<?xml version="1.0" encoding="UTF-8" standalone="no"?>
<svg width="465px" height="360px" viewBox="0 0 465 360" version="1.1" xmlns="http://www.w3.org/2000/svg" xmlns:xlink="http://www.w3.org/1999/xlink" xmlns:sketch="http://www.bohemiancoding.com/sketch/ns">
    <!-- Generator: Sketch Beta 3.4.4 (17258) - http://www.bohemiancoding.com/sketch -->
    <title>Crossbar</title>
    <desc>Created with Sketch Beta.</desc>
    <defs></defs>
    <g id="Outline" stroke="none" stroke-width="1" fill="none" fill-rule="evenodd" sketch:type="MSPage">
        <g id="Crossbar" sketch:type="MSArtboardGroup">
            <g id="Group" sketch:type="MSLayerGroup">
                <g id="Tag" sketch:type="MSShapeGroup">
                    <rect id="Rectangle-1" fill="#BABABD" x="0" y="0" width="30" height="360"></rect>
                    <path d="M-13.275,277.94 C-13.275,280.523 -15.333,282.077 -18,282.077 C-20.625,282.077 -22.725,280.523 -22.725,277.94 C-22.725,276.071 -21.465,274.496 -19.68,273.992 C-18.147,273.551 -17.37,272.375 -17.37,270.443 C-17.37,269.162 -18.294,268.238 -19.554,268.238 C-20.835,268.238 -21.759,269.162 -21.759,270.443 C-21.759,270.758 -21.654,271.157 -21.423,271.682 L-22.158,272.018 C-22.431,271.388 -22.578,270.863 -22.578,270.443 C-22.578,268.322 -20.814,267.419 -19.554,267.419 C-17.811,267.419 -16.551,268.679 -16.551,270.443 C-16.551,270.59 -16.551,270.8 -16.572,271.073 C-16.593,271.367 -16.593,271.577 -16.593,271.724 C-16.593,273.152 -16.11,273.74 -14.829,274.811 C-13.8,275.672 -13.275,276.722 -13.275,277.94 L-13.275,277.94 Z M-14.094,277.94 C-14.094,276.155 -14.577,276.092 -16.572,274.307 C-16.866,273.95 -17.076,273.572 -17.223,273.131 C-17.58,273.677 -18.21,274.16 -19.071,274.601 C-21.171,275.693 -21.906,276.071 -21.906,277.94 C-21.906,279.599 -21.045,280.649 -19.302,281.09 C-18.882,281.195 -18.441,281.258 -18,281.258 C-15.795,281.258 -14.094,280.103 -14.094,277.94 L-14.094,277.94 Z M-0.885,271.451 C-0.885,274.034 -2.775,275.42 -5.4,275.42 C-7.92,275.42 -9.915,273.908 -9.915,271.451 C-9.915,270.758 -9.663,270.002 -9.18,269.162 L-8.466,269.582 L-8.676,269.918 C-8.949,270.401 -9.075,270.905 -9.075,271.451 C-9.075,273.488 -7.479,274.58 -5.4,274.58 C-3.321,274.58 -1.704,273.467 -1.704,271.451 C-1.704,270.422 -2.082,269.666 -2.838,269.141 L-5.127,267.839 C-5.799,267.356 -6.24,266.684 -6.45,265.865 L-6.555,265.466 L-5.757,265.277 C-5.442,266.6 -4.749,267.398 -3.699,267.713 C-2.019,268.196 -0.885,269.687 -0.885,271.451 L-0.885,271.451 Z M11.127,259.817 L11.799,260.279 C10.98,261.476 9.951,262.085 8.691,262.085 C8.376,262.085 7.956,262.001 7.389,261.833 C6.822,261.665 6.381,261.581 6.087,261.581 C4.491,261.581 3.42,262.652 3.42,264.248 L3.42,268.994 C4.218,267.944 5.268,267.419 6.591,267.419 C8.964,267.419 10.581,269.036 10.581,271.409 C10.581,273.782 8.964,275.42 6.591,275.42 C4.239,275.42 2.601,273.782 2.601,271.409 L2.601,264.248 C2.601,262.148 4.008,260.762 6.087,260.762 C6.381,260.762 6.822,260.846 7.389,261.014 C7.956,261.182 8.376,261.266 8.691,261.266 C9.657,261.266 10.476,260.783 11.127,259.817 L11.127,259.817 Z M9.762,271.409 C9.762,269.498 8.523,268.238 6.591,268.238 C4.953,268.238 3.903,269.162 3.42,271.01 L3.42,271.409 C3.42,273.341 4.68,274.58 6.591,274.58 C8.523,274.58 9.762,273.341 9.762,271.409 L9.762,271.409 Z M24.294,271.619 C24.21,272.984 23.664,274.286 22.677,275.567 L22.026,275.063 C22.908,273.929 23.391,272.774 23.475,271.619 C23.307,269.624 21.795,268.238 19.8,268.238 C17.805,268.238 16.293,269.624 16.125,271.619 C16.209,272.774 16.692,273.929 17.574,275.063 L16.923,275.567 L16.671,275.252 C15.852,274.181 15.39,272.984 15.306,271.619 C15.474,269.162 17.343,267.419 19.8,267.419 C22.257,267.419 24.126,269.162 24.294,271.619 L24.294,271.619 Z M36.957,271.01 L36.957,270.674 C36.957,269.855 36.726,269.162 36.243,268.595 C35.298,267.44 34.143,267.419 32.967,267.419 C31.791,267.419 30.657,267.524 29.628,268.679 C28.599,269.834 28.746,271.766 29.502,272.753 L29.733,273.089 L30.405,272.606 C29.544,271.367 29.46,270.023 30.321,269.162 C30.909,268.553 31.791,268.238 32.967,268.238 C33.471,268.238 33.87,268.259 34.164,268.322 C35.361,268.511 36.138,269.435 36.138,270.674 L36.138,271.01 C36.138,272.228 35.466,273.005 34.101,273.362 C33.996,273.383 33.933,273.404 33.891,273.425 L32.547,273.425 L32.547,274.244 L33.702,274.244 L33.933,274.244 C35.214,274.391 36.117,275.378 36.117,276.659 L36.138,277.982 C36.138,280.145 34.647,281.258 32.442,281.258 C31.728,281.258 31.098,281.132 30.531,280.901 C29.292,280.376 28.683,279.41 28.683,277.982 C28.683,276.953 29.082,276.092 29.88,275.441 L30.195,275.189 L29.67,274.559 C28.452,275.546 27.843,276.701 27.843,277.982 C27.843,280.586 29.775,282.077 32.442,282.077 C35.13,282.077 36.957,280.628 36.957,277.961 L36.936,276.638 C36.915,275.357 36.348,274.412 35.235,273.803 C36.39,273.194 36.957,272.27 36.957,271.01 L36.957,271.01 Z M49.515,271.451 C49.515,274.034 47.625,275.42 45,275.42 C42.48,275.42 40.485,273.908 40.485,271.451 C40.485,270.758 40.737,270.002 41.22,269.162 L41.934,269.582 L41.724,269.918 C41.451,270.401 41.325,270.905 41.325,271.451 C41.325,273.488 42.921,274.58 45,274.58 C47.079,274.58 48.696,273.467 48.696,271.451 C48.696,270.422 48.318,269.666 47.562,269.141 L45.273,267.839 C44.601,267.356 44.16,266.684 43.95,265.865 L43.845,265.466 L44.643,265.277 C44.958,266.6 45.651,267.398 46.701,267.713 C48.381,268.196 49.515,269.687 49.515,271.451 L49.515,271.451 Z" id="აღმავალი" fill="#646466" transform="translate(14.287500, 270.947000) rotate(-90.000000) translate(-14.287500, -270.947000) "></path>
                    <path d="M-24.623,93.131 C-24.623,93.425 -24.98,93.803 -25.673,94.244 C-26.786,94.979 -28.025,95.336 -29.39,95.336 C-32.225,95.336 -34.157,93.467 -34.157,90.632 C-34.157,87.776 -32.183,85.802 -29.327,85.802 C-28.004,85.802 -26.912,86.201 -26.009,86.999 L-26.009,86.705 C-26.009,86.306 -25.862,86.117 -25.568,86.117 C-25.274,86.117 -25.127,86.306 -25.127,86.705 L-25.127,88.658 C-25.127,89.057 -25.274,89.246 -25.568,89.246 C-25.841,89.246 -25.988,89.078 -26.009,88.721 C-26.114,87.398 -27.878,86.684 -29.369,86.684 C-31.742,86.684 -33.275,88.259 -33.275,90.632 C-33.275,92.984 -31.7,94.475 -29.348,94.475 C-27.815,94.475 -26.492,93.95 -25.421,92.921 C-25.274,92.774 -25.148,92.711 -25.043,92.711 C-24.77,92.711 -24.623,92.858 -24.623,93.131 L-24.623,93.131 Z M-11.876,87.209 C-11.876,87.503 -12.023,87.65 -12.338,87.65 C-12.443,87.65 -12.59,87.566 -12.779,87.398 C-13.178,86.978 -13.556,86.768 -13.913,86.768 C-15.026,86.768 -16.202,87.818 -18.029,89.414 L-18.029,94.139 L-14.207,94.139 C-13.829,94.139 -13.64,94.286 -13.64,94.559 C-13.64,94.853 -13.829,95 -14.207,95 L-20.969,95 C-21.368,95 -21.557,94.853 -21.557,94.58 C-21.557,94.307 -21.368,94.16 -20.969,94.16 L-18.89,94.16 L-18.89,86.999 L-20.486,86.999 C-20.864,86.999 -21.053,86.852 -21.053,86.558 C-21.053,86.264 -20.864,86.117 -20.486,86.117 L-18.029,86.117 L-18.029,88.301 C-16.454,86.852 -15.236,85.907 -13.976,85.907 C-13.283,85.907 -11.876,86.6 -11.876,87.209 L-11.876,87.209 Z M-4.4,85.802 C-1.649,85.802 0.409,87.839 0.409,90.59 C0.409,93.278 -1.691,95.336 -4.4,95.336 C-7.151,95.336 -9.209,93.341 -9.209,90.59 C-9.209,87.839 -7.109,85.802 -4.4,85.802 L-4.4,85.802 Z M-4.4,86.684 C-6.668,86.684 -8.348,88.322 -8.348,90.59 C-8.348,92.837 -6.647,94.475 -4.4,94.475 C-2.153,94.475 -0.452,92.837 -0.452,90.59 C-0.452,88.322 -2.153,86.684 -4.4,86.684 L-4.4,86.684 Z M12.379,92.522 C12.379,94.454 10.321,95.336 8.221,95.336 C6.856,95.336 5.743,95 4.882,94.307 C4.882,94.769 4.735,95 4.462,95 C4.168,95 4.021,94.811 4.021,94.433 L4.021,92.648 C4.021,92.27 4.168,92.081 4.462,92.081 C4.756,92.081 4.903,92.228 4.903,92.543 C4.903,93.908 6.604,94.475 8.2,94.475 C9.733,94.475 11.518,93.887 11.518,92.522 C11.518,91.472 10.426,90.842 8.242,90.611 C6.562,90.422 4.462,90.317 4.462,88.217 C4.462,86.6 6.352,85.802 8.137,85.802 C9.334,85.802 10.3,86.096 11.056,86.684 C11.056,86.306 11.203,86.117 11.476,86.117 C11.77,86.117 11.917,86.306 11.917,86.705 L11.917,88.175 C11.917,88.574 11.77,88.763 11.476,88.763 C11.224,88.763 11.077,88.595 11.056,88.28 C10.951,87.125 9.523,86.684 8.179,86.684 C6.919,86.684 5.344,87.167 5.344,88.259 C5.344,89.078 6.1,89.498 7.927,89.729 C10.363,89.981 12.379,90.317 12.379,92.522 L12.379,92.522 Z M24.979,92.522 C24.979,94.454 22.921,95.336 20.821,95.336 C19.456,95.336 18.343,95 17.482,94.307 C17.482,94.769 17.335,95 17.062,95 C16.768,95 16.621,94.811 16.621,94.433 L16.621,92.648 C16.621,92.27 16.768,92.081 17.062,92.081 C17.356,92.081 17.503,92.228 17.503,92.543 C17.503,93.908 19.204,94.475 20.8,94.475 C22.333,94.475 24.118,93.887 24.118,92.522 C24.118,91.472 23.026,90.842 20.842,90.611 C19.162,90.422 17.062,90.317 17.062,88.217 C17.062,86.6 18.952,85.802 20.737,85.802 C21.934,85.802 22.9,86.096 23.656,86.684 C23.656,86.306 23.803,86.117 24.076,86.117 C24.37,86.117 24.517,86.306 24.517,86.705 L24.517,88.175 C24.517,88.574 24.37,88.763 24.076,88.763 C23.824,88.763 23.677,88.595 23.656,88.28 C23.551,87.125 22.123,86.684 20.779,86.684 C19.519,86.684 17.944,87.167 17.944,88.259 C17.944,89.078 18.7,89.498 20.527,89.729 C22.963,89.981 24.979,90.317 24.979,92.522 L24.979,92.522 Z M38.482,90.548 C38.482,93.215 36.55,95.336 33.925,95.336 C32.413,95.336 31.153,94.664 30.166,93.299 L30.166,95 L28.129,95 C27.94,95 27.793,94.958 27.688,94.874 C27.604,94.79 27.562,94.685 27.562,94.559 C27.562,94.433 27.604,94.328 27.688,94.265 C27.793,94.181 27.94,94.139 28.129,94.139 L29.284,94.139 L29.284,83.009 L28.129,83.009 C27.751,83.009 27.562,82.862 27.562,82.568 C27.562,82.274 27.751,82.127 28.129,82.127 L30.166,82.127 L30.166,87.839 C31.195,86.474 32.455,85.802 33.925,85.802 C36.592,85.802 38.482,87.86 38.482,90.548 L38.482,90.548 Z M37.621,90.59 C37.621,88.406 36.067,86.684 33.904,86.684 C31.741,86.684 30.166,88.406 30.166,90.59 C30.166,92.753 31.741,94.475 33.904,94.475 C36.067,94.475 37.621,92.753 37.621,90.59 L37.621,90.59 Z M51.082,94.559 C51.082,94.853 50.893,95 50.494,95 L48.478,95 L48.478,93.761 C47.239,94.811 45.895,95.336 44.467,95.336 C42.64,95.336 41.17,94.391 41.17,92.627 C41.17,90.506 43.354,89.519 45.685,89.519 C46.504,89.519 47.428,89.624 48.478,89.834 L48.478,88.427 C48.478,87.23 47.197,86.684 45.853,86.684 C45.307,86.684 44.572,86.81 43.648,87.083 L42.619,87.377 C42.346,87.377 42.22,87.23 42.22,86.936 C42.22,86.537 42.493,86.495 43.48,86.243 C44.551,85.949 45.37,85.802 45.895,85.802 C47.659,85.802 49.339,86.768 49.339,88.427 L49.339,94.139 L50.494,94.139 C50.893,94.139 51.082,94.286 51.082,94.559 L51.082,94.559 Z M48.478,92.606 L48.478,90.716 C47.701,90.485 46.798,90.38 45.769,90.38 C44.005,90.38 42.031,91.094 42.031,92.627 C42.031,93.887 43.102,94.475 44.425,94.475 C45.832,94.475 47.176,93.845 48.478,92.606 L48.478,92.606 Z M63.724,87.209 C63.724,87.503 63.577,87.65 63.262,87.65 C63.157,87.65 63.01,87.566 62.821,87.398 C62.422,86.978 62.044,86.768 61.687,86.768 C60.574,86.768 59.398,87.818 57.571,89.414 L57.571,94.139 L61.393,94.139 C61.771,94.139 61.96,94.286 61.96,94.559 C61.96,94.853 61.771,95 61.393,95 L54.631,95 C54.232,95 54.043,94.853 54.043,94.58 C54.043,94.307 54.232,94.16 54.631,94.16 L56.71,94.16 L56.71,86.999 L55.114,86.999 C54.736,86.999 54.547,86.852 54.547,86.558 C54.547,86.264 54.736,86.117 55.114,86.117 L57.571,86.117 L57.571,88.301 C59.146,86.852 60.364,85.907 61.624,85.907 C62.317,85.907 63.724,86.6 63.724,87.209 L63.724,87.209 Z" id="ascender" fill="#646466" transform="translate(15.371500, 88.731500) rotate(-90.000000) translate(-15.371500, -88.731500) "></path>
                    <path d="M184.474,70.312 L184.474,136 L193.214,136 L193.214,105.916 L227.806,105.916 L227.806,136 L236.546,136 L236.546,70.312 L227.806,70.312 L227.806,98.556 L193.214,98.556 L193.214,70.312 L184.474,70.312 Z M257.89,79.88 L257.89,70.312 L250.07,70.312 L250.07,79.88 L257.89,79.88 Z M250.07,88.436 L250.07,136 L257.89,136 L257.89,88.436 L250.07,88.436 Z M270.31,88.436 L270.31,154.124 L278.13,154.124 L278.13,129.652 L278.314,129.652 C279.172671,131.062674 280.23066,132.243329 281.488,133.194 C282.74534,134.144671 284.079326,134.895997 285.49,135.448 C286.900674,136.000003 288.326659,136.398665 289.768,136.644 C291.209341,136.889335 292.512661,137.012 293.678,137.012 C297.296685,137.012 300.470653,136.368006 303.2,135.08 C305.929347,133.791994 308.198658,132.028678 310.008,129.79 C311.817342,127.551322 313.166662,124.929348 314.056,121.924 C314.945338,118.918652 315.39,115.72935 315.39,112.356 C315.39,108.98265 314.930005,105.793348 314.01,102.788 C313.089995,99.7826516 311.725342,97.1300115 309.916,94.83 C308.106658,92.5299885 305.837347,90.7053401 303.108,89.356 C300.378653,88.0066599 297.174018,87.332 293.494,87.332 C290.181983,87.332 287.146014,87.929994 284.386,89.126 C281.625986,90.322006 279.602006,92.2386535 278.314,94.876 L278.13,94.876 L278.13,88.436 L270.31,88.436 Z M307.11,111.804 C307.11,114.134678 306.864669,116.403989 306.374,118.612 C305.883331,120.820011 305.086006,122.782658 303.982,124.5 C302.877994,126.217342 301.421342,127.597328 299.612,128.64 C297.802658,129.682672 295.54868,130.204 292.85,130.204 C290.15132,130.204 287.851343,129.698005 285.95,128.686 C284.048657,127.673995 282.500006,126.340008 281.304,124.684 C280.107994,123.027992 279.234003,121.111344 278.682,118.934 C278.129997,116.756656 277.854,114.502678 277.854,112.172 C277.854,109.963989 278.114664,107.786677 278.636,105.64 C279.157336,103.493323 280.000661,101.576675 281.166,99.89 C282.331339,98.2033249 283.833991,96.8386719 285.674,95.796 C287.514009,94.7533281 289.752653,94.232 292.39,94.232 C294.904679,94.232 297.097324,94.7226618 298.968,95.704 C300.838676,96.6853382 302.371994,98.0039917 303.568,99.66 C304.764006,101.316008 305.65333,103.201989 306.236,105.318 C306.81867,107.434011 307.11,109.595989 307.11,111.804 L307.11,111.804 Z" id="Hip" fill="#BABABD"></path>
                    <path d="M234.062,239.732 C234.062,233.292 229.278,227.956 222.746,227.956 C218.054,227.956 214.926,229.98 213.178,234.12 C211.154,229.98 208.302,227.956 204.622,227.956 C197.446,227.956 192.11,233.2 192.11,239.916 C192.11,248.288 192.57,255.556 193.674,262.916 L199.746,308.18 C200.85,315.54 201.862,322.808 203.058,330.444 C203.518,333.48 204.806,335.044 206.922,335.044 L207.198,335.044 C210.51,324.74 213.454,314.988 216.122,304.592 C218.698,295.024 221.642,282.88 225.046,267.7 C213.73,269.632 206.37,271.196 201.954,271.932 L199.562,272.392 L199.102,269.724 C197.538,258.316 196.71,248.748 196.71,241.112 C196.71,235.96 199.746,232.648 204.622,232.648 C208.762,232.648 210.786,236.144 210.786,243.228 C209.958,244.24 209.59,245.896 209.59,248.196 C209.59,250.68 211.062,252.796 213.178,252.796 C215.386,252.796 216.49,251.232 216.49,248.196 C216.49,245.896 216.122,244.24 215.386,243.228 C215.386,236.144 217.318,232.648 221.274,232.648 C227.806,232.648 229.278,234.12 229.278,238.628 C229.278,241.664 228.358,243.78 226.61,244.884 C224.862,245.896 224.126,246.172 224.126,247 C224.126,249.944 225.046,251.416 226.978,251.416 C231.67,251.416 234.062,246.632 234.062,239.732 L234.062,239.732 Z M218.79,272.576 L206.37,327.592 C205.726,323.452 205.45,319.68 205.082,316.276 L203.702,303.396 C202.598,292.264 201.494,283.708 200.298,276.716 L205.174,275.612 C207.106,274.876 218.514,272.576 218.79,272.576 L218.79,272.576 Z M261.662,281.316 C261.57,278.096 260.65,275.336 258.534,273.22 C254.854,269.816 249.61,266.32 249.61,260.892 C247.954,260.892 246.206,264.02 246.206,265.952 C246.206,267.424 248.046,269.908 251.634,273.312 C255.222,276.716 256.97,279.384 256.97,281.5 C256.97,286.1 254.302,288.4 248.874,288.4 C245.01,288.4 241.238,285.916 241.238,282.972 L242.342,279.2 C242.342,277.912 241.698,277.268 240.41,277.268 C237.834,277.268 236.546,279.108 236.546,282.696 C236.546,288.308 242.526,293 249.058,293 C256.05,293 261.662,288.216 261.662,281.316 L261.662,281.316 Z M299.198,317.84 L299.198,227.956 L294.598,227.956 C294.598,232.832 293.218,237.064 290.918,240.744 C289.354,243.228 286.134,246.356 281.442,250.128 L281.442,250.312 C281.442,251.416 282.454,252.796 283.558,252.888 C288.066,249.76 291.746,245.896 294.598,241.296 L294.598,268.804 C290.55,268.344 287.606,268.16 285.398,268.16 C277.21,268.16 273.162,271.288 273.162,277.544 C273.162,283.064 277.486,290.7 281.994,290.7 C284.57,290.7 285.858,289.596 285.858,287.296 C285.858,286.1 284.478,285.088 281.626,284.352 C279.142,283.708 277.854,281.316 277.854,277.176 C277.854,274.14 280.338,272.576 285.214,272.576 C287.882,272.576 290.918,272.944 294.598,273.588 L294.598,316.092 C294.598,325.66 291.654,330.444 285.766,330.444 C278.406,330.444 275.738,327.684 275.738,320.324 L275.738,319.128 C275.738,315.264 277.762,311.676 281.81,308.456 C283.19,307.076 283.834,306.156 283.834,305.604 C283.834,304.868 283.19,304.408 282.178,304.408 C278.866,304.408 271.046,312.32 271.046,318.668 C271.046,329.616 276.014,335.044 285.858,335.044 C294.23,335.044 299.198,328.42 299.198,317.84 L299.198,317.84 Z" id="წაქ" fill="#BABABD"></path>
                </g>
                <path d="M200.275066,276.715206 L218.76186,272.573344 L224.22567,271.391927 L225.046,267.7 L199.562,272.392 L200.275066,276.715206 Z M294.598,268.804 C290.55,268.344 287.606,268.16 285.398,268.16 C280.902446,268.16 277.654882,269.102926 275.640082,270.988777 L279.648045,273.774038 C280.878423,272.979363 282.737757,272.576 285.214,272.576 C287.882,272.576 290.918,272.944 294.598,273.588 L294.598,268.804 Z" id="წაქ" fill="#666666" sketch:type="MSShapeGroup"></path>
                <path d="M0,181 L465,181" id="Path-1" stroke="#BABABD" sketch:type="MSShapeGroup"></path>
                <path d="M193.214,105.916 L227.806,105.916 L227.806,98.556 L193.214,98.556 L193.214,105.916 Z" id="Hip" fill="#666666" sketch:type="MSShapeGroup"></path>
            </g>
        </g>
    </g>
</svg>