<?xml version="1.0" encoding="UTF-8" standalone="no"?>
<svg width="465px" height="360px" viewBox="0 0 465 360" version="1.1" xmlns="http://www.w3.org/2000/svg" xmlns:xlink="http://www.w3.org/1999/xlink" xmlns:sketch="http://www.bohemiancoding.com/sketch/ns">
    <!-- Generator: Sketch Beta 3.4.4 (17258) - http://www.bohemiancoding.com/sketch -->
    <title>Diagonal</title>
    <desc>Created with Sketch Beta.</desc>
    <defs></defs>
    <g id="Outline" stroke="none" stroke-width="1" fill="none" fill-rule="evenodd" sketch:type="MSPage">
        <g id="Diagonal" sketch:type="MSArtboardGroup">
            <g id="Group" sketch:type="MSLayerGroup">
                <g id="Tag">
                    <rect id="Rectangle-1" fill="#BABABD" sketch:type="MSShapeGroup" x="0" y="0" width="30" height="360"></rect>
                    <text id="აღმავალი" sketch:type="MSTextLayer" transform="translate(13.500000, 270.500000) rotate(-90.000000) translate(-13.500000, -270.500000) " font-family="BG Courier" font-size="21" font-weight="normal" sketch:alignment="middle" fill="#646466">
                        <tspan x="-43.872" y="275">დიაგონალი</tspan>
                    </text>
                    <text id="ascender" sketch:type="MSTextLayer" transform="translate(14.500000, 90.500000) rotate(-90.000000) translate(-14.500000, -90.500000) " font-family="BG Courier" font-size="21" font-weight="normal" sketch:alignment="middle" fill="#646466">
                        <tspan x="-35.9" y="95">diagonal</tspan>
                    </text>
                </g>
                <path d="M182.128,108.86 L193.26,78.224 L193.444,78.224 L204.392,108.86 L182.128,108.86 Z M188.66,70.312 L163.084,136 L172.008,136 L179.368,116.22 L207.152,116.22 L214.328,136 L223.988,136 L198.32,70.312 L188.66,70.312 Z M228.864,88.436 L228.864,136 L236.684,136 L236.684,114.84 C236.684,111.773318 236.990664,109.059345 237.604,106.698 C238.217336,104.336655 239.19866,102.328008 240.548,100.672 C241.89734,99.0159917 243.675989,97.758671 245.884,96.9 C248.092011,96.041329 250.759984,95.612 253.888,95.612 L253.888,87.332 C249.655979,87.2093327 246.160014,88.0679908 243.4,89.908 C240.639986,91.7480092 238.309343,94.5999807 236.408,98.464 L236.224,98.464 L236.224,88.436 L228.864,88.436 Z M259.776,88.436 L259.776,136 L267.596,136 L267.596,106.376 C267.596,105.455995 267.825998,104.306007 268.286,102.926 C268.746002,101.545993 269.481995,100.212006 270.494,98.924 C271.506005,97.6359936 272.824659,96.5320046 274.45,95.612 C276.075341,94.6919954 278.022655,94.232 280.292,94.232 C282.070676,94.232 283.527328,94.4926641 284.662,95.014 C285.796672,95.5353359 286.70133,96.2713286 287.376,97.222 C288.05067,98.1726714 288.525999,99.2919936 288.802,100.58 C289.078001,101.868006 289.216,103.278659 289.216,104.812 L289.216,136 L297.036,136 L297.036,106.376 C297.036,102.695982 298.139989,99.752011 300.348,97.544 C302.556011,95.335989 305.591981,94.232 309.456,94.232 C311.357343,94.232 312.905994,94.5079972 314.102,95.06 C315.298006,95.6120028 316.23333,96.3633286 316.908,97.314 C317.58267,98.2646714 318.042665,99.3839936 318.288,100.672 C318.533335,101.960006 318.656,103.339993 318.656,104.812 L318.656,136 L326.476,136 L326.476,101.132 C326.476,98.6786544 326.092671,96.5780087 325.326,94.83 C324.55933,93.0819913 323.486007,91.6560055 322.106,90.552 C320.725993,89.4479945 319.07001,88.6353359 317.138,88.114 C315.20599,87.5926641 313.044012,87.332 310.652,87.332 C307.523984,87.332 304.65668,88.0373263 302.05,89.448 C299.44332,90.8586737 297.342675,92.8519871 295.748,95.428 C294.766662,92.4839853 293.080012,90.3986728 290.688,89.172 C288.295988,87.9453272 285.628015,87.332 282.684,87.332 C275.998633,87.332 270.877351,90.0306397 267.32,95.428 L267.136,95.428 L267.136,88.436 L259.776,88.436 Z" id="Arm" fill="#BABABD" sketch:type="MSShapeGroup"></path>
                <path d="M188.66,70.312 L207.152,116.22 L214.328,136 L223.988,136 L198.32,70.312 L188.66,70.312 Z" id="Arm" fill="#666666" sketch:type="MSShapeGroup"></path>
                <path d="M136.68,330.036506 C134.471989,330.036506 132.724006,329.791175 131.436,329.300506 C130.147994,328.809837 129.16667,328.181177 128.492,327.414506 C127.81733,326.647836 127.388001,325.804511 127.204,324.884506 C127.019999,323.964502 126.928,323.075177 126.928,322.216506 L133.736,322.308506 C133.736,322.553841 133.782,322.845171 133.874,323.182506 C133.966,323.519841 134.134665,323.841838 134.38,324.148506 C134.625335,324.455175 134.993331,324.715839 135.484,324.930506 C135.974669,325.145174 136.679995,325.252506 137.6,325.252506 C139.133341,325.252506 140.19133,324.961176 140.774,324.378506 C141.35667,323.795837 141.648,322.983178 141.648,321.940506 C141.648,321.572504 141.617334,321.189175 141.556,320.790506 C141.494666,320.391838 141.341335,320.023841 141.096,319.686506 C140.850665,319.349171 140.482669,319.057841 139.992,318.812506 C139.501331,318.567172 138.857337,318.444506 138.06,318.444506 C137.38533,318.444506 136.802669,318.505839 136.312,318.628506 C136.066665,318.68984 135.852001,318.751173 135.668,318.812506 L134.748,312.556506 L156.552,296.640506 C154.957325,294.187161 153.454674,291.825851 152.044,289.556506 C150.633326,287.287162 149.360672,285.247849 148.226,283.438506 C147.091328,281.629164 146.171337,280.172512 145.466,279.068506 C144.760663,277.964501 144.377334,277.320507 144.316,277.136506 C143.150661,275.051163 142.092671,273.425845 141.142,272.260506 C140.191329,271.095167 139.102673,270.512506 137.876,270.512506 C136.649327,270.512506 135.775336,270.880503 135.254,271.616506 C134.732664,272.35251 134.472,273.057836 134.472,273.732506 C134.472,274.100508 134.548666,274.499171 134.702,274.928506 C134.855334,275.357842 135.023999,275.756504 135.208,276.124506 C135.453335,276.553842 135.698665,276.983171 135.944,277.412506 L130.424,281.368506 C129.810664,280.693836 129.289335,279.927177 128.86,279.068506 C128.491998,278.393836 128.154668,277.565845 127.848,276.584506 C127.541332,275.603168 127.388,274.591178 127.388,273.548506 C127.388,272.505834 127.633331,271.417179 128.124,270.282506 C128.614669,269.147834 129.319995,268.120511 130.24,267.200506 C131.160005,266.280502 132.29466,265.529176 133.644,264.946506 C134.99334,264.363837 136.557324,264.072506 138.336,264.072506 C140.666678,264.072506 142.675325,264.517169 144.362,265.406506 C146.048675,266.295844 147.535994,267.783163 148.824,269.868506 C149.008001,270.175175 149.513996,270.987833 150.342,272.306506 C151.170004,273.62518 152.227994,275.281163 153.516,277.274506 C154.804006,279.26785 156.260659,281.53716 157.886,284.082506 C159.511341,286.627852 161.213324,289.249826 162.992,291.948506 L182.22,277.872506 C183.324006,276.952502 184.151997,276.17051 184.704,275.526506 C185.256003,274.882503 185.532,274.131177 185.532,273.272506 C185.532,272.352502 185.225336,271.616509 184.612,271.064506 C183.998664,270.512504 183.01734,270.236506 181.668,270.236506 C180.809329,270.236506 179.920005,270.49717 179,271.018506 C178.079995,271.539842 177.221337,272.10717 176.424,272.720506 C175.503995,273.395176 174.614671,274.192502 173.756,275.112506 L170.168,270.144506 C171.946676,268.365831 173.771324,266.893845 175.642,265.728506 C177.512676,264.563167 179.613322,263.980506 181.944,263.980506 C183.600008,263.980506 185.087327,264.24117 186.406,264.762506 C187.724673,265.283842 188.813329,265.989169 189.672,266.878506 C190.530671,267.767844 191.189998,268.795167 191.65,269.960506 C192.110002,271.125845 192.34,272.321834 192.34,273.548506 C192.34,275.449849 191.972004,277.0445 191.236,278.332506 C190.499996,279.620513 189.181343,281.000499 187.28,282.472506 C186.850665,282.840508 185.992006,283.499835 184.704,284.450506 C183.415994,285.401178 181.836676,286.551166 179.966,287.900506 C178.095324,289.249846 176.010011,290.767831 173.71,292.454506 C171.409988,294.141181 169.064012,295.843164 166.672,297.560506 L181.852,320.836506 C182.52667,321.879178 183.170664,322.645837 183.784,323.136506 C184.397336,323.627175 185.163995,323.872506 186.084,323.872506 C187.065338,323.872506 187.785998,323.50451 188.246,322.768506 C188.706002,322.032503 188.936,321.357843 188.936,320.744506 C188.936,320.253837 188.828668,319.778509 188.614,319.318506 C188.399332,318.858504 188.169335,318.444508 187.924,318.076506 C187.678665,317.647171 187.372002,317.248508 187.004,316.880506 L193.352,311.820506 C193.965336,312.433843 194.547997,313.169835 195.1,314.028506 C195.529335,314.76451 195.927998,315.684501 196.296,316.788506 C196.664002,317.892512 196.848,319.149833 196.848,320.560506 C196.848,321.848513 196.541336,323.0905 195.928,324.286506 C195.314664,325.482512 194.471339,326.571168 193.398,327.552506 C192.324661,328.533845 191.036674,329.315837 189.534,329.898506 C188.031326,330.481176 186.390676,330.772506 184.612,330.772506 C182.833324,330.772506 181.346006,330.527175 180.15,330.036506 C178.953994,329.545837 177.942004,328.963176 177.114,328.288506 C176.285996,327.613836 175.611336,326.877844 175.09,326.080506 C174.568664,325.283169 174.093335,324.547176 173.664,323.872506 C173.479999,323.627172 172.989337,322.860513 172.192,321.572506 C171.394663,320.2845 170.36734,318.659183 169.11,316.696506 C167.85266,314.73383 166.457341,312.510519 164.924,310.026506 C163.390659,307.542494 161.796008,305.012519 160.14,302.436506 C157.809322,304.153848 155.601344,305.748499 153.516,307.220506 C151.430656,308.692514 149.590675,310.011167 147.996,311.176506 C146.094657,312.525846 144.346675,313.783167 142.752,314.948506 C143.794672,315.132507 144.745329,315.500504 145.604,316.052506 C146.340004,316.543175 147.014664,317.217835 147.628,318.076506 C148.241336,318.935177 148.548,320.161832 148.548,321.756506 C148.548,323.964517 147.566676,325.896498 145.604,327.552506 C143.641324,329.208515 140.666687,330.036506 136.68,330.036506 L136.68,330.036506 Z M219.664,267.844506 C219.664,270.727187 219.95533,273.226496 220.538,275.342506 C221.12067,277.458517 222.393324,279.283165 224.356,280.816506 C226.134676,282.22718 227.667994,283.515167 228.956,284.680506 C230.244006,285.845845 231.301996,287.057167 232.13,288.314506 C232.958004,289.571846 233.571331,290.921166 233.97,292.362506 C234.368669,293.803847 234.568,295.475163 234.568,297.376506 C234.568,299.400516 234.200004,301.332497 233.464,303.172506 C232.727996,305.012516 231.654674,306.622499 230.244,308.002506 C228.833326,309.382513 227.131343,310.471169 225.138,311.268506 C223.144657,312.065844 220.860013,312.464506 218.284,312.464506 C215.953322,312.464506 213.806676,312.157843 211.844,311.544506 C209.881324,310.93117 208.194674,310.026512 206.784,308.830506 C205.373326,307.6345 204.269337,306.131849 203.472,304.322506 C202.674663,302.513164 202.276,300.412518 202.276,298.020506 C202.276,297.284503 202.291333,296.609843 202.322,295.996506 C202.352667,295.38317 202.398666,294.831175 202.46,294.340506 C202.521334,293.788504 202.582666,293.267175 202.644,292.776506 L210.464,292.868506 C210.402666,293.175175 210.341334,293.573837 210.28,294.064506 C210.218666,294.493842 210.188,295.030503 210.188,295.674506 L210.188,297.928506 C210.188,298.848511 210.356665,299.768502 210.694,300.688506 C211.031335,301.608511 211.552663,302.451836 212.258,303.218506 C212.963337,303.985177 213.821995,304.598504 214.834,305.058506 C215.846005,305.518509 217.02666,305.748506 218.376,305.748506 C221.07468,305.748506 223.129326,304.966514 224.54,303.402506 C225.950674,301.838499 226.656,299.983184 226.656,297.836506 C226.656,296.119164 226.472002,294.647179 226.104,293.420506 C225.735998,292.193834 225.199337,291.120511 224.494,290.200506 C223.788663,289.280502 222.960671,288.437177 222.01,287.670506 C221.059329,286.903836 220.032006,286.121844 218.928,285.324506 C217.455993,284.220501 216.244671,283.116512 215.294,282.012506 C214.343329,280.908501 213.592003,279.69718 213.04,278.378506 C212.487997,277.059833 212.104668,275.541848 211.89,273.824506 C211.675332,272.107164 211.568,270.113851 211.568,267.844506 L219.664,267.844506 Z M278.452,282.012506 C278.636001,279.559161 279.06533,277.243851 279.74,275.066506 C280.41467,272.889162 281.395994,270.972515 282.684,269.316506 C283.972006,267.660498 285.612657,266.357178 287.606,265.406506 C289.599343,264.455835 292.037319,263.980506 294.92,263.980506 C298.170683,263.980506 300.915322,264.685833 303.154,266.096506 C305.392678,267.50718 307.201993,269.362495 308.582,271.662506 C309.962007,273.962518 310.94333,276.599825 311.526,279.574506 C312.10867,282.549188 312.4,285.569824 312.4,288.636506 C312.4,292.439192 311.909338,295.827825 310.928,298.802506 C309.946662,301.777188 308.628008,304.276496 306.972,306.300506 C305.315992,308.324516 303.399344,309.873168 301.222,310.946506 C299.044656,312.019845 296.760012,312.556506 294.368,312.556506 L294.368,305.012506 C295.840007,305.012506 297.189327,304.583177 298.416,303.724506 C299.642673,302.865835 300.700662,301.700514 301.59,300.228506 C302.479338,298.756499 303.184664,297.02385 303.706,295.030506 C304.227336,293.037163 304.488,290.875185 304.488,288.544506 C304.488,282.717811 303.690675,278.286522 302.096,275.250506 C300.501325,272.214491 298.048017,270.696506 294.736,270.696506 C292.03732,270.696506 289.936674,271.417166 288.434,272.858506 C286.931326,274.299847 285.827337,276.155162 285.122,278.424506 C284.416663,280.693851 284.002667,283.223826 283.88,286.014506 C283.757333,288.805187 283.696,291.51916 283.696,294.156506 L273.3,294.156506 C273.3,291.51916 273.177335,288.805187 272.932,286.014506 C272.686665,283.223826 272.165337,280.693851 271.368,278.424506 C270.570663,276.155162 269.436007,274.284514 267.964,272.812506 C266.491993,271.340499 264.529346,270.604506 262.076,270.604506 C258.70265,270.604506 256.142009,271.953826 254.394,274.652506 C252.645991,277.351186 251.772,281.889808 251.772,288.268506 C251.772,291.948525 252.201329,294.907828 253.06,297.146506 C253.918671,299.385184 254.961327,301.1025 256.188,302.298506 C257.414673,303.494512 258.748659,304.291838 260.19,304.690506 C261.631341,305.089175 262.903994,305.288506 264.008,305.288506 L264.192,312.464506 C261.431986,312.464506 258.810012,312.019844 256.326,311.130506 C253.841988,310.241169 251.649343,308.830516 249.748,306.898506 C247.846657,304.966497 246.328672,302.467188 245.194,299.400506 C244.059328,296.333824 243.492,292.653861 243.492,288.360506 L243.492,287.256506 C243.492,284.251158 243.675998,280.969857 244.044,277.412506 C244.412002,273.855155 245.27066,270.466522 246.62,267.246506 C247.96934,264.02649 250.008653,261.174519 252.738,258.690506 C255.467347,256.206494 259.223976,254.535177 264.008,253.676506 C267.074682,253.124504 269.895987,252.741174 272.472,252.526506 C275.048013,252.311839 277.255991,252.035841 279.096,251.698506 C280.936009,251.361171 282.377328,250.885843 283.42,250.272506 C284.462672,249.65917 284.984,248.64718 284.984,247.236506 L293.724,247.236506 C293.724,249.383184 293.43267,251.146499 292.85,252.526506 C292.26733,253.906513 291.224674,255.041169 289.722,255.930506 C288.219326,256.819844 286.180013,257.52517 283.604,258.046506 C281.027987,258.567842 277.777353,259.043171 273.852,259.472506 C270.110648,259.901842 266.967346,260.392504 264.422,260.944506 C261.876654,261.496509 259.714676,262.661831 257.936,264.440506 C259.469341,264.133838 261.002659,263.980506 262.536,263.980506 C265.602682,263.980506 268.117324,264.455835 270.08,265.406506 C272.042676,266.357178 273.606661,267.645165 274.772,269.270506 C275.937339,270.895848 276.795997,272.812495 277.348,275.020506 C277.900003,277.228517 278.267999,279.559161 278.452,282.012506 L278.452,282.012506 Z M339.54,312.464506 C336.534652,312.464506 333.820679,311.912512 331.398,310.808506 C328.975321,309.704501 326.920675,308.140516 325.234,306.116506 C323.547325,304.092496 322.244005,301.654521 321.324,298.802506 C320.403995,295.950492 319.944,292.776524 319.944,289.280506 C319.944,285.661822 320.480661,282.303855 321.554,279.206506 C322.627339,276.109158 324.206656,273.425851 326.292,271.156506 C328.377344,268.887162 330.937985,267.108513 333.974,265.820506 C337.010015,264.5325 340.490647,263.888506 344.416,263.888506 C348.341353,263.888506 351.791318,264.5325 354.766,265.820506 C357.740682,267.108513 360.224657,268.871828 362.218,271.110506 C364.211343,273.349184 365.713995,276.001824 366.726,279.068506 C367.738005,282.135188 368.244,285.416489 368.244,288.912506 C368.244,291.856521 367.784005,294.739159 366.864,297.560506 C365.943995,300.381854 364.656008,302.896495 363,305.104506 C361.343992,307.312517 359.350678,309.091166 357.02,310.440506 C354.689322,311.789846 352.113347,312.464506 349.292,312.464506 L349.292,305.840506 C350.273338,305.840506 351.407994,305.51851 352.696,304.874506 C353.984006,304.230503 355.179994,303.218513 356.284,301.838506 C357.388006,300.458499 358.323329,298.664517 359.09,296.456506 C359.85667,294.248495 360.24,291.611188 360.24,288.544506 C360.24,285.600492 359.841337,283.009184 359.044,280.770506 C358.246663,278.531828 357.127341,276.645847 355.686,275.112506 C354.244659,273.579165 352.527343,272.429177 350.534,271.662506 C348.540657,270.895836 346.348012,270.512506 343.956,270.512506 C341.625322,270.512506 339.463343,270.911169 337.47,271.708506 C335.476657,272.505844 333.774674,273.671165 332.364,275.204506 C330.953326,276.737847 329.849337,278.623828 329.052,280.862506 C328.254663,283.101184 327.856,285.661825 327.856,288.544506 C327.856,291.672522 328.269996,294.340495 329.098,296.548506 C329.926004,298.756517 330.937994,300.550499 332.134,301.930506 C333.330006,303.310513 334.60266,304.30717 335.952,304.920506 C337.30134,305.533843 338.497328,305.840506 339.54,305.840506 L339.54,312.464506 Z" id="ჯარი" fill="#BABABD" sketch:type="MSShapeGroup"></path>
                <path d="M152.044,289.556506 C150.633326,287.287162 149.360672,285.247849 148.226,283.438506 C147.091328,281.629164 146.171337,280.172512 145.466,279.068506 C144.760663,277.964501 144.377334,277.320507 144.316,277.136506 C143.150661,275.051163 141.142,272.260506 141.142,272.260506 L148.824,269.868506 C149.008001,270.175175 149.513996,270.987833 150.342,272.306506 C151.170004,273.62518 152.227994,275.281163 153.516,277.274506 C154.804006,279.26785 156.260659,281.53716 157.886,284.082506 C159.511341,286.627852 181.852,320.836506 181.852,320.836506 L175.09,326.080506 C175.09,326.080506 174.093335,324.547176 173.664,323.872506 C173.479999,323.627172 172.989337,322.860513 172.192,321.572506 C171.394663,320.2845 166.457341,312.510519 164.924,310.026506 C163.390659,307.542494 153.454674,291.825851 152.044,289.556506 Z" id="ჯარი" fill="#666666" sketch:type="MSShapeGroup"></path>
                <path d="M246.616951,267.236491 C247.966291,264.016474 250.005604,261.164503 252.734951,258.680491 C255.464298,256.196478 259.220927,254.525162 264.004951,253.666491 C267.071633,253.114488 269.892938,252.731158 272.468951,252.516491 C275.044964,252.301823 277.252942,252.025826 279.092951,251.688491 C280.93296,251.351156 282.374279,250.875827 283.416951,250.262491 C284.459623,249.649154 284.980951,248.637164 284.980951,247.226491 L293.720951,247.226491 C293.720951,249.373168 293.42962,251.136484 292.846951,252.516491 C292.264281,253.896497 291.221625,255.031153 289.718951,255.920491 C288.216277,256.809828 286.176964,257.515155 283.600951,258.036491 C281.024938,258.557827 277.774304,259.033155 273.848951,259.462491 C270.107599,259.891826 266.964297,260.382488 264.418951,260.934491 C261.873605,261.486493 259.711626,262.651815 257.932951,264.430491 C251.724951,265.798491 246.724951,267.798491 246.616951,267.236491 Z" id="რვა-copy" fill="#666666" sketch:type="MSShapeGroup"></path>
                <path d="M0,181 L465,181" id="Path-1" stroke="#BABABD" sketch:type="MSShapeGroup"></path>
            </g>
        </g>
    </g>
</svg>