<?xml version="1.0" encoding="UTF-8" standalone="no"?>
<svg width="465px" height="360px" viewBox="0 0 465 360" version="1.1" xmlns="http://www.w3.org/2000/svg" xmlns:xlink="http://www.w3.org/1999/xlink" xmlns:sketch="http://www.bohemiancoding.com/sketch/ns">
    <!-- Generator: Sketch Beta 3.4.4 (17258) - http://www.bohemiancoding.com/sketch -->
    <title>Ear</title>
    <desc>Created with Sketch Beta.</desc>
    <defs></defs>
    <g id="Outline" stroke="none" stroke-width="1" fill="none" fill-rule="evenodd" sketch:type="MSPage">
        <g id="Ear" sketch:type="MSArtboardGroup">
            <g id="Group" sketch:type="MSLayerGroup">
                <g id="Tag">
                    <rect id="Rectangle-1" fill="#BABABD" sketch:type="MSShapeGroup" x="0" y="0" width="30" height="360"></rect>
                    <text id="აღმავალი" sketch:type="MSTextLayer" transform="translate(13.500000, 270.500000) rotate(-90.000000) translate(-13.500000, -270.500000) " font-family="BG Courier" font-size="21" font-weight="normal" sketch:alignment="middle" fill="#646466">
                        <tspan x="-12.372" y="275">ყური</tspan>
                    </text>
                    <text id="ascender" sketch:type="MSTextLayer" transform="translate(14.500000, 90.500000) rotate(-90.000000) translate(-14.500000, -90.500000) " font-family="BG Courier" font-size="21" font-weight="normal" sketch:alignment="middle" fill="#646466">
                        <tspan x="-4.4" y="95">ear</tspan>
                    </text>
                </g>
                <path d="M0,181 L465,181" id="Path-1" stroke="#BABABD" sketch:type="MSShapeGroup"></path>
                <path d="M221.451172,127.417969 C222.649095,128.555995 223.592444,129.843743 224.28125,131.28125 C224.970056,132.718757 225.314453,134.50064 225.314453,136.626953 C225.314453,138.753266 224.850265,140.752269 223.921875,142.624023 C222.993485,144.495778 221.585947,146.120436 219.699219,147.498047 C217.692698,148.905606 215.296889,149.998694 212.511719,150.777344 C209.726549,151.555993 206.282573,151.945312 202.179688,151.945312 C195.471321,151.945312 190.455095,150.964528 187.130859,149.00293 C183.806624,147.041331 182.144531,144.173847 182.144531,140.400391 C182.144531,137.345688 183.342436,134.934905 185.738281,133.167969 C188.134127,131.401033 191.188784,130.442709 194.902344,130.292969 L194.902344,129.664062 C194.003902,129.39453 193.075526,129.057619 192.117188,128.65332 C191.158849,128.249021 190.33529,127.777346 189.646484,127.238281 C188.867835,126.609372 188.238935,125.868168 187.759766,125.014648 C187.280597,124.161129 187.041016,123.105475 187.041016,121.847656 C187.041016,120.260409 187.602533,118.800462 188.725586,117.467773 C189.848638,116.135084 191.548166,114.989588 193.824219,114.03125 L193.824219,113.357422 C190.949204,112.009759 188.718107,110.280284 187.130859,108.168945 C185.543612,106.057607 184.75,103.609389 184.75,100.824219 C184.75,96.6314895 186.314763,93.1875135 189.444336,90.4921875 C192.573909,87.7968615 196.579403,86.4492188 201.460938,86.4492188 C202.8086,86.4492188 204.148756,86.583983 205.481445,86.8535156 C206.814134,87.1230482 208.169264,87.4674458 209.546875,87.8867188 L225,87.8867188 L225,92.1992188 L214.578125,92.1992188 L214.578125,92.46875 C215.686203,93.7565169 216.509763,95.1790287 217.048828,96.7363281 C217.587893,98.2936276 217.857422,99.8209561 217.857422,101.318359 C217.857422,105.211608 216.277685,108.505846 213.118164,111.201172 C209.958643,113.896498 206.282573,115.244141 202.089844,115.244141 L196.654297,115.244141 C195.965491,115.483725 195.246749,115.917966 194.498047,116.546875 C193.749345,117.175784 193.375,118.029291 193.375,119.107422 C193.375,120.2155 193.68945,121.061521 194.318359,121.645508 C194.947269,122.229495 195.710933,122.626301 196.609375,122.835938 C197.477869,123.075522 198.488601,123.22526 199.641602,123.285156 C200.794602,123.345052 201.98502,123.389974 203.212891,123.419922 C204.530606,123.44987 206.334949,123.539713 208.625977,123.689453 C210.917004,123.839193 212.541662,123.929036 213.5,123.958984 C214.877611,124.018881 216.262688,124.348304 217.655273,124.947266 C219.047859,125.546227 220.313145,126.369786 221.451172,127.417969 L221.451172,127.417969 Z M209.322266,101.138672 C209.322266,97.6347481 208.61101,94.8421328 207.188477,92.7607422 C205.765943,90.6793516 203.76694,89.6386719 201.191406,89.6386719 C199.783847,89.6386719 198.578456,89.9306611 197.575195,90.5146484 C196.571935,91.0986357 195.755863,91.9296821 195.126953,93.0078125 C194.527992,93.9960987 194.101238,95.1865165 193.84668,96.5791016 C193.592121,97.9716867 193.464844,99.4016854 193.464844,100.869141 C193.464844,104.193376 194.191073,106.903635 195.643555,109 C197.096036,111.096365 198.975249,112.144531 201.28125,112.144531 C203.856784,112.144531 205.840813,111.103852 207.233398,109.022461 C208.625984,106.94107 209.322266,104.313167 209.322266,101.138672 L209.322266,101.138672 Z M217.947266,138.289062 C217.947266,136.611971 217.557947,135.23438 216.779297,134.15625 C216.000647,133.07812 214.817716,132.344403 213.230469,131.955078 C212.391923,131.835286 210.669935,131.700522 208.064453,131.550781 C205.458971,131.401041 202.434262,131.326172 198.990234,131.326172 C195.755843,131.955081 193.457364,133.010735 192.094727,134.493164 C190.73209,135.975593 190.050781,137.884754 190.050781,140.220703 C190.050781,141.268885 190.275388,142.272131 190.724609,143.230469 C191.17383,144.188807 191.952468,145.072262 193.060547,145.880859 C194.108729,146.659509 195.516267,147.295896 197.283203,147.790039 C199.050139,148.284182 201.206367,148.53125 203.751953,148.53125 C208.154319,148.53125 211.620756,147.68523 214.151367,145.993164 C216.681979,144.301098 217.947266,141.73309 217.947266,138.289062 L217.947266,138.289062 Z M251.863281,132 L230.435547,132 L230.435547,129.035156 C231.124352,128.97526 231.835608,128.915365 232.569336,128.855469 C233.303064,128.795573 233.93945,128.675782 234.478516,128.496094 C235.317061,128.226561 235.938475,127.754886 236.342773,127.081055 C236.747072,126.407223 236.949219,125.531255 236.949219,124.453125 L236.949219,97.0957031 C236.949219,96.137365 236.732099,95.2613972 236.297852,94.4677734 C235.863605,93.6741497 235.257165,93.0078152 234.478516,92.46875 C233.909502,92.1093732 233.085943,91.8024101 232.007812,91.5478516 C230.929682,91.293293 229.941411,91.136068 229.042969,91.0761719 L229.042969,88.15625 L244.675781,87.1679688 L245.304688,87.796875 L245.304688,123.914062 C245.304688,124.962245 245.506834,125.830726 245.911133,126.519531 C246.315432,127.208337 246.951819,127.717446 247.820312,128.046875 C248.47917,128.316408 249.123044,128.533528 249.751953,128.698242 C250.380863,128.862957 251.084632,128.97526 251.863281,129.035156 L251.863281,132 Z M246.203125,69.6933594 C246.203125,71.4003992 245.641607,72.8902931 244.518555,74.1630859 C243.395502,75.4358788 242.010425,76.0722656 240.363281,76.0722656 C238.83593,76.0722656 237.510748,75.4658264 236.387695,74.2529297 C235.264643,73.040033 234.703125,71.6549557 234.703125,70.0976562 C234.703125,68.4505126 235.264643,67.013027 236.387695,65.7851562 C237.510748,64.5572855 238.83593,63.9433594 240.363281,63.9433594 C242.070321,63.9433594 243.470372,64.519851 244.563477,65.6728516 C245.656581,66.8258521 246.203125,68.166008 246.203125,69.6933594 L246.203125,69.6933594 Z M290.271484,67.8066406 C290.271484,69.1543036 289.912113,70.2923131 289.193359,71.2207031 C288.474606,72.1490932 287.381518,72.6132812 285.914062,72.6132812 C284.985672,72.6132812 284.1696,72.4186217 283.46582,72.0292969 C282.762041,71.639972 282.11068,71.1158887 281.511719,70.4570312 C280.912757,69.7981738 280.358727,69.0494834 279.849609,68.2109375 C279.340492,67.3723916 278.906252,66.6985703 278.546875,66.1894531 C276.540355,66.2792973 274.990565,67.6793484 273.897461,70.3896484 C272.804357,73.0999484 272.257812,77.4198922 272.257812,83.3496094 L272.257812,87.8867188 L283.667969,87.8867188 L283.667969,92.1992188 L272.257812,92.1992188 L272.257812,124.003906 C272.257812,125.052089 272.459959,125.905596 272.864258,126.564453 C273.268557,127.223311 273.904944,127.717446 274.773438,128.046875 C275.492191,128.316408 276.450515,128.533528 277.648438,128.698242 C278.84636,128.862957 279.879553,128.97526 280.748047,129.035156 L280.748047,132 L257.388672,132 L257.388672,129.035156 C258.077477,128.97526 258.788733,128.915365 259.522461,128.855469 C260.256189,128.795573 260.892575,128.675782 261.431641,128.496094 C262.270186,128.226561 262.8916,127.754886 263.295898,127.081055 C263.700197,126.407223 263.902344,125.531255 263.902344,124.453125 L263.902344,92.1992188 L255.142578,92.1992188 L255.142578,87.8867188 L263.902344,87.8867188 L263.902344,85.0566406 C263.902344,78.3183257 265.646792,72.8603725 269.135742,68.6826172 C272.624692,64.5048619 276.989557,62.4160156 282.230469,62.4160156 C284.895847,62.4160156 286.902337,62.9400989 288.25,63.9882812 C289.597663,65.0364636 290.271484,66.3092373 290.271484,67.8066406 L290.271484,67.8066406 Z M314.574219,130.068359 C312.627594,130.876957 310.785816,131.558265 309.048828,132.112305 C307.31184,132.666344 305.185559,132.943359 302.669922,132.943359 C298.956362,132.943359 296.343432,132.007496 294.831055,130.135742 C293.318677,128.263988 292.5625,125.621111 292.5625,122.207031 L292.5625,92.1992188 L284.566406,92.1992188 L284.566406,87.8867188 L292.742188,87.8867188 L292.742188,74.0957031 L300.917969,74.0957031 L300.917969,87.8867188 L313.630859,87.8867188 L313.630859,92.1992188 L301.007812,92.1992188 L301.007812,116.951172 C301.007812,118.807952 301.075195,120.357741 301.209961,121.600586 C301.344727,122.843431 301.666664,123.929032 302.175781,124.857422 C302.65495,125.725916 303.373693,126.384763 304.332031,126.833984 C305.290369,127.283205 306.578117,127.507812 308.195312,127.507812 C308.944014,127.507812 310.044589,127.44043 311.49707,127.305664 C312.949552,127.170898 313.975257,126.998699 314.574219,126.789062 L314.574219,130.068359 Z" id="gift" fill="#BABABD" sketch:type="MSShapeGroup"></path>
                <path d="M149.836,292.416 C149.836,289.778653 150.280662,287.44801 151.17,285.424 C152.059338,283.39999 153.17866,281.590675 154.528,279.996 C155.87734,278.401325 157.318659,276.97534 158.852,275.718 C160.385341,274.46066 161.82666,273.264672 163.176,272.13 C164.52534,270.995328 165.644662,269.860672 166.534,268.726 C167.423338,267.591328 167.868,266.34934 167.868,265 C167.868,263.589326 167.822,262.362672 167.73,261.32 C167.638,260.277328 167.132005,259.510669 166.212,259.02 L159.772,255.432 L159.772,268.036 L152.044,268.036 L152.044,251.844 C152.044,250.862662 152.258665,250.03467 152.688,249.36 C153.117335,248.68533 153.66933,248.179335 154.344,247.842 C155.01867,247.504665 155.754663,247.366666 156.552,247.428 C157.349337,247.489334 158.146663,247.734665 158.944,248.164 L171.64,254.972 C172.437337,255.401335 173.096664,255.845998 173.618,256.306 C174.139336,256.766002 174.537999,257.348663 174.814,258.054 C175.090001,258.759337 175.274,259.633328 175.366,260.676 C175.458,261.718672 175.504,263.067992 175.504,264.724 C175.504,266.196007 175.917996,267.514661 176.746,268.68 C177.574004,269.845339 178.601327,271.010661 179.828,272.176 C181.054673,273.341339 182.403993,274.537327 183.876,275.764 C185.348007,276.990673 186.697327,278.385992 187.924,279.95 C189.150673,281.514008 190.177996,283.30799 191.006,285.332 C191.834004,287.35601 192.248,289.71732 192.248,292.416 C192.248,295.298681 191.742005,297.981988 190.73,300.466 C189.717995,302.950012 188.292009,305.081324 186.452,306.86 C184.611991,308.638676 182.404013,310.033995 179.828,311.046 C177.251987,312.058005 174.400016,312.564 171.272,312.564 C168.143984,312.564 165.261347,312.134671 162.624,311.276 C159.986653,310.417329 157.717343,309.129342 155.816,307.412 C153.914657,305.694658 152.442672,303.578679 151.4,301.064 C150.357328,298.549321 149.836,295.666683 149.836,292.416 L149.836,292.416 Z M171.64,271.808 C171.394665,273.096006 170.873337,274.245995 170.076,275.258 C169.278663,276.270005 168.374005,277.220662 167.362,278.11 C166.349995,278.999338 165.276672,279.888662 164.142,280.778 C163.007328,281.667338 161.964671,282.663994 161.014,283.768 C160.063329,284.872006 159.281336,286.129326 158.668,287.54 C158.054664,288.950674 157.748,290.606657 157.748,292.508 C157.748,294.593344 158.100663,296.463992 158.806,298.12 C159.511337,299.776008 160.477327,301.171328 161.704,302.306 C162.930673,303.440672 164.356659,304.314664 165.982,304.928 C167.607341,305.541336 169.339991,305.848 171.18,305.848 C175.22802,305.848 178.447988,304.744011 180.84,302.536 C183.232012,300.327989 184.428,296.832024 184.428,292.048 C184.428,290.269324 184.13667,288.70534 183.554,287.356 C182.97133,286.00666 182.250671,284.795339 181.392,283.722 C180.533329,282.648661 179.582672,281.667338 178.54,280.778 C177.497328,279.888662 176.500671,278.999338 175.55,278.11 C174.599329,277.220662 173.756004,276.270005 173.02,275.258 C172.283996,274.245995 171.824001,273.096006 171.64,271.808 L171.64,271.808 Z M229.692,264.172 C232.329347,264.172 234.429992,264.585996 235.994,265.414 C237.558008,266.242004 238.753996,267.391993 239.582,268.864 C240.410004,270.336007 240.977332,272.08399 241.284,274.108 C241.590668,276.13201 241.805333,278.370654 241.928,280.824 L242.204,280.824 C242.326667,278.309321 242.633331,276.024677 243.124,273.97 C243.614669,271.915323 244.396661,270.167341 245.47,268.726 C246.543339,267.284659 247.953991,266.165337 249.702,265.368 C251.450009,264.570663 253.67332,264.172 256.372,264.172 C259.500016,264.172 262.045324,264.616662 264.008,265.506 C265.970676,266.395338 267.503994,267.667992 268.608,269.324 C269.712006,270.980008 270.463331,272.988655 270.862,275.35 C271.260669,277.711345 271.46,280.363985 271.46,283.308 L271.46,309.344 C271.46,312.901351 270.724007,315.998653 269.252,318.636 C267.779993,321.273347 265.756013,323.450658 263.18,325.168 C260.603987,326.885342 257.552684,328.157996 254.026,328.986 C250.499316,329.814004 246.681354,330.228 242.572,330.228 C238.462646,330.228 234.782683,329.844671 231.532,329.078 C228.281317,328.311329 225.536678,327.038676 223.298,325.26 C221.059322,323.481324 219.342006,321.181347 218.146,318.36 C216.949994,315.538653 216.352,312.042688 216.352,307.872 L224.356,307.872 C224.356,310.938682 224.800662,313.48399 225.69,315.508 C226.579338,317.53201 227.836659,319.157327 229.462,320.384 C231.087341,321.610673 233.049989,322.469331 235.35,322.96 C237.650012,323.450669 240.210653,323.696 243.032,323.696 C245.853347,323.696 248.521321,323.420003 251.036,322.868 C253.550679,322.315997 255.743324,321.41134 257.614,320.154 C259.484676,318.89666 260.971994,317.240677 262.076,315.186 C263.180006,313.131323 263.732,310.570682 263.732,307.504 L263.732,285.332 C263.732,280.425309 263.210672,276.776012 262.168,274.384 C261.125328,271.991988 258.948017,270.796 255.636,270.796 C253.427989,270.796 251.756672,271.363328 250.622,272.498 C249.487328,273.632672 248.690002,275.150657 248.23,277.052 C247.769998,278.953343 247.524667,281.145988 247.494,283.63 C247.463333,286.114012 247.448,288.674653 247.448,291.312 L236.5,291.312 L236.5,284.136 C236.5,282.11199 236.392668,280.287341 236.178,278.662 C235.963332,277.036659 235.595336,275.641339 235.074,274.476 C234.552664,273.310661 233.862671,272.406003 233.004,271.762 C232.145329,271.117997 231.04134,270.796 229.692,270.796 C227.913324,270.796 226.533338,271.255995 225.552,272.176 C224.570662,273.096005 223.834669,274.23066 223.344,275.58 C222.853331,276.92934 222.485335,278.370659 222.24,279.904 C221.994665,281.437341 221.688002,282.786661 221.32,283.952 C220.890665,285.240006 220.400003,286.435994 219.848,287.54 C219.295997,288.644006 218.606004,289.609996 217.778,290.438 C216.949996,291.266004 215.953339,291.925331 214.788,292.416 C213.622661,292.906669 212.242675,293.152 210.648,293.152 C207.213316,293.152 204.714008,292.247342 203.15,290.438 C201.585992,288.628658 200.804,286.344014 200.804,283.584 L200.804,280.824 C200.804,280.026663 200.834666,279.352003 200.896,278.8 C200.957334,278.12533 201.018666,277.573335 201.08,277.144 L208.256,277.144 C208.194666,277.634669 208.164,278.125331 208.164,278.616 C208.102666,279.045335 208.072,279.505331 208.072,279.996 L208.072,281.468 C208.072,283.001341 208.240665,284.227995 208.578,285.148 C208.915335,286.068005 209.697327,286.528 210.924,286.528 C212.457341,286.528 213.51533,285.56201 214.098,283.63 C214.68067,281.69799 215.278664,279.168016 215.892,276.04 C216.198668,274.445325 216.658664,272.927341 217.272,271.486 C217.885336,270.044659 218.728661,268.787339 219.802,267.714 C220.875339,266.640661 222.209325,265.782003 223.804,265.138 C225.398675,264.493997 227.361322,264.172 229.692,264.172 L229.692,264.172 Z M313.136,282.204 C313.320001,279.750654 313.74933,277.435344 314.424,275.258 C315.09867,273.080656 316.079994,271.164008 317.368,269.508 C318.656006,267.851992 320.296657,266.548671 322.29,265.598 C324.283343,264.647329 326.721319,264.172 329.604,264.172 C332.854683,264.172 335.599322,264.877326 337.838,266.288 C340.076678,267.698674 341.885993,269.553989 343.266,271.854 C344.646007,274.154012 345.62733,276.791318 346.21,279.766 C346.79267,282.740682 347.084,285.761318 347.084,288.828 C347.084,292.630686 346.593338,296.019318 345.612,298.994 C344.630662,301.968682 343.312008,304.46799 341.656,306.492 C339.999992,308.51601 338.083344,310.064661 335.906,311.138 C333.728656,312.211339 331.444012,312.748 329.052,312.748 L329.052,305.204 C330.524007,305.204 331.873327,304.774671 333.1,303.916 C334.326673,303.057329 335.384662,301.892007 336.274,300.42 C337.163338,298.947993 337.868664,297.215343 338.39,295.222 C338.911336,293.228657 339.172,291.066678 339.172,288.736 C339.172,282.909304 338.374675,278.478015 336.78,275.442 C335.185325,272.405985 332.732017,270.888 329.42,270.888 C326.72132,270.888 324.620674,271.608659 323.118,273.05 C321.615326,274.491341 320.511337,276.346655 319.806,278.616 C319.100663,280.885345 318.686667,283.415319 318.564,286.206 C318.441333,288.996681 318.38,291.710653 318.38,294.348 L307.984,294.348 C307.984,291.710653 307.861335,288.996681 307.616,286.206 C307.370665,283.415319 306.849337,280.885345 306.052,278.616 C305.254663,276.346655 304.120007,274.476007 302.648,273.004 C301.175993,271.531993 299.213346,270.796 296.76,270.796 C293.38665,270.796 290.826009,272.14532 289.078,274.844 C287.329991,277.54268 286.456,282.081301 286.456,288.46 C286.456,292.140018 286.885329,295.099322 287.744,297.338 C288.602671,299.576678 289.645327,301.293994 290.872,302.49 C292.098673,303.686006 293.432659,304.483331 294.874,304.882 C296.315341,305.280669 297.587994,305.48 298.692,305.48 L298.876,312.656 C296.115986,312.656 293.494012,312.211338 291.01,311.322 C288.525988,310.432662 286.333343,309.02201 284.432,307.09 C282.530657,305.15799 281.012672,302.658682 279.878,299.592 C278.743328,296.525318 278.176,292.845355 278.176,288.552 L278.176,287.448 C278.176,284.442652 278.359998,281.161351 278.728,277.604 C279.096002,274.046649 279.95466,270.658016 281.304,267.438 C282.65334,264.217984 284.692653,261.366012 287.422,258.882 C290.151347,256.397988 293.907976,254.726671 298.692,253.868 C301.758682,253.315997 304.579987,252.932668 307.156,252.718 C309.732013,252.503332 311.939991,252.227335 313.78,251.89 C315.620009,251.552665 317.061328,251.077336 318.104,250.464 C319.146672,249.850664 319.668,248.838674 319.668,247.428 L328.408,247.428 C328.408,249.574677 328.11667,251.337993 327.534,252.718 C326.95133,254.098007 325.908674,255.232662 324.406,256.122 C322.903326,257.011338 320.864013,257.716664 318.288,258.238 C315.711987,258.759336 312.461353,259.234665 308.536,259.664 C304.794648,260.093335 301.651346,260.583997 299.106,261.136 C296.560654,261.688003 294.398676,262.853324 292.62,264.632 C294.153341,264.325332 295.686659,264.172 297.22,264.172 C300.286682,264.172 302.801324,264.647329 304.764,265.598 C306.726676,266.548671 308.290661,267.836659 309.456,269.462 C310.621339,271.087341 311.479997,273.003989 312.032,275.212 C312.584003,277.420011 312.951999,279.750654 313.136,282.204 L313.136,282.204 Z" id="ბურ" fill="#BABABD" sketch:type="MSShapeGroup"></path>
                <path d="M159.772,255.432 L159.772,268.036 L152.044,268.036 L152.044,251.844 C152.044,250.862662 152.258665,250.03467 152.688,249.36 C153.117335,248.68533 153.66933,248.179335 154.344,247.842 C155.01867,247.504665 155.754663,247.366666 156.552,247.428 C157.349337,247.489334 158.146663,247.734665 158.944,248.164 L159.772,255.432 Z" id="ბურ" fill="#666666" sketch:type="MSShapeGroup"></path>
                <path d="M209.546875,87.8867188 L225,87.8867188 L225,92.1992188 L214.578125,92.1992188 C214.578125,92.1992188 213.759297,90.966567 209.546875,87.8867188 Z" id="gift" fill="#666666" sketch:type="MSShapeGroup"></path>
            </g>
        </g>
    </g>
</svg>