<?xml version="1.0" encoding="UTF-8" standalone="no"?>
<svg width="465px" height="360px" viewBox="0 0 465 360" version="1.1" xmlns="http://www.w3.org/2000/svg" xmlns:xlink="http://www.w3.org/1999/xlink" xmlns:sketch="http://www.bohemiancoding.com/sketch/ns">
    <!-- Generator: Sketch Beta 3.4.4 (17258) - http://www.bohemiancoding.com/sketch -->
    <title>Hairline</title>
    <desc>Created with Sketch Beta.</desc>
    <defs>
        <rect id="path-1" x="0" y="0" width="30" height="360"></rect>
    </defs>
    <g id="Outline" stroke="none" stroke-width="1" fill="none" fill-rule="evenodd" sketch:type="MSPage">
        <g id="Hairline" sketch:type="MSArtboardGroup">
            <g id="Group" sketch:type="MSLayerGroup">
                <g id="Tag">
                    <rect id="Rectangle-1" fill="#BABABD" sketch:type="MSShapeGroup" x="0" y="0" width="30" height="360"></rect>
                    <text id="აღმავალი" sketch:type="MSTextLayer" transform="translate(13.500000, 270.500000) rotate(-90.000000) translate(-13.500000, -270.500000) " font-family="BG Courier" font-size="21" font-weight="normal" sketch:alignment="middle" fill="#646466">
                        <tspan x="-56.472" y="275">წვრილი ხაზი</tspan>
                    </text>
                    <text id="ascender" sketch:type="MSTextLayer" transform="translate(14.500000, 90.500000) rotate(-90.000000) translate(-14.500000, -90.500000) " font-family="BG Courier" font-size="21" font-weight="normal" sketch:alignment="middle" fill="#646466">
                        <tspan x="-35.9" y="95">hairline</tspan>
                    </text>
                </g>
                <g id="In-Progress">
                    <mask id="mask-2" sketch:name="Mask" fill="white">
                        <use xlink:href="#path-1"></use>
                    </mask>
                    <use id="Mask" fill="#DCA708" sketch:type="MSShapeGroup" xlink:href="#path-1"></use>
                    <rect id="Rectangle-20" fill="#FFD863" sketch:type="MSShapeGroup" mask="url(#mask-2)" x="-11.9713024" y="240.528698" width="23" height="168">
                        <g transform="translate(-0.471302, 324.528698) rotate(-45.000000) translate(0.471302, -324.528698) "></g>
                    </rect>
                    <rect id="Rectangle-20" fill="#FFD863" sketch:type="MSShapeGroup" mask="url(#mask-2)" x="-11.9713024" y="176.528698" width="23" height="168">
                        <g transform="translate(-0.471302, 260.528698) rotate(-45.000000) translate(0.471302, -260.528698) "></g>
                    </rect>
                    <rect id="Rectangle-20" fill="#FFD863" sketch:type="MSShapeGroup" mask="url(#mask-2)" x="-11.9713024" y="112.528698" width="23" height="168">
                        <g transform="translate(-0.471302, 196.528698) rotate(-45.000000) translate(0.471302, -196.528698) "></g>
                    </rect>
                    <rect id="Rectangle-20" fill="#FFD863" sketch:type="MSShapeGroup" mask="url(#mask-2)" x="-11.9713024" y="48.5286976" width="23" height="168">
                        <g transform="translate(-0.471302, 132.528698) rotate(-45.000000) translate(0.471302, -132.528698) "></g>
                    </rect>
                    <rect id="Rectangle-20" fill="#FFD863" sketch:type="MSShapeGroup" mask="url(#mask-2)" x="-11.9713024" y="-15.4713024" width="23" height="168">
                        <g transform="translate(-0.471302, 68.528698) rotate(-45.000000) translate(0.471302, -68.528698) "></g>
                    </rect>
                    <rect id="Rectangle-20" fill="#FFD863" sketch:type="MSShapeGroup" mask="url(#mask-2)" x="-11.9713024" y="-79.4713024" width="23" height="168">
                        <g transform="translate(-0.471302, 4.528698) rotate(-45.000000) translate(0.471302, -4.528698) "></g>
                    </rect>
                </g>
                <g id="Ascender" transform="translate(30.000000, 88.000000)" stroke="#BABABD" sketch:type="MSShapeGroup">
                    <path d="M0,181 L434,181" id="Baseline-Copy-4"></path>
                    <path d="M0,1 L434,1" id="Baseline-Copy-3"></path>
                </g>
                <path d="M185.486,112.632 C185.486,110.301322 185.731331,108.032011 186.222,105.824 C186.712669,103.615989 187.509994,101.653342 188.614,99.936 C189.718006,98.2186581 191.189991,96.8386719 193.03,95.796 C194.870009,94.7533281 197.108653,94.232 199.746,94.232 C202.44468,94.232 204.744657,94.7379949 206.646,95.75 C208.547343,96.7620051 210.095994,98.0959917 211.292,99.752 C212.488006,101.408008 213.361997,103.324656 213.914,105.502 C214.466003,107.679344 214.742,109.933322 214.742,112.264 C214.742,114.472011 214.481336,116.649323 213.96,118.796 C213.438664,120.942677 212.595339,122.859325 211.43,124.546 C210.264661,126.232675 208.762009,127.597328 206.922,128.64 C205.081991,129.682672 202.843347,130.204 200.206,130.204 C197.691321,130.204 195.498676,129.713338 193.628,128.732 C191.757324,127.750662 190.224006,126.432008 189.028,124.776 C187.831994,123.119992 186.94267,121.234011 186.36,119.118 C185.77733,117.001989 185.486,114.840011 185.486,112.632 L185.486,112.632 Z M222.286,136 L222.286,70.312 L214.466,70.312 L214.466,94.784 L214.282,94.784 C213.423329,93.3733263 212.36534,92.1926714 211.108,91.242 C209.85066,90.2913286 208.516674,89.5246696 207.106,88.942 C205.695326,88.3593304 204.284674,87.9453346 202.874,87.7 C201.463326,87.4546654 200.144673,87.332 198.918,87.332 C195.299315,87.332 192.125347,87.9913267 189.396,89.31 C186.666653,90.6286733 184.397342,92.4073221 182.588,94.646 C180.778658,96.8846779 179.429338,99.5066516 178.54,102.512 C177.650662,105.517348 177.206,108.70665 177.206,112.08 C177.206,115.45335 177.665995,118.642652 178.586,121.648 C179.506005,124.653348 180.870658,127.290655 182.68,129.56 C184.489342,131.829345 186.758653,133.63866 189.488,134.988 C192.217347,136.33734 195.421982,137.012 199.102,137.012 C202.414017,137.012 205.449986,136.429339 208.21,135.264 C210.970014,134.098661 212.993994,132.197347 214.282,129.56 L214.466,129.56 L214.466,136 L222.286,136 Z M240.042,112.264 C240.042,109.381319 240.42533,106.820678 241.192,104.582 C241.958671,102.343322 243.01666,100.457341 244.366,98.924 C245.71534,97.390659 247.294658,96.2253373 249.104,95.428 C250.913342,94.6306627 252.82999,94.232 254.854,94.232 C256.87801,94.232 258.794658,94.6306627 260.604,95.428 C262.413342,96.2253373 263.99266,97.390659 265.342,98.924 C266.69134,100.457341 267.74933,102.343322 268.516,104.582 C269.282671,106.820678 269.666,109.381319 269.666,112.264 C269.666,115.146681 269.282671,117.707322 268.516,119.946 C267.74933,122.184678 266.69134,124.055326 265.342,125.558 C263.99266,127.060674 262.413342,128.210663 260.604,129.008 C258.794658,129.805337 256.87801,130.204 254.854,130.204 C252.82999,130.204 250.913342,129.805337 249.104,129.008 C247.294658,128.210663 245.71534,127.060674 244.366,125.558 C243.01666,124.055326 241.958671,122.184678 241.192,119.946 C240.42533,117.707322 240.042,115.146681 240.042,112.264 L240.042,112.264 Z M231.762,112.264 C231.762,115.760017 232.252662,119.010652 233.234,122.016 C234.215338,125.021348 235.687324,127.643322 237.65,129.882 C239.612676,132.120678 242.035319,133.86866 244.918,135.126 C247.800681,136.38334 251.112648,137.012 254.854,137.012 C258.656686,137.012 261.983986,136.38334 264.836,135.126 C267.688014,133.86866 270.095324,132.120678 272.058,129.882 C274.020676,127.643322 275.492662,125.021348 276.474,122.016 C277.455338,119.010652 277.946,115.760017 277.946,112.264 C277.946,108.767983 277.455338,105.502015 276.474,102.466 C275.492662,99.4299848 274.020676,96.7926779 272.058,94.554 C270.095324,92.3153221 267.688014,90.5520064 264.836,89.264 C261.983986,87.9759936 258.656686,87.332 254.854,87.332 C251.112648,87.332 247.800681,87.9759936 244.918,89.264 C242.035319,90.5520064 239.612676,92.3153221 237.65,94.554 C235.687324,96.7926779 234.215338,99.4299848 233.234,102.466 C232.252662,105.502015 231.762,108.767983 231.762,112.264 L231.762,112.264 Z M287.606,70.312 L287.606,136 L295.426,136 L295.426,70.312 L287.606,70.312 Z M308.03,70.312 L308.03,136 L315.85,136 L315.85,70.312 L308.03,70.312 Z" id="doll" fill="#BABABD" sketch:type="MSShapeGroup"></path>
                <path d="M176.01,310.08 C176.01,307.626654 176.439329,305.418676 177.298,303.456 C178.156671,301.493324 179.229994,299.730008 180.518,298.166 C181.806006,296.601992 183.201326,295.206673 184.704,293.98 C186.206674,292.753327 187.601994,291.588006 188.89,290.484 C190.178006,289.379994 191.251329,288.306672 192.11,287.264 C192.968671,286.221328 193.398,285.148006 193.398,284.044 L193.398,279.628 C193.398,276.377317 192.846006,274.092673 191.742,272.774 C190.637994,271.455327 188.920678,270.796 186.59,270.796 C185.608662,270.796 184.704004,270.903332 183.876,271.118 C183.047996,271.332668 182.34267,271.761997 181.76,272.406 C181.17733,273.050003 180.732668,273.969994 180.426,275.166 C180.119332,276.362006 179.966,277.910657 179.966,279.812 L179.966,282.756 L172.33,282.756 L172.33,279.076 C172.33,277.358658 172.544665,275.610676 172.974,273.832 C173.403335,272.053324 174.139328,270.443341 175.182,269.002 C176.224672,267.560659 177.635324,266.395338 179.414,265.506 C181.192676,264.616662 183.461986,264.172 186.222,264.172 C191.190025,264.172 194.900654,265.229989 197.354,267.346 C199.807346,269.462011 201.034,272.482647 201.034,276.408 L201.034,283.768 C201.034,284.810672 201.478662,285.837995 202.368,286.85 C203.257338,287.862005 204.345994,288.935328 205.634,290.07 C206.922006,291.204672 208.347992,292.431327 209.912,293.75 C211.476008,295.068673 212.901994,296.525325 214.19,298.12 C215.478006,299.714675 216.566662,301.47799 217.456,303.41 C218.345338,305.34201 218.79,307.473322 218.79,309.804 C218.79,312.809348 218.345338,315.553988 217.456,318.038 C216.566662,320.522012 215.232676,322.668658 213.454,324.478 C211.675324,326.287342 209.467347,327.697995 206.83,328.71 C204.192653,329.722005 201.156684,330.228 197.722,330.228 C193.796647,330.228 190.469347,329.706672 187.74,328.664 C185.010653,327.621328 182.772009,326.195342 181.024,324.386 C179.275991,322.576658 178.003337,320.445346 177.206,317.992 C176.408663,315.538654 176.01,312.901347 176.01,310.08 L176.01,310.08 Z M197.354,290.944 C196.863331,292.477341 195.882007,293.841994 194.41,295.038 C192.937993,296.234006 191.420008,297.50666 189.856,298.856 C188.291992,300.20534 186.896673,301.769324 185.67,303.548 C184.443327,305.326676 183.83,307.534653 183.83,310.172 C183.83,312.380011 184.213329,314.327325 184.98,316.014 C185.74667,317.700675 186.75866,319.111328 188.016,320.246 C189.27334,321.380672 190.714659,322.23933 192.34,322.822 C193.965341,323.40467 195.667324,323.696 197.446,323.696 C201.310019,323.696 204.514654,322.576678 207.06,320.338 C209.605346,318.099322 210.878,314.710689 210.878,310.172 C210.878,307.47332 210.264673,305.234676 209.038,303.456 C207.811327,301.677324 206.416008,300.128673 204.852,298.81 C203.287992,297.491327 201.770007,296.234006 200.298,295.038 C198.825993,293.841994 197.844669,292.477341 197.354,290.944 L197.354,290.944 Z M228.91,282.296 C228.91,280.94666 229.124665,279.244677 229.554,277.19 C229.983335,275.135323 230.87266,273.14201 232.222,271.21 C233.57134,269.27799 235.487988,267.622007 237.972,266.242 C240.456012,264.861993 243.72198,264.172 247.77,264.172 C251.327351,264.172 254.286655,264.723994 256.648,265.828 C259.009345,266.932006 260.879993,268.296659 262.26,269.922 C263.640007,271.547341 264.605997,273.295324 265.158,275.166 C265.710003,277.036676 265.986,278.769325 265.986,280.364 C265.986,282.326676 265.679336,284.181991 265.066,285.93 C264.452664,287.678009 263.655338,289.241993 262.674,290.622 C261.692662,292.002007 260.542673,293.151995 259.224,294.072 C257.905327,294.992005 256.57134,295.543999 255.222,295.728 C256.816675,295.850667 258.441992,296.24933 260.098,296.924 C261.754008,297.59867 263.271993,298.56466 264.652,299.822 C266.032007,301.07934 267.166662,302.627991 268.056,304.468 C268.945338,306.308009 269.39,308.454654 269.39,310.908 C269.39,313.729347 268.899338,316.335988 267.918,318.728 C266.936662,321.120012 265.48001,323.159325 263.548,324.846 C261.61599,326.532675 259.254681,327.851329 256.464,328.802 C253.673319,329.752671 250.438018,330.228 246.758,330.228 C239.581964,330.228 234.414682,328.388018 231.256,324.708 C228.097318,321.027982 226.518,315.416038 226.518,307.872 L234.154,307.872 C234.154,312.962692 235.227323,316.872653 237.374,319.602 C239.520677,322.331347 242.801978,323.696 247.218,323.696 C249.24201,323.696 251.127991,323.450669 252.876,322.96 C254.624009,322.469331 256.141994,321.718005 257.43,320.706 C258.718006,319.693995 259.729996,318.452007 260.466,316.98 C261.202004,315.507993 261.57,313.790676 261.57,311.828 C261.57,309.558655 261.156004,307.657341 260.328,306.124 C259.499996,304.590659 258.41134,303.333338 257.062,302.352 C255.71266,301.370662 254.133342,300.665335 252.324,300.236 C250.514658,299.806665 248.659343,299.592 246.758,299.592 C245.960663,299.592 245.301336,299.607333 244.78,299.638 C244.258664,299.668667 243.814002,299.714666 243.446,299.776 C243.016665,299.837334 242.648668,299.898666 242.342,299.96 L242.25,292.784 C242.495335,292.845334 242.863331,292.906666 243.354,292.968 C243.722002,293.029334 244.212664,293.06 244.826,293.06 L247.034,293.06 C248.260673,293.06 249.533327,292.876002 250.852,292.508 C252.170673,292.139998 253.366661,291.496005 254.44,290.576 C255.513339,289.655995 256.402663,288.429341 257.108,286.896 C257.813337,285.362659 258.166,283.430678 258.166,281.1 C258.166,278.033318 257.138677,275.549343 255.084,273.648 C253.029323,271.746657 250.438016,270.796 247.31,270.796 C245.163323,270.796 243.41534,271.209996 242.066,272.038 C240.71666,272.866004 239.65867,273.862661 238.892,275.028 C238.125329,276.193339 237.588668,277.45066 237.282,278.8 C236.975332,280.14934 236.822,281.314662 236.822,282.296 L228.91,282.296 Z M295.702,312.656 C292.696652,312.656 289.982679,312.104006 287.56,311 C285.137321,309.895994 283.082675,308.33201 281.396,306.308 C279.709325,304.28399 278.406005,301.846014 277.486,298.994 C276.565995,296.141986 276.106,292.968017 276.106,289.472 C276.106,285.853315 276.642661,282.495349 277.716,279.398 C278.789339,276.300651 280.368656,273.617345 282.454,271.348 C284.539344,269.078655 287.099985,267.300006 290.136,266.012 C293.172015,264.723994 296.652647,264.08 300.578,264.08 C304.503353,264.08 307.953318,264.723994 310.928,266.012 C313.902682,267.300006 316.386657,269.063322 318.38,271.302 C320.373343,273.540678 321.875995,276.193318 322.888,279.26 C323.900005,282.326682 324.406,285.607983 324.406,289.104 C324.406,292.048015 323.946005,294.930653 323.026,297.752 C322.105995,300.573347 320.818008,303.087989 319.162,305.296 C317.505992,307.504011 315.512678,309.28266 313.182,310.632 C310.851322,311.98134 308.275347,312.656 305.454,312.656 L305.454,306.032 C306.435338,306.032 307.569994,305.710003 308.858,305.066 C310.146006,304.421997 311.341994,303.410007 312.446,302.03 C313.550006,300.649993 314.485329,298.856011 315.252,296.648 C316.01867,294.439989 316.402,291.802682 316.402,288.736 C316.402,285.791985 316.003337,283.200678 315.206,280.962 C314.408663,278.723322 313.289341,276.837341 311.848,275.304 C310.406659,273.770659 308.689343,272.62067 306.696,271.854 C304.702657,271.087329 302.510012,270.704 300.118,270.704 C297.787322,270.704 295.625343,271.102663 293.632,271.9 C291.638657,272.697337 289.936674,273.862659 288.526,275.396 C287.115326,276.929341 286.011337,278.815322 285.214,281.054 C284.416663,283.292678 284.018,285.853319 284.018,288.736 C284.018,291.864016 284.431996,294.531989 285.26,296.74 C286.088004,298.948011 287.099994,300.741993 288.296,302.122 C289.492006,303.502007 290.76466,304.498664 292.114,305.112 C293.46334,305.725336 294.659328,306.032 295.702,306.032 L295.702,312.656 Z" id="გვი" fill="#BABABD" sketch:type="MSShapeGroup"></path>
                <path d="M0,181 L465,181" id="Path-1" stroke="#BABABD" sketch:type="MSShapeGroup"></path>
            </g>
        </g>
    </g>
</svg>