<?xml version="1.0" encoding="UTF-8" standalone="no"?>
<svg width="465px" height="360px" viewBox="0 0 465 360" version="1.1" xmlns="http://www.w3.org/2000/svg" xmlns:xlink="http://www.w3.org/1999/xlink" xmlns:sketch="http://www.bohemiancoding.com/sketch/ns">
    <!-- Generator: Sketch Beta 3.4.4 (17258) - http://www.bohemiancoding.com/sketch -->
    <title>Hairline</title>
    <desc>Created with Sketch Beta.</desc>
    <defs></defs>
    <g id="Outline" stroke="none" stroke-width="1" fill="none" fill-rule="evenodd" sketch:type="MSPage">
        <g id="Hairline" sketch:type="MSArtboardGroup">
            <g id="Group" sketch:type="MSLayerGroup">
                <g id="Tag">
                    <rect id="Rectangle-1" fill="#BABABD" sketch:type="MSShapeGroup" x="0" y="0" width="30" height="360"></rect>
                    <text id="აღმავალი" sketch:type="MSTextLayer" transform="translate(13.500000, 270.500000) rotate(-90.000000) translate(-13.500000, -270.500000) " font-family="BG Courier" font-size="21" font-weight="normal" sketch:alignment="middle" fill="#646466">
                        <tspan x="-56.472" y="275">წვრილი ხაზი</tspan>
                    </text>
                    <text id="ascender" sketch:type="MSTextLayer" transform="translate(14.500000, 90.500000) rotate(-90.000000) translate(-14.500000, -90.500000) " font-family="BG Courier" font-size="21" font-weight="normal" sketch:alignment="middle" fill="#646466">
                        <tspan x="-35.9" y="95">hairline</tspan>
                    </text>
                </g>
                <path d="M222.214844,131.191406 L206.761719,132.179688 L206.087891,131.550781 L206.087891,127.417969 L205.728516,127.328125 C204.171216,129.065113 202.247082,130.487625 199.956055,131.595703 C197.665028,132.703782 195.306653,133.257812 192.880859,133.257812 C190.365222,133.257812 187.931978,132.696295 185.581055,131.573242 C183.230131,130.45019 181.186207,128.870453 179.449219,126.833984 C177.682283,124.767568 176.282232,122.281916 175.249023,119.376953 C174.215815,116.471991 173.699219,113.267596 173.699219,109.763672 C173.699219,106.559229 174.25325,103.519546 175.361328,100.644531 C176.469407,97.7695169 177.996735,95.253917 179.943359,93.0976562 C181.770191,91.0911358 184.008776,89.4889383 186.65918,88.2910156 C189.309584,87.093093 192.012356,86.4941406 194.767578,86.4941406 C196.833995,86.4941406 198.862946,86.7561823 200.854492,87.2802734 C202.846039,87.8043646 204.56054,88.4706991 205.998047,89.2792969 L205.998047,73.8710938 C205.998047,72.613275 205.788414,71.4677786 205.369141,70.4345703 C204.949868,69.401362 204.365889,68.6152371 203.617188,68.0761719 C202.778642,67.5071586 201.648119,67.0953789 200.225586,66.8408203 C198.803053,66.5862617 197.268237,66.3990891 195.621094,66.2792969 L195.621094,63.4941406 L213.724609,62.4609375 L214.398438,63.1347656 L214.398438,122.880859 C214.398438,123.929042 214.600584,124.819983 215.004883,125.553711 C215.409182,126.287439 216.000647,126.908852 216.779297,127.417969 C217.34831,127.777346 218.17187,128.001953 219.25,128.091797 C220.32813,128.181641 221.316402,128.241536 222.214844,128.271484 L222.214844,131.191406 Z M205.998047,123.419922 L205.998047,97.5 C205.758462,96.7213503 205.369143,95.882817 204.830078,94.984375 C204.291013,94.085933 203.617192,93.2623735 202.808594,92.5136719 C201.9401,91.7649702 200.921881,91.1435572 199.753906,90.6494141 C198.585932,90.155271 197.223315,89.9082031 195.666016,89.9082031 C193.869132,89.9082031 192.214526,90.3723912 190.702148,91.3007812 C189.189771,92.2291713 187.849615,93.5618403 186.681641,95.2988281 C185.573562,96.9759198 184.697594,99.1096876 184.053711,101.700195 C183.409828,104.290703 183.087891,107.158187 183.087891,110.302734 C183.087891,112.818372 183.327472,115.101878 183.806641,117.15332 C184.28581,119.204763 185.094395,121.113923 186.232422,122.880859 C187.280604,124.557951 188.62076,125.905594 190.25293,126.923828 C191.885099,127.942062 193.824208,128.451172 196.070312,128.451172 C198.466158,128.451172 200.450187,127.927089 202.022461,126.878906 C203.594734,125.830724 204.919916,124.677741 205.998047,123.419922 L205.998047,123.419922 Z M269.697266,109.404297 C269.697266,112.518896 269.20313,115.58104 268.214844,118.59082 C267.226558,121.600601 265.81902,124.153635 263.992188,126.25 C261.925771,128.645845 259.529962,130.427729 256.804688,131.595703 C254.079413,132.763678 251.024757,133.347656 247.640625,133.347656 C244.825507,133.347656 242.145195,132.816086 239.599609,131.75293 C237.054024,130.689773 234.792979,129.139984 232.816406,127.103516 C230.869782,125.096995 229.319993,122.648777 228.166992,119.758789 C227.013992,116.868801 226.4375,113.626971 226.4375,110.033203 C226.4375,103.1152 228.451477,97.4551001 232.479492,93.0527344 C236.507507,88.6503686 241.785775,86.4492188 248.314453,86.4492188 C254.513703,86.4492188 259.627259,88.538065 263.655273,92.7158203 C267.683288,96.8935756 269.697266,102.456345 269.697266,109.404297 L269.697266,109.404297 Z M260.398438,109.494141 C260.398438,107.248036 260.17383,104.874687 259.724609,102.374023 C259.275388,99.8733599 258.601567,97.754566 257.703125,96.0175781 C256.744787,94.160798 255.486987,92.6709041 253.929688,91.5478516 C252.372388,90.4247991 250.470714,89.8632812 248.224609,89.8632812 C245.918608,89.8632812 243.949552,90.432286 242.317383,91.5703125 C240.685213,92.708339 239.360031,94.2656151 238.341797,96.2421875 C237.383459,98.0690196 236.709637,100.150379 236.320312,102.486328 C235.930988,104.822277 235.736328,107.083322 235.736328,109.269531 C235.736328,112.144546 235.968422,114.802397 236.432617,117.243164 C236.896812,119.683931 237.638016,121.862621 238.65625,123.779297 C239.674484,125.695973 240.954745,127.200841 242.49707,128.293945 C244.039396,129.38705 245.948556,129.933594 248.224609,129.933594 C251.968118,129.933594 254.932932,128.121763 257.119141,124.498047 C259.305349,120.874331 260.398438,115.873079 260.398438,109.494141 L260.398438,109.494141 Z M296.875,132 L275.267578,132 L275.267578,129.035156 C275.956384,128.97526 276.6901,128.907878 277.46875,128.833008 C278.2474,128.758138 278.891273,128.645834 279.400391,128.496094 C280.238936,128.226561 280.867836,127.754886 281.287109,127.081055 C281.706382,126.407223 281.916016,125.531255 281.916016,124.453125 L281.916016,73.1523438 C281.916016,72.0742134 281.683922,71.0634813 281.219727,70.1201172 C280.755532,69.1767531 280.149092,68.4355496 279.400391,67.8964844 C278.861325,67.5371076 277.873054,67.2076838 276.435547,66.9082031 C274.99804,66.6087225 273.845056,66.4290368 272.976562,66.3691406 L272.976562,63.4941406 L289.642578,62.4609375 L290.271484,63.1347656 L290.271484,123.914062 C290.271484,124.962245 290.466144,125.823239 290.855469,126.49707 C291.244794,127.170902 291.873694,127.687498 292.742188,128.046875 C293.401045,128.346356 294.052406,128.570963 294.696289,128.720703 C295.340172,128.870443 296.066402,128.97526 296.875,129.035156 L296.875,132 Z M323.199219,132 L301.591797,132 L301.591797,129.035156 C302.280602,128.97526 303.014319,128.907878 303.792969,128.833008 C304.571618,128.758138 305.215492,128.645834 305.724609,128.496094 C306.563155,128.226561 307.192055,127.754886 307.611328,127.081055 C308.030601,126.407223 308.240234,125.531255 308.240234,124.453125 L308.240234,73.1523438 C308.240234,72.0742134 308.00814,71.0634813 307.543945,70.1201172 C307.07975,69.1767531 306.473311,68.4355496 305.724609,67.8964844 C305.185544,67.5371076 304.197273,67.2076838 302.759766,66.9082031 C301.322258,66.6087225 300.169275,66.4290368 299.300781,66.3691406 L299.300781,63.4941406 L315.966797,62.4609375 L316.595703,63.1347656 L316.595703,123.914062 C316.595703,124.962245 316.790363,125.823239 317.179688,126.49707 C317.569012,127.170902 318.197912,127.687498 319.066406,128.046875 C319.725264,128.346356 320.376624,128.570963 321.020508,128.720703 C321.664391,128.870443 322.390621,128.97526 323.199219,129.035156 L323.199219,132 Z" id="doll" fill="#BABABD" sketch:type="MSShapeGroup"></path>
                <path d="M200.621474,87.2201918 C198.704741,86.7361553 196.753461,86.4941406 194.767578,86.4941406 C192.012356,86.4941406 189.309584,87.093093 186.65918,88.2910156 C184.17744,89.4127059 182.056773,90.8888544 180.297125,92.7195006 L183.63907,103.650512 C183.758028,102.983839 183.896242,102.333734 184.053711,101.700195 C184.697594,99.1096876 185.573562,96.9759198 186.681641,95.2988281 C187.849615,93.5618403 189.189771,92.2291713 190.702148,91.3007812 C192.214526,90.3723912 193.869132,89.9082031 195.666016,89.9082031 C197.223315,89.9082031 198.585932,90.155271 199.753906,90.6494141 C200.60159,91.0080495 201.37039,91.4337237 202.06032,91.926444 L200.621474,87.2201918 Z M206.087891,127.417969 L205.728516,127.328125 C204.171216,129.065113 202.247082,130.487625 199.956055,131.595703 C197.665028,132.703782 195.306653,133.257812 192.880859,133.257812 C192.817388,133.257812 192.753969,133.257455 192.690603,133.25674 L190.860932,127.272156 C192.360435,128.05817 194.096882,128.451172 196.070312,128.451172 C198.466158,128.451172 200.450187,127.927089 202.022461,126.878906 C203.594734,125.830724 204.919916,124.677741 205.998047,123.419922 L206.087891,127.417969 Z" id="doll" fill="#666666" sketch:type="MSShapeGroup"></path>
                <path d="M241,132.27962 C243.123287,132.991647 245.336814,133.347656 247.640625,133.347656 C250.296693,133.347656 252.749803,132.987923 255,132.268447 L255,127.213675 C253.131171,129.02696 250.872718,129.933594 248.224609,129.933594 C245.948556,129.933594 244.039396,129.38705 242.49707,128.293945 C241.967105,127.918339 241.468082,127.494115 241,127.021273 L241,132.27962 Z M241,87.5315119 C243.233219,86.8099817 245.671366,86.4492188 248.314453,86.4492188 C250.704318,86.4492188 252.932831,86.7596569 255,87.3805368 L255,92.4205846 C254.660507,92.1085095 254.303737,91.8175987 253.929688,91.5478516 C252.372388,90.4247991 250.470714,89.8632812 248.224609,89.8632812 C245.918608,89.8632812 243.949552,90.432286 242.317383,91.5703125 C241.853453,91.8937865 241.414326,92.2511329 241,92.6423528 L241,87.5315119 Z" id="Path" fill="#666666" sketch:type="MSShapeGroup"></path>
                <path d="M204.078,309.928 C204.078,314.896 201.962,319.588 197.638,323.912 C193.314,328.328 189.726,330.536 186.782,330.536 C183.93,330.536 180.066,328.512 175.19,324.372 C170.314,320.324 167.922,315.632 167.922,310.204 C167.922,305.144 170.406,301.096 175.282,298.244 C180.158,295.392 184.758,293.92 188.99,293.92 C194.326,293.92 198.19,295.668 200.49,299.072 C202.882,302.568 204.078,306.156 204.078,309.928 L204.078,309.928 Z M230.878,281.316 C230.786,278.096 229.866,275.336 227.75,273.22 C224.07,269.816 218.826,266.32 218.826,260.892 C217.17,260.892 215.422,264.02 215.422,265.952 C215.422,267.424 217.262,269.908 220.85,273.312 C224.438,276.716 226.186,279.384 226.186,281.5 C226.186,286.1 223.518,288.4 218.09,288.4 C214.226,288.4 210.454,285.916 210.454,282.972 L211.558,279.2 C211.558,277.912 210.914,277.268 209.626,277.268 C207.05,277.268 205.762,279.108 205.762,282.696 C205.762,288.308 211.742,293 218.274,293 C225.266,293 230.878,288.216 230.878,281.316 L230.878,281.316 Z M265.378,280.488 C265.378,272.852 260.41,267.976 252.774,267.976 C251.026,267.976 248.358,268.62 244.954,269.908 L244.954,247 C244.954,242.032 245.966,238.352 247.99,236.052 C250.014,233.66 252.13,232.464 254.43,232.464 C257.466,232.464 259.95,232.832 262.066,233.476 C265.102,234.028 267.034,233.752 267.77,232.648 C269.334,230.348 266.482,227.956 262.066,227.956 C253.694,227.956 247.898,229.612 244.77,232.924 C241.734,236.88 240.262,241.388 240.262,246.632 L240.262,280.028 C240.262,287.664 245.046,293 252.774,293 C259.858,293 265.378,287.48 265.378,280.488 L265.378,280.488 Z M260.686,280.488 C260.686,285.272 257.65,288.4 252.774,288.492 C247.898,288.4 244.954,285.364 244.954,280.488 L244.954,274.416 C247.438,273.22 250.014,272.484 252.774,272.392 C258.018,272.484 260.686,275.244 260.686,280.488 L260.686,280.488 Z M299.878,280.488 L299.878,255.372 C299.878,247.736 298.958,242.124 297.118,238.444 C294.818,233.66 290.494,230.164 284.054,227.956 C282.398,227.956 281.478,228.876 281.386,230.808 C281.478,232.556 282.398,233.568 284.146,233.844 C289.022,234.488 292.242,237.432 293.806,242.86 C294.726,245.712 295.186,250.128 295.186,256.016 L295.186,268.988 C293.714,268.344 291.046,267.976 287.274,267.976 C279.086,267.976 274.762,272.116 274.762,280.488 C274.762,288.032 280.282,293 288.654,293 C294.818,293 299.878,285.456 299.878,280.488 L299.878,280.488 Z M295.186,273.588 L295.186,273.772 C295.186,284.628 292.886,288.4 287.274,288.4 C282.582,288.4 279.454,285.272 279.454,280.488 C279.454,275.796 282.582,272.576 287.274,272.576 C290.126,272.576 292.794,272.944 295.186,273.588 L295.186,273.588 Z M334.378,280.488 C334.378,273.128 329.134,267.976 321.774,267.976 C314.23,267.976 309.262,273.312 309.262,281.132 C309.262,286.1 312.39,293 316.162,293 C318.278,293 319.29,292.356 319.29,290.976 L319.29,290.884 C319.29,289.228 319.29,289.136 316.622,287.664 C314.874,286.744 313.954,284.72 313.954,281.5 C313.954,275.52 316.53,272.576 321.774,272.576 C327.202,272.576 329.686,275.704 329.686,280.488 C329.686,284.26 328.95,286.468 325.822,288.86 C325.362,289.136 325.178,289.872 325.178,290.976 C325.178,292.356 326.098,293 327.846,293 C331.894,293 334.378,286.468 334.378,280.488 L334.378,280.488 Z M208.77,310.204 C208.77,304.132 206.838,299.164 203.066,295.392 C199.294,291.62 195.982,289.872 193.038,290.056 C193.406,284.812 193.59,280.764 193.59,277.728 C193.59,270.828 189.358,267.332 182.458,267.332 C176.386,267.332 171.694,271.932 171.694,276.716 C171.694,281.592 175.098,284.812 177.306,284.168 C179.054,283.8 179.146,283.248 179.79,281.5 C179.79,280.488 179.238,279.752 178.042,279.2 C176.938,278.556 176.386,277.82 176.294,276.808 C176.294,274.416 179.79,271.932 182.458,271.932 C186.782,271.932 188.99,274.324 188.99,279.2 C188.99,279.752 188.898,280.672 188.806,281.96 C188.714,283.248 188.53,285.824 188.346,289.78 C183.194,289.688 177.674,291.528 171.878,295.208 C166.082,298.98 163.23,303.948 163.23,310.204 C163.23,317.564 166.082,323.544 171.786,328.144 C177.582,332.744 182.55,335.044 186.874,335.044 C191.382,335.044 196.166,332.376 201.226,327.132 C206.286,321.888 208.77,316.276 208.77,310.204 L208.77,310.204 Z" id="განძი" fill="#BABABD" sketch:type="MSShapeGroup"></path>
                <path d="M245.446538,241.629832 C245.933408,239.291414 246.781228,237.425604 247.99,236.052 C249.892714,233.803338 251.876732,232.611633 254.018487,232.476884 L252.033592,229.038945 C248.863419,229.863314 246.437575,231.158332 244.77,232.924 C243.882816,234.080028 243.129187,235.283193 242.506817,236.538087 L245.446538,241.629832 Z" id="Path" fill="#666666" sketch:type="MSShapeGroup"></path>
                <path d="M298.539655,242.333239 C298.150596,240.856975 297.676711,239.561421 297.118,238.444 C295.775703,235.652023 293.744038,233.298736 291.004715,231.384137 L288.689931,235.393462 C291.088638,236.875515 292.793994,239.347744 293.806,242.86 C294.291899,244.366286 294.649483,246.308839 294.878754,248.674105 L298.539655,242.333239 Z" id="Path" fill="#666666" sketch:type="MSShapeGroup"></path>
                <path d="M0,181 L465,181" id="Path-1" stroke="#BABABD" sketch:type="MSShapeGroup"></path>
            </g>
        </g>
    </g>
</svg>