<?xml version="1.0" encoding="UTF-8" standalone="no"?>
<svg width="465px" height="360px" viewBox="0 0 465 360" version="1.1" xmlns="http://www.w3.org/2000/svg" xmlns:xlink="http://www.w3.org/1999/xlink" xmlns:sketch="http://www.bohemiancoding.com/sketch/ns">
    <!-- Generator: Sketch Beta 3.4.4 (17258) - http://www.bohemiancoding.com/sketch -->
    <title>Ligature</title>
    <desc>Created with Sketch Beta.</desc>
    <defs></defs>
    <g id="Outline" stroke="none" stroke-width="1" fill="none" fill-rule="evenodd" sketch:type="MSPage">
        <g id="Ligature" sketch:type="MSArtboardGroup">
            <g id="Tag" sketch:type="MSLayerGroup">
                <g id="Group" sketch:type="MSShapeGroup">
                    <rect id="Rectangle-1" fill="#BABABD" x="0" y="0" width="30" height="360"></rect>
                    <path d="M-24.972,271.052 C-24.972,272.627 -25.518,274.181 -26.589,275.714 L-27.261,275.231 L-27.009,274.895 C-26.19,273.761 -25.791,272.48 -25.791,271.052 C-25.791,269.183 -26.253,268.238 -27.198,268.238 C-27.807,268.238 -28.206,268.616 -28.374,269.372 C-28.353,269.477 -28.353,269.561 -28.353,269.645 L-28.353,272.942 L-29.172,272.942 L-29.172,269.645 C-29.172,269.498 -29.193,269.393 -29.214,269.372 C-29.361,268.7 -29.928,268.238 -30.6,268.238 C-31.377,268.238 -32.028,268.868 -32.028,269.645 L-32.007,272.942 L-32.826,272.942 L-32.826,272.459 L-32.847,269.645 C-32.847,269.582 -32.847,269.477 -32.826,269.372 C-33.015,268.616 -33.393,268.238 -34.002,268.238 C-34.947,268.238 -35.409,269.183 -35.409,271.052 C-35.409,273.236 -33.603,276.68 -31.692,277.016 C-31.314,277.079 -30.936,277.184 -30.579,277.31 L-30.537,277.31 C-28.353,278.045 -26.61,279.536 -25.329,281.825 L-26.043,282.224 C-27.534,279.599 -29.655,278.108 -32.364,277.751 L-32.427,277.751 C-32.658,277.709 -32.994,277.688 -33.393,277.688 C-34.002,277.688 -34.737,277.793 -35.598,277.982 L-35.787,277.184 L-35.388,277.1 C-34.779,276.953 -34.128,276.869 -33.456,276.869 C-35.22,275.441 -36.228,273.32 -36.228,271.052 C-36.228,268.637 -35.493,267.419 -34.002,267.419 C-33.309,267.419 -32.763,267.713 -32.385,268.301 C-31.944,267.713 -31.335,267.419 -30.6,267.419 C-29.865,267.419 -29.256,267.713 -28.815,268.301 C-28.437,267.713 -27.891,267.419 -27.198,267.419 C-25.707,267.419 -24.972,268.637 -24.972,271.052 L-24.972,271.052 Z M-13.506,271.619 C-13.59,272.984 -14.136,274.286 -15.123,275.567 L-15.774,275.063 C-14.892,273.929 -14.409,272.774 -14.325,271.619 C-14.493,269.624 -16.005,268.238 -18,268.238 C-19.995,268.238 -21.507,269.624 -21.675,271.619 C-21.591,272.774 -21.108,273.929 -20.226,275.063 L-20.877,275.567 L-21.129,275.252 C-21.948,274.181 -22.41,272.984 -22.494,271.619 C-22.326,269.162 -20.457,267.419 -18,267.419 C-15.543,267.419 -13.674,269.162 -13.506,271.619 L-13.506,271.619 Z M-0.675,277.94 C-0.675,280.523 -2.733,282.077 -5.4,282.077 C-8.025,282.077 -10.125,280.523 -10.125,277.94 C-10.125,276.071 -8.865,274.496 -7.08,273.992 C-5.547,273.551 -4.77,272.375 -4.77,270.443 C-4.77,269.162 -5.694,268.238 -6.954,268.238 C-8.235,268.238 -9.159,269.162 -9.159,270.443 C-9.159,270.758 -9.054,271.157 -8.823,271.682 L-9.558,272.018 C-9.831,271.388 -9.978,270.863 -9.978,270.443 C-9.978,268.322 -8.214,267.419 -6.954,267.419 C-5.211,267.419 -3.951,268.679 -3.951,270.443 C-3.951,270.59 -3.951,270.8 -3.972,271.073 C-3.993,271.367 -3.993,271.577 -3.993,271.724 C-3.993,273.152 -3.51,273.74 -2.229,274.811 C-1.2,275.672 -0.675,276.722 -0.675,277.94 L-0.675,277.94 Z M-1.494,277.94 C-1.494,276.155 -1.977,276.092 -3.972,274.307 C-4.266,273.95 -4.476,273.572 -4.623,273.131 C-4.98,273.677 -5.61,274.16 -6.471,274.601 C-8.571,275.693 -9.306,276.071 -9.306,277.94 C-9.306,279.599 -8.445,280.649 -6.702,281.09 C-6.282,281.195 -5.841,281.258 -5.4,281.258 C-3.195,281.258 -1.494,280.103 -1.494,277.94 L-1.494,277.94 Z M11.715,271.451 C11.715,274.034 9.825,275.42 7.2,275.42 C4.68,275.42 2.685,273.908 2.685,271.451 C2.685,270.758 2.937,270.002 3.42,269.162 L4.134,269.582 L3.924,269.918 C3.651,270.401 3.525,270.905 3.525,271.451 C3.525,273.488 5.121,274.58 7.2,274.58 C9.279,274.58 10.896,273.467 10.896,271.451 C10.896,270.422 10.518,269.666 9.762,269.141 L7.473,267.839 C6.801,267.356 6.36,266.684 6.15,265.865 L6.045,265.466 L6.843,265.277 C7.158,266.6 7.851,267.398 8.901,267.713 C10.581,268.196 11.715,269.687 11.715,271.451 L11.715,271.451 Z M25.449,274.811 C25.449,276.743 25.176,279.473 23.265,280.985 C22.32,281.762 21.165,282.14 19.8,282.14 C17.091,282.14 15.054,280.523 14.487,277.856 C14.256,276.785 14.151,275.777 14.151,274.811 C14.151,270.863 15.537,268.469 18.309,267.629 C17.826,267.188 17.574,266.642 17.574,265.991 C17.574,264.71 18.519,263.765 19.8,263.765 C21.123,263.765 22.026,264.71 22.026,265.991 C22.026,266.663 21.774,267.209 21.27,267.608 C24.063,268.448 25.449,270.842 25.449,274.811 L25.449,274.811 Z M21.228,266.033 C21.228,265.256 20.577,264.605 19.8,264.605 C18.981,264.605 18.351,265.256 18.351,266.033 C18.351,266.852 18.981,267.482 19.8,267.482 C20.577,267.482 21.228,266.852 21.228,266.033 L21.228,266.033 Z M21.249,269.603 C21.249,268.826 20.598,268.175 19.821,268.175 C19.002,268.175 18.372,268.826 18.372,269.603 C18.372,270.422 19.002,271.052 19.821,271.052 C20.598,271.052 21.249,270.422 21.249,269.603 L21.249,269.603 Z M24.63,274.811 C24.63,271.64 23.706,269.624 21.837,268.721 C21.963,268.994 22.026,269.288 22.026,269.603 C22.026,270.884 21.081,271.829 19.8,271.829 C18.54,271.829 17.595,270.884 17.595,269.603 C17.595,269.288 17.658,268.994 17.763,268.721 C15.894,269.624 14.97,271.64 14.97,274.811 C14.97,277.415 15.621,279.242 16.902,280.292 C17.742,280.985 18.708,281.321 19.8,281.321 C22.089,281.321 23.811,279.935 24.315,277.667 C24.525,276.68 24.63,275.735 24.63,274.811 L24.63,274.811 Z M35.529,267.419 C34.752,267.419 34.122,267.713 33.618,268.322 C33.261,267.713 32.736,267.419 32.043,267.419 C31.035,267.419 30.237,268.217 30.216,269.225 C30.195,270.464 29.775,271.073 28.956,271.073 C28.179,271.073 27.591,270.317 27.591,269.54 C27.591,269.015 27.99,268.469 28.788,267.944 L28.326,267.251 C27.297,267.965 26.772,268.721 26.772,269.54 C26.772,270.863 27.675,271.892 28.956,271.892 C30.195,271.892 31.014,271.052 31.035,269.813 C31.056,268.763 31.392,268.238 32.043,268.238 C32.61,268.238 33.051,268.658 33.051,269.246 L33.051,269.876 C33.03,269.96 33.03,269.981 33.03,269.918 L33.03,272.921 L33.849,272.921 L33.87,270.464 L33.87,269.813 C33.87,268.868 34.584,268.238 35.529,268.238 C36.474,268.238 37.209,268.973 37.209,269.918 L37.209,277.982 C37.209,280.166 35.76,281.258 33.513,281.258 C32.988,281.258 32.484,281.195 32.022,281.048 C30.51,280.586 29.754,279.557 29.754,277.982 C29.754,276.953 30.258,276.008 31.266,275.189 L30.762,274.559 C29.544,275.546 28.935,276.701 28.935,277.982 C28.935,280.586 30.846,282.077 33.513,282.077 C36.18,282.077 38.028,280.586 38.028,277.982 L38.028,269.918 C38.028,268.427 37.02,267.419 35.529,267.419 L35.529,267.419 Z M50.523,271.409 C50.523,272.648 49.998,274.034 48.948,275.567 L48.276,275.105 C49.221,273.698 49.704,272.48 49.704,271.409 C49.704,269.288 48.948,268.238 47.415,268.238 C46.47,268.238 45.819,268.658 45.441,269.519 L45.483,269.582 L45.42,269.603 L45.42,269.624 L45.399,273.11 L44.58,273.11 C44.601,272.963 44.601,272.774 44.601,272.543 L44.601,269.645 C44.118,268.7 43.446,268.238 42.585,268.238 C41.052,268.238 40.296,269.288 40.296,271.409 C40.296,272.459 40.779,273.698 41.724,275.105 L41.052,275.567 L40.821,275.231 C39.918,273.887 39.477,272.606 39.477,271.409 C39.477,269.099 40.296,267.335 41.913,266.096 C42.417,265.718 43.341,265.256 44.685,264.689 C46.89,263.744 47.919,262.778 47.919,260.657 L47.919,260.237 L48.738,260.237 L48.738,260.657 C48.738,263.03 47.268,264.878 44.937,265.445 C43.572,265.76 42.459,266.474 41.619,267.566 C41.913,267.461 42.228,267.419 42.585,267.419 C43.593,267.419 44.391,267.839 44.979,268.7 C45.588,267.839 46.386,267.419 47.415,267.419 C49.998,267.419 50.523,269.813 50.523,271.409 L50.523,271.409 Z M62.115,271.451 C62.115,274.034 60.225,275.42 57.6,275.42 C55.08,275.42 53.085,273.908 53.085,271.451 C53.085,270.758 53.337,270.002 53.82,269.162 L54.534,269.582 L54.324,269.918 C54.051,270.401 53.925,270.905 53.925,271.451 C53.925,273.488 55.521,274.58 57.6,274.58 C59.679,274.58 61.296,273.467 61.296,271.451 C61.296,270.422 60.918,269.666 60.162,269.141 L57.873,267.839 C57.201,267.356 56.76,266.684 56.55,265.865 L56.445,265.466 L57.243,265.277 C57.558,266.6 58.251,267.398 59.301,267.713 C60.981,268.196 62.115,269.687 62.115,271.451 L62.115,271.451 Z" id="აღმავალი" fill="#646466" transform="translate(13.836000, 271.230500) rotate(-90.000000) translate(-13.836000, -271.230500) "></path>
                    <path d="M-25.19,94.559 C-25.19,94.853 -25.379,95 -25.778,95 L-33.401,95 C-33.8,95 -33.989,94.853 -33.989,94.559 C-33.989,94.286 -33.8,94.139 -33.401,94.139 L-30.02,94.139 L-30.02,83.009 L-32.498,83.009 C-32.897,83.009 -33.086,82.862 -33.086,82.568 C-33.086,82.274 -32.897,82.127 -32.498,82.127 L-29.159,82.127 L-29.159,94.139 L-25.778,94.139 C-25.379,94.139 -25.19,94.286 -25.19,94.559 L-25.19,94.559 Z M-17.84,81.707 L-16.58,81.707 L-16.58,83.933 L-17.84,83.933 L-17.84,81.707 Z M-12.569,94.559 C-12.569,94.853 -12.758,95 -13.157,95 L-20.78,95 C-21.179,95 -21.368,94.853 -21.368,94.559 C-21.368,94.286 -21.179,94.139 -20.78,94.139 L-17.399,94.139 L-17.399,86.999 L-19.919,86.999 C-20.318,86.999 -20.507,86.852 -20.507,86.558 C-20.507,86.264 -20.318,86.117 -19.919,86.117 L-16.538,86.117 L-16.538,94.139 L-13.157,94.139 C-12.758,94.139 -12.569,94.286 -12.569,94.559 L-12.569,94.559 Z M1.102,86.558 C1.102,86.852 0.913,86.999 0.514,86.999 L-0.641,86.999 L-0.641,95.588 C-0.641,97.037 -1.376,98.108 -2.867,98.759 C-3.182,98.885 -3.602,98.948 -4.127,98.948 L-6.584,98.948 C-6.962,98.948 -7.151,98.801 -7.151,98.528 C-7.151,98.234 -6.962,98.087 -6.584,98.087 L-4.106,98.087 C-3.056,98.108 -2.258,97.604 -1.733,96.575 C-1.586,96.281 -1.502,95.903 -1.502,95.462 L-1.502,92.879 C-2.426,94.16 -3.623,94.79 -5.072,94.79 C-7.571,94.79 -9.419,92.816 -9.419,90.296 C-9.419,87.776 -7.571,85.802 -5.072,85.802 C-3.623,85.802 -2.426,86.432 -1.502,87.692 L-1.502,86.117 L0.514,86.117 C0.913,86.117 1.102,86.264 1.102,86.558 L1.102,86.558 Z M-1.502,90.296 C-1.502,88.217 -2.993,86.684 -5.03,86.684 C-7.067,86.684 -8.537,88.259 -8.537,90.296 C-8.537,92.333 -7.067,93.908 -5.03,93.908 C-2.993,93.908 -1.502,92.333 -1.502,90.296 L-1.502,90.296 Z M13.282,94.559 C13.282,94.853 13.093,95 12.694,95 L10.678,95 L10.678,93.761 C9.439,94.811 8.095,95.336 6.667,95.336 C4.84,95.336 3.37,94.391 3.37,92.627 C3.37,90.506 5.554,89.519 7.885,89.519 C8.704,89.519 9.628,89.624 10.678,89.834 L10.678,88.427 C10.678,87.23 9.397,86.684 8.053,86.684 C7.507,86.684 6.772,86.81 5.848,87.083 L4.819,87.377 C4.546,87.377 4.42,87.23 4.42,86.936 C4.42,86.537 4.693,86.495 5.68,86.243 C6.751,85.949 7.57,85.802 8.095,85.802 C9.859,85.802 11.539,86.768 11.539,88.427 L11.539,94.139 L12.694,94.139 C13.093,94.139 13.282,94.286 13.282,94.559 L13.282,94.559 Z M10.678,92.606 L10.678,90.716 C9.901,90.485 8.998,90.38 7.969,90.38 C6.205,90.38 4.231,91.094 4.231,92.627 C4.231,93.887 5.302,94.475 6.625,94.475 C8.032,94.475 9.376,93.845 10.678,92.606 L10.678,92.606 Z M25.609,93.929 C25.609,94.58 23.026,95.336 21.451,95.336 C19.603,95.336 18.154,94.475 18.154,92.732 L18.154,86.999 L16.579,86.999 C16.18,86.999 15.991,86.852 15.991,86.558 C15.991,86.264 16.18,86.117 16.579,86.117 L18.154,86.117 L18.154,83.576 C18.154,83.198 18.301,83.009 18.595,83.009 C18.889,83.009 19.036,83.198 19.036,83.576 L19.036,86.117 L23.698,86.117 C24.097,86.117 24.286,86.264 24.286,86.558 C24.286,86.852 24.097,86.999 23.698,86.999 L19.036,86.999 L19.036,92.732 C19.036,93.908 20.128,94.475 21.388,94.475 C22.459,94.475 24.034,94.118 24.853,93.635 C25,93.53 25.126,93.488 25.189,93.488 C25.462,93.488 25.609,93.635 25.609,93.929 L25.609,93.929 Z M38.503,94.559 C38.503,94.853 38.314,95 37.936,95 L36.34,95 L36.34,93.74 C35.164,94.811 33.904,95.336 32.539,95.336 C30.88,95.336 29.767,94.223 29.767,92.543 L29.767,86.999 L28.612,86.999 C28.213,86.999 28.024,86.852 28.024,86.558 C28.024,86.264 28.213,86.117 28.612,86.117 L30.628,86.117 L30.628,92.543 C30.628,93.698 31.384,94.475 32.497,94.475 C33.904,94.475 35.185,93.824 36.34,92.543 L36.34,86.999 L34.765,86.999 C34.366,86.999 34.177,86.852 34.177,86.558 C34.177,86.264 34.366,86.117 34.765,86.117 L37.201,86.117 L37.201,94.139 L37.936,94.139 C38.314,94.139 38.503,94.286 38.503,94.559 L38.503,94.559 Z M51.124,87.209 C51.124,87.503 50.977,87.65 50.662,87.65 C50.557,87.65 50.41,87.566 50.221,87.398 C49.822,86.978 49.444,86.768 49.087,86.768 C47.974,86.768 46.798,87.818 44.971,89.414 L44.971,94.139 L48.793,94.139 C49.171,94.139 49.36,94.286 49.36,94.559 C49.36,94.853 49.171,95 48.793,95 L42.031,95 C41.632,95 41.443,94.853 41.443,94.58 C41.443,94.307 41.632,94.16 42.031,94.16 L44.11,94.16 L44.11,86.999 L42.514,86.999 C42.136,86.999 41.947,86.852 41.947,86.558 C41.947,86.264 42.136,86.117 42.514,86.117 L44.971,86.117 L44.971,88.301 C46.546,86.852 47.764,85.907 49.024,85.907 C49.717,85.907 51.124,86.6 51.124,87.209 L51.124,87.209 Z M63.283,93.593 C63.283,93.698 63.22,93.824 63.115,93.929 C62.275,94.79 60.238,95.336 58.789,95.336 C55.828,95.336 53.623,93.32 53.623,90.38 C53.623,87.671 55.723,85.802 58.432,85.802 C61.393,85.802 63.283,87.818 63.262,90.758 L54.484,90.758 C54.799,93.089 56.458,94.475 58.789,94.475 C60.301,94.475 61.54,94.097 62.527,93.32 C62.674,93.215 62.779,93.173 62.863,93.173 C63.136,93.173 63.283,93.32 63.283,93.593 L63.283,93.593 Z M54.484,89.897 L62.38,89.897 C62.044,87.902 60.469,86.684 58.432,86.684 C56.416,86.684 54.841,87.902 54.484,89.897 L54.484,89.897 Z" id="ascender" fill="#646466" transform="translate(15.455500, 90.327500) rotate(-90.000000) translate(-15.455500, -90.327500) "></path>
                    <path d="M179.46,107.664 L152.136,107.664 C152.258667,105.823991 152.65733,104.091341 153.332,102.466 C154.00667,100.840659 154.926661,99.4146728 156.092,98.188 C157.257339,96.9613272 158.652659,95.9953369 160.278,95.29 C161.903341,94.5846631 163.72799,94.232 165.752,94.232 C167.714676,94.232 169.508659,94.5846631 171.134,95.29 C172.759341,95.9953369 174.169994,96.945994 175.366,98.142 C176.562006,99.338006 177.512663,100.763992 178.218,102.42 C178.923337,104.076008 179.337333,105.823991 179.46,107.664 L179.46,107.664 Z M187.004,120.912 L179.276,120.912 C178.60133,124.040016 177.206011,126.370659 175.09,127.904 C172.973989,129.437341 170.260017,130.204 166.948,130.204 C164.371987,130.204 162.133343,129.774671 160.232,128.916 C158.330657,128.057329 156.766673,126.907341 155.54,125.466 C154.313327,124.024659 153.424003,122.368676 152.872,120.498 C152.319997,118.627324 152.074666,116.649344 152.136,114.564 L187.74,114.564 C187.862667,111.681319 187.602003,108.645349 186.958,105.456 C186.313997,102.266651 185.148675,99.3226802 183.462,96.624 C181.775325,93.9253198 179.536681,91.7020087 176.746,89.954 C173.955319,88.2059913 170.444021,87.332 166.212,87.332 C162.961317,87.332 159.971347,87.9453272 157.242,89.172 C154.512653,90.3986728 152.151343,92.115989 150.158,94.324 C148.164657,96.532011 146.616006,99.1386516 145.512,102.144 C144.407994,105.149348 143.856,108.461315 143.856,112.08 C143.978667,115.698685 144.515329,119.041318 145.466,122.108 C146.416671,125.174682 147.842657,127.811989 149.744,130.02 C151.645343,132.228011 153.991319,133.945327 156.782,135.172 C159.572681,136.398673 162.869314,137.012 166.672,137.012 C172.06936,137.012 176.546649,135.66268 180.104,132.964 C183.661351,130.26532 185.961328,126.248027 187.004,120.912 L187.004,120.912 Z M224.908,95.336 L206.876,95.336 L206.876,136 L199.056,136 L199.056,95.336 L191.052,95.336 L191.052,88.436 L199.056,88.436 L199.056,81.352 C199.056,77.4879807 200.175322,74.5593433 202.414,72.566 C204.652678,70.5726567 207.918645,69.576 212.212,69.576 C212.948004,69.576 213.791329,69.6373327 214.742,69.76 C215.692671,69.8826673 216.535996,70.0666654 217.272,70.312 L217.272,77.12 C216.59733,76.8746654 215.861337,76.7060005 215.064,76.614 C214.266663,76.5219995 213.53067,76.476 212.856,76.476 C210.954657,76.476 209.482672,76.8439963 208.44,77.58 C207.397328,78.3160037 206.876,79.7266562 206.876,81.812 L206.876,88.436 L224.908,88.436 L224.908,81.352 C224.908,77.4879807 226.027322,74.5593433 228.266,72.566 C230.504678,70.5726567 233.770645,69.576 238.064,69.576 C238.800004,69.576 239.643329,69.6373327 240.594,69.76 C241.544671,69.8826673 242.387996,70.0666654 243.124,70.312 L243.124,77.12 C242.44933,76.8746654 241.713337,76.7060005 240.916,76.614 C240.118663,76.5219995 239.38267,76.476 238.708,76.476 C236.806657,76.476 235.334672,76.8439963 234.292,77.58 C233.249328,78.3160037 232.728,79.7266562 232.728,81.812 L232.728,88.436 L241.928,88.436 L241.928,95.336 L232.728,95.336 L232.728,136 L224.908,136 L224.908,95.336 Z M254.624,112.264 C254.624,109.381319 255.007329,106.820678 255.774,104.582 C256.54067,102.343322 257.59866,100.457341 258.948,98.924 C260.29734,97.390659 261.876658,96.2253373 263.686,95.428 C265.495342,94.6306627 267.41199,94.232 269.436,94.232 C271.46001,94.232 273.376658,94.6306627 275.186,95.428 C276.995342,96.2253373 278.57466,97.390659 279.924,98.924 C281.27334,100.457341 282.331329,102.343322 283.098,104.582 C283.86467,106.820678 284.248,109.381319 284.248,112.264 C284.248,115.146681 283.86467,117.707322 283.098,119.946 C282.331329,122.184678 281.27334,124.055326 279.924,125.558 C278.57466,127.060674 276.995342,128.210663 275.186,129.008 C273.376658,129.805337 271.46001,130.204 269.436,130.204 C267.41199,130.204 265.495342,129.805337 263.686,129.008 C261.876658,128.210663 260.29734,127.060674 258.948,125.558 C257.59866,124.055326 256.54067,122.184678 255.774,119.946 C255.007329,117.707322 254.624,115.146681 254.624,112.264 L254.624,112.264 Z M246.344,112.264 C246.344,115.760017 246.834662,119.010652 247.816,122.016 C248.797338,125.021348 250.269324,127.643322 252.232,129.882 C254.194676,132.120678 256.617319,133.86866 259.5,135.126 C262.382681,136.38334 265.694648,137.012 269.436,137.012 C273.238686,137.012 276.565986,136.38334 279.418,135.126 C282.270014,133.86866 284.677324,132.120678 286.64,129.882 C288.602676,127.643322 290.074662,125.021348 291.056,122.016 C292.037338,119.010652 292.528,115.760017 292.528,112.264 C292.528,108.767983 292.037338,105.502015 291.056,102.466 C290.074662,99.4299848 288.602676,96.7926779 286.64,94.554 C284.677324,92.3153221 282.270014,90.5520064 279.418,89.264 C276.565986,87.9759936 273.238686,87.332 269.436,87.332 C265.694648,87.332 262.382681,87.9759936 259.5,89.264 C256.617319,90.5520064 254.194676,92.3153221 252.232,94.554 C250.269324,96.7926779 248.797338,99.4299848 247.816,102.466 C246.834662,105.502015 246.344,108.767983 246.344,112.264 L246.344,112.264 Z M301.452,88.436 L301.452,136 L309.272,136 L309.272,114.84 C309.272,111.773318 309.578664,109.059345 310.192,106.698 C310.805336,104.336655 311.78666,102.328008 313.136,100.672 C314.48534,99.0159917 316.263989,97.758671 318.472,96.9 C320.680011,96.041329 323.347984,95.612 326.476,95.612 L326.476,87.332 C322.243979,87.2093327 318.748014,88.0679908 315.988,89.908 C313.227986,91.7480092 310.897343,94.5999807 308.996,98.464 L308.812,98.464 L308.812,88.436 L301.452,88.436 Z M343.22,88.436 L343.22,74.176 L335.4,74.176 L335.4,88.436 L327.304,88.436 L327.304,95.336 L335.4,95.336 L335.4,125.604 C335.4,127.812011 335.614665,129.59066 336.044,130.94 C336.473335,132.28934 337.132662,133.331996 338.022,134.068 C338.911338,134.804004 340.076659,135.309999 341.518,135.586 C342.959341,135.862001 344.69199,136 346.716,136 L352.696,136 L352.696,129.1 L349.108,129.1 C347.881327,129.1 346.88467,129.054 346.118,128.962 C345.351329,128.87 344.753335,128.670668 344.324,128.364 C343.894665,128.057332 343.603334,127.628003 343.45,127.076 C343.296666,126.523997 343.22,125.788005 343.22,124.868 L343.22,95.336 L352.696,95.336 L352.696,88.436 L343.22,88.436 Z" id="effort" fill="#BABABD"></path>
                    <path d="M224.908,95.336 L206.876,95.336 L206.876,136 L199.056,136 L199.056,95.336 L191.052,95.336 L191.052,88.436 L199.056,88.436 L199.056,81.352 C199.056,77.4879807 200.175322,74.5593433 202.414,72.566 C204.652678,70.5726567 207.918645,69.576 212.212,69.576 C212.948004,69.576 213.791329,69.6373327 214.742,69.76 C215.692671,69.8826673 216.535996,70.0666654 217.272,70.312 L217.272,77.12 C216.59733,76.8746654 215.861337,76.7060005 215.064,76.614 C214.266663,76.5219995 213.53067,76.476 212.856,76.476 C210.954657,76.476 209.482672,76.8439963 208.44,77.58 C207.397328,78.3160037 206.876,79.7266562 206.876,81.812 L206.876,88.436 L224.908,88.436 L224.908,81.352 C224.908,77.4879807 226.027322,74.5593433 228.266,72.566 C230.504678,70.5726567 233.770645,69.576 238.064,69.576 C238.800004,69.576 239.643329,69.6373327 240.594,69.76 C241.544671,69.8826673 242.387996,70.0666654 243.124,70.312 L243.124,77.12 C242.44933,76.8746654 241.713337,76.7060005 240.916,76.614 C240.118663,76.5219995 239.38267,76.476 238.708,76.476 C236.806657,76.476 235.334672,76.8439963 234.292,77.58 C233.249328,78.3160037 232.728,79.7266562 232.728,81.812 L232.728,88.436 L241.928,88.436 L241.928,95.336 L232.728,95.336 L232.728,136 L224.908,136 L224.908,95.336 Z" id="effort" fill="#666666"></path>
                    <path d="M257.377414,330.213815 C257.377414,335.985191 252.698789,340.663815 246.927414,340.663815 C241.156038,340.663815 236.477414,335.985191 236.477414,330.213815 L236.408,284.136 C236.408,282.357324 236.270001,280.655341 235.994,279.03 C235.717999,277.404659 235.212004,275.994006 234.476,274.798 C233.739996,273.601994 232.774006,272.651337 231.578,271.946 C230.381994,271.240663 228.864009,270.888 227.024,270.888 C225.245324,270.888 223.742673,271.209997 222.516,271.854 C221.289327,272.498003 220.308004,273.417994 219.572,274.614 C218.835996,275.810006 218.314668,277.235992 218.008,278.892 C217.701332,280.548008 217.548,282.38799 217.548,284.412 L209.544,284.412 C209.544,280.731982 209.957996,277.619346 210.786,275.074 C211.614004,272.528654 212.809992,270.458675 214.374,268.864 C215.938008,267.269325 217.823989,266.104004 220.032,265.368 C222.240011,264.631996 224.785319,264.264 227.668,264.264 C230.550681,264.264 233.049989,264.708662 235.166,265.598 C237.282011,266.487338 239.01466,267.744659 240.364,269.37 C241.71334,270.995341 242.709997,272.927322 243.354,275.166 C243.998003,277.404678 244.32,279.87332 244.32,282.572 L244.377414,330.213815 C244.377414,331.622141 245.519087,332.763815 246.927414,332.763815 C248.33574,332.763815 249.477414,331.622141 249.477414,330.213815 L249.477414,247.349967 C249.477414,241.578591 254.156038,236.899967 259.927414,236.899967 C265.698789,236.899967 270.377414,241.578591 270.377414,247.349967 L270.273547,256.442831 L270.273547,290.323646 C270.273547,295.291671 271.162871,299.078966 272.941547,301.685646 C274.720222,304.292326 277.664193,305.595646 281.773547,305.595646 C285.637566,305.595646 288.642869,304.460991 290.789547,302.191646 C292.936224,299.922301 294.009547,296.702334 294.009547,292.531646 C294.009547,290.384969 293.68755,288.544987 293.043547,287.011646 C292.399544,285.478305 291.602218,284.067653 290.651547,282.779646 C289.700875,281.49164 288.673552,280.264985 287.569547,279.099646 C286.465541,277.934307 285.438218,276.676986 284.487547,275.327646 C283.536875,273.978306 282.73955,272.460321 282.095547,270.773646 C281.451544,269.086971 281.129547,267.078324 281.129547,264.747646 L288.857547,264.747646 C288.857547,266.648989 289.179544,268.320306 289.823547,269.761646 C290.46755,271.202987 291.264875,272.56764 292.215547,273.855646 C293.166218,275.143653 294.208874,276.400973 295.343547,277.627646 C296.478219,278.854319 297.520875,280.157639 298.471547,281.537646 C299.422218,282.917653 300.219544,284.420305 300.863547,286.045646 C301.50755,287.670988 301.829547,289.556969 301.829547,291.703646 C301.829547,294.708994 301.369551,297.468967 300.449547,299.983646 C299.529542,302.498325 298.195556,304.644971 296.447547,306.423646 C294.699538,308.202322 292.598892,309.597641 290.145547,310.609646 C287.692201,311.621651 284.962895,312.127646 281.957547,312.127646 C278.154861,312.127646 275.011559,311.636984 272.527547,310.655646 C270.043534,309.674308 268.065554,308.278988 266.593547,306.469646 C265.121539,304.660304 264.094216,302.482992 263.511547,299.937646 C262.928877,297.3923 262.637547,294.524995 262.637547,291.335646 L262.637547,256.593946 L262.477414,247.349967 C262.477414,245.941641 261.33574,244.799967 259.927414,244.799967 C258.519087,244.799967 257.377414,245.941641 257.377414,247.349967 L257.377414,330.213815 Z" id="ეს" fill="#666666"></path>
                    <path d="M0,181 L465,181" id="Path-1" stroke="#BABABD"></path>
                </g>
            </g>
        </g>
    </g>
</svg>