<?xml version="1.0" encoding="UTF-8" standalone="no"?>
<svg width="465px" height="360px" viewBox="0 0 465 360" version="1.1" xmlns="http://www.w3.org/2000/svg" xmlns:xlink="http://www.w3.org/1999/xlink" xmlns:sketch="http://www.bohemiancoding.com/sketch/ns">
    <!-- Generator: Sketch Beta 3.4.4 (17258) - http://www.bohemiancoding.com/sketch -->
    <title>Ligature</title>
    <desc>Created with Sketch Beta.</desc>
    <defs>
        <rect id="path-1" x="0" y="0" width="30" height="360"></rect>
    </defs>
    <g id="Outline" stroke="none" stroke-width="1" fill="none" fill-rule="evenodd" sketch:type="MSPage">
        <g id="Ligature" sketch:type="MSArtboardGroup">
            <g id="Group" sketch:type="MSLayerGroup">
                <g id="Tag">
                    <rect id="Rectangle-1" fill="#BABABD" sketch:type="MSShapeGroup" x="0" y="0" width="30" height="360"></rect>
                    <text id="აღმავალი" sketch:type="MSTextLayer" transform="translate(13.500000, 270.500000) rotate(-90.000000) translate(-13.500000, -270.500000) " font-family="BG Courier" font-size="21" font-weight="normal" sketch:alignment="middle" fill="#646466">
                        <tspan x="-37.572" y="275">ლიგატურა</tspan>
                    </text>
                    <text id="ascender" sketch:type="MSTextLayer" transform="translate(14.500000, 90.500000) rotate(-90.000000) translate(-14.500000, -90.500000) " font-family="BG Courier" font-size="21" font-weight="normal" sketch:alignment="middle" fill="#646466">
                        <tspan x="-35.9" y="95">ligature</tspan>
                    </text>
                </g>
                <g id="In-Progress">
                    <mask id="mask-2" sketch:name="Mask" fill="white">
                        <use xlink:href="#path-1"></use>
                    </mask>
                    <use id="Mask" fill="#DCA708" sketch:type="MSShapeGroup" xlink:href="#path-1"></use>
                    <rect id="Rectangle-20" fill="#FFD863" sketch:type="MSShapeGroup" mask="url(#mask-2)" x="-11.9713024" y="240.528698" width="23" height="168">
                        <g transform="translate(-0.471302, 324.528698) rotate(-45.000000) translate(0.471302, -324.528698) "></g>
                    </rect>
                    <rect id="Rectangle-20" fill="#FFD863" sketch:type="MSShapeGroup" mask="url(#mask-2)" x="-11.9713024" y="176.528698" width="23" height="168">
                        <g transform="translate(-0.471302, 260.528698) rotate(-45.000000) translate(0.471302, -260.528698) "></g>
                    </rect>
                    <rect id="Rectangle-20" fill="#FFD863" sketch:type="MSShapeGroup" mask="url(#mask-2)" x="-11.9713024" y="112.528698" width="23" height="168">
                        <g transform="translate(-0.471302, 196.528698) rotate(-45.000000) translate(0.471302, -196.528698) "></g>
                    </rect>
                    <rect id="Rectangle-20" fill="#FFD863" sketch:type="MSShapeGroup" mask="url(#mask-2)" x="-11.9713024" y="48.5286976" width="23" height="168">
                        <g transform="translate(-0.471302, 132.528698) rotate(-45.000000) translate(0.471302, -132.528698) "></g>
                    </rect>
                    <rect id="Rectangle-20" fill="#FFD863" sketch:type="MSShapeGroup" mask="url(#mask-2)" x="-11.9713024" y="-15.4713024" width="23" height="168">
                        <g transform="translate(-0.471302, 68.528698) rotate(-45.000000) translate(0.471302, -68.528698) "></g>
                    </rect>
                    <rect id="Rectangle-20" fill="#FFD863" sketch:type="MSShapeGroup" mask="url(#mask-2)" x="-11.9713024" y="-79.4713024" width="23" height="168">
                        <g transform="translate(-0.471302, 4.528698) rotate(-45.000000) translate(0.471302, -4.528698) "></g>
                    </rect>
                </g>
                <path d="M179.46,107.664 L152.136,107.664 C152.258667,105.823991 152.65733,104.091341 153.332,102.466 C154.00667,100.840659 154.926661,99.4146728 156.092,98.188 C157.257339,96.9613272 158.652659,95.9953369 160.278,95.29 C161.903341,94.5846631 163.72799,94.232 165.752,94.232 C167.714676,94.232 169.508659,94.5846631 171.134,95.29 C172.759341,95.9953369 174.169994,96.945994 175.366,98.142 C176.562006,99.338006 177.512663,100.763992 178.218,102.42 C178.923337,104.076008 179.337333,105.823991 179.46,107.664 L179.46,107.664 Z M187.004,120.912 L179.276,120.912 C178.60133,124.040016 177.206011,126.370659 175.09,127.904 C172.973989,129.437341 170.260017,130.204 166.948,130.204 C164.371987,130.204 162.133343,129.774671 160.232,128.916 C158.330657,128.057329 156.766673,126.907341 155.54,125.466 C154.313327,124.024659 153.424003,122.368676 152.872,120.498 C152.319997,118.627324 152.074666,116.649344 152.136,114.564 L187.74,114.564 C187.862667,111.681319 187.602003,108.645349 186.958,105.456 C186.313997,102.266651 185.148675,99.3226802 183.462,96.624 C181.775325,93.9253198 179.536681,91.7020087 176.746,89.954 C173.955319,88.2059913 170.444021,87.332 166.212,87.332 C162.961317,87.332 159.971347,87.9453272 157.242,89.172 C154.512653,90.3986728 152.151343,92.115989 150.158,94.324 C148.164657,96.532011 146.616006,99.1386516 145.512,102.144 C144.407994,105.149348 143.856,108.461315 143.856,112.08 C143.978667,115.698685 144.515329,119.041318 145.466,122.108 C146.416671,125.174682 147.842657,127.811989 149.744,130.02 C151.645343,132.228011 153.991319,133.945327 156.782,135.172 C159.572681,136.398673 162.869314,137.012 166.672,137.012 C172.06936,137.012 176.546649,135.66268 180.104,132.964 C183.661351,130.26532 185.961328,126.248027 187.004,120.912 L187.004,120.912 Z M224.908,95.336 L206.876,95.336 L206.876,136 L199.056,136 L199.056,95.336 L191.052,95.336 L191.052,88.436 L199.056,88.436 L199.056,81.352 C199.056,77.4879807 200.175322,74.5593433 202.414,72.566 C204.652678,70.5726567 207.918645,69.576 212.212,69.576 C212.948004,69.576 213.791329,69.6373327 214.742,69.76 C215.692671,69.8826673 216.535996,70.0666654 217.272,70.312 L217.272,77.12 C216.59733,76.8746654 215.861337,76.7060005 215.064,76.614 C214.266663,76.5219995 213.53067,76.476 212.856,76.476 C210.954657,76.476 209.482672,76.8439963 208.44,77.58 C207.397328,78.3160037 206.876,79.7266562 206.876,81.812 L206.876,88.436 L224.908,88.436 L224.908,81.352 C224.908,77.4879807 226.027322,74.5593433 228.266,72.566 C230.504678,70.5726567 233.770645,69.576 238.064,69.576 C238.800004,69.576 239.643329,69.6373327 240.594,69.76 C241.544671,69.8826673 242.387996,70.0666654 243.124,70.312 L243.124,77.12 C242.44933,76.8746654 241.713337,76.7060005 240.916,76.614 C240.118663,76.5219995 239.38267,76.476 238.708,76.476 C236.806657,76.476 235.334672,76.8439963 234.292,77.58 C233.249328,78.3160037 232.728,79.7266562 232.728,81.812 L232.728,88.436 L241.928,88.436 L241.928,95.336 L232.728,95.336 L232.728,136 L224.908,136 L224.908,95.336 Z M254.624,112.264 C254.624,109.381319 255.007329,106.820678 255.774,104.582 C256.54067,102.343322 257.59866,100.457341 258.948,98.924 C260.29734,97.390659 261.876658,96.2253373 263.686,95.428 C265.495342,94.6306627 267.41199,94.232 269.436,94.232 C271.46001,94.232 273.376658,94.6306627 275.186,95.428 C276.995342,96.2253373 278.57466,97.390659 279.924,98.924 C281.27334,100.457341 282.331329,102.343322 283.098,104.582 C283.86467,106.820678 284.248,109.381319 284.248,112.264 C284.248,115.146681 283.86467,117.707322 283.098,119.946 C282.331329,122.184678 281.27334,124.055326 279.924,125.558 C278.57466,127.060674 276.995342,128.210663 275.186,129.008 C273.376658,129.805337 271.46001,130.204 269.436,130.204 C267.41199,130.204 265.495342,129.805337 263.686,129.008 C261.876658,128.210663 260.29734,127.060674 258.948,125.558 C257.59866,124.055326 256.54067,122.184678 255.774,119.946 C255.007329,117.707322 254.624,115.146681 254.624,112.264 L254.624,112.264 Z M246.344,112.264 C246.344,115.760017 246.834662,119.010652 247.816,122.016 C248.797338,125.021348 250.269324,127.643322 252.232,129.882 C254.194676,132.120678 256.617319,133.86866 259.5,135.126 C262.382681,136.38334 265.694648,137.012 269.436,137.012 C273.238686,137.012 276.565986,136.38334 279.418,135.126 C282.270014,133.86866 284.677324,132.120678 286.64,129.882 C288.602676,127.643322 290.074662,125.021348 291.056,122.016 C292.037338,119.010652 292.528,115.760017 292.528,112.264 C292.528,108.767983 292.037338,105.502015 291.056,102.466 C290.074662,99.4299848 288.602676,96.7926779 286.64,94.554 C284.677324,92.3153221 282.270014,90.5520064 279.418,89.264 C276.565986,87.9759936 273.238686,87.332 269.436,87.332 C265.694648,87.332 262.382681,87.9759936 259.5,89.264 C256.617319,90.5520064 254.194676,92.3153221 252.232,94.554 C250.269324,96.7926779 248.797338,99.4299848 247.816,102.466 C246.834662,105.502015 246.344,108.767983 246.344,112.264 L246.344,112.264 Z M301.452,88.436 L301.452,136 L309.272,136 L309.272,114.84 C309.272,111.773318 309.578664,109.059345 310.192,106.698 C310.805336,104.336655 311.78666,102.328008 313.136,100.672 C314.48534,99.0159917 316.263989,97.758671 318.472,96.9 C320.680011,96.041329 323.347984,95.612 326.476,95.612 L326.476,87.332 C322.243979,87.2093327 318.748014,88.0679908 315.988,89.908 C313.227986,91.7480092 310.897343,94.5999807 308.996,98.464 L308.812,98.464 L308.812,88.436 L301.452,88.436 Z M343.22,88.436 L343.22,74.176 L335.4,74.176 L335.4,88.436 L327.304,88.436 L327.304,95.336 L335.4,95.336 L335.4,125.604 C335.4,127.812011 335.614665,129.59066 336.044,130.94 C336.473335,132.28934 337.132662,133.331996 338.022,134.068 C338.911338,134.804004 340.076659,135.309999 341.518,135.586 C342.959341,135.862001 344.69199,136 346.716,136 L352.696,136 L352.696,129.1 L349.108,129.1 C347.881327,129.1 346.88467,129.054 346.118,128.962 C345.351329,128.87 344.753335,128.670668 344.324,128.364 C343.894665,128.057332 343.603334,127.628003 343.45,127.076 C343.296666,126.523997 343.22,125.788005 343.22,124.868 L343.22,95.336 L352.696,95.336 L352.696,88.436 L343.22,88.436 Z" id="effort" fill="#BABABD" sketch:type="MSShapeGroup"></path>
                <path d="M224.908,95.336 L206.876,95.336 L206.876,136 L199.056,136 L199.056,95.336 L191.052,95.336 L191.052,88.436 L199.056,88.436 L199.056,81.352 C199.056,77.4879807 200.175322,74.5593433 202.414,72.566 C204.652678,70.5726567 207.918645,69.576 212.212,69.576 C212.948004,69.576 213.791329,69.6373327 214.742,69.76 C215.692671,69.8826673 216.535996,70.0666654 217.272,70.312 L217.272,77.12 C216.59733,76.8746654 215.861337,76.7060005 215.064,76.614 C214.266663,76.5219995 213.53067,76.476 212.856,76.476 C210.954657,76.476 209.482672,76.8439963 208.44,77.58 C207.397328,78.3160037 206.876,79.7266562 206.876,81.812 L206.876,88.436 L224.908,88.436 L224.908,81.352 C224.908,77.4879807 226.027322,74.5593433 228.266,72.566 C230.504678,70.5726567 233.770645,69.576 238.064,69.576 C238.800004,69.576 239.643329,69.6373327 240.594,69.76 C241.544671,69.8826673 242.387996,70.0666654 243.124,70.312 L243.124,77.12 C242.44933,76.8746654 241.713337,76.7060005 240.916,76.614 C240.118663,76.5219995 239.38267,76.476 238.708,76.476 C236.806657,76.476 235.334672,76.8439963 234.292,77.58 C233.249328,78.3160037 232.728,79.7266562 232.728,81.812 L232.728,88.436 L241.928,88.436 L241.928,95.336 L232.728,95.336 L232.728,136 L224.908,136 L224.908,95.336 Z" id="effort" fill="#666666" sketch:type="MSShapeGroup"></path>
                <path d="M227.668,264.264 C230.550681,264.264 233.049989,264.708662 235.166,265.598 C237.282011,266.487338 239.01466,267.744659 240.364,269.37 C241.71334,270.995341 242.709997,272.927322 243.354,275.166 C243.998003,277.404678 244.32,279.87332 244.32,282.572 L244.32,309.988 C244.32,313.116016 243.814005,315.937321 242.802,318.452 C241.789995,320.966679 240.410009,323.097991 238.662,324.846 C236.913991,326.594009 234.874678,327.927995 232.544,328.848 C230.213322,329.768005 227.760013,330.228 225.184,330.228 C218.989302,330.228 214.328016,328.710015 211.2,325.674 C208.071984,322.637985 206.508,317.562702 206.508,310.448 L214.42,310.448 C214.42,314.925356 215.38599,318.252656 217.318,320.43 C219.25001,322.607344 221.841317,323.696 225.092,323.696 C227.11601,323.696 228.848659,323.35867 230.29,322.684 C231.731341,322.00933 232.896662,321.074006 233.786,319.878 C234.675338,318.681994 235.334665,317.286675 235.764,315.692 C236.193335,314.097325 236.408,312.380009 236.408,310.54 L236.408,284.136 C236.408,282.357324 236.270001,280.655341 235.994,279.03 C235.717999,277.404659 235.212004,275.994006 234.476,274.798 C233.739996,273.601994 232.774006,272.651337 231.578,271.946 C230.381994,271.240663 228.864009,270.888 227.024,270.888 C225.245324,270.888 223.742673,271.209997 222.516,271.854 C221.289327,272.498003 220.308004,273.417994 219.572,274.614 C218.835996,275.810006 218.314668,277.235992 218.008,278.892 C217.701332,280.548008 217.548,282.38799 217.548,284.412 L209.544,284.412 C209.544,280.731982 209.957996,277.619346 210.786,275.074 C211.614004,272.528654 212.809992,270.458675 214.374,268.864 C215.938008,267.269325 217.823989,266.104004 220.032,265.368 C222.240011,264.631996 224.785319,264.264 227.668,264.264 L227.668,264.264 Z M291.516,292.232 C291.516,295.237348 291.056005,297.997321 290.136,300.512 C289.215995,303.026679 287.882009,305.173324 286.134,306.952 C284.385991,308.730676 282.285346,310.125995 279.832,311.138 C277.378654,312.150005 274.649348,312.656 271.644,312.656 C267.841314,312.656 264.698012,312.165338 262.214,311.184 C259.729988,310.202662 257.752007,308.807342 256.28,306.998 C254.807993,305.188658 253.78067,303.011346 253.198,300.466 C252.61533,297.920654 252.324,295.053349 252.324,291.864 L252.324,248.256 L259.96,248.256 L259.96,290.852 C259.96,295.820025 260.849324,299.60732 262.628,302.214 C264.406676,304.82068 267.350646,306.124 271.46,306.124 C275.324019,306.124 278.329323,304.989345 280.476,302.72 C282.622677,300.450655 283.696,297.230688 283.696,293.06 C283.696,290.913323 283.374003,289.073341 282.73,287.54 C282.085997,286.006659 281.288671,284.596006 280.338,283.308 C279.387329,282.019994 278.360006,280.793339 277.256,279.628 C276.151994,278.462661 275.124671,277.20534 274.174,275.856 C273.223329,274.50666 272.426003,272.988675 271.782,271.302 C271.137997,269.615325 270.816,267.606678 270.816,265.276 L278.544,265.276 C278.544,267.177343 278.865997,268.848659 279.51,270.29 C280.154003,271.731341 280.951329,273.095994 281.902,274.384 C282.852671,275.672006 283.895328,276.929327 285.03,278.156 C286.164672,279.382673 287.207329,280.685993 288.158,282.066 C289.108671,283.446007 289.905997,284.948659 290.55,286.574 C291.194003,288.199341 291.516,290.085323 291.516,292.232 L291.516,292.232 Z" id="ეს" fill="#BABABD" sketch:type="MSShapeGroup"></path>
                <path d="M0,181 L465,181" id="Path-1" stroke="#BABABD" sketch:type="MSShapeGroup"></path>
            </g>
        </g>
    </g>
</svg>