<?xml version="1.0" encoding="UTF-8" standalone="no"?>
<svg width="465px" height="360px" viewBox="0 0 465 360" version="1.1" xmlns="http://www.w3.org/2000/svg" xmlns:xlink="http://www.w3.org/1999/xlink" xmlns:sketch="http://www.bohemiancoding.com/sketch/ns">
    <!-- Generator: Sketch Beta 3.4.4 (17258) - http://www.bohemiancoding.com/sketch -->
    <title>Serif</title>
    <desc>Created with Sketch Beta.</desc>
    <defs>
        <rect id="path-1" x="0" y="0" width="30" height="360"></rect>
    </defs>
    <g id="Outline" stroke="none" stroke-width="1" fill="none" fill-rule="evenodd" sketch:type="MSPage">
        <g id="Serif" sketch:type="MSArtboardGroup">
            <g id="Group" sketch:type="MSLayerGroup">
                <g id="Tag">
                    <rect id="Rectangle-1" fill="#BABABD" sketch:type="MSShapeGroup" x="0" y="0" width="30" height="360"></rect>
                    <text id="აღმავალი" sketch:type="MSTextLayer" transform="translate(13.500000, 270.500000) rotate(-90.000000) translate(-13.500000, -270.500000) " font-family="BG Courier" font-size="21" font-weight="normal" sketch:alignment="middle" fill="#646466">
                        <tspan x="-24.972" y="275">სერიფი</tspan>
                    </text>
                    <text id="ascender" sketch:type="MSTextLayer" transform="translate(14.500000, 90.500000) rotate(-90.000000) translate(-14.500000, -90.500000) " font-family="BG Courier" font-size="21" font-weight="normal" sketch:alignment="middle" fill="#646466">
                        <tspan x="-17" y="95">serif</tspan>
                    </text>
                </g>
                <g id="In-Progress">
                    <mask id="mask-2" sketch:name="Mask" fill="white">
                        <use xlink:href="#path-1"></use>
                    </mask>
                    <use id="Mask" fill="#DCA708" sketch:type="MSShapeGroup" xlink:href="#path-1"></use>
                    <rect id="Rectangle-20" fill="#FFD863" sketch:type="MSShapeGroup" mask="url(#mask-2)" x="-11.9713024" y="240.528698" width="23" height="168">
                        <g transform="translate(-0.471302, 324.528698) rotate(-45.000000) translate(0.471302, -324.528698) "></g>
                    </rect>
                    <rect id="Rectangle-20" fill="#FFD863" sketch:type="MSShapeGroup" mask="url(#mask-2)" x="-11.9713024" y="176.528698" width="23" height="168">
                        <g transform="translate(-0.471302, 260.528698) rotate(-45.000000) translate(0.471302, -260.528698) "></g>
                    </rect>
                    <rect id="Rectangle-20" fill="#FFD863" sketch:type="MSShapeGroup" mask="url(#mask-2)" x="-11.9713024" y="112.528698" width="23" height="168">
                        <g transform="translate(-0.471302, 196.528698) rotate(-45.000000) translate(0.471302, -196.528698) "></g>
                    </rect>
                    <rect id="Rectangle-20" fill="#FFD863" sketch:type="MSShapeGroup" mask="url(#mask-2)" x="-11.9713024" y="48.5286976" width="23" height="168">
                        <g transform="translate(-0.471302, 132.528698) rotate(-45.000000) translate(0.471302, -132.528698) "></g>
                    </rect>
                    <rect id="Rectangle-20" fill="#FFD863" sketch:type="MSShapeGroup" mask="url(#mask-2)" x="-11.9713024" y="-15.4713024" width="23" height="168">
                        <g transform="translate(-0.471302, 68.528698) rotate(-45.000000) translate(0.471302, -68.528698) "></g>
                    </rect>
                    <rect id="Rectangle-20" fill="#FFD863" sketch:type="MSShapeGroup" mask="url(#mask-2)" x="-11.9713024" y="-79.4713024" width="23" height="168">
                        <g transform="translate(-0.471302, 4.528698) rotate(-45.000000) translate(0.471302, -4.528698) "></g>
                    </rect>
                </g>
                <path d="M196.744141,102.755859 C198.091804,104.253263 199.087562,105.892895 199.731445,107.674805 C200.375329,109.456715 200.697266,111.530587 200.697266,113.896484 C200.697266,119.526721 198.615906,124.168602 194.453125,127.822266 C190.290344,131.47593 185.12438,133.302734 178.955078,133.302734 C176.110012,133.302734 173.264988,132.861007 170.419922,131.977539 C167.574856,131.094071 165.119151,130.023444 163.052734,128.765625 L161.121094,132.044922 L157.527344,132.044922 L156.898438,110.212891 L160.537109,110.212891 C161.285811,112.908217 162.161779,115.34146 163.165039,117.512695 C164.168299,119.68393 165.493481,121.712881 167.140625,123.599609 C168.697924,125.366545 170.517242,126.774083 172.598633,127.822266 C174.680023,128.870448 177.098294,129.394531 179.853516,129.394531 C181.919932,129.394531 183.724276,129.125003 185.266602,128.585938 C186.808927,128.046872 188.05924,127.283208 189.017578,126.294922 C189.975916,125.306636 190.687172,124.146166 191.151367,122.813477 C191.615562,121.480788 191.847656,119.945972 191.847656,118.208984 C191.847656,115.663399 191.128913,113.29005 189.691406,111.088867 C188.253899,108.887684 186.112644,107.218105 183.267578,106.080078 C181.320954,105.301428 179.089856,104.440434 176.574219,103.49707 C174.058581,102.553706 171.887379,101.662765 170.060547,100.824219 C166.466779,99.2070232 163.674164,97.0882292 161.682617,94.4677734 C159.691071,91.8473176 158.695312,88.4258024 158.695312,84.203125 C158.695312,81.7773316 159.189448,79.5162865 160.177734,77.4199219 C161.166021,75.3235572 162.573559,73.4518312 164.400391,71.8046875 C166.137378,70.247388 168.18879,69.0270226 170.554688,68.1435547 C172.920585,67.2600867 175.391263,66.8183594 177.966797,66.8183594 C180.901707,66.8183594 183.529611,67.2675736 185.850586,68.1660156 C188.171561,69.0644576 190.290355,70.1126242 192.207031,71.3105469 L194.048828,68.2558594 L197.642578,68.2558594 L198.001953,89.4140625 L194.363281,89.4140625 C193.704424,86.9882691 192.96322,84.6673288 192.139648,82.4511719 C191.316077,80.235015 190.245449,78.2285246 188.927734,76.4316406 C187.639968,74.6946528 186.067718,73.3095755 184.210938,72.2763672 C182.354157,71.2431589 180.078138,70.7265625 177.382812,70.7265625 C174.537746,70.7265625 172.111989,71.6399648 170.105469,73.4667969 C168.098948,75.2936289 167.095703,77.5247264 167.095703,80.1601562 C167.095703,82.9153784 167.739577,85.1988842 169.027344,87.0107422 C170.315111,88.8226002 172.186837,90.3124942 174.642578,91.4804688 C176.828787,92.5286511 178.977529,93.4345665 181.088867,94.1982422 C183.200206,94.9619179 185.244131,95.7779904 187.220703,96.6464844 C189.017587,97.4251341 190.747062,98.3085888 192.40918,99.296875 C194.071297,100.285161 195.51627,101.438144 196.744141,102.755859 L196.744141,102.755859 Z M246.876953,121.578125 C245.020173,125.111997 242.534521,127.927073 239.419922,130.023438 C236.305323,132.119802 232.726583,133.167969 228.683594,133.167969 C225.119774,133.167969 221.997735,132.539069 219.317383,131.28125 C216.637031,130.023431 214.428394,128.316417 212.691406,126.160156 C210.954418,124.003895 209.659184,121.488296 208.805664,118.613281 C207.952144,115.738267 207.525391,112.698584 207.525391,109.494141 C207.525391,106.619126 207.982092,103.796563 208.895508,101.026367 C209.808924,98.256171 211.14908,95.7630319 212.916016,93.546875 C214.623055,91.4205623 216.741849,89.7060612 219.272461,88.4033203 C221.803073,87.1005794 224.640609,86.4492188 227.785156,86.4492188 C231.019547,86.4492188 233.789702,86.9583282 236.095703,87.9765625 C238.401704,88.9947968 240.27343,90.387361 241.710938,92.1542969 C243.088549,93.8313886 244.114254,95.8079313 244.788086,98.0839844 C245.461917,100.360037 245.798828,102.830716 245.798828,105.496094 L245.798828,108.460938 L216.464844,108.460938 C216.464844,111.3659 216.741859,114.00129 217.295898,116.367188 C217.849938,118.733085 218.725905,120.814444 219.923828,122.611328 C221.091803,124.348316 222.619131,125.718419 224.505859,126.72168 C226.392588,127.72494 228.638659,128.226562 231.244141,128.226562 C233.909519,128.226562 236.207998,127.605149 238.139648,126.362305 C240.071299,125.11946 241.935538,122.880876 243.732422,119.646484 L246.876953,121.578125 Z M236.949219,104.6875 C236.949219,103.010408 236.806968,101.213551 236.522461,99.296875 C236.237954,97.3801988 235.781253,95.7780012 235.152344,94.4902344 C234.463538,93.1126233 233.520188,91.9895877 232.322266,91.1210938 C231.124343,90.2525998 229.582041,89.8183594 227.695312,89.8183594 C224.550766,89.8183594 221.937836,91.1285676 219.856445,93.7490234 C217.775055,96.3694792 216.644532,100.015602 216.464844,104.6875 L236.949219,104.6875 Z M285.914062,93.4121094 C285.914062,94.9394608 285.539717,96.2945904 284.791016,97.4775391 C284.042314,98.6604877 282.889331,99.2519531 281.332031,99.2519531 C279.65494,99.2519531 278.374679,98.8177127 277.491211,97.9492188 C276.607743,97.0807248 276.166016,96.1224011 276.166016,95.0742188 C276.166016,94.4153613 276.218424,93.8164089 276.323242,93.2773438 C276.42806,92.7382786 276.52539,92.1992214 276.615234,91.6601562 C275.207675,91.6601562 273.560556,92.229161 271.673828,93.3671875 C269.7871,94.505214 268.184902,96.1223854 266.867188,98.21875 L266.867188,124.003906 C266.867188,125.052089 267.069334,125.905596 267.473633,126.564453 C267.877932,127.223311 268.514319,127.717446 269.382812,128.046875 C270.131514,128.346356 271.097325,128.570963 272.280273,128.720703 C273.463222,128.870443 274.488928,128.97526 275.357422,129.035156 L275.357422,132 L251.998047,132 L251.998047,129.035156 C252.686852,128.97526 253.398108,128.915365 254.131836,128.855469 C254.865564,128.795573 255.50195,128.675782 256.041016,128.496094 C256.879561,128.226561 257.500975,127.754886 257.905273,127.081055 C258.309572,126.407223 258.511719,125.531255 258.511719,124.453125 L258.511719,97.0957031 C258.511719,96.1673131 258.294599,95.2539107 257.860352,94.3554688 C257.426105,93.4570268 256.819665,92.7382839 256.041016,92.1992188 C255.472002,91.839842 254.798181,91.5778003 254.019531,91.4130859 C253.240882,91.2483716 252.402348,91.136068 251.503906,91.0761719 L251.503906,88.15625 L266.238281,87.1679688 L266.867188,87.796875 L266.867188,94.0410156 L267.091797,94.0410156 C268.948577,91.6152222 271.014963,89.7734438 273.291016,88.515625 C275.567069,87.2578062 277.648428,86.6289062 279.535156,86.6289062 C281.421884,86.6289062 282.9567,87.2428324 284.139648,88.4707031 C285.322597,89.6985738 285.914062,91.3456928 285.914062,93.4121094 L285.914062,93.4121094 Z M311.205078,132 L289.777344,132 L289.777344,129.035156 C290.466149,128.97526 291.177405,128.915365 291.911133,128.855469 C292.64486,128.795573 293.281247,128.675782 293.820312,128.496094 C294.658858,128.226561 295.280271,127.754886 295.68457,127.081055 C296.088869,126.407223 296.291016,125.531255 296.291016,124.453125 L296.291016,97.0957031 C296.291016,96.137365 296.073895,95.2613972 295.639648,94.4677734 C295.205401,93.6741497 294.598962,93.0078152 293.820312,92.46875 C293.251299,92.1093732 292.42774,91.8024101 291.349609,91.5478516 C290.271479,91.293293 289.283208,91.136068 288.384766,91.0761719 L288.384766,88.15625 L304.017578,87.1679688 L304.646484,87.796875 L304.646484,123.914062 C304.646484,124.962245 304.848631,125.830726 305.25293,126.519531 C305.657229,127.208337 306.293615,127.717446 307.162109,128.046875 C307.820967,128.316408 308.464841,128.533528 309.09375,128.698242 C309.722659,128.862957 310.426428,128.97526 311.205078,129.035156 L311.205078,132 Z M305.544922,69.6933594 C305.544922,71.4003992 304.983404,72.8902931 303.860352,74.1630859 C302.737299,75.4358788 301.352222,76.0722656 299.705078,76.0722656 C298.177727,76.0722656 296.852545,75.4658264 295.729492,74.2529297 C294.60644,73.040033 294.044922,71.6549557 294.044922,70.0976562 C294.044922,68.4505126 294.60644,67.013027 295.729492,65.7851562 C296.852545,64.5572855 298.177727,63.9433594 299.705078,63.9433594 C301.412118,63.9433594 302.812169,64.519851 303.905273,65.6728516 C304.998378,66.8258521 305.544922,68.166008 305.544922,69.6933594 L305.544922,69.6933594 Z M349.613281,67.8066406 C349.613281,69.1543036 349.25391,70.2923131 348.535156,71.2207031 C347.816403,72.1490932 346.723315,72.6132812 345.255859,72.6132812 C344.327469,72.6132812 343.511397,72.4186217 342.807617,72.0292969 C342.103838,71.639972 341.452477,71.1158887 340.853516,70.4570312 C340.254554,69.7981738 339.700523,69.0494834 339.191406,68.2109375 C338.682289,67.3723916 338.248049,66.6985703 337.888672,66.1894531 C335.882151,66.2792973 334.332362,67.6793484 333.239258,70.3896484 C332.146153,73.0999484 331.599609,77.4198922 331.599609,83.3496094 L331.599609,87.8867188 L343.009766,87.8867188 L343.009766,92.1992188 L331.599609,92.1992188 L331.599609,124.003906 C331.599609,125.052089 331.801756,125.905596 332.206055,126.564453 C332.610354,127.223311 333.24674,127.717446 334.115234,128.046875 C334.833988,128.316408 335.792312,128.533528 336.990234,128.698242 C338.188157,128.862957 339.22135,128.97526 340.089844,129.035156 L340.089844,132 L316.730469,132 L316.730469,129.035156 C317.419274,128.97526 318.13053,128.915365 318.864258,128.855469 C319.597985,128.795573 320.234372,128.675782 320.773438,128.496094 C321.611983,128.226561 322.233396,127.754886 322.637695,127.081055 C323.041994,126.407223 323.244141,125.531255 323.244141,124.453125 L323.244141,92.1992188 L314.484375,92.1992188 L314.484375,87.8867188 L323.244141,87.8867188 L323.244141,85.0566406 C323.244141,78.3183257 324.988589,72.8603725 328.477539,68.6826172 C331.966489,64.5048619 336.331354,62.4160156 341.572266,62.4160156 C344.237644,62.4160156 346.244134,62.9400989 347.591797,63.9882812 C348.93946,65.0364636 349.613281,66.3092373 349.613281,67.8066406 L349.613281,67.8066406 Z" id="Serif" fill="#BABABD" sketch:type="MSShapeGroup"></path>
                <path d="M143.028,292.232 C143.028,295.237348 142.568005,297.997321 141.648,300.512 C140.727995,303.026679 139.394009,305.173324 137.646,306.952 C135.897991,308.730676 133.797346,310.125995 131.344,311.138 C128.890654,312.150005 126.161348,312.656 123.156,312.656 C119.353314,312.656 116.210012,312.165338 113.726,311.184 C111.241988,310.202662 109.264007,308.807342 107.792,306.998 C106.319993,305.188658 105.29267,303.011346 104.71,300.466 C104.12733,297.920654 103.836,295.053349 103.836,291.864 L103.836,248.256 L111.472,248.256 L111.472,290.852 C111.472,295.820025 112.361324,299.60732 114.14,302.214 C115.918676,304.82068 118.862646,306.124 122.972,306.124 C126.836019,306.124 129.841323,304.989345 131.988,302.72 C134.134677,300.450655 135.208,297.230688 135.208,293.06 C135.208,290.913323 134.886003,289.073341 134.242,287.54 C133.597997,286.006659 132.800671,284.596006 131.85,283.308 C130.899329,282.019994 129.872006,280.793339 128.768,279.628 C127.663994,278.462661 126.636671,277.20534 125.686,275.856 C124.735329,274.50666 123.938003,272.988675 123.294,271.302 C122.649997,269.615325 122.328,267.606678 122.328,265.276 L130.056,265.276 C130.056,267.177343 130.377997,268.848659 131.022,270.29 C131.666003,271.731341 132.463329,273.095994 133.414,274.384 C134.364671,275.672006 135.407328,276.929327 136.542,278.156 C137.676672,279.382673 138.719329,280.685993 139.67,282.066 C140.620671,283.446007 141.417997,284.948659 142.062,286.574 C142.706003,288.199341 143.028,290.085323 143.028,292.232 L143.028,292.232 Z M171.732,264.264 C174.614681,264.264 177.113989,264.708662 179.23,265.598 C181.346011,266.487338 183.07866,267.744659 184.428,269.37 C185.77734,270.995341 186.773997,272.927322 187.418,275.166 C188.062003,277.404678 188.384,279.87332 188.384,282.572 L188.384,309.988 C188.384,313.116016 187.878005,315.937321 186.866,318.452 C185.853995,320.966679 184.474009,323.097991 182.726,324.846 C180.977991,326.594009 178.938678,327.927995 176.608,328.848 C174.277322,329.768005 171.824013,330.228 169.248,330.228 C163.053302,330.228 158.392016,328.710015 155.264,325.674 C152.135984,322.637985 150.572,317.562702 150.572,310.448 L158.484,310.448 C158.484,314.925356 159.44999,318.252656 161.382,320.43 C163.31401,322.607344 165.905317,323.696 169.156,323.696 C171.18001,323.696 172.912659,323.35867 174.354,322.684 C175.795341,322.00933 176.960662,321.074006 177.85,319.878 C178.739338,318.681994 179.398665,317.286675 179.828,315.692 C180.257335,314.097325 180.472,312.380009 180.472,310.54 L180.472,284.136 C180.472,282.357324 180.334001,280.655341 180.058,279.03 C179.781999,277.404659 179.276004,275.994006 178.54,274.798 C177.803996,273.601994 176.838006,272.651337 175.642,271.946 C174.445994,271.240663 172.928009,270.888 171.088,270.888 C169.309324,270.888 167.806673,271.209997 166.58,271.854 C165.353327,272.498003 164.372004,273.417994 163.636,274.614 C162.899996,275.810006 162.378668,277.235992 162.072,278.892 C161.765332,280.548008 161.612,282.38799 161.612,284.412 L153.608,284.412 C153.608,280.731982 154.021996,277.619346 154.85,275.074 C155.678004,272.528654 156.873992,270.458675 158.438,268.864 C160.002008,267.269325 161.887989,266.104004 164.096,265.368 C166.304011,264.631996 168.849319,264.264 171.732,264.264 L171.732,264.264 Z M231.164,282.204 C231.348001,279.750654 231.77733,277.435344 232.452,275.258 C233.12667,273.080656 234.107994,271.164008 235.396,269.508 C236.684006,267.851992 238.324657,266.548671 240.318,265.598 C242.311343,264.647329 244.749319,264.172 247.632,264.172 C250.882683,264.172 253.627322,264.877326 255.866,266.288 C258.104678,267.698674 259.913993,269.553988 261.294,271.854 C262.674007,274.154011 263.65533,276.791318 264.238,279.766 C264.82067,282.740682 265.112,285.761318 265.112,288.828 C265.112,292.630686 264.621338,296.019318 263.64,298.994 C262.658662,301.968682 261.340008,304.46799 259.684,306.492 C258.027992,308.51601 256.111344,310.064661 253.934,311.138 C251.756656,312.211339 249.472012,312.748 247.08,312.748 L247.08,305.204 C248.552007,305.204 249.901327,304.774671 251.128,303.916 C252.354673,303.057329 253.412662,301.892007 254.302,300.42 C255.191338,298.947993 255.896664,297.215343 256.418,295.222 C256.939336,293.228657 257.2,291.066678 257.2,288.736 C257.2,282.909304 256.402675,278.478015 254.808,275.442 C253.213325,272.405985 250.760017,270.888 247.448,270.888 C244.74932,270.888 242.648674,271.608659 241.146,273.05 C239.643326,274.491341 238.539337,276.346655 237.834,278.616 C237.128663,280.885345 236.714667,283.415319 236.592,286.206 C236.469333,288.996681 236.408,291.710653 236.408,294.348 L226.012,294.348 C226.012,291.710653 225.889335,288.996681 225.644,286.206 C225.398665,283.415319 224.877337,280.885345 224.08,278.616 C223.282663,276.346655 222.148007,274.476007 220.676,273.004 C219.203993,271.531993 217.241346,270.796 214.788,270.796 C211.41465,270.796 208.854009,272.14532 207.106,274.844 C205.357991,277.54268 204.484,282.081301 204.484,288.46 C204.484,292.140018 204.913329,295.099322 205.772,297.338 C206.630671,299.576678 207.673327,301.293994 208.9,302.49 C210.126673,303.686006 211.460659,304.483331 212.902,304.882 C214.343341,305.280669 215.615994,305.48 216.72,305.48 L216.904,312.656 C214.143986,312.656 211.522012,312.211338 209.038,311.322 C206.553988,310.432662 204.361343,309.02201 202.46,307.09 C200.558657,305.15799 199.040672,302.658682 197.906,299.592 C196.771328,296.525318 196.204,292.845355 196.204,288.552 L196.204,287.448 C196.204,284.442652 196.387998,281.161351 196.756,277.604 C197.124002,274.046649 197.98266,270.658016 199.332,267.438 C200.68134,264.217984 202.720653,261.366012 205.45,258.882 C208.179347,256.397988 211.935976,254.726671 216.72,253.868 C219.786682,253.315997 222.607987,252.932668 225.184,252.718 C227.760013,252.503332 229.967991,252.227335 231.808,251.89 C233.648009,251.552665 235.089328,251.077336 236.132,250.464 C237.174672,249.850664 237.696,248.838674 237.696,247.428 L246.436,247.428 C246.436,249.574677 246.14467,251.337993 245.562,252.718 C244.97933,254.098007 243.936674,255.232662 242.434,256.122 C240.931326,257.011338 238.892013,257.716664 236.316,258.238 C233.739987,258.759336 230.489353,259.234665 226.564,259.664 C222.822648,260.093335 219.679346,260.583997 217.134,261.136 C214.588654,261.688003 212.426676,262.853324 210.648,264.632 C212.181341,264.325332 213.714659,264.172 215.248,264.172 C218.314682,264.172 220.829324,264.647329 222.792,265.598 C224.754676,266.548671 226.318661,267.836659 227.484,269.462 C228.649339,271.087341 229.507997,273.003989 230.06,275.212 C230.612003,277.420011 230.979999,279.750654 231.164,282.204 L231.164,282.204 Z M292.252,312.656 C289.246652,312.656 286.532679,312.104006 284.11,311 C281.687321,309.895994 279.632675,308.33201 277.946,306.308 C276.259325,304.28399 274.956005,301.846014 274.036,298.994 C273.115995,296.141986 272.656,292.968017 272.656,289.472 C272.656,285.853315 273.192661,282.495349 274.266,279.398 C275.339339,276.300651 276.918656,273.617345 279.004,271.348 C281.089344,269.078655 283.649985,267.300006 286.686,266.012 C289.722015,264.723994 293.202647,264.08 297.128,264.08 C301.053353,264.08 304.503318,264.723994 307.478,266.012 C310.452682,267.300006 312.936657,269.063322 314.93,271.302 C316.923343,273.540678 318.425995,276.193318 319.438,279.26 C320.450005,282.326682 320.956,285.607983 320.956,289.104 C320.956,292.048015 320.496005,294.930653 319.576,297.752 C318.655995,300.573347 317.368008,303.087989 315.712,305.296 C314.055992,307.504011 312.062678,309.28266 309.732,310.632 C307.401322,311.98134 304.825347,312.656 302.004,312.656 L302.004,306.032 C302.985338,306.032 304.119994,305.710003 305.408,305.066 C306.696006,304.421997 307.891994,303.410007 308.996,302.03 C310.100006,300.649993 311.03533,298.856011 311.802,296.648 C312.568671,294.439989 312.952,291.802682 312.952,288.736 C312.952,285.791985 312.553337,283.200678 311.756,280.962 C310.958663,278.723322 309.839341,276.837341 308.398,275.304 C306.956659,273.770659 305.239343,272.62067 303.246,271.854 C301.252657,271.087329 299.060012,270.704 296.668,270.704 C294.337322,270.704 292.175343,271.102663 290.182,271.9 C288.188657,272.697337 286.486674,273.862659 285.076,275.396 C283.665326,276.929341 282.561337,278.815322 281.764,281.054 C280.966663,283.292678 280.568,285.853319 280.568,288.736 C280.568,291.864016 280.981996,294.531989 281.81,296.74 C282.638004,298.948011 283.649994,300.741993 284.846,302.122 C286.042006,303.502007 287.31466,304.498664 288.664,305.112 C290.01334,305.725336 291.209328,306.032 292.252,306.032 L292.252,312.656 Z M361.436,282.112 C361.436,284.81068 361.052671,287.279322 360.286,289.518 C359.51933,291.756678 358.400007,293.673325 356.928,295.268 C355.455993,296.862675 353.631344,298.104662 351.454,298.994 C349.276656,299.883338 346.777347,300.328 343.956,300.328 C341.25732,300.328 338.850011,299.883338 336.734,298.994 C334.617989,298.104662 332.824007,296.862675 331.352,295.268 C329.879993,293.673325 328.760671,291.787344 327.994,289.61 C327.22733,287.432656 326.844,285.056013 326.844,282.48 C326.844,276.898639 328.285319,272.452017 331.168,269.14 C334.050681,265.827983 338.497303,264.172 344.508,264.172 C347.820017,264.172 350.656655,264.785327 353.018,266.012 C355.379345,267.238673 357.265326,268.925323 358.676,271.072 C359.902673,268.986656 361.573989,267.31534 363.69,266.058 C365.806011,264.80066 368.489317,264.172 371.74,264.172 C375.236017,264.172 378.149322,264.693328 380.48,265.736 C382.810678,266.778672 384.65066,268.112659 386,269.738 C387.34934,271.363341 388.299997,273.157324 388.852,275.12 C389.404003,277.082676 389.68,278.983991 389.68,280.824 C389.68,282.664009 389.419336,284.427325 388.898,286.114 C388.376664,287.800675 387.656005,289.31866 386.736,290.668 C385.815995,292.01734 384.696673,293.136662 383.378,294.026 C382.059327,294.915338 380.572008,295.482665 378.916,295.728 C380.510675,295.850667 382.105325,296.233997 383.7,296.878 C385.294675,297.522003 386.735994,298.441994 388.024,299.638 C389.312006,300.834006 390.354663,302.336658 391.152,304.146 C391.949337,305.955342 392.348,308.086654 392.348,310.54 C392.348,313.484015 391.796006,316.151988 390.692,318.544 C389.587994,320.936012 387.932011,323.005991 385.724,324.754 C383.515989,326.502009 380.710017,327.851329 377.306,328.802 C373.901983,329.752671 369.900023,330.228 365.3,330.228 C356.835958,330.228 350.564687,328.388018 346.486,324.708 C342.407313,321.027982 340.368,315.416038 340.368,307.872 L348.28,307.872 C348.28,310.141345 348.601997,312.226657 349.246,314.128 C349.890003,316.029343 350.901993,317.685326 352.282,319.096 C353.662007,320.506674 355.455989,321.610663 357.664,322.408 C359.872011,323.205337 362.570651,323.604 365.76,323.604 C369.440018,323.604 372.475988,323.26667 374.868,322.592 C377.260012,321.91733 379.161326,320.997339 380.572,319.832 C381.982674,318.666661 382.963997,317.302008 383.516,315.738 C384.068003,314.173992 384.344,312.472009 384.344,310.632 C384.344,306.522646 383.102012,303.655341 380.618,302.03 C378.133988,300.404659 374.745355,299.592 370.452,299.592 C369.715996,299.592 369.072003,299.607333 368.52,299.638 C367.967997,299.668667 367.508002,299.714666 367.14,299.776 C366.710665,299.837334 366.342668,299.898666 366.036,299.96 L366.036,292.784 C366.342668,292.845334 366.710665,292.906666 367.14,292.968 C367.508002,293.029334 367.98333,293.06 368.566,293.06 L370.728,293.06 C372.200007,293.06 373.61066,292.845335 374.96,292.416 C376.30934,291.986665 377.489995,291.327338 378.502,290.438 C379.514005,289.548662 380.31133,288.398674 380.894,286.988 C381.47667,285.577326 381.768,283.890676 381.768,281.928 C381.768,278.186648 380.955341,275.396009 379.33,273.556 C377.704659,271.715991 375.113351,270.796 371.556,270.796 C368.305317,270.796 365.806009,271.80799 364.058,273.832 C362.309991,275.85601 361.436,278.615983 361.436,282.112 L361.436,282.112 Z M334.572,282.02 C334.572,283.553341 334.740665,285.025326 335.078,286.436 C335.415335,287.846674 335.96733,289.103994 336.734,290.208 C337.500671,291.312006 338.497327,292.185997 339.724,292.83 C340.950673,293.474003 342.453324,293.796 344.232,293.796 C345.826675,293.796 347.221994,293.474003 348.418,292.83 C349.614006,292.185997 350.59533,291.342672 351.362,290.3 C352.128671,289.257328 352.711331,288.030674 353.11,286.62 C353.508669,285.209326 353.708,283.706675 353.708,282.112 C353.708,278.922651 352.956674,276.239344 351.454,274.062 C349.951326,271.884656 347.636016,270.796 344.508,270.796 C341.379984,270.796 338.942009,271.792657 337.194,273.786 C335.445991,275.779343 334.572,278.523983 334.572,282.02 L334.572,282.02 Z" id="სერიფ" fill="#BABABD" sketch:type="MSShapeGroup"></path>
                <path d="M0,181 L465,181" id="Path-1" stroke="#BABABD" sketch:type="MSShapeGroup"></path>
            </g>
        </g>
    </g>
</svg>