<?xml version="1.0" encoding="UTF-8" standalone="no"?>
<svg width="465px" height="360px" viewBox="0 0 465 360" version="1.1" xmlns="http://www.w3.org/2000/svg" xmlns:xlink="http://www.w3.org/1999/xlink" xmlns:sketch="http://www.bohemiancoding.com/sketch/ns">
    <!-- Generator: Sketch Beta 3.4.4 (17258) - http://www.bohemiancoding.com/sketch -->
    <title>Tail</title>
    <desc>Created with Sketch Beta.</desc>
    <defs></defs>
    <g id="Outline" stroke="none" stroke-width="1" fill="none" fill-rule="evenodd" sketch:type="MSPage">
        <g id="Tail" sketch:type="MSArtboardGroup">
            <g id="Group" sketch:type="MSLayerGroup">
                <g id="Tag">
                    <rect id="Rectangle-1" fill="#BABABD" sketch:type="MSShapeGroup" x="0" y="0" width="30" height="360"></rect>
                    <text id="აღმავალი" sketch:type="MSTextLayer" transform="translate(13.500000, 270.500000) rotate(-90.000000) translate(-13.500000, -270.500000) " font-family="BG Courier" font-size="21" font-weight="normal" sketch:alignment="middle" fill="#646466">
                        <tspan x="-12.372" y="275">კუდი</tspan>
                    </text>
                    <text id="ascender" sketch:type="MSTextLayer" transform="translate(14.500000, 90.500000) rotate(-90.000000) translate(-14.500000, -90.500000) " font-family="BG Courier" font-size="21" font-weight="normal" sketch:alignment="middle" fill="#646466">
                        <tspan x="-10.7" y="95">tail</tspan>
                    </text>
                </g>
                <path d="M184.474,70.312 L184.474,136 L193.214,136 L193.214,107.94 L214.558,107.94 C216.704677,107.94 218.421994,108.261997 219.71,108.906 C220.998006,109.550003 222.040663,110.408661 222.838,111.482 C223.635337,112.555339 224.217998,113.812659 224.586,115.254 C224.954002,116.695341 225.260665,118.213325 225.506,119.808 C225.812668,121.402675 225.996666,123.027992 226.058,124.684 C226.119334,126.340008 226.180666,127.888659 226.242,129.33 C226.303334,130.771341 226.441332,132.074661 226.656,133.24 C226.870668,134.405339 227.284664,135.32533 227.898,136 L237.65,136 C236.729995,134.895994 236.040002,133.623341 235.58,132.182 C235.119998,130.740659 234.767335,129.222675 234.522,127.628 C234.276665,126.033325 234.123334,124.408008 234.062,122.752 C234.000666,121.095992 233.908667,119.470675 233.786,117.876 C233.601999,116.281325 233.341335,114.748007 233.004,113.276 C232.666665,111.803993 232.145337,110.470006 231.44,109.274 C230.734663,108.077994 229.784006,107.050671 228.588,106.192 C227.391994,105.333329 225.843343,104.720002 223.942,104.352 L223.942,104.168 C227.928687,103.063994 230.826658,101.009348 232.636,98.004 C234.445342,94.9986516 235.35,91.5026866 235.35,87.516 C235.35,82.1799733 233.586684,77.978682 230.06,74.912 C226.533316,71.845318 221.642031,70.312 215.386,70.312 L184.474,70.312 Z M211.43,100.58 L193.214,100.58 L193.214,77.672 L214.926,77.672 C219.035354,77.672 222.009991,78.7146562 223.85,80.8 C225.690009,82.8853438 226.61,85.5839834 226.61,88.896 C226.61,91.288012 226.196004,93.2353258 225.368,94.738 C224.539996,96.2406742 223.436007,97.4366622 222.056,98.326 C220.675993,99.2153378 219.066009,99.8133318 217.226,100.12 C215.385991,100.426668 213.45401,100.58 211.43,100.58 L211.43,100.58 Z M288.342,135.816 C286.99266,136.613337 285.122012,137.012 282.73,137.012 C280.70599,137.012 279.096006,136.444672 277.9,135.31 C276.703994,134.175328 276.106,132.320013 276.106,129.744 C273.959323,132.320013 271.460014,134.175328 268.608,135.31 C265.755986,136.444672 262.674017,137.012 259.362,137.012 C257.215323,137.012 255.17601,136.766669 253.244,136.276 C251.31199,135.785331 249.640674,135.018672 248.23,133.976 C246.819326,132.933328 245.700004,131.568675 244.872,129.882 C244.043996,128.195325 243.63,126.156012 243.63,123.764 C243.63,121.06532 244.089995,118.857342 245.01,117.14 C245.930005,115.422658 247.141326,114.027339 248.644,112.954 C250.146674,111.880661 251.86399,111.068003 253.796,110.516 C255.72801,109.963997 257.70599,109.504002 259.73,109.136 C261.876677,108.706665 263.91599,108.384668 265.848,108.17 C267.78001,107.955332 269.481993,107.648669 270.954,107.25 C272.426007,106.851331 273.591329,106.26867 274.45,105.502 C275.308671,104.735329 275.738,103.616007 275.738,102.144 C275.738,100.426658 275.416003,99.0466719 274.772,98.004 C274.127997,96.9613281 273.300005,96.1640028 272.288,95.612 C271.275995,95.0599972 270.14134,94.6920009 268.884,94.508 C267.62666,94.3239991 266.384673,94.232 265.158,94.232 C261.845983,94.232 259.086011,94.8606604 256.878,96.118 C254.669989,97.3753396 253.474001,99.7519825 253.29,103.248 L245.47,103.248 C245.592667,100.303985 246.205994,97.8200101 247.31,95.796 C248.414006,93.7719899 249.885991,92.1313396 251.726,90.874 C253.566009,89.6166604 255.666655,88.7120028 258.028,88.16 C260.389345,87.6079972 262.91932,87.332 265.618,87.332 C267.764677,87.332 269.895989,87.4853318 272.012,87.792 C274.128011,88.0986682 276.044658,88.7273286 277.762,89.678 C279.479342,90.6286714 280.859328,91.9626581 281.902,93.68 C282.944672,95.3973419 283.466,97.6359862 283.466,100.396 L283.466,124.868 C283.466,126.708009 283.573332,128.057329 283.788,128.916 C284.002668,129.774671 284.723327,130.204 285.95,130.204 C286.62467,130.204 287.421995,130.050668 288.342,129.744 L288.342,135.816 Z M275.646,111.436 C274.664662,112.172004 273.376675,112.708665 271.782,113.046 C270.187325,113.383335 268.516009,113.659332 266.768,113.874 C265.019991,114.088668 263.256676,114.333999 261.478,114.61 C259.699324,114.886001 258.104674,115.330664 256.694,115.944 C255.283326,116.557336 254.133338,117.431328 253.244,118.566 C252.354662,119.700672 251.91,121.249324 251.91,123.212 C251.91,124.500006 252.170664,125.588662 252.692,126.478 C253.213336,127.367338 253.887996,128.087997 254.716,128.64 C255.544004,129.192003 256.509994,129.590665 257.614,129.836 C258.718006,130.081335 259.883327,130.204 261.11,130.204 C263.686013,130.204 265.893991,129.851337 267.734,129.146 C269.574009,128.440663 271.076661,127.551339 272.242,126.478 C273.407339,125.404661 274.265997,124.23934 274.818,122.982 C275.370003,121.72466 275.646,120.544006 275.646,119.44 L275.646,111.436 Z M306.466,88.436 L306.466,74.176 L298.646,74.176 L298.646,88.436 L290.55,88.436 L290.55,95.336 L298.646,95.336 L298.646,125.604 C298.646,127.812011 298.860665,129.59066 299.29,130.94 C299.719335,132.28934 300.378662,133.331996 301.268,134.068 C302.157338,134.804004 303.322659,135.309999 304.764,135.586 C306.205341,135.862001 307.93799,136 309.962,136 L315.942,136 L315.942,129.1 L312.354,129.1 C311.127327,129.1 310.130671,129.054 309.364,128.962 C308.59733,128.87 307.999335,128.670668 307.57,128.364 C307.140665,128.057332 306.849334,127.628003 306.696,127.076 C306.542666,126.523997 306.466,125.788005 306.466,124.868 L306.466,95.336 L315.942,95.336 L315.942,88.436 L306.466,88.436 Z" id="Rat" fill="#BABABD" sketch:type="MSShapeGroup"></path>
                <path d="M119.66,319.096 L108.436,316.52 C101.995968,315.047993 96.9360184,312.196021 93.256,307.964 C89.5759816,303.731979 87.736,297.782705 87.736,290.116 C87.736,286.74265 88.0579968,283.492016 88.702,280.364 C89.3460032,277.235984 90.4039926,274.476012 91.876,272.084 C93.3480074,269.691988 95.2953212,267.775341 97.718,266.334 C100.140679,264.892659 103.161315,264.172 106.78,264.172 C109.846682,264.172 112.34599,264.739328 114.278,265.874 C116.21001,267.008672 117.743328,268.495991 118.878,270.336 C120.012672,272.176009 120.840664,274.276655 121.362,276.638 C121.883336,278.999345 122.266665,281.437321 122.512,283.952 L122.788,283.952 C122.788,281.191986 123.063997,278.616012 123.616,276.224 C124.168003,273.831988 125.07266,271.746676 126.33,269.968 C127.58734,268.189324 129.243323,266.778672 131.298,265.736 C133.352677,264.693328 135.913318,264.172 138.98,264.172 C141.924015,264.172 144.36199,264.723994 146.294,265.828 C148.22601,266.932006 149.759328,268.373324 150.894,270.152 C152.028672,271.930676 152.856664,273.969988 153.378,276.27 C153.899336,278.570011 154.221333,280.946654 154.344,283.4 L154.712,283.4 C154.896001,280.823987 155.294664,278.370678 155.908,276.04 C156.521336,273.709322 157.45666,271.670009 158.714,269.922 C159.97134,268.173991 161.550657,266.778672 163.452,265.736 C165.353343,264.693328 167.65332,264.172 170.352,264.172 C173.602683,264.172 176.347322,264.785327 178.586,266.012 C180.824678,267.238673 182.633993,268.894656 184.014,270.98 C185.394007,273.065344 186.37533,275.503319 186.958,278.294 C187.54067,281.084681 187.832,284.013318 187.832,287.08 C187.832,290.208016 187.356671,293.105987 186.406,295.774 C185.455329,298.442013 184.152008,300.74199 182.496,302.674 C180.839992,304.60601 178.923344,306.123994 176.746,307.228 C174.568656,308.332006 172.253346,308.884 169.8,308.884 L169.8,301.34 C171.272007,301.34 172.621327,300.910671 173.848,300.052 C175.074673,299.193329 176.132662,298.028007 177.022,296.556 C177.911338,295.083993 178.616664,293.366676 179.138,291.404 C179.659336,289.441324 179.92,287.325345 179.92,285.056 C179.92,283.093324 179.720669,281.253342 179.322,279.536 C178.923331,277.818658 178.325337,276.316006 177.528,275.028 C176.730663,273.739994 175.734006,272.728004 174.538,271.992 C173.341994,271.255996 171.916008,270.888 170.26,270.888 C167.499986,270.888 165.414674,271.608659 164.004,273.05 C162.593326,274.491341 161.566003,276.346655 160.922,278.616 C160.277997,280.885345 159.925334,283.415319 159.864,286.206 C159.802666,288.996681 159.772,291.710653 159.772,294.348 L149.284,294.348 L149.284,287.172 C149.284,281.958641 148.348676,277.926014 146.478,275.074 C144.607324,272.221986 142.108016,270.796 138.98,270.796 C135.483983,270.796 132.754676,272.221986 130.792,275.074 C128.829324,277.926014 127.878666,281.927974 127.94,287.08 L127.94,294.348 L117.728,294.348 C117.728,291.710653 117.590001,288.996681 117.314,286.206 C117.037999,283.415319 116.486004,280.885345 115.658,278.616 C114.829996,276.346655 113.680007,274.476007 112.208,273.004 C110.735993,271.531993 108.773346,270.796 106.32,270.796 C102.94665,270.796 100.324676,272.329318 98.454,275.396 C96.583324,278.462682 95.648,282.970637 95.648,288.92 C95.648,292.845353 96.1999945,296.11132 97.304,298.718 C98.4080055,301.32468 99.9259903,303.532658 101.858,305.342 C103.79001,307.151342 106.10532,308.68466 108.804,309.942 C111.50268,311.19934 114.415984,312.410661 117.544,313.576 C120.304014,314.680006 123.278651,315.799328 126.468,316.934 C129.657349,318.068672 132.631986,319.095995 135.392,320.016 C138.581349,321.120006 141.739984,322.193328 144.868,323.236 L144.868,323.42 L142.292,330.504 C140.758659,329.767996 139.010676,329.06267 137.048,328.388 C135.391992,327.774664 133.398678,327.17667 131.068,326.594 C128.737322,326.01133 126.130681,325.474669 123.248,324.984 C120.303985,324.493331 117.835343,324.202 115.842,324.11 C113.848657,324.018 111.932009,323.972 110.092,323.972 L94.176,323.972 L94.176,317.44 L103.008,317.44 C104.602675,317.44 106.350657,317.547332 108.252,317.762 C110.153343,317.976668 111.962658,318.237332 113.68,318.544 C115.70401,318.850668 117.697324,319.187998 119.66,319.556 L119.66,319.096 Z M224.54,264.172 C227.177347,264.172 229.277992,264.585996 230.842,265.414 C232.406008,266.242004 233.601996,267.391993 234.43,268.864 C235.258004,270.336007 235.825332,272.08399 236.132,274.108 C236.438668,276.13201 236.653333,278.370654 236.776,280.824 L237.052,280.824 C237.174667,278.309321 237.481331,276.024677 237.972,273.97 C238.462669,271.915323 239.244661,270.167341 240.318,268.726 C241.391339,267.284659 242.801991,266.165337 244.55,265.368 C246.298009,264.570663 248.52132,264.172 251.22,264.172 C254.348016,264.172 256.893324,264.616662 258.856,265.506 C260.818676,266.395338 262.351994,267.667992 263.456,269.324 C264.560006,270.980008 265.311331,272.988655 265.71,275.35 C266.108669,277.711345 266.308,280.363985 266.308,283.308 L266.308,309.344 C266.308,312.901351 265.572007,315.998653 264.1,318.636 C262.627993,321.273347 260.604013,323.450658 258.028,325.168 C255.451987,326.885342 252.400684,328.157996 248.874,328.986 C245.347316,329.814004 241.529354,330.228 237.42,330.228 C233.310646,330.228 229.630683,329.84467 226.38,329.078 C223.129317,328.311329 220.384678,327.038676 218.146,325.26 C215.907322,323.481324 214.190006,321.181347 212.994,318.36 C211.797994,315.538653 211.2,312.042688 211.2,307.872 L219.204,307.872 C219.204,310.938682 219.648662,313.48399 220.538,315.508 C221.427338,317.53201 222.684659,319.157327 224.31,320.384 C225.935341,321.610673 227.897988,322.469331 230.198,322.96 C232.498011,323.450669 235.058653,323.696 237.88,323.696 C240.701347,323.696 243.369321,323.420003 245.884,322.868 C248.398679,322.315997 250.591324,321.41134 252.462,320.154 C254.332676,318.89666 255.819994,317.240677 256.924,315.186 C258.028006,313.131323 258.58,310.570682 258.58,307.504 L258.58,285.332 C258.58,280.425309 258.058672,276.776012 257.016,274.384 C255.973328,271.991988 253.796017,270.796 250.484,270.796 C248.275989,270.796 246.604672,271.363328 245.47,272.498 C244.335328,273.632672 243.538002,275.150657 243.078,277.052 C242.617998,278.953343 242.372667,281.145988 242.342,283.63 C242.311333,286.114012 242.296,288.674653 242.296,291.312 L231.348,291.312 L231.348,284.136 C231.348,282.11199 231.240668,280.287341 231.026,278.662 C230.811332,277.036659 230.443336,275.641339 229.922,274.476 C229.400664,273.310661 228.710671,272.406003 227.852,271.762 C226.993329,271.117997 225.88934,270.796 224.54,270.796 C222.761324,270.796 221.381338,271.255995 220.4,272.176 C219.418662,273.096005 218.682669,274.23066 218.192,275.58 C217.701331,276.92934 217.333335,278.370659 217.088,279.904 C216.842665,281.437341 216.536002,282.786661 216.168,283.952 C215.738665,285.240006 215.248003,286.435994 214.696,287.54 C214.143997,288.644006 213.454004,289.609996 212.626,290.438 C211.797996,291.266004 210.801339,291.925331 209.636,292.416 C208.470661,292.906669 207.090675,293.152 205.496,293.152 C202.061316,293.152 199.562008,292.247342 197.998,290.438 C196.433992,288.628658 195.652,286.344014 195.652,283.584 L195.652,280.824 C195.652,280.026663 195.682666,279.352003 195.744,278.8 C195.805334,278.12533 195.866666,277.573335 195.928,277.144 L203.104,277.144 C203.042666,277.634669 203.012,278.125331 203.012,278.616 C202.950666,279.045335 202.92,279.505331 202.92,279.996 L202.92,281.468 C202.92,283.001341 203.088665,284.227995 203.426,285.148 C203.763335,286.068005 204.545327,286.528 205.772,286.528 C207.305341,286.528 208.36333,285.56201 208.946,283.63 C209.52867,281.69799 210.126664,279.168016 210.74,276.04 C211.046668,274.445325 211.506664,272.927341 212.12,271.486 C212.733336,270.044659 213.576661,268.787339 214.65,267.714 C215.723339,266.640661 217.057325,265.782003 218.652,265.138 C220.246675,264.493997 222.209322,264.172 224.54,264.172 L224.54,264.172 Z M353.892,288.552 C353.892,291.864017 353.493337,294.991985 352.696,297.936 C351.898663,300.880015 350.610676,303.440656 348.832,305.618 C347.053324,307.795344 344.753347,309.527994 341.932,310.816 C339.110653,312.104006 335.645354,312.748 331.536,312.748 C327.48798,312.748 324.053347,312.07334 321.232,310.724 C318.410653,309.37466 316.126009,307.611344 314.378,305.434 C312.629991,303.256656 311.357337,300.772681 310.56,297.982 C309.762663,295.191319 309.364,292.354681 309.364,289.472 L309.364,289.288 C309.302666,289.042665 309.210667,288.398672 309.088,287.356 C308.965333,286.313328 308.704669,285.11734 308.306,283.768 C307.907331,282.41866 307.386003,280.992674 306.742,279.49 C306.097997,277.987326 305.239339,276.592006 304.166,275.304 C303.092661,274.015994 301.774008,272.958004 300.21,272.13 C298.645992,271.301996 296.821344,270.888 294.736,270.888 C293.018658,270.888 291.332008,271.332662 289.676,272.222 C288.019992,273.111338 286.548006,274.368659 285.26,275.994 C283.971994,277.619341 282.929337,279.597322 282.132,281.928 C281.334663,284.258678 280.936,286.895985 280.936,289.84 C280.936,293.520018 281.487994,296.601988 282.592,299.086 C283.696006,301.570012 285.21399,303.685991 287.146,305.434 C289.07801,307.182009 291.39332,308.68466 294.092,309.942 C296.79068,311.19934 299.703984,312.410661 302.832,313.576 C305.592014,314.680006 308.566651,315.799328 311.756,316.934 C314.945349,318.068672 317.919986,319.095995 320.68,320.016 C323.869349,321.120006 327.027984,322.193328 330.156,323.236 L330.156,323.42 L327.58,330.504 C326.046659,329.767996 324.298676,329.06267 322.336,328.388 C320.679992,327.774664 318.686678,327.17667 316.356,326.594 C314.025322,326.01133 311.418681,325.474669 308.536,324.984 C305.591985,324.493331 303.123343,324.202 301.13,324.11 C299.136657,324.018 297.220009,323.972 295.38,323.972 L279.464,323.972 L279.464,317.072 L290.32,317.072 C291.546673,317.072 292.803994,317.118 294.092,317.21 C295.380006,317.302 296.453329,317.409333 297.312,317.532 C295.96266,317.041331 294.766672,316.704001 293.724,316.52 C287.283968,315.047993 282.224018,312.196021 278.544,307.964 C274.863982,303.731979 273.024,297.782705 273.024,290.116 C273.024,286.74265 273.514662,283.492016 274.496,280.364 C275.477338,277.235984 276.887991,274.476012 278.728,272.084 C280.568009,269.691988 282.83732,267.790674 285.536,266.38 C288.23468,264.969326 291.331983,264.264 294.828,264.264 C297.281346,264.264 299.47399,264.570664 301.406,265.184 C303.33801,265.797336 305.009326,266.609995 306.42,267.622 C307.830674,268.634005 309.026662,269.753327 310.008,270.98 C310.989338,272.206673 311.81733,273.463994 312.492,274.752 C314.086675,271.623984 316.401985,269.078676 319.438,267.116 C322.474015,265.153324 326.383976,264.172 331.168,264.172 C335.093353,264.172 338.481986,264.785327 341.334,266.012 C344.186014,267.238673 346.547324,268.940656 348.418,271.118 C350.288676,273.295344 351.668662,275.871318 352.558,278.846 C353.447338,281.820682 353.892,285.055983 353.892,288.552 L353.892,288.552 Z M331.536,270.796 C326.751976,270.796 323.194678,272.298652 320.864,275.304 C318.533322,278.309348 317.368,282.694638 317.368,288.46 C317.368,300.236059 322.121286,306.124 331.628,306.124 C336.780026,306.124 340.475322,304.590682 342.714,301.524 C344.952678,298.457318 346.072,294.133361 346.072,288.552 C346.072,282.970639 344.830012,278.616016 342.346,275.488 C339.861988,272.359984 336.25869,270.796 331.536,270.796 L331.536,270.796 Z M380.02,312.656 C377.014652,312.656 374.300679,312.104006 371.878,311 C369.455321,309.895994 367.400675,308.33201 365.714,306.308 C364.027325,304.28399 362.724005,301.846014 361.804,298.994 C360.883995,296.141986 360.424,292.968017 360.424,289.472 C360.424,285.853315 360.960661,282.495349 362.034,279.398 C363.107339,276.300651 364.686656,273.617345 366.772,271.348 C368.857344,269.078655 371.417985,267.300006 374.454,266.012 C377.490015,264.723994 380.970647,264.08 384.896,264.08 C388.821353,264.08 392.271318,264.723994 395.246,266.012 C398.220682,267.300006 400.704657,269.063322 402.698,271.302 C404.691343,273.540678 406.193995,276.193318 407.206,279.26 C408.218005,282.326682 408.724,285.607983 408.724,289.104 C408.724,292.048015 408.264005,294.930653 407.344,297.752 C406.423995,300.573347 405.136008,303.087989 403.48,305.296 C401.823992,307.504011 399.830678,309.28266 397.5,310.632 C395.169322,311.98134 392.593347,312.656 389.772,312.656 L389.772,306.032 C390.753338,306.032 391.887994,305.710003 393.176,305.066 C394.464006,304.421997 395.659994,303.410007 396.764,302.03 C397.868006,300.649993 398.803329,298.856011 399.57,296.648 C400.33667,294.439989 400.72,291.802682 400.72,288.736 C400.72,285.791985 400.321337,283.200678 399.524,280.962 C398.726663,278.723322 397.607341,276.837341 396.166,275.304 C394.724659,273.770659 393.007343,272.62067 391.014,271.854 C389.020657,271.087329 386.828012,270.704 384.436,270.704 C382.105322,270.704 379.943343,271.102663 377.95,271.9 C375.956657,272.697337 374.254674,273.862659 372.844,275.396 C371.433326,276.929341 370.329337,278.815322 369.532,281.054 C368.734663,283.292678 368.336,285.853319 368.336,288.736 C368.336,291.864016 368.749996,294.531989 369.578,296.74 C370.406004,298.948011 371.417994,300.741993 372.614,302.122 C373.810006,303.502007 375.08266,304.498664 376.432,305.112 C377.78134,305.725336 378.977328,306.032 380.02,306.032 L380.02,312.656 Z" id="ლუდი" fill="#BABABD" sketch:type="MSShapeGroup"></path>
                <path d="M219.71,108.906 C219.71,108.906 222.040663,110.408661 222.838,111.482 C223.635337,112.555339 224.217998,113.812659 224.586,115.254 C224.954002,116.695341 225.260665,118.213325 225.506,119.808 C225.812668,121.402675 225.996666,123.027992 226.058,124.684 C226.119334,126.340008 226.180666,127.888659 226.242,129.33 C226.303334,130.771341 226.441332,132.074661 226.656,133.24 C226.870668,134.405339 227.284664,135.32533 227.898,136 L237.65,136 C236.729995,134.895994 236.040002,133.623341 235.58,132.182 C235.119998,130.740659 234.767335,129.222675 234.522,127.628 C234.276665,126.033325 234.123334,124.408008 234.062,122.752 C234.000666,121.095992 233.908667,119.470675 233.786,117.876 C233.601999,116.281325 233.341335,114.748007 233.004,113.276 C232.666665,111.803993 232.145337,110.470006 231.44,109.274 C230.734663,108.077994 229.784006,107.050671 228.588,106.192 C227.391994,105.333329 225.843343,104.720002 223.942,104.352 L219.71,108.906 Z" id="Rat" fill="#666666" sketch:type="MSShapeGroup"></path>
                <path d="M119.66,319.096 L108.436,316.52 C101.995968,315.047993 96.9360184,312.196021 93.256,307.964 C89.5759816,303.731979 87.736,297.782705 87.736,290.116 C87.736,286.74265 88.0579968,283.492016 88.702,280.364 C89.3460032,277.235984 90.4039926,274.476012 91.876,272.084 C93.3480074,269.691988 95.2953212,267.775341 97.718,266.334 C100.140679,264.892659 103.530762,264.100281 106.78,264.172 L106.32,270.796 C103.275024,270.69696 100.324676,272.329318 98.454,275.396 C96.583324,278.462682 95.648,282.970637 95.648,288.92 C95.648,292.845353 96.1999945,296.11132 97.304,298.718 C98.4080055,301.32468 99.9259903,303.532658 101.858,305.342 C103.79001,307.151342 106.10532,308.68466 108.804,309.942 C111.50268,311.19934 114.415984,312.410661 117.544,313.576 C120.304014,314.680006 123.278651,315.799328 126.468,316.934 C129.657349,318.068672 132.631986,319.095995 135.392,320.016 C138.581349,321.120006 141.739984,322.193328 144.868,323.236 L142.292,330.504 C140.758659,329.767996 139.010676,329.06267 137.048,328.388 C135.391992,327.774664 133.398678,327.17667 131.068,326.594 C128.737322,326.01133 126.130681,325.474669 123.248,324.984 C120.303985,324.493331 117.835343,324.202 115.842,324.11 C113.848657,324.018 111.932009,323.972 110.092,323.972 L94.176,323.972 L94.176,317.44 L103.008,317.44 C104.602675,317.44 106.350657,317.547332 108.252,317.762 C110.153343,317.976668 111.962658,318.237332 113.68,318.544 C115.70401,318.850668 117.697324,319.187998 119.66,319.556 L119.66,319.096 Z M294.736,270.888 C294.736,270.888 291.332008,271.332662 289.676,272.222 C288.019992,273.111338 286.548006,274.368659 285.26,275.994 C283.971994,277.619341 282.929337,279.597322 282.132,281.928 C281.334663,284.258678 280.936,286.895985 280.936,289.84 C280.936,293.520018 281.487994,296.601988 282.592,299.086 C283.696006,301.570012 285.21399,303.685991 287.146,305.434 C289.07801,307.182009 291.39332,308.68466 294.092,309.942 C296.79068,311.19934 299.703984,312.410661 302.832,313.576 C305.592014,314.680006 308.566651,315.799328 311.756,316.934 C314.945349,318.068672 317.919986,319.095995 320.68,320.016 C323.869349,321.120006 327.027984,322.193328 330.156,323.236 L327.58,330.504 C326.046659,329.767996 324.298676,329.06267 322.336,328.388 C320.679992,327.774664 318.686678,327.17667 316.356,326.594 C314.025322,326.01133 311.418681,325.474669 308.536,324.984 C305.591985,324.493331 303.123343,324.202 301.13,324.11 C299.136657,324.018 297.220009,323.972 295.38,323.972 L279.464,323.972 L279.464,317.072 L290.32,317.072 C291.546673,317.072 292.803994,317.118 294.092,317.21 C295.380006,317.302 296.453329,317.409333 297.312,317.532 C295.96266,317.041331 294.766672,316.704001 293.724,316.52 C287.283968,315.047993 282.224018,312.196021 278.544,307.964 C274.863982,303.731979 273.024,297.782705 273.024,290.116 C273.024,286.74265 273.514662,283.492016 274.496,280.364 C275.477338,277.235984 276.887991,274.476012 278.728,272.084 C280.568009,269.691988 282.83732,267.790674 285.536,266.38 C288.23468,264.969326 291.646972,264.264 294.828,264.264 L294.736,270.888 Z" id="ლუდი" fill="#666666" sketch:type="MSShapeGroup"></path>
                <path d="M0,181 L465,181" id="Path-1" stroke="#BABABD" sketch:type="MSShapeGroup"></path>
            </g>
        </g>
    </g>
</svg>