<?xml version="1.0" encoding="UTF-8" standalone="no"?>
<svg width="465px" height="360px" viewBox="0 0 465 360" version="1.1" xmlns="http://www.w3.org/2000/svg" xmlns:xlink="http://www.w3.org/1999/xlink" xmlns:sketch="http://www.bohemiancoding.com/sketch/ns">
    <!-- Generator: Sketch Beta 3.4.4 (17258) - http://www.bohemiancoding.com/sketch -->
    <title>Uppercase</title>
    <desc>Created with Sketch Beta.</desc>
    <defs>
        <rect id="path-1" x="0" y="0" width="30" height="360"></rect>
    </defs>
    <g id="Outline" stroke="none" stroke-width="1" fill="none" fill-rule="evenodd" sketch:type="MSPage">
        <g id="Uppercase" sketch:type="MSArtboardGroup">
            <g id="Group" sketch:type="MSLayerGroup">
                <g id="Tag">
                    <rect id="Rectangle-1" fill="#BABABD" sketch:type="MSShapeGroup" x="0" y="0" width="30" height="360"></rect>
                    <text id="აღმავალი" sketch:type="MSTextLayer" transform="translate(13.500000, 270.500000) rotate(-90.000000) translate(-13.500000, -270.500000) " font-family="BG Courier" font-size="21" font-weight="normal" sketch:alignment="middle" fill="#646466">
                        <tspan x="-56.472" y="275">ასომთავრული</tspan>
                    </text>
                    <text id="ascender" sketch:type="MSTextLayer" transform="translate(14.500000, 90.500000) rotate(-90.000000) translate(-14.500000, -90.500000) " font-family="BG Courier" font-size="21" font-weight="normal" sketch:alignment="middle" fill="#646466">
                        <tspan x="-42.2" y="95">uppercase</tspan>
                    </text>
                </g>
                <g id="In-Progress">
                    <mask id="mask-2" sketch:name="Mask" fill="white">
                        <use xlink:href="#path-1"></use>
                    </mask>
                    <use id="Mask" fill="#DCA708" sketch:type="MSShapeGroup" xlink:href="#path-1"></use>
                    <rect id="Rectangle-20" fill="#FFD863" sketch:type="MSShapeGroup" mask="url(#mask-2)" x="-11.9713024" y="240.528698" width="23" height="168">
                        <g transform="translate(-0.471302, 324.528698) rotate(-45.000000) translate(0.471302, -324.528698) "></g>
                    </rect>
                    <rect id="Rectangle-20" fill="#FFD863" sketch:type="MSShapeGroup" mask="url(#mask-2)" x="-11.9713024" y="176.528698" width="23" height="168">
                        <g transform="translate(-0.471302, 260.528698) rotate(-45.000000) translate(0.471302, -260.528698) "></g>
                    </rect>
                    <rect id="Rectangle-20" fill="#FFD863" sketch:type="MSShapeGroup" mask="url(#mask-2)" x="-11.9713024" y="112.528698" width="23" height="168">
                        <g transform="translate(-0.471302, 196.528698) rotate(-45.000000) translate(0.471302, -196.528698) "></g>
                    </rect>
                    <rect id="Rectangle-20" fill="#FFD863" sketch:type="MSShapeGroup" mask="url(#mask-2)" x="-11.9713024" y="48.5286976" width="23" height="168">
                        <g transform="translate(-0.471302, 132.528698) rotate(-45.000000) translate(0.471302, -132.528698) "></g>
                    </rect>
                    <rect id="Rectangle-20" fill="#FFD863" sketch:type="MSShapeGroup" mask="url(#mask-2)" x="-11.9713024" y="-15.4713024" width="23" height="168">
                        <g transform="translate(-0.471302, 68.528698) rotate(-45.000000) translate(0.471302, -68.528698) "></g>
                    </rect>
                    <rect id="Rectangle-20" fill="#FFD863" sketch:type="MSShapeGroup" mask="url(#mask-2)" x="-11.9713024" y="-79.4713024" width="23" height="168">
                        <g transform="translate(-0.471302, 4.528698) rotate(-45.000000) translate(0.471302, -4.528698) "></g>
                    </rect>
                </g>
                <path d="M193.214,98.556 L193.214,77.672 L210.694,77.672 C212.595343,77.672 214.389325,77.7793323 216.076,77.994 C217.762675,78.2086677 219.249994,78.6839963 220.538,79.42 C221.826006,80.1560037 222.837996,81.1986599 223.574,82.548 C224.310004,83.8973401 224.678,85.7373217 224.678,88.068 C224.678,91.5640175 223.589344,94.1859913 221.412,95.934 C219.234656,97.6820087 215.662025,98.556 210.694,98.556 L193.214,98.556 Z M184.474,70.312 L184.474,136 L216.214,136 C219.464683,136 222.331988,135.463339 224.816,134.39 C227.300012,133.316661 229.385325,131.906009 231.072,130.158 C232.758675,128.409991 234.031329,126.401345 234.89,124.132 C235.748671,121.862655 236.178,119.532012 236.178,117.14 C236.178,113.09198 235.104677,109.657347 232.958,106.836 C230.811323,104.014653 227.71402,102.174671 223.666,101.316 L223.666,101.132 C226.794016,99.9053272 229.201325,98.0193461 230.888,95.474 C232.574675,92.9286539 233.418,89.9080175 233.418,86.412 C233.418,83.0999834 232.666674,80.3093447 231.164,78.04 C229.661326,75.7706553 227.836677,73.9920064 225.69,72.704 C224.708662,72.0906636 223.528007,71.6306682 222.148,71.324 C220.767993,71.0173318 219.280675,70.7873341 217.686,70.634 C216.091325,70.4806659 214.481341,70.3886668 212.856,70.358 C211.230659,70.3273332 209.712674,70.312 208.302,70.312 L184.474,70.312 Z M193.214,128.64 L193.214,105.916 L213.178,105.916 C215.018009,105.916 216.796658,106.084665 218.514,106.422 C220.231342,106.759335 221.749327,107.341996 223.068,108.17 C224.386673,108.998004 225.444663,110.117326 226.242,111.528 C227.039337,112.938674 227.438,114.717323 227.438,116.864 C227.438,120.544018 226.349344,123.426656 224.172,125.512 C221.994656,127.597344 218.974019,128.64 215.11,128.64 L193.214,128.64 Z M288.342,135.816 C286.99266,136.613337 285.122012,137.012 282.73,137.012 C280.70599,137.012 279.096006,136.444672 277.9,135.31 C276.703994,134.175328 276.106,132.320013 276.106,129.744 C273.959323,132.320013 271.460014,134.175328 268.608,135.31 C265.755986,136.444672 262.674017,137.012 259.362,137.012 C257.215323,137.012 255.17601,136.766669 253.244,136.276 C251.31199,135.785331 249.640674,135.018672 248.23,133.976 C246.819326,132.933328 245.700004,131.568675 244.872,129.882 C244.043996,128.195325 243.63,126.156012 243.63,123.764 C243.63,121.06532 244.089995,118.857342 245.01,117.14 C245.930005,115.422658 247.141326,114.027339 248.644,112.954 C250.146674,111.880661 251.86399,111.068003 253.796,110.516 C255.72801,109.963997 257.70599,109.504002 259.73,109.136 C261.876677,108.706665 263.91599,108.384668 265.848,108.17 C267.78001,107.955332 269.481993,107.648669 270.954,107.25 C272.426007,106.851331 273.591329,106.26867 274.45,105.502 C275.308671,104.735329 275.738,103.616007 275.738,102.144 C275.738,100.426658 275.416003,99.0466719 274.772,98.004 C274.127997,96.9613281 273.300005,96.1640028 272.288,95.612 C271.275995,95.0599972 270.14134,94.6920009 268.884,94.508 C267.62666,94.3239991 266.384673,94.232 265.158,94.232 C261.845983,94.232 259.086011,94.8606604 256.878,96.118 C254.669989,97.3753396 253.474001,99.7519825 253.29,103.248 L245.47,103.248 C245.592667,100.303985 246.205994,97.8200101 247.31,95.796 C248.414006,93.7719899 249.885991,92.1313396 251.726,90.874 C253.566009,89.6166604 255.666655,88.7120028 258.028,88.16 C260.389345,87.6079972 262.91932,87.332 265.618,87.332 C267.764677,87.332 269.895989,87.4853318 272.012,87.792 C274.128011,88.0986682 276.044658,88.7273286 277.762,89.678 C279.479342,90.6286714 280.859328,91.9626581 281.902,93.68 C282.944672,95.3973419 283.466,97.6359862 283.466,100.396 L283.466,124.868 C283.466,126.708009 283.573332,128.057329 283.788,128.916 C284.002668,129.774671 284.723327,130.204 285.95,130.204 C286.62467,130.204 287.421995,130.050668 288.342,129.744 L288.342,135.816 Z M275.646,111.436 C274.664662,112.172004 273.376675,112.708665 271.782,113.046 C270.187325,113.383335 268.516009,113.659332 266.768,113.874 C265.019991,114.088668 263.256676,114.333999 261.478,114.61 C259.699324,114.886001 258.104674,115.330664 256.694,115.944 C255.283326,116.557336 254.133338,117.431328 253.244,118.566 C252.354662,119.700672 251.91,121.249324 251.91,123.212 C251.91,124.500006 252.170664,125.588662 252.692,126.478 C253.213336,127.367338 253.887996,128.087997 254.716,128.64 C255.544004,129.192003 256.509994,129.590665 257.614,129.836 C258.718006,130.081335 259.883327,130.204 261.11,130.204 C263.686013,130.204 265.893991,129.851337 267.734,129.146 C269.574009,128.440663 271.076661,127.551339 272.242,126.478 C273.407339,125.404661 274.265997,124.23934 274.818,122.982 C275.370003,121.72466 275.646,120.544006 275.646,119.44 L275.646,111.436 Z M306.466,88.436 L306.466,74.176 L298.646,74.176 L298.646,88.436 L290.55,88.436 L290.55,95.336 L298.646,95.336 L298.646,125.604 C298.646,127.812011 298.860665,129.59066 299.29,130.94 C299.719335,132.28934 300.378662,133.331996 301.268,134.068 C302.157338,134.804004 303.322659,135.309999 304.764,135.586 C306.205341,135.862001 307.93799,136 309.962,136 L315.942,136 L315.942,129.1 L312.354,129.1 C311.127327,129.1 310.130671,129.054 309.364,128.962 C308.59733,128.87 307.999335,128.670668 307.57,128.364 C307.140665,128.057332 306.849334,127.628003 306.696,127.076 C306.542666,126.523997 306.466,125.788005 306.466,124.868 L306.466,95.336 L315.942,95.336 L315.942,88.436 L306.466,88.436 Z" id="Bat" fill="#BABABD" sketch:type="MSShapeGroup"></path>
                <path d="M193.214,98.556 L193.214,77.672 L210.694,77.672 C212.595343,77.672 214.389325,77.7793323 216.076,77.994 C217.762675,78.2086677 219.249994,78.6839963 220.538,79.42 C221.826006,80.1560037 222.837996,81.1986599 223.574,82.548 C224.310004,83.8973401 224.678,85.7373217 224.678,88.068 C224.678,91.5640175 223.589344,94.1859913 221.412,95.934 C219.234656,97.6820087 215.662025,98.556 210.694,98.556 L193.214,98.556 Z M184.474,70.312 L184.474,136 L216.214,136 C219.464683,136 222.331988,135.463339 224.816,134.39 C227.300012,133.316661 229.385325,131.906009 231.072,130.158 C232.758675,128.409991 234.031329,126.401345 234.89,124.132 C235.748671,121.862655 236.178,119.532012 236.178,117.14 C236.178,113.09198 235.104677,109.657347 232.958,106.836 C230.811323,104.014653 227.71402,102.174671 223.666,101.316 L223.666,101.132 C226.794016,99.9053272 229.201325,98.0193461 230.888,95.474 C232.574675,92.9286539 233.418,89.9080175 233.418,86.412 C233.418,83.0999834 232.666674,80.3093447 231.164,78.04 C229.661326,75.7706553 227.836677,73.9920064 225.69,72.704 C224.708662,72.0906636 223.528007,71.6306682 222.148,71.324 C220.767993,71.0173318 219.280675,70.7873341 217.686,70.634 C216.091325,70.4806659 214.481341,70.3886668 212.856,70.358 C211.230659,70.3273332 209.712674,70.312 208.302,70.312 L184.474,70.312 Z M193.214,128.64 L193.214,105.916 L213.178,105.916 C215.018009,105.916 216.796658,106.084665 218.514,106.422 C220.231342,106.759335 221.749327,107.341996 223.068,108.17 C224.386673,108.998004 225.444663,110.117326 226.242,111.528 C227.039337,112.938674 227.438,114.717323 227.438,116.864 C227.438,120.544018 226.349344,123.426656 224.172,125.512 C221.994656,127.597344 218.974019,128.64 215.11,128.64 L193.214,128.64 Z" id="Bat" fill="#666666" sketch:type="MSShapeGroup"></path>
                <path d="M242.48,300.788 L242.48,311 L252.692,311 L252.692,300.788 L242.48,300.788 Z M227.484,265.828 L235.304,265.828 C235.304,263.681323 235.549331,261.688009 236.04,259.848 C236.530669,258.007991 237.312661,256.41334 238.386,255.064 C239.459339,253.71466 240.793325,252.641337 242.388,251.844 C243.982675,251.046663 245.883989,250.648 248.092,250.648 C251.404017,250.648 254.02599,251.598657 255.958,253.5 C257.89001,255.401343 258.978665,258.03865 259.224,261.412 C259.346667,263.681345 259.07067,265.613325 258.396,267.208 C257.72133,268.802675 256.816672,270.259327 255.682,271.578 C254.547328,272.896673 253.320673,274.153994 252.002,275.35 C250.683327,276.546006 249.426006,277.849326 248.23,279.26 C247.033994,280.670674 246.022004,282.280658 245.194,284.09 C244.365996,285.899342 243.890667,288.091987 243.768,290.668 L243.768,294.992 L251.588,294.992 L251.588,291.404 C251.588,289.809325 251.817998,288.38334 252.278,287.126 C252.738002,285.86866 253.35133,284.703339 254.118,283.63 C254.88467,282.556661 255.743329,281.544671 256.694,280.594 C257.644671,279.643329 258.610662,278.708005 259.592,277.788 C260.573338,276.806662 261.539329,275.794672 262.49,274.752 C263.440671,273.709328 264.283996,272.574673 265.02,271.348 C265.756004,270.121327 266.353998,268.756674 266.814,267.254 C267.274002,265.751326 267.504,264.049343 267.504,262.148 C267.504,259.203985 267.028671,256.597345 266.078,254.328 C265.127329,252.058655 263.793342,250.142008 262.076,248.578 C260.358658,247.013992 258.319345,245.818004 255.958,244.99 C253.596655,244.161996 250.974681,243.748 248.092,243.748 C244.902651,243.748 242.020013,244.299994 239.444,245.404 C236.867987,246.508006 234.690676,248.056657 232.912,250.05 C231.133324,252.043343 229.768671,254.38932 228.818,257.088 C227.867329,259.78668 227.422666,262.699984 227.484,265.828 L227.484,265.828 Z" id="?" fill="#BABABD" sketch:type="MSShapeGroup"></path>
                <path d="M0,181 L465,181" id="Path-1" stroke="#BABABD" sketch:type="MSShapeGroup"></path>
            </g>
        </g>
    </g>
</svg>